<svg xmlns="http://www.w3.org/2000/svg" version="1.0" id="Layer_1" x="0px" y="0px" enable-background="new 0 0 1400 980" xml:space="preserve" viewBox="68 49.04 231.69 292.18">
<g>
	<path fill="#FFFFFF" d="M224.218,148.211c-0.118-0.117-0.352-0.234-0.47-0.353c-0.352-0.234-0.704-0.352-1.173-0.352   c-0.237,0-0.471,0-0.706,0.117l-0.587,0.234c-0.117,0.118-0.235,0.235-0.353,0.353c-0.234,0.117-0.352,0.235-0.469,0.469   c-0.234,0.471-0.352,1.176-0.234,1.763c0.234,0.586,0.586,1.058,1.056,1.41c0.704,0.353,1.41,0.353,2.114,0.118   c0.352-0.118,0.704-0.352,0.941-0.706c0.353-0.469,0.587-0.939,0.587-1.408C224.924,149.151,224.69,148.563,224.218,148.211   L224.218,148.211z"/>
	<path fill="#FFFFFF" d="M163.491,149.269c-0.706,0-1.292,0.353-1.762,0.822c-0.352,0.47-0.587,0.939-0.587,1.528   c0,1.173,1.057,2.231,2.349,2.231c0.704,0,1.291-0.352,1.76-0.94c0.237-0.353,0.472-0.821,0.472-1.291   C165.723,150.325,164.665,149.269,163.491,149.269L163.491,149.269z"/>
	<path fill="#B6A399" d="M235.73,92.183c-4.935,2.818-9.515,5.989-13.979,9.396c-1.526,1.173-3.054,2.349-4.581,3.642   c-1.057,0.939-2.114,1.878-3.171,2.819c-1.997,1.762-3.994,3.64-5.874,5.52c-0.234,0.237-0.469,0.471-0.704,0.706   c-0.941,0.938-1.763,1.877-2.703,2.819c-1.526,1.527-2.936,3.17-4.346,4.815c1.999-0.821,4.112-1.41,5.991-2.231   c1.058-0.353,1.997-0.704,3.056-1.173c1.407-0.589,2.936-1.176,4.346-1.763c0.587-0.352,1.291-0.589,1.879-0.94   c2.818-1.292,5.637-2.701,8.338-4.112c1.293-0.704,2.583-1.525,3.876-2.23c4.347-2.586,8.458-5.404,12.452-8.574   c3.875-4.699,10.689-8.575,10.924-15.036C245.714,87.013,240.546,89.361,235.73,92.183L235.73,92.183z"/>
	<path fill="#B6A399" d="M207.422,230.318c-0.352,1.056-0.824,1.998-1.293,2.937c4.933,3.524,10.455,6.226,16.563,6.343   c0.117,0,0.235,0,0.469,0c0.117-0.234,0.352-0.589,0.587-0.941s0.352-0.704,0.589-1.056c-5.521-3.642-10.926-7.636-16.094-11.865   C208.244,227.263,207.892,228.908,207.422,230.318L207.422,230.318z"/>
	<path fill="#B6A399" d="M181.11,199.661c-1.762,2.114-3.994,3.875-6.226,5.285c5.05,5.522,10.572,10.689,16.208,15.74   c4.229,3.759,8.458,7.753,12.922,11.159c0.587-1.291,1.058-2.466,1.41-3.875c0.234-1.411,0.234-2.821,0.352-4.346   c-5.873-4.935-11.51-10.337-17.032-15.742C186.161,205.18,183.577,202.479,181.11,199.661L181.11,199.661z"/>
	<path fill="#B6A399" d="M231.972,135.761c0,0.118,0,0.235,0,0.235c-0.704,3.875-6.109,5.167-9.279,5.754   c-2.583,0.587-5.287,1.176-7.871,1.763c-2.115,0.352-4.229,0.704-6.108,1.762c-3.757,1.997-6.46,5.52-9.749,7.988   c-3.173,2.23-7.519,4.109-11.159,2.347c-1.292,0-2.466,0-3.759-0.234c-1.41-0.47-2.701-0.939-4.111-1.644   c-2.701-1.527-5.285-3.407-7.986-4.933c-2.82-1.528-5.874-2.821-9.044-3.525c-1.646-0.352-3.172-0.469-4.818-0.469   c-1.056-0.117-2.232,0-3.288-0.353c0.352,1.292,0.704,2.466,1.056,3.641c1.528-1.528,4.347-1.763,6.344-1.056   c2.936,0.821,5.521,2.936,6.93,5.637c1.527,2.819,1.645,6.108-0.47,8.692c-1.291,1.528-3.407,2.583-5.52,2.701   c-0.354,0-0.823,0-1.293,0c2.584,5.64,5.522,11.044,8.81,16.211c0.118,0.118,0.235,0.235,0.352,0.47   c0.941,0.117,1.88,0.469,2.819,0.938c0-1.408,0.941-3.053,1.527-4.111c0.706-1.408,1.528-2.818,2.584-3.992   c1.528-2.114,3.408-3.994,5.287-5.639c3.875-3.405,8.458-6.578,13.743-7.282c1.175-0.117,2.349,0,3.405,0.117   c-1.174-1.175-2.818-1.88-4.581-1.88c-4.581,0-8.455,2.936-12.215,5.285c-0.117,0.117-0.352-0.118-0.234-0.235   c1.528-1.995,3.523-3.64,5.637-5.05c1.997-1.408,4.583-2.466,7.167-2.583c2.583-0.118,5.402,0.821,7.047,2.936   c0.939,1.176,1.646,2.349,2.349,3.643c0.117,0.352,0.352,0.821,0.469,1.173c1.176,1.176,2.232,2.821,2.936,4.464   c1.176,2.82,1.645,5.756,1.997,8.692c0.237,2.351,0.472,4.818,0.355,7.284c4.933-1.88,9.396-4.581,13.273-8.34   c4.463-4.464,7.751-9.866,9.983-15.857c1.879-4.817,2.466-9.867,1.997-14.918C235.142,142.22,233.499,139.049,231.972,135.761   L231.972,135.761z M228.329,153.615L228.329,153.615c-0.352,4.229-3.405,8.34-7.869,8.575c-4.346,0.234-9.398-3.291-9.985-7.753   c-0.469-3.173,1.175-6.343,3.994-7.637c1.058-1.056,2.701-1.877,3.994-2.112C223.866,143.63,228.801,148.211,228.329,153.615   L228.329,153.615z"/>
	<path fill="#B6A399" d="M169.128,120.608c0.353-0.472,0.824-0.941,1.293-1.293c1.645-1.645,3.288-3.407,4.815-5.167l0.117-0.117   c0.352-0.588,0.706-1.176,1.059-1.879c1.056-1.763,2.231-3.525,3.171-5.288c0.117-0.117,0.117-0.234,0.234-0.352   c0.589-1.174,1.175-2.349,1.762-3.524c1.173-2.23,2.232-4.464,3.173-6.693c2.936-6.814,5.167-14.332,4.227-21.731   c-3.992,2.349-7.282,5.637-10.335,9.279c-3.172,3.994-5.991,8.34-8.34,12.921c-1.176,2.583-2.349,5.285-3.172,7.986   c-0.47,1.175-0.822,2.349-1.174,3.525c-0.234,1.058-0.469,2.114-0.706,3.17c-0.469,2.115-0.821,4.229-0.939,6.343   c-0.117,1.293-0.234,2.466-0.352,3.759c0,1.293,0,2.584-0.117,3.995C165.488,123.779,167.368,122.251,169.128,120.608   L169.128,120.608z"/>
	<path fill="#B6A399" d="M179.583,197.898c-4.933-5.757-9.514-11.748-13.509-18.207c-2.466-3.994-4.698-8.105-6.695-12.334   c-1.41,0.939-3.055,1.527-4.463,1.997c-1.175,0.353-2.349,0.704-3.525,0.939c0.941,2.231,1.88,4.463,3.055,6.578   c2.819,5.639,6.341,10.924,10.101,16.094c2.82,3.522,5.756,7.047,8.809,10.335c1.058-0.587,1.997-1.291,2.938-2.114   C177.469,200.13,178.526,198.954,179.583,197.898L179.583,197.898z"/>
	<path fill="#B6A399" d="M157.383,166.301c0.352-0.236,0.821-0.471,1.175-0.706c-2.586-5.757-4.817-11.628-6.579-17.619   c-0.118-0.587-0.235-1.176-0.47-1.763c-0.587,0.352-1.291,0.586-1.997,0.824c-1.526,0.469-3.053,0.821-4.698,1.056   c0.823,3.642,1.762,7.282,2.818,10.923c0.94,3.291,1.88,6.461,3.055,9.514c1.292-0.234,2.584-0.586,3.759-0.939   C155.386,167.24,156.442,166.771,157.383,166.301L157.383,166.301z"/>
	<path fill="#B6A399" d="M145.637,101.813c0.469-0.234,1.056-0.469,1.526-0.704c0-3.29-0.117-6.578-0.587-9.868   c-0.117-1.528-0.47-3.053-0.704-4.581c-0.118-0.469-0.352-0.938-0.469-1.528c-1.88,5.287-3.407,10.689-4.229,16.329   c0,0.117,0,0.234,0,0.234c0.47,0.235,0.939,0.235,1.526,0.353C143.64,102.048,144.697,102.048,145.637,101.813L145.637,101.813z"/>
	<path fill="#B6A399" d="M145.754,125.659c0.587-0.117,1.174-0.235,1.761-0.47c-0.469-4.7-0.586-9.516-0.586-14.331   c0.117-2.466,0.117-4.933,0.117-7.399c-1.88,0.704-4.112,0.586-6.107,0c-0.706,5.285-0.823,10.689-0.471,16.092   c0.117,2.114,0.234,4.229,0.471,6.46c0.117,0,0.352,0,0.47,0C142.817,126.128,144.344,126.011,145.754,125.659L145.754,125.659z"/>
	<path fill="#B6A399" d="M151.04,144.336c-1.173-4.7-2.114-9.516-2.818-14.331c-0.235-0.941-0.352-1.879-0.469-2.818   c-0.706,0.234-1.528,0.352-2.115,0.469c-1.527,0.234-2.938,0.234-4.464,0.117c0.705,6.226,1.761,12.334,3.171,18.323   c1.879-0.117,3.642-0.586,5.405-1.291C150.218,144.688,150.57,144.453,151.04,144.336L151.04,144.336z"/>
	<path fill="#A48C82" d="M282.246,230.788c-0.352-1.293-0.939-2.701-1.293-3.995c-1.29-0.234-2.466-0.469-3.639-0.821   c-5.287-1.41-10.69-3.408-15.388-6.343c-7.519-4.815-12.687-12.1-15.153-20.675c-1.293-4.581-1.879-9.279-2.231-13.977   c-0.235-1.997-0.235-3.877-0.354-5.874c-2.584,3.29-6.107,5.991-9.631,8.223c-4.581,2.818-9.514,5.404-14.682,7.399   c-6.346,2.468-13.039,4.229-19.853,5.052c-3.288,0.352-6.696,0.352-9.983-0.117c-1.763-0.354-3.407-0.824-5.05-1.293   c-0.117-0.117-0.234-0.117-0.354-0.117c3.055,3.407,6.225,6.578,9.398,9.866c3.877,3.759,7.752,7.401,11.863,10.926   c0.47-0.117,0.941-0.237,1.411-0.354c1.173-0.352,2.349-0.821,3.522-1.291c2.115-0.824,4.229-1.645,6.227-2.818   c1.997-1.058,3.759-2.117,5.285-3.759c1.645-1.646,2.821-3.642,4.111-5.521c0.235-0.353,0.824-0.118,0.707,0.352   c-0.589,2.231-1.88,4.229-3.408,6.108c-1.41,1.763-3.17,3.643-4.933,5.051c-2.115,1.527-4.346,2.703-6.578,3.759   c-0.822,0.352-1.88,0.821-2.937,1.292c5.52,4.463,11.159,8.81,16.914,12.921c0.117,0,0.117-0.117,0.234-0.117   c0.117-0.12,0.235-0.237,0.354-0.237c1.174-1.761,3.054-3.288,4.581-4.347c2.231-1.525,5.05-2.583,7.751-2.466   c3.056,0.12,5.874,1.176,8.458,2.703c0.352-0.237,0.704-0.471,0.939-0.706c0.588-0.587,1.176-1.291,1.527-1.997   c0.235-0.352,0.941-0.234,0.823,0.237c-0.117,1.056-0.354,1.877-0.94,2.818c-0.234,0.234-0.352,0.469-0.586,0.704   c0.938,0.707,1.879,1.411,2.818,2.232c3.172,2.818,5.874,6.108,9.044,8.81c2.938,2.467,6.226,4.111,9.985,3.642   c2.467-0.234,4.815-1.058,6.93-2.349c0.117-0.354,0.235-0.588,0.352-0.94c0.47-0.939,1.528-1.057,2.349-0.822   c0.589-0.352,1.059-0.821,1.646-1.175c0.234-1.408,0.469-2.818,0.469-4.227C282.95,234.665,282.715,232.667,282.246,230.788   L282.246,230.788z"/>
	<path fill="#A48C82" d="M182.284,195.432c0.823,0.234,1.645,0.469,2.469,0.586c3.17,0.821,6.81,0.586,10.101,0.352   c3.29-0.234,6.578-0.704,9.866-1.292c6.58-1.291,13.038-3.406,19.029-6.341c7.282-3.407,15.857-7.636,20.32-14.684   c-0.117-1.997-0.234-3.994-0.469-5.991c-0.704-5.52-2.349-10.924-4.229-16.209c-0.353-0.706-0.587-1.527-0.939-2.231   c-0.586-1.41-1.175-2.821-1.879-4.229c0.47,5.051-0.117,10.101-1.997,14.918c-2.232,5.991-5.52,11.394-9.983,15.857   c-3.877,3.759-8.34,6.46-13.273,8.34c0.117-2.466-0.118-4.933-0.355-7.284c-0.352-2.936-0.821-5.872-1.997-8.692   c-0.704-1.643-1.76-3.288-2.936-4.464c0.353,0.824,0.587,1.646,0.235,2.469c-0.235,0.587-0.704,1.056-1.291,0.822   c-0.237-0.118-0.471-0.235-0.706-0.352c-0.47-0.235-0.822-0.705-1.057-1.059c-0.94-1.291-1.41-3.053-2.115-4.229   c-0.234-0.352-0.469-0.586-0.706-0.938c-1.056-0.117-2.23-0.234-3.405-0.117c-5.285,0.704-9.868,3.877-13.743,7.282   c-1.879,1.645-3.759,3.524-5.287,5.639c-1.056,1.174-1.878,2.584-2.584,3.992c-0.586,1.058-1.527,2.703-1.527,4.111   c-0.939-0.469-1.878-0.821-2.819-0.938c1.176,1.762,2.349,3.407,3.525,5.05C177,189.206,179.583,192.376,182.284,195.432   L182.284,195.432z"/>
	<path fill="#A48C82" d="M206.129,233.254c-0.469,0.821-0.938,1.645-1.41,2.349c-0.234,0.234-0.469,0.469-0.587,0.704   c-5.637,7.167-14.446,11.276-23.256,12.569c-6.108,0.824-13.273,0.705-19.264-1.645c0.821,1.175,1.527,2.232,2.349,3.407   c0.821,0.704,1.645,1.525,2.466,2.232c4.111,3.64,8.692,7.282,13.743,9.514c5.756,2.701,12.217,2.349,17.973-0.352   c5.989-2.701,11.394-6.93,15.975-11.394c2.466-2.349,4.698-4.933,6.695-7.636l0,0c0.822-1.056,1.526-2.231,2.349-3.405   c-0.234,0-0.352,0-0.469,0C216.584,239.48,211.062,236.778,206.129,233.254L206.129,233.254z"/>
	<path fill="#A48C82" d="M187.806,244.647c4.229-1.645,8.458-3.876,11.746-7.047c0.94-0.822,1.762-1.762,2.466-2.701   c0.589-0.707,1.175-1.527,1.645-2.349c0.118-0.234,0.235-0.469,0.353-0.706c-4.463-3.405-8.692-7.399-12.922-11.159   c-5.637-5.05-11.158-10.218-16.208-15.74c-0.704,0.47-1.411,0.824-1.997,1.176c-0.469,0.234-0.939,0.352-1.291,0.586   c-3.055,1.409-6.226,2.349-9.515,2.702c-3.76,0.352-7.752,0.117-11.394-0.822c-2.466-0.706-4.698-1.645-6.813-2.938   c1.174,4.935,2.584,9.75,4.229,14.448c1.88,5.637,4.229,10.924,6.93,16.092c0.469,0.706,0.821,1.41,1.174,2.232   c1.058,1.997,2.233,3.876,3.525,5.874c0.234,0.118,0.469,0.235,0.704,0.352C168.894,248.524,179.231,247.701,187.806,244.647   L187.806,244.647z"/>
	<path fill="#A48C82" d="M147.752,170.648c-3.759,0.117-7.284-0.589-10.572-2.469c0.469,4.111,1.056,8.105,1.76,12.1   c1.293,7.988,2.703,16.091,4.583,23.962c5.52,2.819,12.215,3.875,18.206,3.053c2.819-0.234,5.757-1.056,8.34-2.232   c0.586-0.234,1.174-0.586,1.645-0.821c0.587-0.235,1.056-0.589,1.643-0.941c-3.053-3.288-5.989-6.813-8.809-10.335   c-3.76-5.169-7.282-10.455-10.101-16.094c-1.175-2.114-2.114-4.346-3.055-6.578c-1.056,0.234-2.114,0.354-3.17,0.354   C148.104,170.648,147.986,170.648,147.752,170.648L147.752,170.648z"/>
	<path fill="#A48C82" d="M141.173,101.461c0.822-5.639,2.35-11.042,4.229-16.329c-0.118-0.586-0.237-1.173-0.237-1.877   c-2.466,3.053-4.11,6.576-5.167,10.335c-0.705,2.349-1.176,4.581-1.646,6.932c0.941,0.587,1.763,0.939,2.82,1.173   C141.173,101.696,141.173,101.579,141.173,101.461L141.173,101.461z"/>
	<path fill="#A48C82" d="M143.523,148.211c-0.706,0-1.41,0-2.114-0.117c-2.115-0.117-4.229-0.587-6.108-1.528   c0.234,6.815,0.938,13.627,1.763,20.44c3.053,1.408,6.694,1.997,10.1,1.879c0.352,0,0.706,0,1.058,0   c0.821-0.12,1.645-0.237,2.466-0.354c-1.175-3.053-2.115-6.224-3.055-9.514c-1.056-3.641-1.995-7.282-2.818-10.923   C144.344,148.094,143.875,148.211,143.523,148.211L143.523,148.211z"/>
	<path fill="#A48C82" d="M138.705,145.745c0.824,0.234,1.528,0.352,2.234,0.469c1.057,0,2.23,0.117,3.288,0   c0-0.118,0.117-0.118,0.117-0.118c-1.41-5.989-2.466-12.098-3.171-18.323c-0.234,0-0.471,0-0.588-0.117   c-0.938-0.118-1.88-0.352-2.818-0.705c-0.939-0.354-1.763-0.823-2.466-1.292c-0.235,2.818-0.235,5.756-0.235,8.692   c-0.117,3.405,0,6.696,0.117,9.985C136.356,144.923,137.415,145.51,138.705,145.745L138.705,145.745z"/>
	<path fill="#A48C82" d="M140.939,126.011c-0.237-2.232-0.354-4.347-0.471-6.46c-0.352-5.403-0.235-10.807,0.471-16.092   c-1.058-0.234-1.999-0.707-2.938-1.293c0,0.235,0,0.469-0.117,0.705c-0.469,2.82-0.821,5.639-1.173,8.34   c-0.589,4.229-1.059,8.34-1.293,12.569c0.704,0.469,1.41,0.939,2.115,1.293C138.588,125.542,139.764,125.894,140.939,126.011   L140.939,126.011z"/>
	<path fill="#A48C82" d="M139.881,202.596c-0.705-2.818-1.293-5.756-1.88-8.575c-0.234,3.877-0.938,7.753-2.349,11.394   c-3.994,11.275-13.038,19.968-23.375,25.607c-4.112,2.232-8.576,4.111-13.156,5.285c0.235,0.354,0.472,0.707,0.707,1.058   c0.704,1.291,1.173,2.937,1.056,4.581c4.581-0.117,9.162-0.939,13.273-2.702c5.639-2.349,10.689-5.639,16.328-7.871   c1.763-0.704,3.523-1.293,5.285-1.645c-0.235-0.235-0.469-0.587-0.704-0.939c-0.824-0.821-1.293-1.998-1.88-3.055   c-0.117-0.234,0.234-0.352,0.352-0.234c0.704,1.058,1.645,1.879,2.583,2.82c0.353,0.352,0.707,0.821,1.176,1.173   c3.288-0.587,6.695-0.47,9.983,0.823c0.706,0.235,1.292,0.587,1.997,0.939c-4.229-8.927-7.047-18.323-9.279-27.957   C139.999,203.066,139.881,202.832,139.881,202.596L139.881,202.596z"/>
	<path fill="#6C4C46" d="M294.463,229.847c-0.12,0.234-0.12,0.353-0.237,0.589c-0.353,4.346-3.992,8.337-7.047,11.275   c-0.939,0.821-1.88,1.763-2.936,2.584c-0.235,0.469-0.589,0.704-1.059,0.941c-0.117,0-0.117,0-0.117,0   c-0.586,0.352-1.056,0.704-1.643,1.056c-1.879,1.173-3.76,2.232-5.874,2.936c-0.706,0.235-1.41,0.471-2.115,0.589   c-4.463,0.821-8.692,0-12.334-2.469c-3.522-2.466-6.343-5.637-9.396-8.692c-2.936-2.936-6.343-5.754-10.572-6.813   c-2.584-0.587-5.051-0.118-7.282,1.176c-1.293,0.821-2.232,1.645-3.29,2.701c-0.821,0.586-1.525,1.293-2.349,1.879   c-0.352,0.822-0.821,1.645-1.408,2.466c-0.588,1.176-1.41,2.232-2.114,3.408c-1.646,2.232-3.408,4.463-5.287,6.578   c-3.758,4.111-7.986,7.752-12.45,10.805c-5.169,3.642-11.161,6.58-17.502,6.814c-6.344,0.235-11.865-2.351-17.033-5.874   c-4.815-3.288-9.396-6.93-13.156-11.393c-1.879-2.115-3.642-4.347-4.933-6.93c-0.588-1.176-1.058-2.349-1.41-3.525   c-1.176-1.762-2.466-3.525-4.347-4.698c-3.053-1.879-6.577-2.466-9.985-2.114c-5.754,0.704-11.041,3.759-16.091,6.343   c-5.285,2.701-10.572,4.933-16.562,5.402c-2.234,0.234-4.583,0.234-6.814,0.117v-0.704c-0.704,0-1.291-0.587-1.291-1.41   c0-0.353,0-0.704,0-1.056c0-1.176,0-2.232-0.704-3.29c-0.354-0.586-0.824-1.056-1.293-1.643c-2.936,0.469-5.639,0.704-8.575,0.587   c-0.704,0-1.293,0-1.997,0c-0.704-0.118-1.292-0.235-1.997-0.352c0,0.117,0.117,0.234,0.117,0.234   c0.117,0.352-0.352,0.705-0.586,0.587c-0.235,0-0.469-0.118-0.705-0.118c-2.231-0.939-3.876-3.524-4.935-5.754   c-0.352-0.589-0.587-1.058-0.704-1.527c-0.47-1.059-0.939-1.998-1.291-3.056c-0.119-0.469-0.236-0.939-0.471-1.408   c-0.587,1.408-1.057,2.818-1.526,4.347c-1.88,6.108-2.115,12.449-1.41,18.792c0.939,1.293,1.879,2.466,2.936,3.525   c1.762,1.645,3.642,3.053,5.756,4.111c0.469,0.117,0.821,0.352,1.291,0.586c1.411,0.47,2.703,0.939,4.111,1.293   c2.703,0.587,5.521,0.822,8.223,0.822c9.396,0,18.558-2.35,27.604-4.699c4.109-1.058,8.104-1.997,12.333-2.703   c2.231-0.352,4.581-0.821,6.812-0.352c2.586,0.706,4.583,2.351,6.109,4.463c0.234,0.354,0.234,0.707,0,0.941   c0.823,0.939,1.644,1.997,2.466,2.937c1.292,1.762,2.584,3.407,3.994,4.933c2.701,3.172,5.756,5.991,9.162,8.223   c11.276,7.401,25.138,7.871,37.705,4.229c6.226-1.879,12.1-4.346,17.502-7.988c2.586-1.76,5.17-3.64,7.519-5.754   c1.173-1.058,2.466-2.232,3.642-3.407h0.117c-0.117-0.117,0-0.234,0-0.353c3.053-4.229,6.93-7.871,10.218-11.862   c0.352-0.471,0.94-0.471,1.292-0.235c3.641,2.35,7.282,4.463,10.924,6.578c1.879,1.173,3.759,2.349,5.52,3.522   c0.352,0.235,0.706,0.471,1.175,0.706h0.117c1.88,0.234,3.523,1.291,5.286,1.76c1.645,0.472,3.29,0.823,5.052,0.941l0,0   c1.76,0,3.523,0,5.285-0.235c1.645-0.234,3.29-0.588,4.933-1.176c6.695-2.231,12.099-6.46,17.032-11.276   c0.118-0.469,0.118-1.058,0.118-1.527C295.988,241.477,295.284,235.604,294.463,229.847L294.463,229.847z"/>
	<path fill="#6C4C46" d="M229.505,128.36c0.938,1.175,1.879,2.466,2.583,3.877l0,0c1.997,2.701,3.759,5.519,5.404,8.458   c1.174,1.879,2.23,3.876,3.17,5.871c2.584,5.17,4.698,10.69,5.874,16.329c0.47,2.349,0.822,4.815,1.056,7.282   c0.704,7.399,0.586,14.801,1.88,22.2c1.527,8.458,4.933,16.446,11.863,21.848c4.111,3.29,9.044,5.405,13.979,7.047   c3.053,0.941,6.226,1.88,9.397,1.88c3.17,0.117,5.991-0.705,8.81-2.35c0-0.704,0-1.408-0.118-2.231c0-1.88-0.234-3.757-0.469-5.755   c-5.521,1.763-12.569-1.175-17.033-4.346c-4.463-3.055-7.871-7.167-10.103-12.1c-4.346-9.514-4.58-20.085-5.637-30.423   c-0.821-6.813-2.114-13.273-4.112-19.733c-1.056-3.288-2.231-6.46-3.524-9.514c-0.822-1.997-1.878-3.876-2.818-5.874   c-0.118-0.117-0.235-0.352-0.47-0.47c-1.645-1.879-3.408-3.642-4.933-5.521c-1.762-1.173-3.407-2.583-5.052-3.757   c-2.819-2.114-5.873-4.229-8.927-6.108c-0.821-0.47-1.644-0.939-2.467-1.41c-3.288,1.88-6.578,3.642-9.985,5.169   c1.762,1.056,3.407,2.115,5.052,3.405C225.394,123.896,227.625,126.011,229.505,128.36L229.505,128.36z"/>
	<path fill="#6C4C46" d="M291.29,231.14c0.234-0.94,0.704-1.762,1.056-2.584c0.354-0.941,0.588-1.88,0.823-2.82   c0-0.117,0.117-0.234,0.117-0.352c-2.936,1.41-6.225,1.879-9.633,1.762c0.471,0.824,0.707,1.762,0.941,2.584   c0.587,1.762,0.938,3.525,1.056,5.287c0,0.939,0,1.998,0,2.937C287.765,235.838,289.645,233.606,291.29,231.14L291.29,231.14z"/>
	<path fill="#6C4C46" d="M279.073,262.384c-2.231,0.706-4.581,1.175-6.93,1.293c-1.409,0.117-2.818,0.117-4.229,0   c-0.234,0-0.586,0-0.821-0.118c-2.114,2.936-4.346,5.637-6.93,8.223c-8.692,8.576-19.968,14.447-31.127,19.38   c-23.493,10.455-50.509,15.625-75.999,10.337c-11.159-2.231-21.73-6.812-31.716-12.215c-9.631-5.169-18.558-11.512-26.192-19.264   c-2.938-2.818-5.521-5.874-7.871-9.281c-1.411-0.235-2.819-0.586-4.111-1.056c-1.998-0.587-3.76-1.41-5.52-2.584   c-1.998-1.293-3.877-3.053-5.404-4.935c0.94,5.757,2.701,11.396,4.698,16.681c4.229,11.276,9.633,21.965,17.15,31.362   c7.401,9.281,16.446,17.267,26.781,23.141c5.991,3.288,12.334,5.991,18.795,8.223c3.522,1.174,6.93,2.232,10.455,3.17   c3.522,1.059,7.047,1.88,10.452,3.291c0.117,0,0.117,0,0.117,0c1.88,0,3.642,0,5.522,0c3.525-0.117,7.165-0.235,10.689-0.352   c6.813-0.354,13.742-0.824,20.555-1.763c14.214-1.997,27.839-5.756,40.76-12.217c11.98-5.874,23.256-13.625,32.655-23.139   c9.044-9.282,16.913-20.086,21.259-32.303c1.998-5.521,3.29-11.159,3.642-16.915C291.643,256.51,285.416,260.504,279.073,262.384   L279.073,262.384z"/>
	<path fill="#6C4C46" d="M196.968,112.033c0.704-2.114,1.527-4.111,2.584-6.108c-3.406-0.117-6.813-0.117-10.101,0   c-1.293,0-2.468,0.118-3.76,0.118c-0.704,1.173-1.527,2.232-2.349,3.29c-0.469,0.587-0.94,1.174-1.41,1.761   c-0.118,0.469-0.118,1.058-0.118,1.645c0.705-0.117,1.411-0.234,2.115-0.352C188.275,111.796,192.622,111.562,196.968,112.033   L196.968,112.033z"/>
	<path fill="#6C4C46" d="M152.685,123.31c1.174-0.704,2.349-1.293,3.405-1.88c1.059-0.469,1.997-0.94,2.938-1.41   c0-0.117,0-0.117,0-0.235c-0.353-2.583-0.47-5.285-0.353-7.869c0-0.706,0-1.292,0.118-1.879c-0.118,0-0.118,0-0.235,0   c-2.703,0.822-5.287,1.997-7.988,3.054c0,3.759,0.234,7.399,0.586,11.158C151.626,123.896,152.215,123.544,152.685,123.31   L152.685,123.31z"/>
	<path fill="#6C4C46" d="M77.39,224.444c0,0.118,0,0.235,0,0.352c0.471,1.645,1.058,3.173,1.645,4.698   c0.352,0.823,0.824,1.762,1.293,2.703c0.117,0,0.117,0.118,0.234,0.118c0.352,0.587,0.822,1.173,1.291,1.76   c0.472,0.117,1.058,0.235,1.527,0.353c1.058,0.117,2.115-0.117,3.173-0.117c1.997-0.118,3.992-0.235,5.989-0.587   c3.876-0.586,7.753-1.643,11.513-3.053c10.335-4.112,20.32-11.628,25.723-21.497c3.407-5.991,4.698-12.921,4.698-19.851   c0-3.642-0.235-7.164-0.587-10.689c-0.352-3.522-1.056-7.282-0.704-10.806c0.117-0.235,0.117-0.47,0.352-0.587   c-0.352-2.938-0.704-5.991-1.056-8.927c-0.472-4.698-0.824-9.396-0.941-14.214c-0.117-2.114-0.117-4.346-0.234-6.46   c-1.056,2.703-2.232,5.405-3.054,8.34c-1.175,4.229-1.997,8.575-2.703,12.921c-1.291,8.458-1.877,16.916-3.288,25.373   c-1.763,10.101-4.698,20.908-11.746,28.779c-3.525,3.992-8.223,6.93-13.273,8.574c-6.58,2.232-13.156,2.349-19.97,2.115   C77.273,223.975,77.273,224.209,77.39,224.444L77.39,224.444L77.39,224.444z"/>
	<path fill="#7C5D55" d="M292.463,209.644c-0.939-5.637-2.701-11.159-4.698-16.561c-5.167-13.508-12.45-26.077-20.203-38.177   c-3.64-5.755-7.517-11.394-11.628-16.678c-0.704-0.941-1.41-1.763-2.114-2.584c1.41,2.701,2.583,5.402,3.642,8.103   c2.114,5.757,3.64,11.746,4.698,17.737c1.762,10.572,1.29,21.496,5.167,31.716c1.88,4.698,4.698,8.927,8.574,11.98   c2.467,1.88,5.168,3.407,8.106,4.346c1.643,0.586,3.523,1.058,5.285,1.058c1.175,0,2.231-0.235,3.29-0.472   C292.583,209.996,292.463,209.878,292.463,209.644L292.463,209.644z"/>
	<path fill="#7C5D55" d="M257.813,260.153c-0.706-0.353-1.293-0.705-1.997-1.057c-1.762-1.175-3.759-2.114-5.639-3.055   c-3.406-1.761-6.696-3.64-9.983-5.637c-2.232,2.701-4.581,5.52-7.401,7.751c-0.586,0.941-1.056,1.879-1.762,2.821   c-0.822,0.939-1.643,1.88-2.584,2.818c-1.643,1.763-3.405,3.288-5.285,4.815c-3.759,2.936-7.753,5.52-12.1,7.519   c-11.627,5.402-25.136,8.104-37.588,4.933c-6.342-1.762-12.332-4.815-17.267-9.279c-2.349-2.233-4.698-4.7-6.695-7.284   c-1.057-1.291-2.114-2.701-2.936-4.111c-0.822-1.291-1.645-2.466-2.114-3.995c-1.763-1.525-3.523-2.818-6.109-2.701   c-2.466,0.117-4.933,0.588-7.399,1.175c-4.581,0.939-9.162,2.115-13.742,3.171c-8.928,2.115-18.444,4.229-27.604,3.055   c-0.822,0-1.528-0.117-2.35-0.354c2.35,3.407,4.933,6.462,7.871,9.281c7.634,7.752,16.561,14.095,26.192,19.264   c9.985,5.403,20.557,9.984,31.716,12.215c25.49,5.288,52.506,0.118,75.999-10.337c11.159-4.933,22.435-10.804,31.127-19.38   c2.584-2.585,4.816-5.287,6.93-8.223c-1.528-0.117-3.053-0.469-4.463-0.94C260.984,262.149,258.987,261.563,257.813,260.153   L257.813,260.153z"/>
	<path fill="#7C5D55" d="M202.372,116.497c0.938-0.94,1.76-1.997,2.701-2.938c1.997-2.115,4.111-4.227,6.226-6.106   c1.056-1.059,2.229-1.998,3.288-2.938c1.997-1.763,3.993-3.405,6.108-4.933c4.581-3.523,9.396-6.93,14.447-9.751   c5.287-3.053,10.806-5.52,16.916-6.576c0.821-0.117,1.41,0.352,1.527,1.173c0.118,1.411,0,2.938-0.469,4.346   c1.88-2.114,3.641-4.229,5.167-6.578c1.88-2.466,3.523-5.05,5.05-7.634c1.059-1.88,1.997-3.759,3.056-5.522   c-2.584,1.059-5.287,1.763-7.871,2.584c-3.053,0.824-6.108,1.646-9.161,2.466c-4.346,1.176-8.693,2.821-12.804,4.701   c-9.631,4.346-18.795,10.335-26.077,18.088c-1.88,1.88-3.522,3.877-5.05,5.99c-0.706,1.175-1.41,2.233-2.115,3.407   c-0.586,0.939-1.175,2.115-1.645,3.172c-0.47,0.939-0.938,1.995-1.292,3.054c-0.469,1.175-0.821,2.349-1.174,3.522   c-0.704,2.234-1.173,4.583-1.527,6.932l0,0C199.082,120.726,200.727,118.611,202.372,116.497L202.372,116.497z"/>
	<path fill="#7C5D55" d="M154.447,143.278c0.353,0.118,0.47,0.587,0.353,0.938c0,0-0.117,0-0.117,0.12l0.117,0.117   c1.056,0.353,2.232,0.235,3.288,0.353c1.646,0,3.172,0.117,4.818,0.469c3.17,0.704,6.224,1.997,9.044,3.525   c2.702,1.525,5.286,3.405,7.986,4.933c1.411,0.705,2.701,1.174,4.111,1.644c1.293,0.234,2.467,0.234,3.759,0.234   c3.64,1.762,7.986-0.117,11.159-2.347c3.288-2.468,5.991-5.991,9.749-7.988c1.879-1.059,3.994-1.41,6.108-1.762   c2.584-0.587,5.287-1.176,7.871-1.763c3.17-0.586,8.575-1.879,9.279-5.754c0,0,0-0.117,0-0.235   c-0.117-0.354-0.353-0.824-0.47-1.175c-0.353-0.353-0.706-0.822-1.058-1.176c-0.235-0.235-0.469-0.469-0.704-0.822   c-0.939-1.056-1.88-2.114-2.818-3.171c-3.76-3.642-8.105-6.695-12.921-8.928c-2.349,0.94-4.698,1.999-7.047,2.82   c-3.525,1.291-7.049,2.584-10.807,3.053c-1.175,0.117-1.527-1.528-0.706-2.232c0-0.117-0.117-0.235-0.117-0.352   c-0.235-2.818,0-5.52,0.586-8.105c-1.408-0.117-2.818-0.234-4.227-0.234c-2.466,0.117-4.935,0.234-7.401,0.586   c-0.705,0.117-1.408,0.237-2.114,0.354c-1.997,0.352-3.995,0.705-6.107,1.291c-1.645,1.645-3.29,3.29-5.052,4.817   c-2.231,1.996-4.698,4.227-7.399,5.402c-0.234,0.118-0.469,0.118-0.586,0c-0.589,0.353-1.293,0.235-1.645-0.352   c-0.824-1.175-1.293-2.703-1.645-4.229c-1.057,0.469-1.998,0.938-2.937,1.408c-0.588,0.471-1.175,0.941-1.762,1.41   c-0.821,0.586-1.762,1.41-2.349,2.232c-0.352,0.469-0.588,0.938-0.941,1.41c0.589,3.64,1.176,7.399,2.115,11.042   C154.095,141.633,154.212,142.454,154.447,143.278L154.447,143.278z"/>
	<path fill="#7C5D55" d="M181.814,112.737c0-0.586,0-1.176,0.118-1.645c-0.587,0.586-1.057,1.292-1.646,1.88   C180.876,112.854,181.346,112.854,181.814,112.737L181.814,112.737z"/>
	<path fill="#7C5D55" d="M161.846,118.729c0.118,0,0.118,0,0.235,0c0.117-2.703,0.586-5.287,1.175-7.871   c0.118-0.704,0.352-1.409,0.469-2.115c0.353-1.173,0.705-2.466,1.057-3.64c1.058-3.173,2.232-6.343,3.759-9.398   c2.349-4.815,5.285-9.514,8.81-13.743c3.407-3.994,7.165-7.634,11.865-10.22c0.587-0.234,1.525,0,1.643,0.707   c1.528,8.221-0.235,16.326-3.522,23.845c-0.707,1.643-1.411,3.17-2.115,4.698c2.115-3.408,3.994-6.932,5.52-10.572   c2.466-5.521,4.346-11.511,5.404-17.502c0.47-3.29,0.705-6.578,0.705-9.868c0-1.995,0-3.994-0.118-5.872   c-0.117-1.292-0.352-2.468-0.352-3.642c-0.941,0.821-1.997,1.527-2.938,2.349c-1.879,1.527-3.756,3.17-5.637,4.933   c-8.927,8.574-16.328,19.029-21.026,30.54c-1.879,4.581-3.405,9.398-4.346,14.332c-0.234,1.173-0.352,2.349-0.469,3.524v0.117   c-0.352,3.053-0.352,5.989-0.118,9.045C161.846,118.494,161.846,118.611,161.846,118.729L161.846,118.729z"/>
	<path fill="#7C5D55" d="M113.452,205.298c5.64-9.984,7.047-21.849,8.458-33.007c0.821-6.812,1.527-13.742,2.936-20.438   c0.704-3.407,1.645-6.695,2.818-9.985c1.058-2.818,2.115-5.871,3.759-8.457c0-4.464,0.235-8.81,0.587-13.156   c-1.174,0.707-2.349,1.293-3.523,1.998c-1.762,0.941-3.642,2.114-5.404,3.172c-3.405,2.232-6.813,4.698-9.866,7.399   c-5.756,5.051-10.807,10.924-15.153,17.384c-7.519,10.807-13.038,22.905-16.916,35.356c-2.231,6.93-3.994,14.097-4.581,21.261   c-0.353,3.643-0.47,7.282-0.117,10.924c0,1.293,0.234,2.466,0.352,3.759c8.105,0.235,16.328,0.117,23.728-3.642   C106.052,215.048,110.399,210.702,113.452,205.298L113.452,205.298z"/>
	<path fill="#351B10" d="M220.46,162.19c4.464-0.235,7.517-4.347,7.869-8.575c0.472-5.404-4.463-9.985-9.866-8.927   c-1.292,0.234-2.936,1.056-3.994,2.112c-2.819,1.293-4.463,4.464-3.994,7.637C211.062,158.9,216.114,162.425,220.46,162.19   L220.46,162.19z M220.46,148.68L220.46,148.68c0.118-0.234,0.235-0.352,0.469-0.469c0.117-0.117,0.235-0.234,0.353-0.353   l0.587-0.234c0.235-0.117,0.469-0.117,0.706-0.117c0.469,0,0.821,0.117,1.173,0.352c0.118,0.118,0.352,0.235,0.47,0.353   c0.472,0.352,0.706,0.94,0.706,1.645c0,0.469-0.234,0.939-0.587,1.408c-0.237,0.354-0.589,0.588-0.941,0.706   c-0.704,0.235-1.41,0.235-2.114-0.118c-0.47-0.352-0.822-0.823-1.056-1.41C220.109,149.856,220.226,149.151,220.46,148.68   L220.46,148.68z"/>
	<path fill="#351B10" d="M183.577,164.185c3.76-2.35,7.635-5.285,12.215-5.285c1.763,0,3.407,0.705,4.581,1.88   c0.236,0.352,0.471,0.587,0.706,0.938c0.705,1.176,1.174,2.938,2.115,4.229c0.234,0.354,0.587,0.823,1.057,1.059   c0.235,0.117,0.469,0.234,0.706,0.352c0.586,0.234,1.056-0.235,1.291-0.822c0.352-0.823,0.118-1.645-0.235-2.469   c-0.117-0.352-0.352-0.821-0.469-1.173c-0.704-1.293-1.41-2.466-2.349-3.643c-1.645-2.114-4.464-3.053-7.047-2.936   c-2.584,0.117-5.17,1.175-7.167,2.583c-2.114,1.41-4.109,3.055-5.637,5.05C183.225,164.067,183.459,164.302,183.577,164.185   L183.577,164.185z"/>
	<path fill="#351B10" d="M296.81,224.796c0.471-2.701,0.237-5.754,0.117-8.458c0-1.997-0.235-3.877-0.47-5.872   c-0.235-1.763-0.469-3.643-0.822-5.405c-1.527-7.047-3.876-13.86-6.695-20.555c-5.64-13.156-13.273-25.491-21.261-37.236   c-3.405-4.935-6.93-9.633-10.807-14.097c-2.232-2.466-4.581-5.05-7.165-7.282c0-0.118,0-0.235-0.118-0.235   c-1.645-3.053-5.05-5.169-7.751-7.165c-2.938-2.232-5.874-4.229-8.929-6.226c-0.586-0.235-1.056-0.589-1.525-0.824   c0.352-0.234,0.704-0.469,1.056-0.704c10.337-6.696,19.734-15.036,27.135-24.784c2.113-2.818,4.109-5.874,5.754-8.927   c1.763-3.055,3.29-6.226,3.995-9.75c0-0.235,0-0.47-0.117-0.587c-0.118-0.704-0.47-1.173-1.176-1.056   c-3.757,0.47-7.399,1.526-10.923,2.466c-3.171,0.822-6.459,1.646-9.631,2.584c-4.816,1.408-9.631,3.288-14.212,5.52   c-9.75,4.581-18.912,10.807-26.076,18.795c-1.998,2.349-3.995,4.815-5.64,7.517c-3.171-0.117-6.46-0.235-9.63-0.117   c-1.176,0-2.467,0.117-3.76,0.117c0.235-0.469,0.587-0.939,0.822-1.408c6.578-10.689,10.924-22.906,11.394-35.356   c0.119-2.468,0.119-4.817-0.118-7.284c-0.234-2.231-0.469-4.815-1.995-6.461c0.235-0.352,0.587-0.704,0.822-1.173   c0.587-0.941-0.353-1.997-1.293-1.763c-1.643,0.469-2.936,1.646-4.227,2.584c-1.527,1.175-2.938,2.349-4.229,3.524   c-2.703,2.232-5.169,4.699-7.519,7.165c-4.111,4.463-7.753,9.279-11.041,14.448c-5.639,8.928-10.103,19.146-11.628,29.717   c-2.938,0.941-5.874,1.997-8.575,3.524c0.117-7.049,0.352-14.096-0.704-21.144c-0.236-1.762-0.706-3.405-1.176-5.05   c-0.235-1.176-0.118-2.35-0.235-3.525c0-1.174-0.704-2.114-1.879-2.349c-0.587,0-1.173,0.235-1.645,0.589l0,0   c-0.234,0.117-0.469,0.235-0.704,0.469c-4.346,3.757-6.695,9.397-8.106,14.916c-1.644,5.991-2.466,12.1-3.288,18.208   c-0.117,1.291-0.352,2.584-0.469,3.992c-3.173,1.059-6.109,3.055-9.047,4.818c-2.936,1.762-5.871,3.757-8.689,5.874   c-5.405,4.11-10.103,8.927-14.332,14.095c-8.458,10.335-14.801,22.083-19.5,34.535c-3.17,8.34-5.756,17.15-6.93,26.077   c-0.704,4.698-0.94,9.396-0.586,13.978c0.117,1.762,0.352,3.524,0.705,5.285c-0.118,0.118-0.118,0.118-0.118,0.235   c0,0,0,0.117-0.117,0.117c-3.759,5.287-5.287,12.334-5.639,18.795c-0.469,6.578,0.586,13.273,2.232,19.617   c1.645,6.226,3.876,12.216,6.46,18.089c2.349,5.521,5.169,10.806,8.34,15.858c6.46,10.101,14.566,19.027,24.08,26.192   c10.807,8.105,23.141,13.039,35.943,16.563c3.172,0.939,6.343,1.763,9.633,2.349c-0.234,0.47,0,1.056,0.586,1.056   c7.636,0.589,15.27,1.527,22.904,1.527c7.519,0.118,15.035-0.469,22.437-1.527c14.212-2.112,27.837-6.341,40.641-12.801   c23.493-11.865,44.754-31.481,54.15-56.5C301.156,255.689,300.569,239.949,296.81,224.796L296.81,224.796z M255.934,138.228   L255.934,138.228c4.112,5.285,7.989,10.923,11.628,16.678c7.753,12.1,15.036,24.668,20.203,38.177   c1.997,5.402,3.759,10.923,4.698,16.561c0,0.235,0.12,0.352,0.12,0.469c-1.059,0.237-2.115,0.472-3.29,0.472   c-1.762,0-3.643-0.472-5.285-1.058c-2.938-0.939-5.639-2.466-8.106-4.346c-3.876-3.053-6.694-7.282-8.574-11.98   c-3.877-10.22-3.405-21.144-5.167-31.716c-1.059-5.991-2.584-11.98-4.698-17.737c-1.059-2.701-2.232-5.402-3.642-8.103   C254.524,136.465,255.23,137.287,255.934,138.228L255.934,138.228z M239.254,121.078L239.254,121.078   c1.645,1.174,3.29,2.584,5.052,3.757c1.525,1.879,3.288,3.642,4.933,5.521c0.235,0.118,0.352,0.353,0.47,0.47   c0.94,1.997,1.997,3.877,2.818,5.874c1.293,3.054,2.468,6.226,3.524,9.514c1.998,6.46,3.291,12.921,4.112,19.733   c1.057,10.337,1.291,20.909,5.637,30.423c2.232,4.933,5.64,9.045,10.103,12.1c4.464,3.17,11.511,6.108,17.033,4.346   c0.235,1.998,0.469,3.875,0.469,5.755c0.118,0.823,0.118,1.527,0.118,2.231c-2.819,1.645-5.64,2.467-8.81,2.35   c-3.171,0-6.344-0.939-9.397-1.88c-4.935-1.643-9.868-3.757-13.979-7.047c-6.93-5.402-10.335-13.39-11.863-21.848   c-1.293-7.399-1.176-14.801-1.88-22.2c-0.234-2.467-0.586-4.933-1.056-7.282c-1.176-5.639-3.29-11.159-5.874-16.329   c-0.94-1.995-1.997-3.992-3.17-5.871c-1.645-2.938-3.407-5.757-5.404-8.458l0,0c-0.704-1.411-1.645-2.702-2.583-3.877   c-1.88-2.349-4.112-4.464-6.578-6.226c-1.645-1.291-3.29-2.349-5.052-3.405c3.407-1.527,6.697-3.29,9.985-5.169   c0.823,0.471,1.646,0.94,2.467,1.41C233.381,116.849,236.435,118.963,239.254,121.078L239.254,121.078z M285.65,235.016   L285.65,235.016c-0.117-1.762-0.469-3.524-1.056-5.287c-0.234-0.822-0.47-1.76-0.941-2.584c3.408,0.117,6.697-0.353,9.633-1.762   c0,0.118-0.117,0.235-0.117,0.352c-0.235,0.94-0.469,1.879-0.823,2.82c-0.352,0.822-0.822,1.644-1.056,2.584   c-1.645,2.466-3.525,4.698-5.64,6.813C285.65,237.014,285.65,235.955,285.65,235.016L285.65,235.016z M250.06,227.615   L250.06,227.615c-0.352,0.707-0.939,1.41-1.527,1.997c-0.235,0.235-0.587,0.469-0.939,0.706c-2.583-1.527-5.402-2.583-8.458-2.703   c-2.701-0.117-5.52,0.941-7.751,2.466c-1.527,1.059-3.407,2.586-4.581,4.347c-0.119,0-0.237,0.117-0.354,0.237   c-0.117,0-0.117,0.117-0.234,0.117c-5.755-4.111-11.394-8.458-16.914-12.921c1.056-0.471,2.115-0.94,2.937-1.292   c2.231-1.056,4.463-2.232,6.578-3.759c1.762-1.408,3.522-3.288,4.933-5.051c1.528-1.879,2.818-3.876,3.408-6.108   c0.117-0.47-0.471-0.705-0.707-0.352c-1.291,1.879-2.466,3.876-4.111,5.521c-1.526,1.643-3.288,2.701-5.285,3.759   c-1.997,1.174-4.112,1.995-6.227,2.818c-1.173,0.47-2.349,0.939-3.522,1.291c-0.47,0.117-0.941,0.237-1.411,0.354   c-4.111-3.524-7.986-7.167-11.863-10.926c-3.173-3.288-6.343-6.459-9.398-9.866c0.119,0,0.236,0,0.354,0.117   c1.643,0.469,3.288,0.939,5.05,1.293c3.288,0.469,6.695,0.469,9.983,0.117c6.814-0.824,13.507-2.584,19.853-5.052   c5.167-1.995,10.101-4.581,14.682-7.399c3.524-2.232,7.047-4.933,9.631-8.223c0.119,1.997,0.119,3.877,0.354,5.874   c0.352,4.698,0.938,9.396,2.231,13.977c2.467,8.575,7.635,15.859,15.153,20.675c4.698,2.936,10.101,4.933,15.388,6.343   c1.173,0.352,2.349,0.586,3.639,0.821c0.354,1.293,0.942,2.702,1.293,3.995c0.469,1.879,0.704,3.877,0.704,5.756   c0,1.409-0.235,2.819-0.469,4.227c-0.586,0.354-1.056,0.823-1.646,1.175c-0.821-0.235-1.879-0.117-2.349,0.822   c-0.117,0.352-0.235,0.586-0.352,0.94c-2.114,1.291-4.463,2.115-6.93,2.349c-3.759,0.469-7.047-1.175-9.985-3.642   c-3.171-2.701-5.872-5.991-9.044-8.81c-0.939-0.821-1.88-1.525-2.818-2.232c0.234-0.234,0.352-0.469,0.586-0.704   c0.586-0.941,0.823-1.763,0.94-2.818C251.001,227.38,250.295,227.263,250.06,227.615L250.06,227.615z M133.186,225.735   L133.186,225.735c0.586,1.058,1.056,2.234,1.88,3.055c0.235,0.352,0.469,0.704,0.704,0.939c-1.762,0.352-3.522,0.941-5.285,1.645   c-5.639,2.232-10.689,5.522-16.328,7.871c-4.111,1.763-8.692,2.584-13.273,2.702c0.117-1.645-0.352-3.29-1.056-4.581   c-0.235-0.352-0.472-0.704-0.707-1.058c4.581-1.173,9.044-3.053,13.156-5.285c10.337-5.639,19.381-14.332,23.375-25.607   c1.411-3.641,2.115-7.517,2.349-11.394c0.587,2.819,1.176,5.757,1.88,8.575c0,0.235,0.117,0.47,0.117,0.704   c2.232,9.634,5.05,19.03,9.279,27.957c-0.705-0.352-1.291-0.704-1.997-0.939c-3.288-1.293-6.696-1.41-9.983-0.823   c-0.47-0.353-0.824-0.821-1.176-1.173c-0.938-0.941-1.879-1.763-2.583-2.82C133.42,225.383,133.068,225.501,133.186,225.735   L133.186,225.735z M158.558,165.596L158.558,165.596c-0.354,0.234-0.823,0.469-1.175,0.706c-0.941,0.469-1.998,0.939-2.937,1.291   c-1.175,0.353-2.468,0.705-3.759,0.939c-0.821,0.117-1.645,0.234-2.466,0.354c-0.352,0-0.706,0-1.058,0   c-3.406,0.117-7.047-0.471-10.1-1.879c-0.825-6.813-1.528-13.625-1.763-20.44c1.88,0.941,3.994,1.411,6.108,1.528   c0.704,0.117,1.408,0.117,2.114,0.117c0.352,0,0.821-0.117,1.291-0.117c1.645-0.235,3.172-0.587,4.698-1.056   c0.706-0.237,1.41-0.472,1.997-0.824c0.234,0.586,0.352,1.175,0.47,1.763C153.741,153.967,155.972,159.839,158.558,165.596   L158.558,165.596z M159.38,167.358L159.38,167.358c1.997,4.229,4.229,8.34,6.695,12.334c3.995,6.458,8.576,12.45,13.509,18.207   c-1.057,1.056-2.115,2.231-3.289,3.288c-0.941,0.824-1.88,1.527-2.938,2.114c-0.586,0.352-1.056,0.706-1.643,0.941   c-0.471,0.235-1.059,0.587-1.645,0.821c-2.583,1.176-5.521,1.998-8.34,2.232c-5.991,0.822-12.687-0.234-18.206-3.053   c-1.88-7.871-3.29-15.974-4.583-23.962c-0.704-3.994-1.291-7.988-1.76-12.1c3.288,1.879,6.813,2.586,10.572,2.469   c0.234,0,0.352,0,0.469,0c1.056,0,2.114-0.12,3.17-0.354c1.176-0.235,2.35-0.587,3.525-0.939   C156.325,168.885,157.97,168.297,159.38,167.358L159.38,167.358z M148.104,220.098L148.104,220.098   c-1.645-4.698-3.055-9.514-4.229-14.448c2.114,1.292,4.346,2.231,6.813,2.938c3.642,0.939,7.634,1.173,11.394,0.822   c3.29-0.353,6.46-1.293,9.515-2.702c0.352-0.235,0.822-0.352,1.291-0.586c0.586-0.352,1.293-0.706,1.997-1.176   c2.232-1.41,4.463-3.171,6.226-5.285c2.466,2.818,5.05,5.52,7.634,8.221c5.522,5.404,11.159,10.807,17.032,15.742   c-0.117,1.525-0.117,2.936-0.352,4.346c-0.352,1.408-0.823,2.584-1.41,3.875c-0.118,0.237-0.235,0.472-0.353,0.706   c-0.469,0.822-1.056,1.643-1.645,2.349c-0.704,0.939-1.526,1.879-2.466,2.701c-3.289,3.171-7.517,5.402-11.746,7.047   c-8.575,3.054-18.912,3.877-27.37,0c-0.234-0.117-0.469-0.234-0.704-0.352c-1.292-1.997-2.467-3.876-3.525-5.874   c-0.353-0.822-0.705-1.526-1.174-2.232C152.333,231.022,149.984,225.735,148.104,220.098L148.104,220.098z M180.876,248.876   L180.876,248.876c8.81-1.293,17.619-5.402,23.256-12.569c0.118-0.234,0.353-0.469,0.587-0.704c0.471-0.705,0.94-1.528,1.41-2.349   c0.47-0.939,0.941-1.88,1.293-2.937c0.469-1.41,0.821-3.055,0.821-4.583c5.167,4.229,10.572,8.223,16.094,11.865   c-0.237,0.353-0.354,0.704-0.589,1.056s-0.47,0.707-0.587,0.941c-0.823,1.174-1.527,2.349-2.349,3.405l0,0   c-1.997,2.704-4.229,5.287-6.695,7.636c-4.581,4.463-9.985,8.692-15.975,11.394c-5.756,2.701-12.217,3.053-17.973,0.352   c-5.05-2.231-9.631-5.874-13.743-9.514c-0.822-0.707-1.645-1.528-2.466-2.232c-0.822-1.175-1.528-2.232-2.349-3.407   C167.603,249.581,174.768,249.7,180.876,248.876L180.876,248.876z M240.312,100.875L240.312,100.875   c-3.994,3.17-8.105,5.988-12.452,8.574c-1.293,0.705-2.583,1.526-3.876,2.23c-2.701,1.411-5.52,2.82-8.338,4.112   c-0.588,0.352-1.292,0.588-1.879,0.94c-1.41,0.587-2.938,1.174-4.346,1.763c-1.059,0.469-1.998,0.821-3.056,1.173   c-1.879,0.822-3.992,1.41-5.991,2.231c1.411-1.645,2.82-3.288,4.346-4.815c0.94-0.941,1.762-1.88,2.703-2.819   c0.235-0.235,0.469-0.469,0.704-0.706c1.88-1.88,3.877-3.757,5.874-5.52c1.057-0.941,2.114-1.88,3.171-2.819   c1.527-1.293,3.055-2.469,4.581-3.642c4.463-3.407,9.044-6.578,13.979-9.396c4.816-2.821,9.983-5.17,15.505-6.343   C251.001,92.3,244.187,96.176,240.312,100.875L240.312,100.875z M201.666,109.449L201.666,109.449   c0.47-1.058,1.059-2.233,1.645-3.172c0.705-1.173,1.409-2.232,2.115-3.407c1.528-2.113,3.17-4.11,5.05-5.99   c7.282-7.753,16.446-13.742,26.077-18.088c4.111-1.88,8.458-3.525,12.804-4.701c3.053-0.821,6.108-1.643,9.161-2.466   c2.584-0.821,5.287-1.525,7.871-2.584c-1.059,1.763-1.997,3.642-3.056,5.522c-1.527,2.584-3.17,5.168-5.05,7.634   c-1.527,2.349-3.288,4.463-5.167,6.578c0.469-1.408,0.587-2.936,0.469-4.346c-0.117-0.821-0.706-1.291-1.527-1.173   c-6.109,1.056-11.628,3.522-16.916,6.576c-5.05,2.821-9.866,6.228-14.447,9.751c-2.115,1.527-4.111,3.17-6.108,4.933   c-1.059,0.94-2.232,1.879-3.288,2.938c-2.115,1.879-4.229,3.992-6.226,6.106c-0.941,0.94-1.763,1.997-2.701,2.938   c-1.645,2.115-3.29,4.229-4.7,6.46l0,0c0.354-2.349,0.823-4.698,1.527-6.932c0.353-1.173,0.705-2.347,1.174-3.522   C200.727,111.444,201.196,110.388,201.666,109.449L201.666,109.449z M189.451,105.925L189.451,105.925   c3.288-0.117,6.695-0.117,10.101,0c-1.057,1.997-1.88,3.994-2.584,6.108c-4.346-0.472-8.693-0.237-13.039,0.352   c-0.704,0.118-1.41,0.235-2.115,0.352c-0.469,0.117-0.938,0.117-1.527,0.235c0.589-0.587,1.059-1.293,1.646-1.88   c0.469-0.587,0.94-1.174,1.41-1.761c0.822-1.058,1.645-2.116,2.349-3.29C186.983,106.042,188.158,105.925,189.451,105.925   L189.451,105.925z M179.818,106.512L179.818,106.512c-0.117,0.117-0.117,0.234-0.234,0.352c-0.939,1.763-2.115,3.525-3.171,5.288   c-0.353,0.704-0.707,1.291-1.059,1.879l-0.117,0.117c-1.527,1.761-3.17,3.523-4.815,5.167c-0.469,0.353-0.94,0.822-1.293,1.293   c-1.76,1.643-3.64,3.17-5.285,4.933c0.117-1.411,0.117-2.702,0.117-3.995c0.117-1.293,0.234-2.466,0.352-3.759   c0.118-2.114,0.47-4.229,0.939-6.343c0.237-1.056,0.472-2.112,0.706-3.17c0.353-1.176,0.705-2.35,1.174-3.525   c0.823-2.701,1.997-5.403,3.172-7.986c2.349-4.581,5.167-8.927,8.34-12.921c3.053-3.642,6.343-6.93,10.335-9.279   c0.941,7.399-1.291,14.917-4.227,21.731c-0.941,2.229-2,4.463-3.173,6.693C180.993,104.163,180.407,105.338,179.818,106.512   L179.818,106.512z M161.964,109.332L161.964,109.332v-0.117c0.118-1.175,0.235-2.352,0.469-3.524   c0.941-4.933,2.467-9.75,4.346-14.332c4.698-11.511,12.1-21.966,21.026-30.54c1.88-1.763,3.757-3.406,5.637-4.933   c0.942-0.822,1.998-1.528,2.938-2.349c0,1.173,0.235,2.349,0.352,3.642c0.118,1.878,0.118,3.877,0.118,5.872   c0,3.29-0.235,6.578-0.705,9.868c-1.058,5.991-2.938,11.98-5.404,17.502c-1.525,3.64-3.405,7.165-5.52,10.572   c0.704-1.528,1.408-3.055,2.115-4.698c3.287-7.519,5.05-15.624,3.522-23.845c-0.117-0.707-1.056-0.941-1.643-0.707   c-4.7,2.586-8.458,6.226-11.865,10.22c-3.525,4.229-6.461,8.928-8.81,13.743c-1.527,3.055-2.701,6.226-3.759,9.398   c-0.352,1.173-0.704,2.466-1.057,3.64c-0.117,0.706-0.352,1.411-0.469,2.115c-0.588,2.584-1.058,5.167-1.175,7.871   c-0.118,0-0.118,0-0.235,0c0-0.117,0-0.234,0-0.352C161.612,115.321,161.612,112.385,161.964,109.332L161.964,109.332z    M159.732,123.31L159.732,123.31c0.352,1.525,0.821,3.053,1.645,4.229c0.352,0.587,1.056,0.705,1.645,0.352   c0.117,0.118,0.352,0.118,0.586,0c2.702-1.176,5.168-3.407,7.399-5.402c1.763-1.527,3.407-3.173,5.052-4.817   c2.112-0.586,4.11-0.939,6.107-1.291c0.706-0.117,1.41-0.237,2.114-0.354c2.466-0.352,4.935-0.469,7.401-0.586   c1.408,0,2.819,0.117,4.227,0.234c-0.586,2.586-0.821,5.287-0.586,8.105c0,0.117,0.117,0.235,0.117,0.352   c-0.821,0.704-0.469,2.349,0.706,2.232c3.758-0.469,7.282-1.762,10.807-3.053c2.349-0.822,4.698-1.88,7.047-2.82   c4.816,2.233,9.162,5.287,12.921,8.928c0.938,1.057,1.879,2.115,2.818,3.171c0.235,0.353,0.469,0.587,0.704,0.822   c0.352,0.354,0.706,0.823,1.058,1.176c0.117,0.352,0.353,0.821,0.47,1.175c1.527,3.288,3.17,6.458,4.581,9.631   c0.705,1.408,1.293,2.819,1.879,4.229c0.353,0.704,0.587,1.525,0.939,2.231c1.879,5.285,3.524,10.689,4.229,16.209   c0.235,1.997,0.352,3.994,0.469,5.991c-4.463,7.047-13.038,11.277-20.32,14.684c-5.991,2.936-12.449,5.05-19.029,6.341   c-3.288,0.589-6.576,1.058-9.866,1.292c-3.291,0.235-6.93,0.47-10.101-0.352c-0.824-0.117-1.646-0.352-2.469-0.586   c-2.701-3.056-5.285-6.227-7.751-9.634c-1.176-1.643-2.349-3.288-3.525-5.05c-0.117-0.235-0.234-0.352-0.352-0.47   c-3.288-5.167-6.225-10.572-8.81-16.211c0.47,0,0.939,0,1.293,0c2.112-0.117,4.229-1.173,5.52-2.701   c2.115-2.584,1.997-5.874,0.47-8.692c-1.408-2.701-3.994-4.816-6.93-5.637c-1.997-0.707-4.815-0.472-6.344,1.056   c-0.352-1.174-0.704-2.349-1.056-3.641l-0.117-0.117c0-0.12,0.117-0.12,0.117-0.12c0.117-0.352,0-0.821-0.353-0.938   c-0.234-0.824-0.352-1.645-0.588-2.466c-0.939-3.642-1.525-7.401-2.115-11.042c0.353-0.472,0.589-0.941,0.941-1.41   c0.587-0.822,1.528-1.646,2.349-2.232c0.587-0.469,1.174-0.939,1.762-1.41C157.735,124.248,158.675,123.779,159.732,123.31   L159.732,123.31z M161.142,151.618L161.142,151.618c0-0.589,0.235-1.058,0.587-1.528c0.47-0.469,1.056-0.822,1.762-0.822   c1.174,0,2.232,1.057,2.232,2.35c0,0.47-0.235,0.938-0.472,1.291c-0.469,0.589-1.056,0.94-1.76,0.94   C162.199,153.85,161.142,152.792,161.142,151.618L161.142,151.618z M158.558,110.036L158.558,110.036c0.117,0,0.117,0,0.235,0   c-0.118,0.587-0.118,1.174-0.118,1.879c-0.117,2.584,0,5.286,0.353,7.869c0,0.118,0,0.118,0,0.235   c-0.941,0.47-1.879,0.941-2.938,1.41c-1.056,0.587-2.231,1.176-3.405,1.88c-0.469,0.235-1.058,0.586-1.528,0.938   c-0.352-3.759-0.586-7.399-0.586-11.158C153.271,112.033,155.855,110.858,158.558,110.036L158.558,110.036z M139.999,93.591   L139.999,93.591c1.058-3.76,2.701-7.282,5.167-10.335c0,0.704,0.119,1.291,0.237,1.877c0.117,0.589,0.352,1.059,0.469,1.528   c0.234,1.528,0.587,3.053,0.704,4.581c0.47,3.29,0.587,6.578,0.587,9.868c-0.47,0.235-1.057,0.469-1.526,0.704   c-0.94,0.235-1.997,0.235-2.938,0.235c-0.587-0.118-1.057-0.118-1.526-0.353c-1.058-0.234-1.879-0.586-2.82-1.173   C138.823,98.172,139.294,95.94,139.999,93.591L139.999,93.591z M136.71,111.21L136.71,111.21c0.353-2.701,0.704-5.52,1.173-8.34   c0.117-0.235,0.117-0.47,0.117-0.705c0.939,0.586,1.88,1.059,2.938,1.293c1.995,0.586,4.227,0.704,6.107,0   c0,2.466,0,4.933-0.117,7.399c0,4.815,0.117,9.631,0.586,14.331c-0.586,0.235-1.173,0.353-1.761,0.47   c-1.41,0.352-2.938,0.469-4.346,0.352c-0.118,0-0.353,0-0.47,0c-1.175-0.117-2.351-0.469-3.407-0.939   c-0.705-0.354-1.411-0.824-2.115-1.293C135.652,119.55,136.121,115.439,136.71,111.21L136.71,111.21z M135.065,134.351   L135.065,134.351c0-2.936,0-5.874,0.235-8.692c0.704,0.469,1.527,0.938,2.466,1.292c0.938,0.353,1.88,0.587,2.818,0.705   c0.117,0.117,0.354,0.117,0.588,0.117c1.526,0.117,2.937,0.117,4.464-0.117c0.586-0.118,1.409-0.235,2.115-0.469   c0.117,0.939,0.234,1.877,0.469,2.818c0.704,4.815,1.645,9.631,2.818,14.331c-0.469,0.117-0.821,0.353-1.291,0.47   c-1.763,0.704-3.525,1.173-5.405,1.291c0,0-0.117,0-0.117,0.118c-1.058,0.117-2.231,0-3.288,0c-0.706-0.118-1.41-0.235-2.234-0.469   c-1.291-0.235-2.349-0.822-3.522-1.409C135.065,141.046,134.948,137.756,135.065,134.351L135.065,134.351z M132.482,158.313   L132.482,158.313c0.352,2.936,0.704,5.989,1.056,8.927c-0.235,0.118-0.235,0.352-0.352,0.587   c-0.352,3.524,0.352,7.284,0.704,10.806c0.352,3.525,0.587,7.047,0.587,10.689c0,6.93-1.292,13.86-4.698,19.851   c-5.403,9.868-15.388,17.385-25.723,21.497c-3.759,1.41-7.636,2.466-11.513,3.053c-1.998,0.352-3.993,0.469-5.989,0.587   c-1.058,0-2.115,0.234-3.173,0.117c-0.469-0.117-1.056-0.235-1.527-0.353c-0.469-0.586-0.939-1.173-1.291-1.76   c-0.117,0-0.117-0.118-0.234-0.118c-0.469-0.941-0.941-1.88-1.293-2.703c-0.587-1.525-1.174-3.053-1.645-4.698   c0-0.117,0-0.234,0-0.352l0,0c-0.117-0.235-0.117-0.47-0.117-0.704c6.814,0.234,13.39,0.117,19.97-2.115   c5.05-1.645,9.748-4.583,13.273-8.574c7.047-7.871,9.983-18.678,11.746-28.779c1.41-8.457,1.997-16.915,3.288-25.373   c0.706-4.346,1.528-8.692,2.703-12.921c0.822-2.936,1.998-5.637,3.054-8.34c0.117,2.115,0.117,4.346,0.234,6.46   C131.658,148.917,132.01,153.615,132.482,158.313L132.482,158.313z M76.568,206.825L76.568,206.825   c0.587-7.164,2.349-14.331,4.581-21.261c3.877-12.452,9.396-24.549,16.916-35.356c4.346-6.46,9.396-12.333,15.153-17.384   c3.053-2.701,6.461-5.167,9.866-7.399c1.763-1.059,3.642-2.231,5.404-3.172c1.174-0.705,2.349-1.291,3.523-1.998   c-0.352,4.347-0.587,8.692-0.587,13.156c-1.645,2.586-2.702,5.639-3.759,8.457c-1.173,3.291-2.115,6.579-2.818,9.985   c-1.409,6.696-2.115,13.626-2.936,20.438c-1.411,11.159-2.818,23.023-8.458,33.007c-3.053,5.404-7.399,9.75-12.921,12.569   c-7.399,3.759-15.622,3.876-23.728,3.642c-0.118-1.293-0.352-2.466-0.352-3.759C76.099,214.107,76.216,210.467,76.568,206.825   L76.568,206.825z M292.111,268.258L292.111,268.258c-4.346,12.217-12.215,23.021-21.259,32.303   c-9.398,9.513-20.674,17.265-32.655,23.139c-12.921,6.461-26.546,10.22-40.76,12.217c-6.813,0.939-13.743,1.408-20.555,1.763   c-3.525,0.117-7.165,0.235-10.689,0.352c-1.88,0-3.642,0-5.522,0c0,0,0,0-0.117,0c-3.405-1.41-6.93-2.232-10.452-3.291   c-3.525-0.938-6.932-1.997-10.455-3.17c-6.461-2.231-12.804-4.935-18.795-8.223c-10.335-5.874-19.38-13.86-26.781-23.141   c-7.517-9.397-12.921-20.086-17.15-31.362c-1.997-5.285-3.757-10.924-4.698-16.681c1.527,1.882,3.407,3.642,5.404,4.935   c1.76,1.174,3.522,1.997,5.52,2.584c1.292,0.47,2.701,0.821,4.111,1.056c0.821,0.237,1.527,0.354,2.35,0.354   c9.161,1.173,18.677-0.94,27.604-3.055c4.58-1.056,9.161-2.232,13.742-3.171c2.466-0.587,4.933-1.058,7.399-1.175   c2.586-0.118,4.347,1.175,6.109,2.701c0.469,1.528,1.292,2.704,2.114,3.995c0.822,1.41,1.879,2.821,2.936,4.111   c1.997,2.584,4.346,5.05,6.695,7.284c4.935,4.464,10.924,7.517,17.267,9.279c12.452,3.171,25.96,0.469,37.588-4.933   c4.346-1.999,8.341-4.583,12.1-7.519c1.88-1.527,3.642-3.053,5.285-4.815c0.942-0.938,1.763-1.879,2.584-2.818   c0.706-0.941,1.176-1.88,1.762-2.821c2.82-2.231,5.169-5.05,7.401-7.751c3.288,1.997,6.578,3.876,9.983,5.637   c1.88,0.941,3.876,1.88,5.639,3.055c0.704,0.352,1.292,0.704,1.997,1.057c1.174,1.41,3.17,1.997,4.816,2.466   c1.41,0.471,2.936,0.823,4.463,0.94c0.235,0.118,0.587,0.118,0.821,0.118c1.411,0.117,2.82,0.117,4.229,0   c2.349-0.118,4.698-0.587,6.93-1.293c6.343-1.88,12.57-5.874,16.68-11.042C295.401,257.099,294.109,262.736,292.111,268.258   L292.111,268.258z M295.871,248.759L295.871,248.759c-4.933,4.815-10.337,9.045-17.032,11.276   c-1.643,0.587-3.288,0.941-4.933,1.176c-1.762,0.235-3.525,0.235-5.285,0.235l0,0c-1.762-0.118-3.407-0.469-5.052-0.941   c-1.762-0.47-3.406-1.526-5.286-1.76h-0.117c-0.469-0.235-0.823-0.471-1.175-0.706c-1.76-1.173-3.64-2.349-5.52-3.522   c-3.643-2.115-7.284-4.229-10.924-6.578c-0.352-0.236-0.94-0.236-1.292,0.235c-3.289,3.992-7.165,7.634-10.218,11.862   c0,0.118-0.117,0.235,0,0.353h-0.117c-1.176,1.175-2.469,2.349-3.642,3.407c-2.349,2.114-4.933,3.994-7.519,5.754   c-5.402,3.642-11.276,6.108-17.502,7.988c-12.567,3.642-26.429,3.173-37.705-4.229c-3.406-2.232-6.461-5.05-9.162-8.223   c-1.41-1.526-2.701-3.17-3.994-4.933c-0.822-0.939-1.643-1.998-2.466-2.937c0.234-0.234,0.234-0.587,0-0.941   c-1.526-2.112-3.523-3.757-6.109-4.463c-2.231-0.47-4.581,0-6.812,0.352c-4.229,0.707-8.223,1.645-12.333,2.703   c-9.046,2.349-18.208,4.699-27.604,4.699c-2.702,0-5.52-0.235-8.223-0.822c-1.408-0.354-2.701-0.823-4.111-1.293   c-0.47-0.235-0.821-0.469-1.291-0.586c-2.115-1.059-3.994-2.467-5.756-4.111c-1.057-1.059-1.997-2.232-2.936-3.525   c-0.705-6.343-0.47-12.685,1.41-18.792c0.469-1.528,0.939-2.938,1.526-4.347c0.235,0.469,0.352,0.939,0.471,1.408   c0.352,1.058,0.821,1.997,1.291,3.056c0.117,0.469,0.352,0.938,0.704,1.527c1.058,2.23,2.704,4.815,4.935,5.754   c0.235,0,0.47,0.118,0.705,0.118c0.234,0.117,0.704-0.235,0.586-0.587c0,0-0.117-0.117-0.117-0.234   c0.706,0.117,1.293,0.234,1.997,0.352c0.704,0,1.293,0,1.997,0c2.936,0.117,5.639-0.118,8.575-0.587   c0.469,0.587,0.939,1.057,1.293,1.643c0.704,1.058,0.704,2.114,0.704,3.29c0,0.352,0,0.704,0,1.056c0,0.823,0.587,1.41,1.291,1.41   V245c2.232,0.117,4.581,0.117,6.814-0.117c5.989-0.469,11.277-2.701,16.562-5.402c5.05-2.584,10.337-5.639,16.091-6.343   c3.408-0.352,6.932,0.235,9.985,2.114c1.88,1.173,3.171,2.936,4.347,4.698c0.352,1.176,0.822,2.349,1.41,3.525   c1.291,2.583,3.054,4.815,4.933,6.93c3.759,4.463,8.34,8.105,13.156,11.393c5.167,3.523,10.689,6.109,17.033,5.874   c6.341-0.234,12.333-3.172,17.502-6.814c4.463-3.053,8.692-6.693,12.45-10.805c1.879-2.114,3.642-4.346,5.287-6.578   c0.704-1.176,1.525-2.232,2.114-3.408c0.587-0.822,1.056-1.645,1.408-2.466c0.824-0.586,1.528-1.293,2.349-1.879   c1.058-1.056,1.997-1.88,3.29-2.701c2.231-1.293,4.698-1.763,7.282-1.176c4.229,1.059,7.636,3.877,10.572,6.813   c3.054,3.055,5.874,6.226,9.396,8.692c3.642,2.469,7.871,3.29,12.334,2.469c0.705-0.118,1.409-0.354,2.115-0.589   c2.114-0.704,3.995-1.763,5.874-2.936c0.587-0.352,1.056-0.704,1.643-1.056c0,0,0,0,0.117,0c0.47-0.237,0.824-0.472,1.059-0.941   c1.056-0.821,1.997-1.763,2.936-2.584c3.055-2.938,6.695-6.93,7.047-11.275c0.117-0.237,0.117-0.355,0.237-0.589   c0.821,5.757,1.525,11.63,1.525,17.385C295.988,247.701,295.988,248.29,295.871,248.759L295.871,248.759z"/>
</g>
</svg>