<svg  xmlns="http://www.w3.org/2000/svg" version="1.0" id="Layer_1" x="0px" y="0px" enable-background="new 0 0 1400 980" xml:space="preserve" viewBox="67.45 574.34 285.33 357.26">
<g>
	<path fill="#FFFFFF" d="M127.692,678.673c-1.173-0.122-2.231,0.822-2.466,1.878c0,0.117,0,0.117,0,0.234   c-0.117,1.291,0.824,2.347,1.997,2.469c0.469,0,0.822,0,1.174-0.234c0.707-0.356,1.293-1.061,1.293-1.883   C129.807,679.964,128.869,678.787,127.692,678.673L127.692,678.673z"/>
	<path fill="#FFFFFF" d="M205.923,681.254c-0.117-0.117-0.234-0.234-0.469-0.234c-0.353-0.117-0.824-0.117-1.176-0.117h-0.117   c-0.117,0.117-0.352,0.117-0.586,0.234s-0.472,0.354-0.707,0.588l-0.117,0.117c-0.118,0.117-0.235,0.352-0.235,0.469   c-0.235,0.353-0.235,0.821-0.235,1.295c0.117,0.588,0.47,1.174,0.941,1.526c0.47,0.234,0.822,0.352,1.291,0.352l0,0   c0.588,0,1.058-0.117,1.528-0.352c0.235-0.235,0.352-0.353,0.587-0.587c0.234-0.352,0.352-0.705,0.352-1.174   c0.117-0.591-0.117-1.178-0.469-1.646C206.276,681.49,206.159,681.371,205.923,681.254L205.923,681.254z"/>
	<path fill="#FFFFFF" d="M220.37,922.64c-0.117-0.469-0.117-0.821-0.235-1.173c0-0.117-0.118-0.234-0.118-0.352   c-0.352-0.822-0.704-1.648-1.173-2.469c-0.234-0.236-0.941-1.409-1.293-1.409c-0.117,0-0.469,0.235-0.821,0.587   c-1.998,2.586-2.701,6.106-3.408,9.162c-0.117,0.117-0.117,0.117-0.117,0.117c1.058,0.117,1.997,0.234,3.053,0.234h0.12   c0,0,0,0,0-0.117c0.117,0,0.352,0,0.469,0c0.234,0,0.586,0,0.821-0.117c0.235,0,0.47-0.117,0.707-0.117l0,0l0,0   c0.118,0,0.47-0.234,0.47-0.234c0.821-0.353,1.173-0.587,1.408-1.292c0.117-0.469,0.234-1.056,0.352-1.529   C220.487,923.462,220.487,922.991,220.37,922.64L220.37,922.64z"/>
	<path fill="#FFFFFF" d="M207.568,922.522c-0.12-0.117-0.12-0.117-0.12-0.117c-0.352,0.586-1.056,1.057-1.76,0.821   c-0.587,0.587-1.059,1.178-1.528,1.765c1.88,0.586,3.642,1.174,5.404,1.525c-0.471-0.822-0.823-1.643-1.293-2.586   C208.038,923.462,207.921,922.991,207.568,922.522L207.568,922.522z"/>
	<path fill="#FFFFFF" d="M194.176,814.456c-0.352-0.118-0.234-0.118-0.586-0.118c-1.174,0-2.114,0.943-3.053,1.765   c-0.117,0-0.117,0-0.117,0.117c1.408,0,2.936,0.118,3.994,0c0.118-0.587,0.118-1.173-0.119-1.529L194.176,814.456L194.176,814.456z   "/>
	<path fill="#FFFFFF" d="M188.891,803.886c-0.939,0-1.88,0.47-2.583,1.056c-0.824,0.587-1.528,1.178-2.115,1.883   c-0.352,0.703-0.586,1.524-0.822,2.229c-0.471,1.177-0.824,2.938-1.645,4.11c0.234,0.234,0.352,0.471,0.586,0.705   c-0.117-0.117,0.47,0.352,0.587,0.469c0.237,0.118,0.471,0.235,0.707,0.474h0.117l0,0c0,0,0,0,0.117,0   c0.118,0.118,0.352,0.235,0.469,0.235c0.352,0.117,0.586,0.234,0.939,0.352c0.589,0.234,1.176,0.352,1.879,0.469   c0-0.469,0.235-0.938,0.471-1.411c0.353-1.175,0.822-2.23,1.174-3.404c0.704-1.881,1.762-4.345,1.41-6.228   C190.066,804.238,189.712,803.886,188.891,803.886L188.891,803.886z"/>
	<path fill="#FFFFFF" d="M147.192,922.522c-0.704-0.47-1.528-0.234-2.115,0c-1.408,0.704-2.936,1.761-4.111,2.938   c0.47-0.117,0.941-0.117,1.528-0.234c1.997-0.234,3.877-0.47,5.756-0.942C148.016,923.579,147.661,922.874,147.192,922.522   L147.192,922.522z"/>
	<path fill="#FFFFFF" d="M150.717,812.695c0.117,0,0.234,0,0.234-0.117c0.118,0,0.118,0,0.118,0s0,0,0.118-0.117   c0,0,0.234-0.47,0.117-0.117c0-0.118,0.117-0.235,0.117-0.353l0,0l0,0c0-0.117,0-0.352,0-0.469   c-0.117-0.471-0.117-0.822-0.234-1.057c-0.942-2.821-1.88-5.759-2.702-8.575c-1.762,0.821-2.703,2.934-3.173,4.816   c-0.469,1.994-0.587,4.228-0.587,6.223c0.587,0.117,1.292,0.234,1.998,0.234c0.469,0,0.821,0,1.293,0c0,0,0.117,0,0.234,0l0,0l0,0   c0.117,0,0.235,0,0.235,0c0.587-0.117,1.173-0.117,1.76-0.352C150.362,812.813,150.482,812.813,150.717,812.695L150.717,812.695   L150.717,812.695z"/>
	<path fill="#FFFFFF" d="M136.972,920.879c-0.234-1.412-0.704-2.82-1.643-3.759c-0.706-0.704-1.41-0.938-2.349-0.469   c-0.354,0.117-0.588,0.352-0.94,0.703c0,0,0,0,0,0.118c-0.469,2.229-1.056,4.698-2.115,6.811c0.117,0.121,0.235,0.121,0.352,0.238   l0.237,0.117l0,0c0.118,0,0.118,0.117,0.118,0.117c0.352,0.118,0.587,0.235,0.822,0.235c0.352,0.117,0.586,0.234,0.938,0.234l0,0   l0,0c0,0,0,0,0,0.117c0.234,0,0.352,0,0.588,0c1.409,0.234,2.819,0.352,4.227,0.234c0-0.703,0.12-1.411,0.12-2.233   C137.326,922.522,137.207,921.701,136.972,920.879L136.972,920.879z"/>
	<path fill="#FFFFFF" d="M142.024,812.578c-0.472-0.821-0.823-1.644-1.293-2.348c-0.353-0.355-0.587-0.825-0.939-1.06   c-0.117,0-0.352,0-0.235,0c-0.471,0-1.058,0.704-1.293,1.173c-0.352,0.356-0.587,0.825-0.821,1.179   c1.643,0.469,2.701,0.703,4.346,1.056C141.79,812.578,141.907,812.578,142.024,812.578L142.024,812.578z"/>
	<path fill="#B6A399" d="M348.875,918.646c0,0,0-0.471-0.117-0.588c0,0,0-0.234-0.117-0.352l0,0c0-0.117,0-0.234-0.118-0.353   c-0.117-0.234-0.234-0.586-0.47-0.82c-0.236-0.353-0.824-1.179-1.175-1.765c-0.587-0.587-1.174-1.174-1.762-1.761   c-2.584-2.469-5.52-4.581-8.575-6.462c-1.291-0.705-2.466-1.526-3.757-2.23h-0.117l0,0l0,0l0,0h-0.118l0,0c0-0.117,0-0.117,0-0.117   l0,0l0,0l0,0l0,0l0,0c-0.118,0-0.118,0-0.118,0l0,0c0,0-0.117,0-0.117-0.117c-0.236,0-0.354-0.117-0.588-0.234   c-1.174-0.471-2.232-1.057-3.405-1.53c-1.88-0.704-3.76-1.29-5.64-1.878c-0.235,0.234-0.587,0.469-0.821,0.822   c-0.941,0.938-1.88,2.115-2.584,3.407c-0.588,0.938-1.058,2.116-1.645,3.172c4.346,1.174,8.575,2.347,12.804,3.525   c5.286,1.524,11.628,3.285,15.153,7.983c0.117,0.117,0.235,0.353,0.353,0.587l0.117,0.121c0.234,0.235,0.352,0.353,0.352,0.47   c1.291,0.117,2.114,0,2.466-1.295C348.875,919.35,348.875,918.881,348.875,918.646L348.875,918.646z"/>
	<path fill="#B6A399" d="M292.375,895.154c-0.704,0.939-1.527,1.761-2.114,2.816c-0.587,1.062-1.056,2.234-1.408,3.408   c7.047,1.646,14.212,3.055,21.259,4.581c1.879,0.469,3.642,0.825,5.404,1.294c0-0.117,0-0.117,0-0.234   c0.704-1.295,1.408-2.703,2.232-3.994c0.587-0.942,1.41-2.234,2.466-3.29C311.288,897.385,301.773,896.446,292.375,895.154   L292.375,895.154z"/>
	<path fill="#B6A399" d="M260.309,887.049c-1.176,0.938-2.349,1.878-3.525,3.056c-0.469,0.587-1.058,1.174-1.527,1.761   c4.935,2.351,10.337,3.876,15.624,5.284c5.285,1.295,10.453,2.586,15.74,3.759v-0.117c0.586-1.524,1.174-3.055,1.998-4.345   c0.352-0.471,0.704-1.058,1.173-1.526C279.454,893.508,269.354,891.631,260.309,887.049L260.309,887.049z"/>
	<path fill="#B6A399" d="M258.312,885.992c-3.642-2.115-7.049-4.58-10.103-7.753c-1.762,1.291-3.406,2.586-5.167,3.877   c-0.118,0-0.235,0.117-0.472,0.234c2.938,3.642,6.463,6.342,10.572,8.458C254.553,888.927,256.315,887.049,258.312,885.992   L258.312,885.992z"/>
	<path fill="#B6A399" d="M218.493,736.463c-0.707,1.057-1.528,1.878-2.352,2.817c-1.643,1.646-3.406,3.056-5.285,4.464   c-3.525,2.468-7.282,4.58-11.159,6.579c-7.871,3.878-16.444,6.694-25.136,7.988c-6.226,0.822-12.804,0.939-18.912-0.352   c-5.287-1.061-10.337-2.821-15.271-5.055c-5.167-2.347-10.22-5.168-14.683-8.692c-2.819-2.229-5.403-4.815-7.517-7.631   c-0.47,3.285-1.293,6.574-2.115,9.747c-1.879,6.933-4.111,13.743-6.93,20.323c-1.058,2.465-2.114,5.051-3.407,7.515   c0.941,2.352,1.527,4.933,2.466,7.401c0.824,2.586,1.762,5.051,2.82,7.637c1.057,2.464,2.232,4.815,3.523,7.279   c0.704,1.178,1.293,2.352,1.997,3.524c0.235,0.234,0.469,0.587,0.586,0.938c1.88,0.353,3.055,2.117,4.347,3.291   c1.058,1.056,2.232,2.115,3.524,2.938c0.117,0,0.117,0,0.234,0.117c0.235,0,0.353,0.117,0.587,0.234   c0.589,0.235,1.059,0.47,1.645,0.704c1.293,0.588,2.818,1.057,4.229,1.644c0.821,0.234,1.645,0.469,2.466,0.708   c0.941-2.352,3.173-4.82,5.522-4.464c1.291,0.234,2.349,1.174,3.053,2.229c0-0.938,0.117-1.877,0.353-2.82   c0.589-2.582,1.527-5.285,4.229-6.575c0.117,0,0.234-0.117,0.352-0.117c-1.762-6.111-3.288-12.334-3.64-18.793   c-0.352-6.464,0.352-14.217,4.463-19.385c0.47-0.586,1.291-0.117,1.056,0.588c-1.174,4.933-2.349,9.752-2.115,14.919   c0,0.236,0,0.471,0,0.588c5.052-5.521,13.98-7.284,21.145-6.815c4.346,0.235,8.809,1.295,12.804,3.29   c1.762,0.939,3.522,1.999,5.167,3.408c0.586,0.587,1.292,1.173,1.879,1.877c0.118-0.587,0.235-1.056,0.353-1.525   c0.352-2.116,0.704-4.347,1.056-6.463c0.117-1.056,0.237-2.112,0.354-3.051c0.117-1.06,0.47-2.116,0.587-3.173   c0.235-0.939,1.762-1.174,1.997-0.117c0.118,1.174,0.352,2.352,0.352,3.524c0,1.057,0,2.112-0.117,3.051   c-0.117,2.234-0.353,4.347-0.587,6.581c-0.706,4.229-1.645,8.457-2.82,12.568c-1.056,4.112-2.349,7.988-3.757,11.982   c2.231-1.178,4.933-1.647,6.578,0.587c1.76,2.229,0.704,5.637,0,7.988c-0.117,0.352-0.117,0.703-0.235,0.939   c0.587-0.236,1.292-0.236,1.995-0.119c2.469,0.236,3.76,2.466,3.643,4.698c2.349-0.234,4.58-0.586,6.812-1.173   c0.589-0.121,1.176-0.238,1.763-0.474c0.117,0,0.117,0,0.117,0s0,0,0.118,0l0,0c0,0,0,0,0.117-0.117   c0.469-0.117,1.058-0.352,1.645-0.586c1.293-0.471,2.584-1.057,3.877-1.761c0.587-0.234,1.174-0.705,1.88-0.939   c3.053-5.876,7.047-11.16,10.452-16.797c1.88-3.174,3.76-6.346,5.522-9.514c0.822-1.53,1.645-3.056,2.349-4.581   c0.47-0.943,0.939-1.883,1.411-2.82c-5.639-7.754-9.75-16.799-12.452-25.725C220.018,746.564,218.845,741.632,218.493,736.463   L218.493,736.463z"/>
	<path fill="#B6A399" d="M220.605,875.302c-1.643-1.878-2.112-4.581-2.467-7.046c-0.47-2.82-0.587-5.641-0.234-8.457   c0-1.057,0.234-2.117,0.354-3.172c-2.351,0.938-4.817,1.759-7.284,2.586c-5.992,1.877-12.098,3.051-18.207,3.754   c-11.982,1.179-24.197,0.122-35.708-3.285c-5.287-1.647-10.337-3.76-15.153-6.346c0.118,1.647,0.118,3.291-0.117,4.933   c-0.354,2.469-0.941,4.82-1.763,7.05c-0.352,0.939-0.704,2.234-1.41,3.289c0.117,2.7-0.235,5.403-1.411,7.872   c-0.704,1.643-1.761,3.168-3.288,4.229c-0.47,0.352-1.058,0.704-1.646,1.057c0.118,1.056,0.118,2.347,0.118,3.29   c0.117,1.525,0.234,3.051,0.352,4.697c0.237,3.286,0.472,6.576,0.707,9.866c0.117,3.29,0.235,6.576-0.117,9.866   c-0.117,1.525-0.235,2.938-0.471,4.346c1.292-0.353,2.82-0.117,3.876,0.821c1.762,1.178,2.82,3.173,3.407,5.051   c0.234,0.942,0.47,1.882,0.47,2.82c1.175-1.29,2.701-2.347,4.463-2.82c1.293-0.353,2.819-0.117,3.995,0.591   c0.117-0.235,0.234-0.591,0.352-0.943c0.469-1.057,0.821-2.229,1.175-3.286c0.822-2.115,1.525-4.228,2.231-6.228   c1.409-4.464,2.584-9.045,3.523-13.508c0.706-3.407,1.058-6.693,1.41-10.1c0.235-2,0.352-4.464,1.291-6.346   c0-0.117,0-0.117,0-0.235c0.237-1.643,1.998-2.347,3.29-3.051c1.411-0.708,3.053-1.178,4.698-1.647   c3.525-0.82,7.284-1.056,10.807-0.938c3.642,0.235,7.165,0.821,10.572,1.76c1.645,0.474,3.288,1.062,4.816,1.765   c1.41,0.704,3.876,1.526,4.698,3.051c2.114,1.883,2.583,4.82,2.583,7.872c0,3.407-0.352,6.813-0.47,10.339   c-0.117,3.994-0.234,8.102,0.824,12.096c0.822,3.056,2.467,6.345,4.933,8.34c0.822-0.234,1.525-0.117,2.349,0.234   c0.939,0.47,1.645,1.766,2.114,2.704c0.235,0.469,0.352,0.938,0.587,1.408c0.353-1.174,0.704-2.347,1.175-3.403   c0.822-2,1.763-4.229,3.64-5.406c1.41-0.939,2.938-0.353,3.994,0.703c0.234-2.347,0.587-4.698,0.821-6.928   c0.354-2.82,0.707-5.754,1.176-8.574c0.117-1.409,0.352-2.703,0.586-3.995c-0.117-0.469,0-0.938,0.235-1.29   c0.237-1.178,0.472-2.469,0.707-3.76c0.235-1.525,0.587-3.056,0.939-4.463c0.117-0.471,0.234-0.939,0.469-1.408   C221.898,882.586,220.842,878.827,220.605,875.302L220.605,875.302z"/>
	<path fill="#B6A399" d="M131.335,717.784c-0.47-1.761-0.941-3.521-1.293-5.285c-0.469-3.168-0.704-6.341-0.117-9.514   c0.117-0.352,0.235-0.821,0.235-1.173c0-0.117,0-0.117,0-0.117c0.117-1.057,0.354-2,0.589-2.939   c0.47-1.877,1.174-3.642,2.113-5.284c1.879-3.29,5.052-5.755,8.929-5.993c3.405-0.117,6.578,1.53,9.514,3.172   c1.527,0.822,3.053,1.648,4.581,2.586c1.527,0.822,2.936,1.878,4.581,2.23c0.707,0.117,0.47,1.295-0.235,1.178   c-1.527-0.235-3.053-0.475-4.463-0.943c-1.527-0.587-3.053-1.29-4.58-1.995c-2.702-1.29-5.522-2.82-8.576-2.82   c-1.879,0-3.642,0.822-4.933,2.116c8.339-1.999,15.74,5.873,21.143,11.157c3.055,3.056,5.991,6.345,9.633,8.575   c2.466,1.412,5.754,2.703,8.692,3.643c1.763,0.586,3.64,0.938,5.402,1.524c7.636-1.761,15.153-4.228,22.2-7.866   c5.287-2.703,10.807-6.11,14.684-10.691c1.763-2.229,3.407-4.698,4.581-7.28c0.704-1.413,1.411-2.82,1.88-4.347   c0.586-1.412,1.058-2.703,2.114-3.877c0.117-0.234,0.235-0.352,0.353-0.352c-1.292-4.581-3.525-8.927-6.227-12.687   c-0.704-1.06-1.527-1.999-2.232-2.938c-1.762-1.056-3.053-2.586-4.346-4.112c-0.117,0-0.117,0-0.117-0.117   c-0.939,1.644-2.819,2.352-4.698,2.938c-1.762,0.588-3.643,1.175-5.403,1.526c-3.876,0.704-7.753,1.057-11.629,1.526   c-7.634,1.06-14.916,3.642-21.849,7.049c-5.989,2.938-12.215,6.458-19.028,6.814c-2.586,0.117-5.169,0-7.519-1.06   c-1.997-0.938-3.759-1.995-5.52-3.169c-3.642-2.586-7.167-5.642-11.158-7.519c-1.763-0.822-3.643-1.408-5.522-1.408   c-0.939,0-1.88,0.234-2.702,0.703c-3.053,4.347-5.756,8.928-7.636,13.978c-1.997,5.168-3.405,10.805-2.818,16.328   c0.117,1.995,0.587,3.995,1.176,5.873c2.702,2.116,5.402,4.11,8.338,5.637C123.229,714.968,127.223,716.611,131.335,717.784   L131.335,717.784z M191.709,685.366L191.709,685.366c0.237-1.173,0.471-2.347,1.058-3.29c0.587-1.057,1.408-1.643,2.349-2.347   c0.117-0.234,0.352-0.234,0.587-0.117c0.235-0.117,0.47-0.235,0.707-0.353c1.408-0.826,3.053-1.061,4.698-0.826   c3.053,0.474,6.93,2.352,8.103,5.406c0.117,0.354,0.117,0.705,0,0.939c0.117,0.47,0.237,0.938,0.354,1.408   c0.586,3.643-1.058,7.871-4.7,9.396c-4.227,1.765-9.514,0.117-11.863-3.994C191.946,689.713,191.357,687.479,191.709,685.366   L191.709,685.366z M117.475,685.835L117.475,685.835c-0.117-1.995,0.118-4.11,1.292-5.871c0.586-0.821,1.645-1.765,2.701-2.116   c1.645-1.995,4.935-1.761,7.167-0.704c2.114,1.056,3.757,3.172,3.991,5.52c0.354,4.229-2.231,8.574-6.458,9.636   C121.938,693.472,117.827,690.064,117.475,685.835L117.475,685.835z"/>
	<path fill="#B6A399" d="M190.653,625.693c0.117,1.296,0.234,2.586,0.353,3.76c0.352,2.586,0.821,5.051,1.527,7.519   c0.47,1.643,0.939,3.407,1.526,5.051c0.472,1.173,0.94,2.351,1.41,3.524c3.054,1.057,6.109,2.469,8.927,4.111   c0-0.939,0.234-1.882,0.352-2.703c0.118-1.408,0.118-2.699,0.118-4.111c0.117-1.995,0.117-3.994-0.118-5.989   c-0.117-1.174-0.234-2.233-0.352-3.407c-0.235-1.525-0.469-3.173-0.821-4.699c-0.235-1.173-0.472-2.347-0.707-3.406   c-1.056-3.878-2.349-7.632-4.229-11.156c-1.526-2.703-3.406-4.934-5.285-7.284c-0.352,0.938-0.822,1.881-1.056,2.82   c-0.589,1.642-0.941,3.407-1.175,5.167c-0.587,3.407-0.704,6.933-0.47,10.453C190.653,625.459,190.653,625.576,190.653,625.693   L190.653,625.693z"/>
	<path fill="#B6A399" d="M134.271,619.939c0.823,3.407,1.762,6.814,3.172,10.101c0.469,1.06,0.939,2.233,1.409,3.407   c0.588,1.295,1.292,2.468,1.997,3.76c0.47,0.703,0.941,1.407,1.41,2.116c0.939,1.525,1.997,3.051,3.171,4.463   c0.707,0.705,1.41,1.526,2.114,2.229c1.528-0.469,3.056-0.821,4.581-1.173c0.941-0.234,1.763-0.47,2.584-0.587   c-0.704-1.647-0.938-3.643-1.525-5.29c-0.587-1.642-1.176-3.402-1.997-5.049c-0.118-0.235-0.118-0.353-0.235-0.588   c-0.589-1.29-1.293-2.581-1.997-3.759c-0.939-1.76-1.998-3.403-3.173-4.933c-3.875-5.52-8.575-10.218-13.391-14.799   c-0.118,0.117-0.118,0.234-0.118,0.352c0.587,1.292,0.706,3.056,0.941,4.347C133.566,616.415,133.919,618.179,134.271,619.939   L134.271,619.939z"/>
	<path fill="#A48C82" d="M345.587,919.35c-3.525-4.698-9.867-6.459-15.153-7.983c-4.229-1.179-8.458-2.352-12.804-3.525   c0,0.234-0.118,0.47-0.235,0.587c-0.117,0.353-0.237,0.705-0.354,0.939c3.407,0.586,6.698,1.407,9.985,2.233   c3.407,0.938,6.813,1.995,9.985,3.286c3.171,1.295,6.342,2.703,8.928,5.05C345.822,919.702,345.704,919.467,345.587,919.35   L345.587,919.35z"/>
	<path fill="#A48C82" d="M288.853,901.379c-0.117,0.234-0.117,0.352-0.117,0.469c-0.352,1.061-0.589,2.117-0.707,3.29   c0,0.352-0.117,0.822-0.117,1.291c0,0.47,0,0.825,0,1.178c4.346,0,8.692,0,12.921,0.117c3.053,0.117,6.108,0.352,9.043,0.704   c1.646,0.117,3.173,0.353,4.816,0.587c0.237-0.587,0.472-1.174,0.824-1.761c-1.762-0.469-3.525-0.825-5.404-1.294   C303.064,904.434,295.9,903.025,288.853,901.379L288.853,901.379z"/>
	<path fill="#A48C82" d="M255.257,891.865c-0.704,0.938-1.408,1.999-1.997,2.938c0,0.117-0.118,0.234-0.118,0.352   c-1.762,3.407-2.818,7.046-2.936,10.923c8.692,1.412,17.502,1.646,26.194,1.646c2.936,0,5.991,0,8.927,0   c0-0.704,0.118-1.529,0.235-2.234c0-0.234,0.117-0.586,0.117-0.938c0.235-1.174,0.587-2.468,0.941-3.643   c-5.287-1.173-10.455-2.464-15.74-3.759C265.594,895.741,260.191,894.216,255.257,891.865L255.257,891.865z"/>
	<path fill="#A48C82" d="M242.57,882.351c-0.586,0.47-1.29,0.821-1.995,1.292c-3.876,2.232-8.692,4.463-12.804,3.289   c0,0.235,0,0.47-0.118,0.704c-0.234,1.526-0.469,3.056-0.704,4.464c-0.237,1.291-0.354,2.586-0.589,3.759   c2.701,2.234,5.639,4.229,8.809,5.755c3.995,1.764,8.224,3.056,12.452,3.994c0.118,0,0.118,0,0.235,0   c0.117-4.111,1.293-8.223,3.288-11.86l0,0c0.589-0.943,1.292-1.882,1.997-2.938C249.033,888.692,245.508,885.992,242.57,882.351   L242.57,882.351z"/>
	<path fill="#A48C82" d="M240.341,831.958c-0.354-0.47-0.707-1.058-0.941-1.761c-0.938-2.112-1.411-4.229-1.411-6.576   c0.118-2.586,0.707-6.228,2.821-7.988c-0.469-0.586-0.824-1.177-1.176-1.764c-1.056-2.464-1.645-5.168-1.173-7.871   c0.352-1.76,0.821-3.521,1.642-5.168c0.12-0.234,0.354-0.587,0.472-0.938c-0.117-0.234-0.234-0.352-0.352-0.47   c-1.879-2.468-3.055-5.519-3.524-8.575c-0.469-2.82-0.586-6.341,0.938-8.927c-0.469-0.469-0.938-1.057-1.408-1.643   c-0.824,2.229-1.997,4.464-3.056,6.459c-1.525,3.289-3.288,6.579-5.167,9.748c-3.29,5.406-6.695,10.926-11.042,15.507   c0,0.938-0.94,2.112-1.527,2.582c-1.174,1.06-2.584,1.999-4.111,2.586c-1.761,0.821-3.641,1.525-5.52,1.999   c-3.759,0.821-7.636,1.29-11.394,1.408c-3.876,0.234-7.988,0.117-11.513-1.529c-1.762-0.822-3.171-1.761-4.109-3.404   c-0.472-0.703-0.707-1.646-0.707-2.586c-0.353-1.878,0.941-4.228,1.527-5.871c0.705-1.999,1.409-4.111,2.115-6.11   c1.41-3.994,2.818-7.984,3.994-12.096c0.705-2.233,1.291-4.581,1.879-6.932c0.353-1.175,0.587-2.352,0.822-3.525   c-0.587-0.704-1.293-1.29-1.879-1.877c-1.646-1.409-3.405-2.469-5.167-3.408c-3.995-1.995-8.458-3.055-12.804-3.29   c-7.165-0.469-16.092,1.295-21.145,6.815c0,1.056,0.117,2.112,0.235,3.173c0.354,3.638,1.059,7.279,1.88,10.921   c0.821,3.291,1.763,6.581,2.818,9.749c0.471,1.765,1.058,3.525,1.528,5.167c0.586,1.765,1.292,3.525,1.645,5.289   c0.352,1.292,0.47,3.521-1.176,3.639c-0.352,0.591-0.704,1.177-1.291,1.529c-2.467,1.761-5.874,1.643-8.81,1.291   c-3.759-0.352-7.401-1.291-10.924-2.347c-2.938-0.943-5.991-1.883-8.692-3.173c-1.293-0.705-2.232-1.291-3.29-2.233   c-1.292-1.057-2.584-2.23-3.641-3.639c-0.589-0.708-1.292-1.529-1.645-2.351c-1.997-1.057-3.407-3.643-4.581-5.521   c-1.411-2.351-2.583-4.933-3.76-7.519c-0.938-2.229-1.879-4.581-2.701-6.931c0,0.473,0.118,0.942,0.118,1.528   c0.117,2.112,0.234,4.347,0,6.459c-0.118,1.646-0.469,3.407-0.938,5.051c2.701,1.06,4.581,4.11,5.871,6.462   c1.411,2.464,2.467,5.05,2.938,7.753c0.47,2.347,0.353,4.815-0.471,6.929c2.82,2.116,5.052,5.876,5.991,9.162   c0.704,1.999,0.821,4.229,0.47,6.344c2.583,0.471,5.287,2.113,7.167,3.761c1.525,1.173,2.818,2.464,3.992,4.111   c0.235,0.353,0.472,0.704,0.706,1.056c1.174,1.878,2.114,3.759,2.937,5.754c0.586,1.174,1.058,2.352,1.527,3.525   c1.057,3.056,1.998,6.224,2.584,9.396c0.235,1.174,0.47,2.351,0.587,3.524c0.118,1.29,0.118,2.699,0.118,3.993   c0.706-1.055,1.058-2.35,1.41-3.289c0.822-2.229,1.409-4.581,1.763-7.05c0.235-1.642,0.235-3.285,0.117-4.933   c4.816,2.586,9.866,4.698,15.153,6.346c11.511,3.407,23.726,4.464,35.708,3.285c6.109-0.703,12.215-1.877,18.207-3.754   c2.466-0.827,4.933-1.648,7.284-2.586c-0.12,1.055-0.354,2.115-0.354,3.172c-0.353,2.816-0.235,5.637,0.234,8.457   c0.355,2.465,0.824,5.168,2.467,7.046c0,0,0-0.118,0-0.235c-0.118-2.581,0-5.284,0.472-7.987c0.352-2.699,1.056-5.402,1.997-8.102   c0.587-1.882,1.291-3.643,1.997-5.524c0.939-2.111,1.997-4.229,3.171-6.224c0.821-1.408,1.645-2.938,2.584-4.229   C233.409,838.89,236.464,834.896,240.341,831.958L240.341,831.958z"/>
	<path fill="#A48C82" d="M200.873,910.893c-1.058-3.994-0.941-8.102-0.824-12.096c0.118-3.525,0.47-6.932,0.47-10.339   c0-3.052-0.47-5.989-2.583-7.872c-0.822-1.524-3.288-2.347-4.698-3.051c-1.528-0.703-3.171-1.291-4.816-1.765   c-3.407-0.938-6.93-1.524-10.572-1.76c-3.522-0.117-7.282,0.118-10.807,0.938c-1.645,0.47-3.288,0.939-4.698,1.647   c-1.292,0.704-3.053,1.408-3.29,3.051c0,0.118,0,0.118,0,0.235c-0.939,1.882-1.056,4.346-1.291,6.346   c-0.352,3.406-0.704,6.692-1.41,10.1c-0.939,4.463-2.115,9.044-3.523,13.508c-0.706,2-1.41,4.112-2.231,6.228   c-0.354,1.057-0.707,2.229-1.175,3.286c-0.118,0.353-0.235,0.708-0.352,0.943c0.938,0.586,1.645,1.525,1.997,2.581   c0.118,0.235,0.118,0.47,0.235,0.705c0.234,0,0.586-0.117,0.821-0.235c0.354,0,0.706-0.117,1.059-0.234   c0.117,0,0.234-0.118,0.353-0.118l0,0c0.117,0,0.117,0,0.117,0c0.352-0.117,0.704-0.234,1.056-0.469   c1.646-0.821,3.173-1.878,4.7-2.703c0.586-0.47,1.291-0.938,1.998-1.29c1.173-2.113,2.232-4.347,2.818-6.693   c0.938-2.938,1.41-6.111,1.645-9.284c0.353-3.168,0.587-6.458,0.939-9.748c0.235-1.525,0.469-3.052,0.704-4.464   c0.234-1.291,0.706-2.816,1.763-3.642c0.586-0.821,1.527-1.526,2.349-1.995c1.293-0.587,2.82-0.938,4.229-0.938   c2.349-0.117,5.757,0.117,7.871,1.642c0.235-0.117,0.586-0.117,0.821,0c1.41,0.705,2.114,2.352,2.583,3.761   c0.589,1.643,0.941,3.172,1.176,4.815c0.47,3.289,0.587,6.462,0.587,9.748c-0.117,3.29-0.117,6.697-0.352,9.987   c-0.118,1.643-0.118,3.286-0.235,4.934c0,0.234,0,0.469,0,0.821c0.353,0.234,0.704,0.469,1.056,0.703   c0.94,0.588,1.88,1.174,2.82,1.761c0.352,0.239,0.705,0.474,0.939,0.591c1.174,0.117,2.114,0.588,3.054,1.057   c1.292,0.704,2.466,1.29,3.759,1.878c0.235,0.117,0.47,0.234,0.707,0.352c0.47-0.939,1.173-1.761,1.995-2.464   c0.47-0.588,1.176-1.057,1.645-1.413c0.469-0.352,1.058-0.587,1.528-0.704C203.34,917.237,201.695,913.948,200.873,910.893   L200.873,910.893z"/>
	<path fill="#A48C82" d="M125.696,744.213c4.463,3.524,9.516,6.346,14.683,8.692c4.933,2.233,9.983,3.994,15.271,5.055   c6.108,1.291,12.687,1.174,18.912,0.352c8.692-1.294,17.265-4.11,25.136-7.988c3.877-1.999,7.634-4.111,11.159-6.579   c1.879-1.408,3.642-2.817,5.285-4.464c0.823-0.939,1.645-1.761,2.352-2.817c-0.235-1.294-0.235-2.584-0.355-3.876   c0-0.117,0-0.352,0-0.469c0-4.347,0.237-8.811,1.411-13.038c-1.291,1.056-2.701,1.994-3.994,2.934   c-2.819,1.999-5.754,3.876-8.81,5.523c-0.822,0.469-1.644,0.938-2.584,1.408c-4.346,2.938-10.103,3.994-15.153,4.814   c-6.695,1.057-13.625,2.117-20.555,2.703c-3.759,0.236-7.519,0.471-11.276,0.354c-1.88-0.117-3.994-0.117-5.873-0.471   c-1.763-0.352-3.525-0.825-5.287-1.177c-3.641-0.938-7.047-2.112-10.335-3.638c-1.762-0.826-3.525-1.647-5.287-2.586   c-0.821-0.353-1.643-0.822-2.466-1.291c-2.584-0.942-5.168-2.352-7.399-3.642c-0.704-0.354-1.293-0.822-1.997-1.174   c0.118,0.586,0.118,1.174,0.235,1.76c0.117,2.352,0.117,4.698,0,7.05c0,0.352,0,0.821-0.117,1.291   c-0.118,1.174-0.235,2.464-0.47,3.643C120.293,739.397,122.877,741.983,125.696,744.213L125.696,744.213z"/>
	<path fill="#A48C82" d="M117.003,716.494c2.232,1.998,4.701,3.759,7.284,5.284c2.584,1.412,5.52,2.586,7.869,4.581   c0.235,0.234,0.352,0.47,0.469,0.825c0.941,0.47,1.88,0.938,2.938,1.408c0.469,0.117,0.939,0.353,1.408,0.587   c0.472,0.117,0.941,0.353,1.411,0.587c2.819,1.056,5.756,1.882,8.81,2.352c7.165,0.938,14.684,1.056,21.965,0.234   c3.642-0.47,7.282-0.942,10.924-1.647c2.936-0.47,5.992-0.704,8.927-1.29c3.055-0.47,5.991-1.058,8.927-1.878   c0.704-0.234,1.293-0.47,1.997-0.708c0.587-0.353,1.293-0.705,1.88-1.175c1.88-1.056,3.759-2.229,5.637-3.289   c3.76-2.348,7.401-4.934,10.689-7.866c4.346-3.878,8.106-8.576,9.985-14.217c0-0.47,0.118-0.938,0.118-1.407   c0.118-0.236,0.235-0.588,0.47-0.705c0.704-2.82,0.94-5.637,0.704-8.457c-0.117-1.526-0.352-3.056-0.704-4.581   c-0.118-0.587-0.235-1.175-0.352-1.644c-0.118,0-0.235,0.117-0.353,0.352c-1.056,1.174-1.527,2.465-2.114,3.877   c-0.47,1.526-1.176,2.934-1.88,4.347c-1.174,2.582-2.818,5.051-4.581,7.28c-3.876,4.581-9.396,7.988-14.684,10.691   c-7.047,3.639-14.564,6.105-22.2,7.866c-1.762-0.587-3.639-0.938-5.402-1.524c-2.938-0.939-6.226-2.23-8.692-3.643   c-3.642-2.23-6.578-5.52-9.633-8.575c-5.403-5.284-12.804-13.156-21.143-11.157c-0.823,0.821-1.41,1.761-1.879,2.699   c-0.117,0.234-0.234,0.469-0.353,0.708c-0.586,1.408-0.94,2.935-1.527,4.347c-0.234,0.703-0.587,1.525-0.822,2.229   c-0.118,0.352-0.236,0.587-0.472,0.822c-0.234,0.352-0.469,0.586-0.821,0.938c-0.352,0.591-1.291,0.473-1.41-0.234   c-0.118-1.058-0.235-1.761-0.235-2.699c0,0.352-0.118,0.821-0.235,1.173c-0.586,3.173-0.352,6.346,0.117,9.514   c0.353,1.765,0.824,3.524,1.293,5.285c-4.112-1.173-8.105-2.816-11.865-4.933c-2.936-1.526-5.637-3.521-8.338-5.637   c0.704,2.116,1.643,3.993,2.819,5.754C114.889,714.264,115.83,715.438,117.003,716.494L117.003,716.494z"/>
	<path fill="#6C4C46" d="M279.336,746.917c0.117-1.058,0.235-2.112,0.235-3.173c-0.704,2.82-1.76,5.523-3.053,8.223   c-3.525,7.754-9.631,16.328-18.793,17.502c-3.993,0.469-7.988-0.234-11.277-2.465c-3.405-2.116-5.872-5.289-7.869-8.692   c-4.346-7.519-6.461-16.211-7.871-24.669c-0.705-3.759-1.293-7.636-1.645-11.512c-0.469-3.873-0.821-7.75-0.939-11.627   c0-0.234-0.117-0.469-0.117-0.586c-1.527,2.229-3.408,4.346-5.403,6.34c-0.119,1.174-0.354,2.352-0.471,3.525   c-1.997,12.569,0.117,25.49,4.818,37.234c2.347,5.758,5.285,11.395,8.81,16.681c0.47,0.586,0.939,1.173,1.291,1.764   c1.528,1.995,3.053,3.99,4.815,5.872c2.232,2.465,4.815,4.463,7.519,6.575c0.118,0,0.118,0.117,0.235,0.234   c0.352,0.117,0.587,0.234,0.939,0.234c0.117,0.122,0.235,0.122,0.235,0.122l0,0l0,0l0,0c0.118,0,0.235,0,0.352,0   c0.589,0.117,1.175,0.234,1.762,0.117l0,0h0.353c0.236,0,0.354,0,0.588,0c0.235-0.117,0.586-0.117,0.938-0.239   c0.117-0.117,0.353-0.117,0.47-0.117c0.117-0.117,0.117-0.117,0.234-0.117l0,0l0,0c0.235-0.117,0.589-0.234,0.941-0.352   c1.41-0.704,2.114-1.056,3.405-1.995c5.992-4.816,10.337-12.452,13.628-19.262c1.407-3.056,2.701-6.229,3.757-9.4   c0.824-2.816,1.528-5.637,2.114-8.576C279.219,747.973,279.336,747.503,279.336,746.917L279.336,746.917z"/>
	<path fill="#6C4C46" d="M273.7,789.557c-1.293-0.822-3.173-0.705-3.877-2.117c-0.586-1.056-0.235-2.581,0.117-3.876   c0.587-1.761,1.293-3.403,2.114-5.051c-1.527,2.468-3.29,4.815-5.285,6.932c-1.176,1.175-2.351,2.348-3.642,3.29   c-2.818,2.347-6.226,4.111-9.985,4.229c-1.762,0-3.522-0.356-5.167-1.061c-0.939-0.469-1.762-1.057-2.583-1.761   c-0.705-0.586-1.059-1.291-1.645-2.116c-1.176-0.938-2.232-1.995-3.405-3.051c0,0.587-0.118,1.291-0.118,1.995   c0.118,1.529,0.352,3.172,0.822,4.698c0.587,1.998,1.525,4.346,3.053,5.759c0.117,0.117,0.234,0.234,0.352,0.352   c3.172,2.699,7.167,2.347,10.924,1.174c4.111-1.174,8.223-3.056,12.1-4.815c1.291-0.588,2.701-1.292,4.112-2.117   c0.938-0.586,1.762-1.291,2.583-1.995C274.052,789.908,273.935,789.674,273.7,789.557L273.7,789.557z"/>
	<path fill="#6C4C46" d="M259.837,830.9c-2.349-2.698-3.522-6.457-2.701-9.865c-0.821,0.117-1.645,0.117-2.466,0.117   c-1.762,0-3.524-0.117-5.285-0.469c-2.114-0.47-4.229-1.291-5.991-2.586c-0.352,0.822-0.705,1.647-0.941,2.586   c-0.352,1.057-0.469,2.347-0.352,3.525c0.118,1.759,0.469,3.168,1.293,4.698c1.41,2.581,4.111,4.933,6.813,6.223   c1.056,0.47,2.114,0.821,3.172,1.174c2.112,0.591,4.346,0.825,6.458,0.708c0.589-0.117,1.176-0.117,1.88-0.234   c0.94-0.238,1.88-0.474,2.818-0.826c0.12,0,0.237,0,0.354-0.117c0.117-0.234,0.47-0.47,0.822-0.47c0-0.117,0.118-0.117,0.118-0.234   c-0.353-0.234-0.822-0.352-1.174-0.586C262.658,833.84,261.131,832.431,259.837,830.9L259.837,830.9z"/>
	<path fill="#6C4C46" d="M262.893,800.713c-1.293,0.587-2.584,1.061-3.877,1.53c-1.88,0.703-3.759,1.173-5.637,1.525   c-3.407,0.47-6.814,0.235-9.633-1.408c-0.117,0.117-0.117,0.234-0.117,0.234c-0.587,1.526-1.059,3.051-1.176,4.581   c-0.234,2.112,0.237,3.993,1.411,5.754c0.587,1.057,1.998,2.234,3.172,2.703c1.644,0.822,3.171,1.174,4.816,1.291   c3.17,0.353,6.343,0.118,9.396-0.469c0.823-0.117,1.527-0.353,2.349-0.471c0.704-0.234,1.41-0.352,1.997-0.586   c-0.47-0.234-1.058-0.587-1.527-0.942c-1.643-1.175-2.936-2.816-3.757-4.581c-0.824-1.761-0.472-3.639,0.469-5.285   C261.482,803.299,262.306,802.126,262.893,800.713L262.893,800.713z"/>
	<path fill="#6C4C46" d="M232,847.816c0.234,0.704,0.117,1.408-0.586,1.878c-0.237,0.238-0.472,0.356-0.707,0.474   c-2.584,4.933-4.698,10.1-5.637,15.502c-0.94,4.347-1.41,9.514,0.234,13.626c0.118,0.352,0.235,0.821,0.47,1.177   c0.118,0.235,0.235,0.353,0.235,0.47c0.117,0.117,0.117,0.117,0.117,0.117l0,0c0,0.117,0,0.117,0,0.117   c0.234,0.235,0.469,0.471,0.704,0.705c0,0.117,0.12,0.234,0.237,0.234l0,0c0,0.117,0.117,0.117,0.117,0.234   c0.235,0.118,0.352,0.235,0.587,0.353l0,0l0,0c0.235,0.117,0.587,0.234,0.822,0.352c0.118,0,0.235,0,0.352,0l0,0l0,0h0.117   c0.352,0.117,0.589,0.117,0.94,0.117c0.118,0,0.587,0,0.47,0c0.118,0,0.235,0,0.235,0c0.353-0.117,0.707-0.117,1.058-0.234   c0.352,0,0.704-0.117,0.938-0.234c0.118,0,0.353-0.117,0.353-0.117l0,0c0.117,0,0.235-0.117,0.47-0.117   c1.527-0.587,3.055-1.409,4.581-2.234c1.058-0.704,2.234-1.407,3.407-2.229c-3.525-1.761-5.637-5.872-6.226-9.749   c-0.587-4.346,0-8.809,1.41-12.921c1.408-4.347,3.524-8.574,6.46-12.1c1.173-1.524,2.819-3.29,4.581-4.58   c-2.115-1.174-3.994-2.586-5.522-4.229C238.226,838.537,234.819,842.884,232,847.816L232,847.816z"/>
	<path fill="#6C4C46" d="M134.036,867.787c0,0,0-0.591,0-0.474c0-0.234,0-0.47,0-0.587c-0.234-2.112-0.587-4.229-1.057-6.341   c-0.471-2.117-1.058-4.229-1.645-5.989c-1.176-3.525-2.701-6.932-4.698-10.104l0,0l0,0l0,0l0,0l0,0   c-0.117-0.117-0.234-0.352-0.352-0.469c0-0.118-0.118-0.235-0.235-0.354c-0.237-0.352-0.354-0.586-0.588-0.821   c-0.47-0.586-1.057-1.173-1.645-1.765c-1.174-0.938-2.466-1.994-3.758-2.698c-0.823-0.47-1.645-0.704-2.584-0.938   c-0.117,0.234-0.236,0.352-0.471,0.586c-0.469,0.704-1.056,1.292-1.643,1.878c1.643,2.352,2.702,5.402,3.523,7.988   c1.058,3.525,1.645,7.05,1.41,10.687c-0.117,3.525-1.175,6.933-3.29,9.87c-1.056,1.526-2.466,2.817-4.109,3.877   c-0.472,0.353-1.175,0.704-1.762,1.057c0.47,0.352,1.056,0.587,1.643,0.821c1.997,1.056,3.995,1.878,6.109,2.586   c1.762,0.587,3.642,1.173,5.521,1.643c1.526,0.353,3.053,0.47,4.581,0.822c0.469-0.47,0.821-0.588,1.291-0.939   c0.472-0.353,0.824-0.704,1.293-1.056c0-0.117,0-0.117,0.117-0.117l0,0l0,0l0,0c0-0.117,0.117-0.235,0.235-0.353   c0.117-0.234,0.234-0.353,0.352-0.591c0.118-0.117,0.235-0.353,0.352-0.47l0,0l0,0l0,0c0-0.117,0.117-0.353,0.117-0.353   c0.237-0.352,0.354-0.703,0.472-1.055c0.117-0.47,0.234-0.822,0.352-1.175c0-0.117,0.118-0.352,0.118-0.469   c0,0.117,0,0.117,0,0.117c0-0.117,0-0.352,0.117-0.47c0.117-1.06,0.234-1.999,0.234-2.938   C134.036,868.727,134.036,868.256,134.036,867.787L134.036,867.787z"/>
	<path fill="#6C4C46" d="M114.771,834.309c0.941-2.703,0.706-5.401-0.586-7.987c-1.056-1.878-2.466-3.525-3.642-5.403   c-0.353,0.353-0.704,0.705-1.056,0.939c-1.293,0.938-2.583,1.646-3.994,2.116c-0.939,0.353-1.879,0.587-2.819,0.704   c0.235,1.29,0.587,2.582,0.587,3.876c0,2.112-0.117,4.229-0.704,6.342c-0.588,1.761-1.527,3.407-2.938,4.464   c-0.704,0.352-1.526,0.586-2.35,0.586c-0.352,0.117-0.704,0.117-1.056,0.117c2.231,0.353,4.698,0.47,7.047,0.235   c0.47,0,1.059-0.117,1.528-0.117c3.759-0.587,8.34-1.878,9.866-5.755L114.771,834.309L114.771,834.309z"/>
	<path fill="#6C4C46" d="M109.018,815.75c0.352-1.294,0.235-3.055-0.117-4.581c-0.472-2.232-1.411-4.462-2.586-6.462   c-1.057-1.643-2.466-3.051-3.523-4.698c-0.586,1.057-1.292,1.882-2.114,2.703c-0.47,0.353-0.822,0.704-1.176,1.057   c-0.704,0.47-1.408,0.938-2.114,1.29c0.117,0.353,0.234,0.704,0.352,0.939c0.237,1.061,0.472,2.116,0.472,3.173   c0,2.234-0.707,4.346-1.762,6.11c-1.176,1.995-2.701,3.639-4.464,5.05c-0.586,0.47-1.293,0.821-1.763,1.292   c1.646,0.117,3.291,0,5.05,0c0.237-0.117,0.472-0.117,0.707-0.117c3.522-0.235,7.869-0.354,10.807-2.469   C107.959,818.098,108.665,817.159,109.018,815.75L109.018,815.75z"/>
	<path fill="#6C4C46" d="M99.267,777.104c0.117-0.117,0.234-0.234,0.352-0.469c0.119-0.471,0.354-1.057,0.823-1.292   c4.112-6.462,6.93-13.746,9.397-20.908c1.997-5.877,3.995-11.748,5.05-17.854c0.352-1.53,0.706-3.291,0.824-4.934   c0.234-1.413,0.352-2.938,0.352-4.346c0-1.648,0-3.173-0.234-4.699c-0.117-0.708-0.235-1.294-0.353-1.999   c-1.41-1.056-2.703-2.347-3.876-3.876c-0.47-0.588-0.941-1.174-1.293-1.761c-0.118,0.938-0.118,1.995-0.235,2.934   c-0.234,3.055-0.586,6.111-1.056,9.166c-0.589,3.286-1.176,6.458-2.114,9.632c-0.354,1.29-0.706,2.581-1.293,3.876   c-0.47,3.521-2.232,7.162-3.525,10.452c-1.408,3.291-2.818,6.58-4.581,9.748c-2.466,3.995-5.754,8.342-10.218,10.105   c-3.759,1.408-7.753,1.057-10.924-1.412c-1.293-1.057-2.349-2.229-3.29-3.643c0,0.117,0,0.117,0,0.117   c0.354,2.821,0.941,5.524,1.645,8.106c0.586,1.764,1.41,3.524,1.763,5.285c0.821,1.646,1.879,3.289,3.405,4.464   c2.232,1.881,4.935,2.585,7.636,2.232C92.571,785.21,96.449,781.216,99.267,777.104L99.267,777.104z"/>
	<path fill="#6C4C46" d="M98.093,799.305c1.997-2.468,2.701-5.638,2.818-8.81c0.118-1.761,0.118-3.524-0.117-5.285   c-0.117-1.056-0.234-1.999-0.353-2.938c-1.997,2.352-4.228,4.347-6.929,5.871c-1.059,0.591-2.231,1.062-3.525,1.413   c-0.821,0.234-1.528,0.352-2.349,0.469c0.117,0.353,0.234,0.587,0.352,0.938c0.469,1.644,0.587,3.291,0.587,4.934   c0,1.647-0.353,3.29-1.057,4.815c-0.234,0.47-0.586,0.943-0.938,1.413c1.056,0.234,2.112,0.352,3.17,0.352l0,0   C92.688,802.478,96.096,801.773,98.093,799.305L98.093,799.305z"/>
	<path fill="#7C5D55" d="M96.214,840.063c0.352,0,0.704,0,1.056-0.117c0.824,0,1.646-0.234,2.35-0.586   c1.41-1.057,2.349-2.703,2.938-4.464c0.587-2.112,0.704-4.229,0.704-6.342c0-1.294-0.352-2.586-0.587-3.876   c-2.114,0.469-4.463,0.586-6.578,0.704c-1.997,0.117-3.876,0.117-5.757-0.118c-0.704,0-1.41-0.117-2.114-0.352   c-1.879-0.352-3.523-1.056-4.816-2.233c-0.234,0.586-0.587,1.295-0.587,1.999c-0.234,1.525-0.117,2.934,0.353,4.347   c1.291,4.11,4.815,8.574,9.044,9.982C93.513,839.477,94.803,839.828,96.214,840.063L96.214,840.063z"/>
	<path fill="#7C5D55" d="M89.519,821.506c0.234,0,0.469,0,0.704,0.117c0.47-0.471,1.176-0.822,1.763-1.292   c1.763-1.411,3.288-3.055,4.464-5.05c1.056-1.765,1.762-3.876,1.762-6.11c0-1.057-0.235-2.112-0.472-3.173   c-0.117-0.235-0.234-0.587-0.352-0.939c-2.701,1.295-5.754,1.648-8.575,1.413c-1.174-0.118-2.229-0.353-3.171-0.709   c-1.175-0.352-2.349-0.821-3.405-1.407c-0.354-0.117-0.588-0.352-0.94-0.587c0,1.056-0.235,2.116-0.117,3.173   c0,1.642,0.117,3.402,0.469,4.933c0.234,1.643,0.823,3.29,1.527,4.815c0.704,1.291,1.879,2.586,2.466,4.111   C86.935,821.152,88.343,821.388,89.519,821.506L89.519,821.506z"/>
	<path fill="#7C5D55" d="M280.277,762.541c0-0.235,0-0.591-0.118-0.826c-0.706,2.234-1.644,4.464-2.585,6.58   c-1.525,3.408-3.405,6.932-5.52,10.218c-0.821,1.647-1.527,3.29-2.114,5.051c-0.352,1.295-0.704,2.82-0.117,3.876   c0.704,1.412,2.583,1.295,3.877,2.117c0.235,0.117,0.352,0.352,0.469,0.469c0.352-0.234,0.586-0.586,0.939-0.938   c0.237-1.179,0.941-2.234,1.41-3.291c0.586-1.408,1.174-2.82,1.645-4.346c0.939-3.056,1.645-6.107,1.879-9.279   C280.395,769,280.512,765.709,280.277,762.541L280.277,762.541z"/>
	<path fill="#7C5D55" d="M277.339,791.786c-2.349,3.407-6.695,5.406-10.335,7.05c-1.293,0.704-2.704,1.29-4.111,1.877   c-0.587,1.413-1.411,2.586-2.115,3.877c-0.941,1.646-1.293,3.524-0.469,5.285c0.822,1.765,2.114,3.406,3.757,4.581   c0.469,0.355,1.058,0.708,1.527,0.942c1.176-0.352,2.232-0.708,3.408-1.061c0.352-0.117,0.938-0.352,1.408-0.469   c0.941-1.408,2.114-2.7,2.583-3.169c1.645-2.586,2.821-5.523,3.408-8.457c0.586-3.173,0.704-6.229,0.938-9.397   C277.339,792.49,277.339,792.139,277.339,791.786L277.339,791.786z"/>
	<path fill="#7C5D55" d="M272.523,816.924c-0.469,0.235-0.938,0.47-1.525,0.353c-0.118,0.117-0.118,0.117-0.236,0.234   c-1.292,0.704-2.819,1.291-4.347,1.647c-1.409,0.469-2.818,0.821-4.11,1.056c-1.762,0.353-3.407,0.704-5.169,0.821   c-0.821,3.408,0.352,7.167,2.701,9.865c1.293,1.53,2.82,2.939,4.818,3.644c0.352,0.234,0.821,0.352,1.174,0.586   c0.352-0.469,0.823-0.821,1.175-1.29c0.821-0.822,1.526-1.765,2.114-2.703c1.174-1.644,1.998-3.408,2.584-5.403   c0.469-1.877,0.704-3.876,0.821-5.871C272.523,818.802,272.523,817.862,272.523,816.924L272.523,816.924z"/>
	<path fill="#7C5D55" d="M272.406,753.613c2.349-4.111,3.995-8.574,5.168-13.155c0.472-2.117,0.824-4.347,1.176-6.462   c0.117-0.588,0.117-1.175,0.234-1.644c-1.88-11.865-6.461-23.143-11.511-33.948c-2.701-5.637-5.522-11.395-8.927-16.797   c-1.88-3.057-3.877-6.107-5.874-9.045c-0.587-0.938-1.173-1.878-1.762-2.703c-1.761-2.112-3.406-4.347-5.05-6.459   c-8.224-9.631-18.089-17.854-29.13-23.96c-1.998-1.178-3.995-2.233-6.109-3.173c-0.234,5.167-0.821,10.688-2.819,15.503   c2.819,1.999,5.403,4.111,7.752,6.462c0.941,0.939,1.762,1.761,2.703,2.699c1.525,1.413,3.171,2.82,4.581,4.347   c2.936,3.407,5.638,7.167,7.517,11.278c4.111,8.927,4.581,18.91,0.705,27.837c0.234,3.407,0.234,6.814,0.471,10.105   c0.352,3.993,0.821,7.866,1.291,11.743c1.059,8.105,2.584,16.328,5.64,23.964c2.583,6.576,6.93,14.564,14.446,15.854   C261.717,767.474,268.413,760.658,272.406,753.613L272.406,753.613z"/>
	<path fill="#7C5D55" d="M264.536,840.063c-1.408,0.587-2.936,0.939-4.463,1.061c-2.819,0.235-5.754,0-8.456-0.825   c-0.588,0.352-1.175,0.825-1.763,1.178c-1.41,1.173-2.583,2.465-3.759,3.872c-2.349,3.173-4.346,6.697-5.637,10.457   c-1.176,3.29-1.997,7.045-1.645,10.688c0.234,1.646,0.586,3.29,1.29,4.815c0.941,1.999,2.349,2.938,4.229,3.876   c0.237,0.118,0.354,0.118,0.471,0.235c0.822-0.704,1.644-1.408,2.467-2.112c2.818-2.469,5.52-5.168,7.751-7.754   c2.467-2.82,4.581-5.871,6.227-9.278c1.41-2.938,2.584-6.106,2.936-9.396c0.352-1.765,0.235-3.525,0.352-5.285   C264.536,841.123,264.536,840.532,264.536,840.063L264.536,840.063z"/>
	<path fill="#7C5D55" d="M211.443,659.642c-2.115-1.995-4.347-3.76-6.813-5.285c-3.522-2.233-7.282-3.994-11.276-5.286   c-5.285-1.764-10.924-2.703-16.68-2.938c-6.342-0.234-12.685,0.234-18.911,1.409c-2.938,0.474-5.756,1.06-8.575,1.647l0,0   c-0.234,0.234-0.586,0.352-0.939,0.469c-0.824,0.234-1.645,0.587-2.586,0.821c-1.408,0.352-2.819,0.939-4.111,1.526   c-2.818,1.294-5.402,2.938-7.868,4.815c-3.877,3.055-7.399,6.579-10.455,10.456c-0.705,0.938-1.525,1.878-2.114,2.82   c-0.235,0.353-0.47,0.587-0.705,0.938c0.822-0.469,1.763-0.703,2.702-0.703c1.879,0,3.759,0.586,5.522,1.408   c3.991,1.877,7.517,4.933,11.158,7.519c1.76,1.174,3.522,2.23,5.52,3.169c2.349,1.06,4.933,1.177,7.519,1.06   c6.813-0.356,13.039-3.876,19.028-6.814c6.933-3.407,14.214-5.989,21.849-7.049c3.876-0.47,7.753-0.822,11.629-1.526   c1.76-0.352,3.641-0.938,5.403-1.526c1.879-0.586,3.759-1.294,4.698-2.938c-0.705-0.82-1.525-1.642-2.349-2.469   C212.501,660.697,212.032,660.11,211.443,659.642L211.443,659.642z"/>
	<path fill="#7C5D55" d="M183.724,593.627c-0.353,5.99-0.941,12.1-0.824,18.09c0,4.463,0.471,9.044,1.762,13.391l0,0   c0.234,0.117,0.352,0.586,0.234,0.942c0.235,0.939,0.587,1.878,0.941,2.815c0.117,0.354,0.235,0.705,0.47,1.058   c1.056,2.82,2.583,5.406,4.111,7.987c-0.118-0.352-0.118-0.586-0.235-0.938c-0.706-2.585-1.292-5.167-1.645-7.87   c-0.118-1.174-0.235-2.466-0.352-3.643c0-0.117,0-0.234,0-0.352c-0.235-3.76-0.118-7.516,0.47-11.158   c0.352-1.881,0.704-3.641,1.29-5.406c0.472-1.642,1.059-3.52,2.352-4.697c0.587-0.47,1.409,0,1.526,0.708   c3.29,1.525,5.756,4.934,7.401,8.102c2.114,3.642,3.522,7.636,4.581,11.748c0.47,1.881,0.822,3.759,1.173,5.637   c0.117,0,0.117,0,0.235,0c-0.352-8.219-1.995-16.56-4.816-24.313c-1.997-5.637-4.698-11.043-8.105-15.976   c-1.878-2.581-3.875-4.933-6.106-7.162c-1.176-1.178-2.349-2.234-3.525-3.291c-0.586-0.47-1.056-0.938-1.525-1.29   c0.47,2.112,0.587,4.346,0.704,6.459C183.958,587.521,183.841,590.572,183.724,593.627L183.724,593.627z"/>
	<path fill="#7C5D55" d="M160.465,643.195c9.75-1.525,19.969-1.525,29.602,0.826c-0.823-1.295-1.645-2.704-2.467-3.994   c-1.879-2.938-3.524-6.11-4.817-9.396c-0.353-0.708-0.587-1.412-0.822-2.117c-0.704-0.117-1.41-0.234-2.232-0.352   c-0.704,0.117-1.41,0.352-2.114,0.469c-5.756,1.292-11.628,1.878-17.385,2.82C160.817,635.329,160.935,639.323,160.465,643.195   L160.465,643.195z"/>
	<path fill="#7C5D55" d="M120.998,599.265c1.176,5.759,2.232,11.63,3.876,17.385c1.646,5.876,3.995,11.513,7.399,16.563   c0.587,0.939,1.176,1.765,1.763,2.586c0.94,1.174,1.762,2.229,2.701,3.404c0.469,0.591,1.058,1.177,1.527,1.764   c1.176,1.174,2.232,2.347,3.525,3.407c0.938,0.821,1.998,1.525,2.936,2.348c0.118,0,0.118,0,0.235,0   c-0.469-0.588-1.056-1.174-1.527-1.761c-1.174-1.291-2.349-2.82-3.288-4.347c-0.587-0.703-1.058-1.528-1.527-2.351   c-0.705-1.173-1.411-2.465-1.997-3.759c-0.587-1.057-1.056-2.23-1.526-3.404c-1.41-3.407-2.469-7.049-3.29-10.691   c-0.352-1.76-0.704-3.642-0.821-5.401c-0.118-0.939-0.118-1.878-0.235-2.821c0-0.822-0.117-1.643,0.235-2.347v-0.117   c0-0.822,0-0.822-0.235-1.53c-0.235-0.821,0.587-1.407,1.291-1.407c0.822,0,1.41,0.703,1.997,1.173   c0.704,0.586,1.41,1.295,2.232,1.882c1.41,1.29,2.818,2.699,4.229,4.11c2.701,2.817,5.167,5.639,7.399,8.811   c1.41,1.995,2.703,3.994,3.877,5.988c0.706,1.292,1.293,2.586,1.88,3.878c0,0,0,0.117,0.117,0.117   c0.704,1.761,1.41,3.524,2.114,5.402c0.235,1.057,0.704,2.116,1.058,3.289c0-1.173,0-2.469-0.117-3.642   c0-1.878-0.237-3.759-0.471-5.754c-0.235-1.291-0.47-2.703-0.822-4.111c-1.879-7.988-5.522-15.742-10.455-22.318   c-3.524-4.698-7.517-8.926-12.216-12.686c-2.584-2-5.286-3.995-8.221-5.52c-2.349-1.296-4.935-2.234-7.401-3.525   c0.824,2.112,1.411,4.347,1.88,6.459C119.824,593.275,120.411,596.213,120.998,599.265L120.998,599.265z"/>
	<path fill="#7C5D55" d="M86.7,767.708c3.992-1.999,6.693-5.993,8.692-9.748c1.526-3.056,2.936-6.228,4.227-9.283   c0.941-2.112,1.762-4.464,2.938-6.576c0.234-0.821,0.47-1.643,0.704-2.468c0.47-1.409,0.822-2.816,1.176-4.347   c0.704-3.051,1.291-6.106,1.525-9.279c0.353-3.051,0.707-6.106,0.941-9.161c0.117-1.526,0.234-3.055,0.352-4.581   c0-0.939,0-1.995,0.235-2.934c-0.469-1.061-0.821-2.233-1.058-3.408c-0.234-0.938-0.47-1.998-0.587-2.938   c-0.234-2.347-0.234-4.815,0-7.167c1.059-11.508,7.049-22.552,14.331-31.361c3.758-4.698,8.104-9.162,13.156-12.568   c2.232-1.526,4.698-2.818,7.282-3.873c-1.762-1.295-3.288-3.056-4.699-4.469c-0.821-0.938-1.645-1.759-2.349-2.698   c-10.103,5.284-19.616,11.513-27.956,19.262c-4.581,4.347-8.927,8.928-12.569,14.096c-3.757,5.406-6.812,11.277-9.396,17.384   c-2.702,6.58-4.815,13.273-6.93,19.971c-1.411,5.051-2.701,9.983-4.346,14.916c-0.235,1.178-0.352,2.351-0.469,3.642   c-0.823,5.876-1.059,11.982-0.706,17.972c0.234,3.76,0.588,7.519,0.94,11.278c0.117,0.117,0.117,0.117,0.117,0.234   c0.586,1.056,1.176,2.112,1.88,3.173c1.173,1.644,2.35,3.403,3.994,4.581C80.826,769.117,83.879,769.234,86.7,767.708L86.7,767.708   z"/>
	<path fill="#7C5D55" d="M115.595,847.816c-0.589-2.229-1.645-4.347-2.466-6.576c-2.351,1.408-5.169,2.229-7.988,2.465   c-2.936,0.353-5.991,0.353-8.927-0.117c-1.528-0.235-3.056-0.704-4.463-1.174c-1.998-0.703-3.76-1.765-5.404-3.172   c0,0.703,0,1.407,0,1.998c0.237,10.102,6.46,18.441,13.861,24.664c2.115,1.766,4.346,3.408,6.696,4.816   c0.586-0.587,1.525-0.821,2.349-1.174c0.704-0.234,1.408-0.586,1.997-1.057c1.173-0.82,2.349-1.764,3.17-2.938   c1.645-2.464,2.349-5.402,2.466-8.223C117.003,854.162,116.417,850.871,115.595,847.816L115.595,847.816z"/>
	<path fill="#7C5D55" d="M84.349,801.656c0.706,0.234,1.528,0.352,2.234,0.47c0.352-0.47,0.704-0.943,0.938-1.413   c0.705-1.525,1.057-3.168,1.057-4.815c0-1.643-0.118-3.29-0.587-4.934c-0.118-0.352-0.235-0.586-0.352-0.938   c-2.349,0.353-4.816,0.117-7.047-0.938c-1.879-0.944-3.524-2.352-4.935-3.878c0.236,1.292,0.589,2.699,0.941,4.112   c0.586,2.112,1.41,4.345,2.466,6.457c0.469,0.939,0.938,1.883,1.527,2.821c0.469,0.704,1.174,1.525,1.645,2.229   C82.94,801.183,83.645,801.418,84.349,801.656L84.349,801.656z"/>
	<path fill="#351B10" d="M349.696,912.07c-2.818-3.29-6.46-5.993-10.101-8.34c-3.407-2.234-6.93-3.995-10.689-5.521   c-13.273-5.172-27.604-5.993-41.465-7.988c-6.93-0.942-13.742-2.352-20.32-4.698c-5.991-2.117-11.513-5.523-16.446-9.396   c3.29-3.056,6.343-6.345,9.162-9.752c2.703-3.169,4.698-6.928,6.344-10.806c1.175-3.055,1.997-6.345,2.349-9.514   c0.234-2.586,0.352-5.406-0.47-7.87c0.587-0.47,1.058-1.057,1.527-1.529c0.939-0.939,1.763-1.995,2.466-3.052   c1.411-1.882,2.35-4.111,3.054-6.345c0.588-2.23,0.824-4.464,0.941-6.812c0-2.116-0.117-4.346-0.704-6.462   c0.469-0.705,1.056-1.408,1.525-2.112c1.646-2.703,2.583-5.876,3.172-8.928c0.704-3.055,0.822-6.228,0.704-9.396   c0-1.529-0.117-3.172-0.234-4.698c0-1.06,0-2.115-0.235-3.172c0.352-1.056,0.705-1.999,1.057-3.056   c1.058-3.172,1.762-6.459,2.114-9.748c0.352-3.407,0.352-6.815,0.117-10.101c-0.117-2.82-0.47-5.641-1.408-8.34   c0.469-1.882,0.704-3.76,0.938-5.641c0-0.471,0.118-0.939,0.118-1.526c0.352-1.409,0.47-2.938,0.587-4.229   c0.117-3.172,0-6.223-0.352-9.396c-0.587-6.34-2.349-12.568-4.346-18.675c-2.115-6.11-4.581-11.982-7.399-17.736   c-2.584-5.759-5.404-11.396-8.575-16.798c-1.997-3.29-4.229-6.463-6.46-9.515c-1.176-1.646-2.232-3.172-3.525-4.581   c-0.587-0.703-1.173-1.411-1.762-2.115c-1.76-2.699-3.758-5.168-5.872-7.401c-4.229-4.815-9.162-9.162-14.214-12.918   c-6.344-4.818-13.273-9.048-20.555-12.334c-0.118-4.815-0.587-9.631-1.528-14.333c-2.232-11.979-7.165-23.961-14.918-33.357   c-1.644-1.998-3.523-3.759-5.402-5.402c-1.763-1.412-4.229-3.289-6.578-3.407h-0.117l0,0c-0.118-0.117-0.118-0.234-0.118-0.352   c-0.352-0.588-1.293-0.47-1.41,0.234c-0.47,3.173,0,6.459,0,9.632c0,3.172-0.234,6.34-0.352,9.513   c-0.47,5.993-1.057,11.982-0.939,18.089c0,4.346,0.586,8.692,1.643,12.922c-0.587,0-1.292,0.117-1.878,0.117   c-1.88,0.352-3.759,0.469-5.639,0.586c-3.523,0.239-7.047,0.591-10.572,1.062c-1.174,0.117-2.349,0.234-3.523,0.352   c-1.293-5.76-3.524-11.514-6.343-16.563c-5.992-10.688-14.918-19.971-25.491-25.959c-3.405-1.878-7.634-4.112-11.628-3.995   c-0.117,0-0.352,0-0.47,0c-0.471-0.234-1.292,0.235-1.175,0.939c0.235,3.173,1.058,6.228,1.762,9.161   c0.587,3.174,1.174,6.229,1.762,9.401c1.057,6.105,2.115,12.213,3.877,18.205c1.76,6.107,4.346,11.861,7.869,17.15   c0.352,0.587,0.821,1.291,1.292,1.878c-7.519,4.111-14.801,9.045-21.496,14.447c-9.985,7.987-18.795,17.619-24.667,29.014   c-5.052,9.631-8.457,19.971-11.276,30.423c-0.12,0.118-0.237,0.235-0.354,0.353c-1.291,2.703-1.879,5.754-2.584,8.692   c-0.821,3.055-1.527,6.224-2.114,9.396c-0.939,6.11-1.056,12.334-0.822,18.558c0.352,6.111,0.822,12.334,1.763,18.328   c0.469,2.816,0.938,5.402,1.761,8.102c0.352,1.294,0.706,2.703,1.292,4.111c0,1.178,0,2.351,0,3.29   c0.117,2.586,0.352,5.167,0.938,7.753c0.589,2.582,1.411,5.051,2.467,7.401c0.707,1.644,1.762,3.521,2.938,5.051   c-0.47,1.29-0.587,2.816-0.705,4.347c-0.117,1.876,0,3.876,0.353,5.871c0.352,1.76,0.939,3.524,1.643,5.167   c0.471,0.822,0.941,1.882,1.528,2.703c-1.174,1.292-1.763,3.525-1.763,5.051c-0.117,2.464,0.589,4.933,1.646,7.167   c0.704,1.408,1.527,2.816,2.584,4.111c-1.174,1.76-1.292,4.463-1.174,6.458c0.117,2.586,0.587,5.05,1.409,7.401   c1.645,4.815,4.581,9.162,7.988,12.921c6.578,7.28,15.387,13.274,24.784,16.677c3.642,1.296,7.871,2.82,11.865,2.703   c0,0.469,0,0.939,0,1.408c0,1.646,0.117,3.173,0.235,4.699c0.117,3.406,0.352,6.696,0.586,9.987c0.117,3.051,0.234,6.223,0,9.278   c-0.117,1.525-0.235,3.056-0.469,4.58c-0.235,1.058-0.469,1.879-0.469,2.821c-0.117,0.234-0.117,0.352-0.117,0.587   c-0.237,0.938-0.589,1.994-0.942,2.934c-0.586,0.704-1.173,1.646-1.407,2.703c-0.118,0.353-0.235,0.821-0.235,1.174   c-0.119,0.234-0.237,0.47-0.354,0.704c-0.47,0.942-0.47,2.116,0.472,2.82c0.352,0.118,0.704,0.235,1.056,0.353   c1.646,1.765,4.347,2.469,6.696,2.82c3.524,0.469,7.165,0.117,10.689-0.352c3.053-0.47,6.226-1.061,9.279-1.883   c1.292-0.469,2.584-0.938,3.759-1.643c1.526-0.938,2.937-1.881,4.229-3.056c0.821-0.821,1.997-1.759,2.466-2.938   c0.469-0.47,0.938-0.938,1.293-1.526c0.939-1.29,1.76-2.82,2.229-4.228c1.293-3.173,1.762-6.576,2.234-9.866   c0.47-3.408,0.704-6.814,1.057-10.218c0.117-1.53,0.234-3.056,0.469-4.581c0-0.825,0.234-1.882,0.117-2.82   c0.352-0.117,0.706-0.352,1.058-0.352c1.057-0.354,2.115-0.588,3.289-0.705c1.058,0,2.114,0.234,3.055,0.469   c1.291,0.354,2.467,1.058,3.64,1.175c0.117,0,0.234,0,0.234,0c0.12,0.469,0.237,0.821,0.237,1.174   c0.353,1.529,0.705,3.173,0.939,4.697c0.352,3.291,0.469,6.463,0.352,9.753c0,3.286-0.235,6.576,0,9.748   c0,0.587,0,2.348,0.352,4.112c-0.586,0.469-0.821,1.29-0.586,1.995c0.469,1.173,1.763,1.881,2.701,2.586   c1.058,0.703,2.232,1.407,3.408,1.994c0.469,0.235,1.056,0.47,1.645,0.705c1.526,1.764,4.229,2.703,6.224,3.641   c1.528,0.705,3.056,1.175,4.581,1.648c3.173,0.938,6.46,1.76,9.868,2.112c2.349,0.234,5.051,0.352,7.165-0.705   c1.528,0.47,3.291-0.704,3.995-2.116c0.821-1.525,0.938-3.169,0.704-4.815c-0.117-1.643-0.586-3.286-0.938-4.933   c-0.118,0-0.118-0.117-0.118-0.234c0.118-0.236,0.118-0.354,0.235-0.588c0.469-2.938,0.586-5.871,0.821-8.691   c0.352-2.82,0.706-5.754,1.059-8.693c0-0.234,0.117-0.586,0.117-0.821c2.702,2.23,5.874,3.995,8.927,5.52   c4.816,2.234,9.985,3.525,15.153,4.464c11.16,2,22.552,2,33.829,2c9.515,0,19.146-0.118,28.66,1.055   c0.706,0.118,1.528,0.235,2.232,0.353c4.463,0.587,8.81,1.644,13.039,2.82c3.055,0.822,5.991,1.761,8.81,2.935   c1.645,0.587,3.29,1.412,4.818,2.117c2.701,2.934,7.751,4.462,10.452,0.938C354.16,918.881,351.928,914.77,349.696,912.07   L349.696,912.07z M264.184,846.878L264.184,846.878c-0.352,3.29-1.526,6.458-2.936,9.396c-1.646,3.407-3.76,6.458-6.227,9.278   c-2.231,2.586-4.933,5.285-7.751,7.754c-0.823,0.704-1.645,1.408-2.467,2.112c-0.117-0.117-0.234-0.117-0.471-0.235   c-1.88-0.938-3.288-1.877-4.229-3.876c-0.704-1.525-1.056-3.169-1.29-4.815c-0.352-3.643,0.469-7.397,1.645-10.688   c1.291-3.76,3.288-7.284,5.637-10.457c1.175-1.407,2.349-2.699,3.759-3.872c0.587-0.353,1.174-0.826,1.763-1.178   c2.701,0.825,5.637,1.061,8.456,0.825c1.528-0.121,3.055-0.474,4.463-1.061c0,0.47,0,1.061,0,1.53   C264.418,843.353,264.536,845.113,264.184,846.878L264.184,846.878z M238.107,880.234L238.107,880.234   c-1.525,0.825-3.054,1.647-4.581,2.234c-0.235,0-0.353,0.117-0.47,0.117l0,0c0,0-0.235,0.117-0.353,0.117   c-0.234,0.117-0.586,0.234-0.938,0.234c-0.352,0.117-0.706,0.117-1.058,0.234c0,0-0.117,0-0.235,0c0.118,0-0.352,0-0.47,0   c-0.352,0-0.588,0-0.94-0.117h-0.117l0,0l0,0c-0.117,0-0.234,0-0.352,0c-0.234-0.117-0.587-0.234-0.822-0.352l0,0l0,0   c-0.235-0.117-0.352-0.234-0.587-0.353c0-0.117-0.117-0.117-0.117-0.234l0,0l0,0c-0.117,0-0.237-0.117-0.237-0.234   c-0.234-0.234-0.469-0.47-0.704-0.705c0,0,0,0,0-0.117l0,0c0,0,0,0-0.117-0.117c0-0.117-0.117-0.234-0.235-0.47   c-0.234-0.355-0.352-0.825-0.47-1.177c-1.644-4.112-1.175-9.279-0.234-13.626c0.939-5.402,3.053-10.569,5.637-15.502   c0.235-0.117,0.47-0.235,0.707-0.474c0.704-0.47,0.821-1.174,0.586-1.878c2.818-4.933,6.226-9.279,10.218-13.391   c1.528,1.644,3.407,3.056,5.522,4.229c-1.762,1.29-3.408,3.056-4.581,4.58c-2.936,3.525-5.052,7.753-6.46,12.1   c-1.41,4.112-1.998,8.575-1.41,12.921c0.588,3.877,2.701,7.988,6.226,9.749C240.341,878.827,239.165,879.53,238.107,880.234   L238.107,880.234z M271.703,825.733L271.703,825.733c-0.586,1.995-1.41,3.76-2.584,5.403c-0.588,0.938-1.293,1.881-2.114,2.703   c-0.352,0.469-0.823,0.821-1.175,1.29c0,0.117-0.118,0.117-0.118,0.234c-0.352,0-0.705,0.235-0.822,0.47   c-0.117,0.117-0.234,0.117-0.354,0.117c-0.938,0.353-1.878,0.588-2.818,0.826c-0.704,0.117-1.291,0.117-1.88,0.234   c-2.113,0.117-4.346-0.117-6.458-0.708c-1.058-0.353-2.116-0.704-3.172-1.174c-2.702-1.29-5.403-3.642-6.813-6.223   c-0.824-1.53-1.176-2.939-1.293-4.698c-0.117-1.179,0-2.469,0.352-3.525c0.237-0.938,0.589-1.764,0.941-2.586   c1.762,1.295,3.876,2.116,5.991,2.586c1.761,0.352,3.523,0.469,5.285,0.469c0.821,0,1.645,0,2.466-0.117   c1.763-0.117,3.408-0.469,5.169-0.821c1.292-0.234,2.701-0.587,4.11-1.056c1.528-0.356,3.055-0.943,4.347-1.647   c0.119-0.117,0.119-0.117,0.236-0.234c0.587,0.117,1.056-0.117,1.525-0.353c0,0.938,0,1.878,0,2.938   C272.406,821.857,272.172,823.856,271.703,825.733L271.703,825.733z M237.051,775.462L237.051,775.462   c-0.352-0.591-0.821-1.178-1.291-1.764c-3.525-5.286-6.462-10.923-8.81-16.681c-4.701-11.744-6.815-24.665-4.818-37.234   c0.117-1.174,0.352-2.352,0.471-3.525c1.995-1.994,3.875-4.11,5.403-6.34c0,0.117,0.117,0.352,0.117,0.586   c0.118,3.877,0.47,7.754,0.939,11.627c0.352,3.876,0.94,7.753,1.645,11.512c1.41,8.458,3.525,17.15,7.871,24.669   c1.997,3.403,4.463,6.576,7.869,8.692c3.29,2.23,7.284,2.934,11.277,2.465c9.162-1.174,15.269-9.748,18.793-17.502   c1.293-2.699,2.349-5.402,3.053-8.223c0,1.061-0.118,2.115-0.235,3.173c0,0.586-0.117,1.056,0,1.642   c-0.586,2.939-1.291,5.76-2.114,8.576c-1.056,3.172-2.35,6.345-3.757,9.4c-3.291,6.81-7.636,14.445-13.628,19.262   c-1.291,0.939-1.995,1.291-3.405,1.995c-0.352,0.117-0.706,0.234-0.941,0.352l0,0l0,0c-0.117,0-0.117,0-0.234,0.117   c-0.117,0-0.353,0-0.47,0.117c-0.352,0.122-0.704,0.122-0.938,0.239c-0.234,0-0.352,0-0.588,0h-0.353l0,0   c-0.587,0.117-1.173,0-1.762-0.117c-0.117,0-0.234,0-0.352,0l0,0l0,0l0,0c0,0-0.118,0-0.235-0.122   c-0.352,0-0.587-0.117-0.939-0.234c-0.117-0.117-0.117-0.234-0.235-0.234c-2.703-2.112-5.287-4.11-7.519-6.575   C240.104,779.452,238.579,777.457,237.051,775.462L237.051,775.462z M207.449,722.365L207.449,722.365   c-1.877,1.06-3.757,2.233-5.637,3.289c-0.586,0.47-1.293,0.822-1.88,1.175c-0.704,0.238-1.292,0.474-1.997,0.708   c-2.937,0.82-5.872,1.408-8.927,1.878c-2.936,0.586-5.991,0.82-8.927,1.29c-3.642,0.705-7.282,1.178-10.924,1.647   c-7.282,0.821-14.801,0.704-21.965-0.234c-3.053-0.47-5.991-1.296-8.81-2.352c-0.47-0.234-0.939-0.47-1.411-0.587   c-0.469-0.234-0.938-0.47-1.408-0.587c-1.059-0.47-1.998-0.938-2.938-1.408c-0.117-0.355-0.234-0.591-0.469-0.825   c-2.349-1.995-5.285-3.169-7.869-4.581c-2.583-1.525-5.052-3.286-7.284-5.284c-1.173-1.057-2.114-2.23-3.053-3.525   c-1.176-1.761-2.115-3.638-2.819-5.754c-0.589-1.878-1.059-3.878-1.176-5.873c-0.586-5.523,0.822-11.16,2.818-16.328   c1.88-5.05,4.583-9.631,7.636-13.978c0.235-0.352,0.47-0.586,0.705-0.938c0.589-0.942,1.41-1.882,2.114-2.82   c3.056-3.877,6.578-7.401,10.455-10.456c2.466-1.878,5.05-3.521,7.868-4.815c1.292-0.587,2.703-1.175,4.111-1.526   c0.941-0.234,1.762-0.587,2.586-0.821c0.353-0.117,0.705-0.234,0.939-0.469l0,0c2.818-0.588,5.637-1.174,8.575-1.647   c6.226-1.175,12.569-1.644,18.911-1.409c5.756,0.234,11.395,1.174,16.68,2.938c3.994,1.292,7.754,3.053,11.276,5.286   c2.466,1.525,4.698,3.29,6.813,5.285c0.588,0.469,1.058,1.056,1.645,1.524c0.824,0.827,1.645,1.648,2.349,2.469   c0,0.117,0,0.117,0.117,0.117c1.293,1.526,2.583,3.057,4.346,4.112c0.705,0.938,1.528,1.878,2.232,2.938   c2.701,3.76,4.935,8.105,6.227,12.687c0.117,0.469,0.234,1.057,0.352,1.644c0.352,1.525,0.586,3.055,0.704,4.581   c0.237,2.82,0,5.637-0.704,8.457c-0.235,0.117-0.352,0.469-0.47,0.705c0,0.469-0.118,0.938-0.118,1.407   c-1.879,5.641-5.639,10.339-9.985,14.217C214.85,717.432,211.209,720.018,207.449,722.365L207.449,722.365z M137.443,630.04   L137.443,630.04c-1.41-3.286-2.349-6.693-3.172-10.101c-0.352-1.761-0.705-3.524-1.056-5.402c-0.235-1.291-0.354-3.055-0.941-4.347   c0-0.117,0-0.234,0.118-0.352c4.815,4.581,9.516,9.279,13.391,14.799c1.175,1.529,2.234,3.173,3.173,4.933   c0.704,1.178,1.408,2.469,1.997,3.759c0.118,0.235,0.118,0.353,0.235,0.588c0.821,1.646,1.41,3.407,1.997,5.049   c0.587,1.647,0.822,3.643,1.525,5.29c-0.821,0.117-1.643,0.353-2.584,0.587c-1.525,0.352-3.053,0.704-4.581,1.173   c-0.704-0.703-1.407-1.524-2.114-2.229c-1.174-1.412-2.232-2.938-3.171-4.463c-0.469-0.709-0.94-1.413-1.41-2.116   c-0.704-1.292-1.408-2.465-1.997-3.76C138.382,632.273,137.913,631.1,137.443,630.04L137.443,630.04z M190.653,625.693   L190.653,625.693c0-0.117,0-0.234,0-0.352c-0.234-3.521-0.117-7.046,0.47-10.453c0.234-1.76,0.586-3.525,1.175-5.167   c0.234-0.939,0.704-1.882,1.056-2.82c1.879,2.351,3.759,4.581,5.285,7.284c1.879,3.524,3.172,7.278,4.229,11.156   c0.235,1.06,0.472,2.233,0.707,3.406c0.352,1.526,0.586,3.174,0.821,4.699c0.117,1.174,0.234,2.233,0.352,3.407   c0.235,1.995,0.235,3.994,0.118,5.989c0,1.412,0,2.703-0.118,4.111c-0.117,0.821-0.352,1.764-0.352,2.703   c-2.818-1.643-5.874-3.055-8.927-4.111c-0.47-1.174-0.938-2.352-1.41-3.524c-0.586-1.644-1.056-3.408-1.526-5.051   c-0.706-2.468-1.175-4.933-1.527-7.519C190.888,628.279,190.771,626.989,190.653,625.693L190.653,625.693z M240.341,784.976   L240.341,784.976c1.173,1.056,2.229,2.112,3.405,3.051c0.586,0.825,0.94,1.53,1.645,2.116c0.821,0.704,1.645,1.292,2.583,1.761   c1.645,0.704,3.405,1.061,5.167,1.061c3.76-0.118,7.167-1.883,9.985-4.229c1.291-0.942,2.466-2.115,3.642-3.29   c1.995-2.116,3.757-4.464,5.285-6.932c2.115-3.286,3.995-6.81,5.52-10.218c0.941-2.116,1.879-4.346,2.585-6.58   c0.118,0.235,0.118,0.591,0.118,0.826c0.235,3.168,0.118,6.459-0.235,9.631c-0.235,3.172-0.94,6.224-1.879,9.279   c-0.471,1.525-1.059,2.938-1.645,4.346c-0.469,1.057-1.173,2.112-1.41,3.291c-0.353,0.352-0.587,0.703-0.939,0.938   c-0.822,0.704-1.646,1.409-2.583,1.995c-1.411,0.825-2.821,1.529-4.112,2.117c-3.876,1.76-7.988,3.642-12.1,4.815   c-3.757,1.173-7.752,1.525-10.924-1.174c-0.118-0.117-0.235-0.234-0.352-0.352c-1.528-1.413-2.466-3.761-3.053-5.759   c-0.47-1.526-0.704-3.169-0.822-4.698C240.223,786.267,240.341,785.563,240.341,784.976L240.341,784.976z M276.401,802.243   L276.401,802.243c-0.587,2.934-1.763,5.871-3.408,8.457c-0.47,0.469-1.643,1.761-2.583,3.169c-0.47,0.117-1.056,0.352-1.408,0.469   c-1.176,0.353-2.232,0.709-3.408,1.061c-0.587,0.234-1.293,0.352-1.997,0.586c-0.822,0.118-1.526,0.354-2.349,0.471   c-3.054,0.587-6.227,0.821-9.396,0.469c-1.645-0.117-3.172-0.469-4.816-1.291c-1.175-0.469-2.585-1.646-3.172-2.703   c-1.174-1.761-1.645-3.642-1.411-5.754c0.117-1.53,0.589-3.055,1.176-4.581c0,0,0-0.117,0.117-0.234   c2.818,1.644,6.226,1.878,9.633,1.408c1.878-0.353,3.757-0.822,5.637-1.525c1.293-0.47,2.584-0.943,3.877-1.53   c1.408-0.587,2.818-1.173,4.111-1.877c3.64-1.644,7.986-3.643,10.335-7.05c0,0.353,0,0.704,0,1.06   C277.104,796.015,276.987,799.07,276.401,802.243L276.401,802.243z M216.73,639.44L216.73,639.44   c11.041,6.106,20.907,14.329,29.13,23.96c1.644,2.112,3.29,4.347,5.05,6.459c0.588,0.825,1.175,1.765,1.762,2.703   c1.997,2.938,3.994,5.988,5.874,9.045c3.405,5.402,6.226,11.16,8.927,16.797c5.05,10.806,9.631,22.083,11.511,33.948   c-0.117,0.469-0.117,1.056-0.234,1.644c-0.352,2.115-0.704,4.345-1.176,6.462c-1.173,4.581-2.819,9.044-5.168,13.155   c-3.993,7.045-10.689,13.86-19.499,12.447c-7.517-1.29-11.863-9.278-14.446-15.854c-3.056-7.636-4.581-15.858-5.64-23.964   c-0.47-3.877-0.939-7.75-1.291-11.743c-0.237-3.291-0.237-6.698-0.471-10.105c3.876-8.927,3.407-18.91-0.705-27.837   c-1.879-4.111-4.581-7.871-7.517-11.278c-1.41-1.526-3.055-2.934-4.581-4.347c-0.941-0.938-1.762-1.76-2.703-2.699   c-2.349-2.351-4.933-4.463-7.752-6.462c1.998-4.815,2.584-10.336,2.819-15.503C212.736,637.207,214.733,638.263,216.73,639.44   L216.73,639.44z M183.841,584.467L183.841,584.467c-0.117-2.113-0.234-4.347-0.704-6.459c0.47,0.352,0.939,0.82,1.525,1.29   c1.176,1.057,2.349,2.113,3.525,3.291c2.232,2.229,4.229,4.581,6.106,7.162c3.407,4.933,6.108,10.339,8.105,15.976   c2.821,7.754,4.464,16.095,4.816,24.313c-0.118,0-0.118,0-0.235,0c-0.352-1.878-0.704-3.756-1.173-5.637   c-1.059-4.112-2.466-8.106-4.581-11.748c-1.646-3.168-4.112-6.576-7.401-8.102c-0.117-0.708-0.939-1.178-1.526-0.708   c-1.292,1.178-1.879,3.056-2.352,4.697c-0.586,1.766-0.938,3.525-1.29,5.406c-0.587,3.643-0.705,7.398-0.47,11.158   c0,0.117,0,0.234,0,0.352c0.117,1.177,0.234,2.469,0.352,3.643c0.352,2.703,0.938,5.285,1.645,7.87   c0.117,0.353,0.117,0.587,0.235,0.938c-1.528-2.581-3.056-5.167-4.111-7.987c-0.235-0.353-0.353-0.704-0.47-1.058   c-0.354-0.938-0.707-1.876-0.941-2.815c0.118-0.356,0-0.825-0.234-0.942l0,0c-1.291-4.347-1.762-8.928-1.762-13.391   c-0.117-5.99,0.471-12.1,0.824-18.09C183.841,590.572,183.958,587.521,183.841,584.467L183.841,584.467z M177.615,628.631   L177.615,628.631c0.704-0.117,1.411-0.352,2.114-0.469c0.822,0.117,1.528,0.234,2.232,0.352c0.235,0.705,0.469,1.409,0.822,2.117   c1.293,3.286,2.938,6.459,4.817,9.396c0.822,1.29,1.644,2.699,2.467,3.994c-9.633-2.352-19.851-2.352-29.602-0.826   c0.47-3.872,0.352-7.866-0.235-11.744C165.987,630.509,171.858,629.923,177.615,628.631L177.615,628.631z M132.273,633.212   L132.273,633.212c-3.405-5.05-5.754-10.687-7.399-16.563c-1.645-5.755-2.701-11.626-3.876-17.385   c-0.587-3.052-1.173-5.989-1.879-8.927c-0.469-2.112-1.056-4.347-1.88-6.459c2.466,1.291,5.052,2.229,7.401,3.525   c2.936,1.524,5.637,3.52,8.221,5.52c4.7,3.76,8.692,7.987,12.216,12.686c4.933,6.576,8.576,14.33,10.455,22.318   c0.352,1.408,0.587,2.82,0.822,4.111c0.234,1.995,0.471,3.876,0.471,5.754c0.117,1.173,0.117,2.469,0.117,3.642   c-0.354-1.173-0.823-2.232-1.058-3.289c-0.705-1.878-1.411-3.642-2.114-5.402c-0.117,0-0.117-0.117-0.117-0.117   c-0.587-1.292-1.174-2.586-1.88-3.878c-1.174-1.994-2.467-3.993-3.877-5.988c-2.232-3.172-4.698-5.993-7.399-8.811   c-1.41-1.411-2.819-2.82-4.229-4.11c-0.822-0.587-1.528-1.296-2.232-1.882c-0.587-0.47-1.175-1.173-1.997-1.173   c-0.704,0-1.526,0.586-1.291,1.407c0.235,0.708,0.235,0.708,0.235,1.53v0.117c-0.352,0.704-0.235,1.524-0.235,2.347   c0.117,0.943,0.117,1.882,0.235,2.821c0.118,1.76,0.47,3.642,0.821,5.401c0.821,3.643,1.88,7.284,3.29,10.691   c0.47,1.174,0.939,2.348,1.526,3.404c0.586,1.294,1.292,2.586,1.997,3.759c0.469,0.822,0.94,1.647,1.527,2.351   c0.939,1.526,2.114,3.056,3.288,4.347c0.472,0.587,1.058,1.173,1.527,1.761c-0.117,0-0.117,0-0.235,0   c-0.938-0.822-1.997-1.526-2.936-2.348c-1.293-1.061-2.349-2.233-3.525-3.407c-0.47-0.587-1.058-1.173-1.527-1.764   c-0.939-1.175-1.761-2.23-2.701-3.404C133.449,634.977,132.861,634.151,132.273,633.212L132.273,633.212z M83.645,691.59   L83.645,691.59c2.584-6.106,5.639-11.978,9.396-17.384c3.642-5.168,7.988-9.749,12.569-14.096   c8.34-7.749,17.854-13.978,27.956-19.262c0.705,0.939,1.528,1.76,2.349,2.698c1.411,1.413,2.937,3.174,4.699,4.469   c-2.584,1.055-5.05,2.347-7.282,3.873c-5.052,3.406-9.398,7.87-13.156,12.568c-7.282,8.81-13.272,19.854-14.331,31.361   c-0.234,2.352-0.234,4.82,0,7.167c0.117,0.939,0.353,1.999,0.587,2.938c0.237,1.175,0.589,2.348,1.058,3.408   c-0.235,0.938-0.235,1.994-0.235,2.934c-0.117,1.526-0.234,3.055-0.352,4.581c-0.235,3.055-0.589,6.11-0.941,9.161   c-0.234,3.173-0.821,6.229-1.525,9.279c-0.354,1.53-0.706,2.938-1.176,4.347c-0.234,0.825-0.47,1.646-0.704,2.468   c-1.175,2.112-1.997,4.464-2.938,6.576c-1.291,3.056-2.701,6.228-4.227,9.283c-1.999,3.755-4.7,7.749-8.692,9.748   c-2.821,1.526-5.874,1.409-8.575-0.352c-1.645-1.178-2.821-2.938-3.994-4.581c-0.704-1.061-1.293-2.117-1.88-3.173   c0-0.117,0-0.117-0.117-0.234c-0.352-3.76-0.706-7.519-0.94-11.278c-0.353-5.989-0.117-12.096,0.706-17.972   c0.117-1.291,0.234-2.464,0.469-3.642c1.645-4.933,2.936-9.865,4.346-14.916C78.83,704.863,80.943,698.17,83.645,691.59   L83.645,691.59z M73.073,765.826L73.073,765.826c0.941,1.413,1.997,2.586,3.29,3.643c3.17,2.469,7.165,2.82,10.924,1.412   c4.464-1.764,7.751-6.11,10.218-10.105c1.763-3.168,3.173-6.457,4.581-9.748c1.293-3.29,3.055-6.932,3.525-10.452   c0.587-1.295,0.938-2.586,1.293-3.876c0.938-3.174,1.525-6.346,2.114-9.632c0.469-3.055,0.821-6.111,1.056-9.166   c0.117-0.938,0.117-1.995,0.235-2.934c0.352,0.587,0.824,1.173,1.293,1.761c1.173,1.529,2.466,2.82,3.876,3.876   c0.118,0.705,0.235,1.291,0.353,1.999c0.234,1.526,0.234,3.051,0.234,4.699c0,1.407-0.117,2.933-0.352,4.346   c-0.118,1.643-0.472,3.403-0.824,4.934c-1.056,6.105-3.053,11.977-5.05,17.854c-2.467,7.162-5.285,14.446-9.397,20.908   c-0.469,0.235-0.704,0.821-0.823,1.292c-0.118,0.234-0.235,0.352-0.352,0.469c-2.818,4.111-6.696,8.105-11.746,8.927   c-2.701,0.353-5.404-0.352-7.636-2.232c-1.525-1.175-2.584-2.818-3.405-4.464c-0.353-1.761-1.176-3.521-1.763-5.285   c-0.704-2.582-1.291-5.285-1.645-8.106C73.073,765.943,73.073,765.943,73.073,765.826L73.073,765.826z M75.657,785.21   L75.657,785.21c1.41,1.526,3.055,2.934,4.935,3.878c2.231,1.055,4.698,1.29,7.047,0.938c0.821-0.117,1.528-0.234,2.349-0.469   c1.293-0.352,2.466-0.822,3.525-1.413c2.701-1.524,4.933-3.52,6.929-5.871c0.118,0.938,0.235,1.882,0.353,2.938   c0.235,1.761,0.235,3.524,0.117,5.285c-0.117,3.172-0.821,6.342-2.818,8.81c-1.997,2.469-5.405,3.173-8.34,3.173l0,0   c-1.058,0-2.114-0.117-3.17-0.352c-0.707-0.118-1.528-0.235-2.234-0.47c-0.704-0.238-1.409-0.474-2.112-0.826   c-0.471-0.704-1.176-1.525-1.645-2.229c-0.589-0.938-1.058-1.882-1.527-2.821c-1.057-2.112-1.88-4.345-2.466-6.457   C76.246,787.909,75.893,786.502,75.657,785.21L75.657,785.21z M81.648,811.874L81.648,811.874c-0.352-1.53-0.469-3.291-0.469-4.933   c-0.118-1.057,0.117-2.117,0.117-3.173c0.352,0.235,0.586,0.47,0.94,0.587c1.056,0.586,2.23,1.056,3.405,1.407   c0.941,0.356,1.997,0.591,3.171,0.709c2.82,0.235,5.874-0.118,8.575-1.413c0.706-0.352,1.411-0.82,2.114-1.29   c0.354-0.353,0.706-0.704,1.176-1.057c0.822-0.821,1.527-1.646,2.114-2.703c1.057,1.647,2.467,3.056,3.523,4.698   c1.175,2,2.114,4.229,2.586,6.462c0.352,1.526,0.469,3.287,0.117,4.581c-0.353,1.409-1.058,2.348-2.232,3.287   c-2.938,2.115-7.284,2.233-10.807,2.469c-0.235,0-0.47,0-0.707,0.117c-1.76,0-3.405,0.117-5.05,0   c-0.234-0.117-0.469-0.117-0.704-0.117c-1.176-0.118-2.584-0.354-3.877-0.705c-0.587-1.525-1.762-2.82-2.466-4.111   C82.471,815.164,81.882,813.517,81.648,811.874L81.648,811.874z M83.175,829.024L83.175,829.024   c-0.47-1.413-0.587-2.821-0.353-4.347c0-0.704,0.353-1.413,0.587-1.999c1.293,1.178,2.937,1.882,4.816,2.233   c0.704,0.234,1.41,0.352,2.114,0.352c1.88,0.235,3.76,0.235,5.757,0.118c2.115-0.118,4.464-0.235,6.578-0.704   c0.939-0.117,1.88-0.352,2.819-0.704c1.411-0.47,2.701-1.178,3.994-2.116c0.352-0.234,0.704-0.587,1.056-0.939   c1.176,1.878,2.586,3.525,3.642,5.403c1.292,2.586,1.528,5.284,0.586,7.987l-0.117,0.117c-1.525,3.877-6.106,5.168-9.866,5.755   c-0.469,0-1.058,0.117-1.528,0.117c-2.349,0.234-4.815,0.117-7.047-0.235c-1.411-0.234-2.701-0.586-3.994-1.056   C87.991,837.599,84.466,833.135,83.175,829.024L83.175,829.024z M86.346,841.24L86.346,841.24c0-0.591,0-1.295,0-1.998   c1.645,1.407,3.407,2.469,5.404,3.172c1.408,0.47,2.936,0.938,4.463,1.174c2.936,0.47,5.991,0.47,8.927,0.117   c2.819-0.235,5.637-1.057,7.988-2.465c0.822,2.229,1.877,4.347,2.466,6.576c0.822,3.055,1.408,6.346,1.291,9.514   c-0.117,2.82-0.822,5.759-2.466,8.223c-0.822,1.174-1.998,2.117-3.17,2.938c-0.589,0.471-1.293,0.822-1.997,1.057   c-0.824,0.353-1.763,0.587-2.349,1.174c-2.35-1.408-4.581-3.051-6.696-4.816C92.806,859.682,86.583,851.342,86.346,841.24   L86.346,841.24z M124.405,878.239L124.405,878.239c-1.88-0.47-3.759-1.056-5.521-1.643c-2.114-0.708-4.112-1.53-6.109-2.586   c-0.586-0.234-1.173-0.47-1.643-0.821c0.587-0.353,1.291-0.704,1.762-1.057c1.643-1.06,3.053-2.351,4.109-3.877   c2.115-2.938,3.172-6.345,3.29-9.87c0.235-3.637-0.352-7.161-1.41-10.687c-0.821-2.586-1.88-5.637-3.523-7.988   c0.587-0.586,1.174-1.174,1.643-1.878c0.235-0.234,0.354-0.352,0.471-0.586c0.939,0.234,1.761,0.469,2.584,0.938   c1.292,0.704,2.584,1.76,3.758,2.698c0.588,0.592,1.175,1.179,1.645,1.765c0.234,0.235,0.352,0.47,0.588,0.821   c0.118,0.118,0.235,0.235,0.235,0.354c0.117,0.117,0.234,0.352,0.352,0.469l0,0l0,0l0,0l0,0l0,0   c1.998,3.173,3.522,6.579,4.698,10.104c0.587,1.761,1.173,3.872,1.645,5.989c0.47,2.112,0.822,4.229,1.057,6.341   c0,0.117,0,0.353,0,0.587c0-0.117,0,0.474,0,0.474c0,0.469,0,0.939,0,1.408c0,0.938-0.117,1.878-0.234,2.938   c-0.117,0.118-0.117,0.353-0.117,0.47c0,0,0,0,0-0.117c0,0.117-0.118,0.352-0.118,0.469c-0.117,0.353-0.234,0.705-0.352,1.175   c-0.118,0.352-0.235,0.703-0.472,1.055c0,0-0.117,0.235-0.117,0.353l0,0l0,0l0,0c-0.117,0.117-0.234,0.353-0.352,0.47   c-0.117,0.238-0.234,0.356-0.352,0.591c-0.118,0.117-0.235,0.235-0.235,0.353l0,0l0,0l0,0c-0.117,0-0.117,0-0.117,0.117   c-0.469,0.352-0.822,0.703-1.293,1.056c-0.469,0.352-0.821,0.47-1.291,0.939C127.458,878.709,125.931,878.592,124.405,878.239   L124.405,878.239z M132.979,925.343L132.979,925.343c-0.237,0-0.354,0-0.588,0c0-0.117,0-0.117,0-0.117l0,0l0,0   c-0.352,0-0.587-0.117-0.938-0.234c-0.235,0-0.47-0.117-0.822-0.235c0,0,0-0.117-0.118-0.117l0,0l-0.237-0.117   c-0.117-0.117-0.235-0.117-0.352-0.238c1.059-2.112,1.646-4.581,2.115-6.811c0-0.118,0-0.118,0-0.118   c0.352-0.352,0.586-0.586,0.94-0.703c0.939-0.47,1.643-0.235,2.349,0.469c0.939,0.938,1.409,2.347,1.643,3.759   c0.235,0.822,0.354,1.644,0.354,2.465c0,0.822-0.12,1.53-0.12,2.233C135.798,925.694,134.388,925.577,132.979,925.343   L132.979,925.343z M142.494,925.226L142.494,925.226c-0.587,0.117-1.058,0.117-1.528,0.234c1.176-1.177,2.704-2.233,4.111-2.938   c0.587-0.234,1.411-0.47,2.115,0c0.469,0.352,0.824,1.057,1.058,1.761C146.371,924.756,144.491,924.991,142.494,925.226   L142.494,925.226z M196.173,921.584L196.173,921.584c-0.939-0.469-1.88-0.939-3.054-1.057c-0.234-0.117-0.587-0.352-0.939-0.591   c-0.94-0.587-1.88-1.173-2.82-1.761c-0.352-0.234-0.704-0.469-1.056-0.703c0-0.353,0-0.587,0-0.821   c0.117-1.647,0.117-3.291,0.235-4.934c0.235-3.29,0.235-6.697,0.352-9.987c0-3.286-0.117-6.459-0.587-9.748   c-0.235-1.644-0.587-3.173-1.176-4.815c-0.469-1.409-1.173-3.056-2.583-3.761c-0.235-0.117-0.586-0.117-0.821,0   c-2.114-1.524-5.522-1.759-7.871-1.642c-1.408,0-2.936,0.352-4.229,0.938c-0.822,0.469-1.763,1.174-2.349,1.995   c-1.057,0.825-1.528,2.351-1.763,3.642c-0.235,1.412-0.469,2.938-0.704,4.464c-0.352,3.29-0.586,6.58-0.939,9.748   c-0.234,3.173-0.706,6.346-1.645,9.284c-0.586,2.347-1.646,4.58-2.818,6.693c-0.707,0.352-1.411,0.82-1.998,1.29   c-1.527,0.825-3.055,1.882-4.7,2.703c-0.352,0.234-0.704,0.352-1.056,0.469c0,0,0,0-0.117,0l0,0c-0.118,0-0.235,0.118-0.353,0.118   c-0.353,0.117-0.705,0.234-1.059,0.234c-0.234,0.118-0.586,0.235-0.821,0.235c-0.117-0.235-0.117-0.47-0.235-0.705   c-0.352-1.056-1.059-1.995-1.997-2.581c-1.176-0.708-2.701-0.943-3.995-0.591c-1.762,0.474-3.288,1.53-4.463,2.82   c0-0.938-0.235-1.878-0.47-2.82c-0.587-1.878-1.645-3.873-3.407-5.051c-1.056-0.938-2.584-1.174-3.876-0.821   c0.236-1.408,0.354-2.82,0.471-4.346c0.353-3.29,0.234-6.576,0.117-9.866c-0.234-3.29-0.47-6.58-0.707-9.866   c-0.117-1.646-0.234-3.172-0.352-4.697c0-0.943,0-2.234-0.118-3.29c0.587-0.353,1.176-0.705,1.646-1.057   c1.527-1.061,2.584-2.586,3.288-4.229c1.176-2.469,1.528-5.172,1.411-7.872c0-1.294,0-2.703-0.118-3.993   c-0.117-1.174-0.352-2.351-0.587-3.524c-0.586-3.173-1.527-6.341-2.584-9.396c-0.469-1.174-0.94-2.352-1.527-3.525   c-0.822-1.995-1.763-3.876-2.937-5.754c-0.234-0.352-0.471-0.703-0.706-1.056c-1.173-1.647-2.467-2.938-3.992-4.111   c-1.88-1.647-4.583-3.29-7.167-3.761c0.352-2.115,0.234-4.345-0.47-6.344c-0.939-3.286-3.171-7.046-5.991-9.162   c0.824-2.113,0.941-4.582,0.471-6.929c-0.471-2.703-1.527-5.289-2.938-7.753c-1.29-2.352-3.17-5.402-5.871-6.462   c0.469-1.644,0.821-3.404,0.938-5.051c0.234-2.112,0.117-4.347,0-6.459c0-0.586-0.118-1.056-0.118-1.528   c0.822,2.35,1.763,4.701,2.701,6.931c1.176,2.586,2.349,5.168,3.76,7.519c1.173,1.878,2.584,4.464,4.581,5.521   c0.353,0.821,1.056,1.643,1.645,2.351c1.057,1.408,2.349,2.582,3.641,3.639c1.058,0.942,1.997,1.528,3.29,2.233   c2.701,1.29,5.754,2.229,8.692,3.173c3.522,1.056,7.165,1.995,10.924,2.347c2.936,0.352,6.343,0.47,8.81-1.291   c0.587-0.353,0.939-0.938,1.291-1.529c1.646-0.117,1.528-2.347,1.176-3.639c-0.353-1.764-1.059-3.524-1.645-5.289   c-0.47-1.642-1.057-3.402-1.528-5.167c-1.056-3.168-1.997-6.458-2.818-9.749c-0.821-3.642-1.525-7.283-1.88-10.921   c-0.118-1.061-0.235-2.117-0.235-3.173c0-0.117,0-0.352,0-0.588c-0.234-5.167,0.941-9.986,2.115-14.919   c0.234-0.705-0.586-1.174-1.056-0.588c-4.111,5.168-4.815,12.921-4.463,19.385c0.352,6.459,1.877,12.682,3.64,18.793   c-0.118,0-0.235,0.117-0.352,0.117c-2.701,1.29-3.64,3.993-4.229,6.575c-0.235,0.943-0.353,1.882-0.353,2.82   c-0.704-1.056-1.762-1.995-3.053-2.229c-2.349-0.356-4.581,2.112-5.522,4.464c-0.821-0.239-1.645-0.474-2.466-0.708   c-1.411-0.587-2.936-1.056-4.229-1.644c-0.586-0.234-1.056-0.469-1.645-0.704c-0.234-0.117-0.352-0.234-0.587-0.234   c-0.117-0.117-0.117-0.117-0.234-0.117c-1.292-0.822-2.467-1.882-3.524-2.938c-1.292-1.174-2.466-2.938-4.347-3.291   c-0.117-0.352-0.352-0.704-0.586-0.938c-0.704-1.173-1.293-2.347-1.997-3.524c-1.291-2.464-2.466-4.815-3.523-7.279   c-1.058-2.586-1.997-5.051-2.82-7.637c-0.939-2.469-1.525-5.05-2.466-7.401c1.293-2.464,2.349-5.05,3.407-7.515   c2.818-6.58,5.05-13.391,6.93-20.323c0.822-3.173,1.645-6.462,2.115-9.747c0.234-1.179,0.352-2.469,0.47-3.643   c0.117-0.47,0.117-0.939,0.117-1.291c0.117-2.352,0.117-4.698,0-7.05c-0.117-0.586-0.117-1.174-0.235-1.76   c0.704,0.352,1.293,0.82,1.997,1.174c2.231,1.29,4.815,2.699,7.399,3.642c0.824,0.469,1.645,0.938,2.466,1.291   c1.762,0.938,3.525,1.76,5.287,2.586c3.288,1.525,6.695,2.699,10.335,3.638c1.762,0.352,3.524,0.825,5.287,1.177   c1.879,0.354,3.993,0.354,5.873,0.471c3.758,0.117,7.517-0.117,11.276-0.354c6.93-0.586,13.86-1.646,20.555-2.703   c5.05-0.82,10.807-1.877,15.153-4.814c0.94-0.47,1.762-0.939,2.584-1.408c3.055-1.647,5.991-3.524,8.81-5.523   c1.293-0.939,2.703-1.878,3.994-2.934c-1.174,4.228-1.411,8.691-1.411,13.038c0,0.117,0,0.352,0,0.469   c0.12,1.292,0.12,2.582,0.355,3.876c0.352,5.169,1.524,10.102,2.936,15.035c2.701,8.926,6.813,17.971,12.452,25.725   c-0.471,0.938-0.941,1.877-1.411,2.82c-0.704,1.525-1.527,3.051-2.349,4.581c-1.762,3.168-3.642,6.34-5.522,9.514   c-3.405,5.637-7.399,10.921-10.452,16.797c-0.706,0.234-1.293,0.705-1.88,0.939c-1.292,0.704-2.584,1.29-3.877,1.761   c-0.587,0.234-1.175,0.469-1.645,0.586c-0.117,0.117-0.117,0.117-0.117,0.117l0,0c-0.118,0-0.118,0-0.118,0s0,0-0.117,0   c-0.587,0.235-1.174,0.353-1.763,0.474c-2.232,0.587-4.463,0.938-6.812,1.173c0.117-2.232-1.174-4.462-3.643-4.698   c-0.704-0.117-1.408-0.117-1.995,0.119c0.118-0.236,0.118-0.588,0.235-0.939c0.704-2.352,1.76-5.759,0-7.988   c-1.645-2.234-4.346-1.765-6.578-0.587c1.408-3.994,2.701-7.87,3.757-11.982c1.175-4.111,2.114-8.34,2.82-12.568   c0.234-2.234,0.47-4.347,0.587-6.581c0.117-0.938,0.117-1.994,0.117-3.051c0-1.173-0.234-2.351-0.352-3.524   c-0.235-1.057-1.762-0.822-1.997,0.117c-0.117,1.057-0.47,2.113-0.587,3.173c-0.117,0.938-0.237,1.995-0.354,3.051   c-0.352,2.116-0.704,4.347-1.056,6.463c-0.117,0.47-0.235,0.938-0.353,1.525c-0.234,1.174-0.469,2.351-0.822,3.525   c-0.588,2.351-1.175,4.698-1.879,6.932c-1.175,4.111-2.583,8.102-3.994,12.096c-0.706,1.999-1.41,4.111-2.115,6.11   c-0.586,1.644-1.88,3.993-1.527,5.871c0,0.939,0.234,1.883,0.707,2.586c0.938,1.644,2.347,2.582,4.109,3.404   c3.525,1.646,7.636,1.764,11.513,1.529c3.757-0.118,7.634-0.587,11.394-1.408c1.879-0.474,3.759-1.178,5.52-1.999   c1.527-0.587,2.938-1.526,4.111-2.586c0.587-0.47,1.527-1.644,1.527-2.582c4.347-4.581,7.751-10.101,11.042-15.507   c1.879-3.169,3.642-6.459,5.167-9.748c1.059-1.995,2.232-4.229,3.056-6.459c0.469,0.586,0.938,1.174,1.408,1.643   c-1.525,2.586-1.408,6.106-0.938,8.927c0.469,3.057,1.645,6.107,3.524,8.575c0.118,0.118,0.235,0.235,0.352,0.47   c-0.117,0.352-0.352,0.704-0.472,0.938c-0.821,1.647-1.29,3.408-1.642,5.168c-0.472,2.703,0.117,5.407,1.173,7.871   c0.352,0.587,0.707,1.178,1.176,1.764c-2.114,1.761-2.703,5.402-2.821,7.988c0,2.347,0.472,4.464,1.411,6.576   c0.234,0.703,0.586,1.291,0.941,1.761c-3.877,2.938-6.932,6.932-9.516,11.043c-0.939,1.291-1.763,2.82-2.584,4.229   c-1.174,1.995-2.231,4.112-3.171,6.224c-0.706,1.882-1.41,3.643-1.997,5.524c-0.941,2.699-1.645,5.402-1.997,8.102   c-0.472,2.703-0.589,5.406-0.472,7.987c0,0.117,0,0.235,0,0.235c0.237,3.525,1.293,7.284,3.994,9.753   c-0.234,0.469-0.352,0.938-0.469,1.408c-0.352,1.407-0.704,2.938-0.939,4.463c-0.235,1.291-0.47,2.582-0.707,3.76   c-0.235,0.352-0.352,0.821-0.235,1.29c-0.234,1.292-0.469,2.586-0.586,3.995c-0.469,2.82-0.821,5.754-1.176,8.574   c-0.234,2.229-0.587,4.581-0.821,6.928c-1.056-1.056-2.584-1.643-3.994-0.703c-1.877,1.177-2.818,3.406-3.64,5.406   c-0.471,1.057-0.823,2.229-1.175,3.403c-0.235-0.47-0.352-0.939-0.587-1.408c-0.469-0.938-1.175-2.234-2.114-2.704   c-0.824-0.352-1.527-0.469-2.349-0.234c-0.47,0.117-1.059,0.353-1.528,0.704c-0.469,0.356-1.175,0.825-1.645,1.413   c-0.821,0.703-1.525,1.524-1.995,2.464c-0.237-0.117-0.472-0.234-0.707-0.352C198.64,922.874,197.466,922.288,196.173,921.584   L196.173,921.584z M139.792,809.171L139.792,809.171c0.352,0.234,0.586,0.704,0.939,1.06c0.47,0.704,0.821,1.526,1.293,2.348   c-0.118,0-0.235,0-0.235,0c-1.645-0.353-2.703-0.587-4.346-1.056c0.234-0.354,0.469-0.822,0.821-1.179   c0.235-0.469,0.822-1.173,1.293-1.173C139.44,809.171,139.675,809.171,139.792,809.171L139.792,809.171z M145.312,806.707   L145.312,806.707c0.47-1.883,1.411-3.995,3.173-4.816c0.821,2.816,1.76,5.754,2.702,8.575c0.117,0.234,0.117,0.586,0.234,1.057   c0,0.117,0,0.352,0,0.469l0,0l0,0c0,0.117-0.117,0.234-0.117,0.353l0,0l0,0l0,0c0.117-0.353-0.117,0.117-0.117,0.117   c-0.118,0.117-0.118,0.117-0.118,0.117s0,0-0.118,0c0,0.117-0.117,0.117-0.234,0.117l0,0c-0.235,0.117-0.354,0.117-0.472,0.117   c-0.586,0.234-1.173,0.234-1.76,0.352c0,0-0.118,0-0.235,0l0,0l0,0c-0.117,0-0.234,0-0.234,0c-0.472,0-0.824,0-1.293,0   c-0.706,0-1.411-0.117-1.998-0.234C144.725,810.935,144.843,808.701,145.312,806.707L145.312,806.707z M183.841,814.812   L183.841,814.812c-0.117,0-0.117,0-0.117,0l0,0h-0.117c-0.235-0.238-0.47-0.355-0.707-0.474c-0.117-0.117-0.704-0.586-0.587-0.469   c-0.235-0.234-0.352-0.471-0.586-0.705c0.821-1.173,1.173-2.934,1.645-4.11c0.235-0.705,0.47-1.526,0.822-2.229   c0.586-0.705,1.291-1.296,2.115-1.883c0.704-0.586,1.645-1.056,2.583-1.056c0.821,0,1.175,0.353,1.292,0.938   c0.353,1.883-0.706,4.347-1.41,6.228c-0.353,1.174-0.822,2.229-1.174,3.404c-0.236,0.474-0.471,0.942-0.471,1.411   c-0.704-0.117-1.291-0.234-1.879-0.469c-0.353-0.117-0.587-0.234-0.939-0.352C184.193,815.047,183.958,814.93,183.841,814.812   L183.841,814.812z M190.536,816.103L190.536,816.103c0.939-0.821,1.879-1.765,3.053-1.765c0.352,0,0.235,0,0.586,0.118l0.118,0.234   c0.237,0.356,0.237,0.942,0.119,1.529c-1.058,0.118-2.586,0-3.994,0C190.419,816.103,190.419,816.103,190.536,816.103   L190.536,816.103z M204.161,924.991L204.161,924.991c0.469-0.587,0.94-1.178,1.528-1.765c0.704,0.235,1.408-0.235,1.76-0.821   c0,0,0,0,0.12,0.117c0.353,0.469,0.47,0.939,0.704,1.408c0.47,0.943,0.822,1.764,1.293,2.586   C207.803,926.165,206.041,925.577,204.161,924.991L204.161,924.991z M218.375,926.986L218.375,926.986   c-0.237,0-0.471,0.117-0.707,0.117c-0.234,0.117-0.586,0.117-0.821,0.117c-0.117,0-0.352,0-0.469,0c0,0.117,0,0.117,0,0.117h-0.12   c-1.057,0-1.995-0.117-3.053-0.234c0,0,0,0,0.117-0.117c0.707-3.056,1.41-6.576,3.408-9.162c0.352-0.352,0.704-0.587,0.821-0.587   c0.353,0,1.059,1.173,1.293,1.409c0.469,0.82,0.821,1.646,1.173,2.469c0,0.117,0.118,0.234,0.118,0.352   c0.118,0.352,0.118,0.704,0.235,1.173c0.117,0.352,0.117,0.822,0.235,1.291c-0.118,0.474-0.235,1.061-0.352,1.529   c-0.235,0.705-0.587,0.939-1.408,1.292C218.845,926.752,218.493,926.986,218.375,926.986L218.375,926.986L218.375,926.986   L218.375,926.986z M247.622,905.607L247.622,905.607c-4.228-0.938-8.457-2.23-12.452-3.994c-3.17-1.525-6.108-3.521-8.809-5.755   c0.235-1.173,0.352-2.468,0.589-3.759c0.234-1.408,0.469-2.938,0.704-4.464c0.118-0.234,0.118-0.469,0.118-0.704   c4.111,1.174,8.927-1.057,12.804-3.289c0.705-0.471,1.408-0.822,1.995-1.292c0.237-0.117,0.354-0.234,0.472-0.234   c1.762-1.291,3.405-2.586,5.167-3.877c3.053,3.173,6.46,5.638,10.103,7.753c-1.997,1.057-3.759,2.935-5.17,4.816   c-0.704,1.057-1.408,1.995-1.997,2.938l0,0c-1.995,3.638-3.171,7.749-3.288,11.86C247.74,905.607,247.74,905.607,247.622,905.607   L247.622,905.607z M276.401,907.724L276.401,907.724c-8.692,0-17.502-0.234-26.194-1.646c0.117-3.877,1.173-7.516,2.936-10.923   c0-0.117,0.118-0.234,0.118-0.352c0.588-0.938,1.292-1.999,1.997-2.938c0.47-0.587,1.058-1.174,1.527-1.761   c1.176-1.178,2.349-2.117,3.525-3.056c9.044,4.582,19.145,6.459,29.482,7.871c-0.469,0.469-0.821,1.056-1.173,1.526   c-0.824,1.29-1.411,2.82-1.998,4.345v0.117c-0.354,1.175-0.706,2.469-0.941,3.643c0,0.353-0.117,0.704-0.117,0.938   c-0.117,0.705-0.235,1.53-0.235,2.234C282.392,907.724,279.336,907.724,276.401,907.724L276.401,907.724z M287.912,907.606   L287.912,907.606c0-0.353,0-0.708,0-1.178c0-0.469,0.117-0.939,0.117-1.291c0.117-1.173,0.354-2.229,0.707-3.29   c0-0.117,0-0.234,0.117-0.469c0.352-1.174,0.821-2.347,1.408-3.408c0.587-1.056,1.41-1.877,2.114-2.816   c9.399,1.292,18.913,2.23,27.84,4.581c-1.056,1.056-1.879,2.348-2.466,3.29c-0.824,1.291-1.528,2.699-2.232,3.994   c0,0.117,0,0.117,0,0.234c-0.352,0.587-0.587,1.174-0.824,1.761c-1.643-0.234-3.17-0.47-4.816-0.587   c-2.936-0.353-5.991-0.587-9.043-0.704C296.604,907.606,292.257,907.606,287.912,907.606L287.912,907.606z M346.409,920.527   L346.409,920.527c0-0.117-0.118-0.234-0.352-0.47l-0.117-0.121c-2.586-2.347-5.757-3.755-8.928-5.05   c-3.172-1.291-6.578-2.348-9.985-3.286c-3.288-0.826-6.578-1.647-9.985-2.233c0.117-0.234,0.237-0.587,0.354-0.939   c0.117-0.117,0.235-0.353,0.235-0.587c0.587-1.056,1.057-2.233,1.645-3.172c0.704-1.292,1.643-2.469,2.584-3.407   c0.234-0.354,0.586-0.588,0.821-0.822c1.879,0.588,3.76,1.174,5.64,1.878c1.173,0.474,2.231,1.06,3.405,1.53   c0.234,0.117,0.352,0.234,0.588,0.234c0,0.117,0.117,0.117,0.117,0.117l0,0c0,0,0,0,0.118,0l0,0l0,0l0,0l0,0l0,0c0,0,0,0,0,0.117   l0,0h0.118l0,0l0,0l0,0h0.117c1.291,0.704,2.467,1.525,3.757,2.23c3.055,1.881,5.991,3.993,8.575,6.462   c0.588,0.587,1.175,1.174,1.762,1.761c0.352,0.586,0.939,1.412,1.175,1.765c0.235,0.234,0.353,0.586,0.47,0.82   c0.118,0.118,0.118,0.235,0.118,0.353l0,0c0.117,0.117,0.117,0.352,0.117,0.352c0.117,0.117,0.117,0.588,0.117,0.588   c0,0.234,0,0.703,0,0.586C348.523,920.527,347.699,920.645,346.409,920.527L346.409,920.527z"/>
	<path fill="#351B10" d="M132.625,682.663c-0.234-2.348-1.877-4.464-3.991-5.52c-2.232-1.057-5.522-1.291-7.167,0.704   c-1.057,0.352-2.115,1.295-2.701,2.116c-1.174,1.761-1.409,3.876-1.292,5.871c0.352,4.229,4.464,7.637,8.693,6.464   C130.394,691.237,132.979,686.892,132.625,682.663L132.625,682.663z M128.397,683.02L128.397,683.02   c-0.352,0.234-0.705,0.234-1.174,0.234c-1.173-0.122-2.114-1.178-1.997-2.469c0-0.117,0-0.117,0-0.234   c0.235-1.056,1.293-2,2.466-1.878c1.176,0.114,2.115,1.291,1.998,2.464C129.69,681.959,129.104,682.663,128.397,683.02   L128.397,683.02z"/>
	<path fill="#351B10" d="M209.211,684.779c0.117-0.234,0.117-0.586,0-0.939c-1.173-3.055-5.05-4.933-8.103-5.406   c-1.646-0.234-3.29,0-4.698,0.826c-0.237,0.117-0.472,0.235-0.707,0.353c-0.235-0.117-0.47-0.117-0.587,0.117   c-0.941,0.704-1.762,1.29-2.349,2.347c-0.587,0.943-0.821,2.117-1.058,3.29c-0.352,2.112,0.237,4.347,1.293,6.224   c2.349,4.111,7.636,5.759,11.863,3.994c3.643-1.525,5.287-5.754,4.7-9.396C209.448,685.718,209.329,685.249,209.211,684.779   L209.211,684.779z M206.628,684.545L206.628,684.545c-0.235,0.234-0.352,0.352-0.587,0.587c-0.47,0.234-0.939,0.352-1.528,0.352   l0,0c-0.469,0-0.821-0.117-1.291-0.352c-0.471-0.353-0.824-0.938-0.941-1.526c0-0.474,0-0.942,0.235-1.295   c0-0.117,0.117-0.352,0.235-0.469l0.117-0.117c0.235-0.234,0.472-0.471,0.707-0.588s0.469-0.117,0.586-0.234h0.117   c0.352,0,0.823,0,1.176,0.117c0.235,0,0.352,0.117,0.469,0.234c0.235,0.117,0.353,0.236,0.587,0.471   c0.352,0.469,0.586,1.056,0.469,1.646C206.979,683.84,206.862,684.193,206.628,684.545L206.628,684.545z"/>
	<path fill="#351B10" d="M160.465,695.467c-1.645-0.353-3.053-1.408-4.581-2.23c-1.528-0.938-3.054-1.764-4.581-2.586   c-2.937-1.642-6.109-3.289-9.514-3.172c-3.877,0.238-7.049,2.703-8.929,5.993c-0.939,1.643-1.643,3.407-2.113,5.284   c-0.235,0.939-0.472,1.883-0.589,2.939c0,0,0,0,0,0.117c0,0.938,0.117,1.642,0.235,2.699c0.119,0.707,1.059,0.825,1.41,0.234   c0.352-0.353,0.587-0.587,0.821-0.938c0.235-0.235,0.354-0.471,0.472-0.822c0.235-0.704,0.587-1.526,0.822-2.229   c0.586-1.412,0.94-2.938,1.527-4.347c0.118-0.239,0.235-0.474,0.353-0.708c0.47-0.938,1.056-1.878,1.879-2.699   c1.292-1.294,3.054-2.116,4.933-2.116c3.053,0,5.874,1.53,8.576,2.82c1.527,0.705,3.053,1.408,4.58,1.995   c1.41,0.469,2.937,0.708,4.463,0.943C160.935,696.762,161.171,695.584,160.465,695.467L160.465,695.467z"/>
</g>
</svg>