<svg xmlns="http://www.w3.org/2000/svg" version="1.1" width="1000" height="1000" viewBox="0 0 1000 1000" xml:space="preserve">
<desc>Created with Fabric.js 3.5.0</desc>
<defs>
</defs>
<rect x="0" y="0" width="100%" height="100%" fill="#ffffff"/>
<g transform="matrix(1.1015 2.4416 -2.4416 1.1015 499.9997 499.9993)" id="865938">
<g style="">
		<g transform="matrix(1 0 0 1 125.402 6.0471)" id="Layer_1">
<path style="stroke: none; stroke-width: 1; stroke-dasharray: none; stroke-linecap: butt; stroke-dashoffset: 0; stroke-linejoin: miter; stroke-miterlimit: 4; is-custom-font: none; font-file-url: none; fill: rgb(108,76,70); fill-rule: nonzero; opacity: 1;" transform=" translate(-735.027, -787.7021)" d="M 771.203 800.044 c -0.354 0 -0.704 -0.234 -0.704 -0.704 c 0 -0.474 0.116 -1.06 0.116 -1.529 c -0.234 -0.939 -0.469 -1.878 -0.821 -2.817 c -1.643 -5.171 -3.877 -10.222 -6.928 -14.803 c -1.412 -2.111 -3.055 -4.11 -4.82 -5.988 c -0.703 -0.704 -1.407 -1.409 -2.111 -2.117 c -1.76 -1.056 -3.525 -2.347 -5.167 -3.52 c -2.469 -1.647 -5.052 -3.174 -7.755 -4.112 c -3.172 -1.06 -6.223 -1.529 -9.631 -1.411 c -0.116 0 -0.234 0 -0.353 0 c -8.809 0.234 -17.736 3.406 -24.785 8.809 c -0.587 0.47 -1.174 0.942 -1.76 1.413 c -2.586 2.229 -4.82 4.933 -6.463 7.983 c -0.938 1.765 -1.644 3.759 -1.995 5.759 c -0.353 1.76 -0.353 3.643 -0.821 5.402 c 2.581 0.47 5.05 1.525 7.279 2.82 c 1.883 -3.173 4.347 -6.11 7.05 -8.575 c 2.934 -2.82 6.341 -5.171 10.218 -6.814 c 6.932 -2.938 14.682 -3.056 21.73 -0.704 c 8.927 2.938 16.329 9.162 21.73 16.681 c 3.057 4.346 5.637 9.161 7.05 14.329 c 0.234 0.704 0.47 1.525 0.587 2.233 C 772.732 808.268 772.146 804.155 771.203 800.044 L 771.203 800.044 z" stroke-linecap="round"/>
</g>
		<g transform="matrix(1 0 0 1 145.489 53.2165)" id="Layer_1">
<path style="stroke: none; stroke-width: 1; stroke-dasharray: none; stroke-linecap: butt; stroke-dashoffset: 0; stroke-linejoin: miter; stroke-miterlimit: 4; is-custom-font: none; font-file-url: none; fill: rgb(108,76,70); fill-rule: nonzero; opacity: 1;" transform=" translate(-755.114, -834.8715)" d="M 771.203 822.127 c -0.234 -2.586 -0.47 -5.168 -0.939 -7.637 c -0.938 -4.463 -2.465 -8.574 -4.697 -12.568 c -2.349 -4.111 -5.169 -7.988 -8.693 -11.273 c -0.703 -0.826 -1.643 -1.53 -2.464 -2.234 c -0.825 0.117 -1.412 0.704 -1.412 1.761 c 1.056 13.272 -0.822 26.55 -6.693 38.528 c -2.234 4.815 -5.052 9.279 -8.341 13.39 c 0.47 1.413 1.057 2.82 1.525 4.347 c 0.821 2.352 1.526 4.698 2.234 7.167 c 1.056 3.759 1.878 7.636 2.347 11.512 c 0.353 3.521 0.47 7.046 0.235 10.454 c -0.117 1.995 -0.353 3.876 -0.822 5.754 c 1.408 -0.938 2.703 -1.878 3.994 -2.934 c 2.229 -1.765 4.347 -3.643 6.225 -5.641 c 3.876 -3.878 7.048 -8.225 9.635 -13.04 c 4.934 -9.043 7.633 -19.378 8.927 -29.597 c -0.117 -0.118 -0.117 -0.118 -0.234 -0.239 C 771.086 827.529 771.438 824.708 771.203 822.127 L 771.203 822.127 z" stroke-linecap="round"/>
</g>
		<g transform="matrix(1 0 0 1 120.2559 89.3355)" id="Layer_1">
<path style="stroke: none; stroke-width: 1; stroke-dasharray: none; stroke-linecap: butt; stroke-dashoffset: 0; stroke-linejoin: miter; stroke-miterlimit: 4; is-custom-font: none; font-file-url: none; fill: rgb(108,76,70); fill-rule: nonzero; opacity: 1;" transform=" translate(-729.8809, -870.9905)" d="M 739.958 865.118 v -0.355 l 0 0 c -0.117 -0.353 -0.117 -0.587 -0.234 -0.938 c -0.118 -0.821 -0.235 -1.526 -0.353 -2.348 c -0.352 -1.765 -0.703 -3.406 -1.173 -5.167 c -0.587 -2.117 -1.174 -4.229 -1.882 -6.346 c -0.352 -1.525 -0.939 -2.938 -1.409 -4.346 c -3.289 3.759 -6.932 7.166 -10.804 10.335 c -1.53 1.178 -3.173 2.469 -4.698 3.524 c 0.352 1.296 0.704 2.586 1.056 3.877 c 0.705 2.117 1.174 4.347 1.644 6.58 c 1.057 5.285 1.646 10.688 1.411 15.973 c -0.12 2.586 -0.474 5.167 -1.06 7.636 c -0.234 0.938 -0.47 1.878 -0.821 2.82 c 1.056 -0.234 2.115 -0.469 3.173 -0.703 c 2.464 -0.709 4.698 -1.648 6.928 -2.938 c 1.999 -1.291 3.994 -2.821 5.289 -4.815 c 0.704 -1.061 1.408 -2.116 1.878 -3.291 c 0.234 -0.469 0.352 -0.938 0.586 -1.407 c 0 -2.586 0.587 -5.055 0.704 -7.636 c 0.235 -3.174 0.235 -6.463 -0.117 -9.632 C 740.075 865.706 739.958 865.354 739.958 865.118 L 739.958 865.118 z" stroke-linecap="round"/>
</g>
		<g transform="matrix(1 0 0 1 99.7547 101.1405)" id="Layer_1">
<path style="stroke: none; stroke-width: 1; stroke-dasharray: none; stroke-linecap: butt; stroke-dashoffset: 0; stroke-linejoin: miter; stroke-miterlimit: 4; is-custom-font: none; font-file-url: none; fill: rgb(108,76,70); fill-rule: nonzero; opacity: 1;" transform=" translate(-709.3797, -882.7955)" d="M 717.054 865.589 c -0.352 -1.296 -0.704 -2.586 -1.174 -3.877 c -5.285 3.406 -11.043 6.224 -16.914 8.457 c 0.234 1.291 0.352 2.465 0.586 3.76 c 0.353 3.402 0.704 6.811 0.821 10.218 c 0.118 3.524 0 7.167 -0.234 10.687 c -0.234 2.586 -0.353 5.172 -0.938 7.755 c 0.234 0.352 0.469 0.821 0.352 1.29 c 3.056 -0.117 6.107 -0.469 9.162 -1.408 c 1.998 -0.704 3.759 -1.525 5.402 -2.465 c 0.825 -0.474 1.529 -0.942 2.233 -1.529 c 0.118 -0.352 0.353 -0.586 0.704 -0.939 c 0.234 -0.117 0.587 -0.352 0.939 -0.469 c 0 -0.117 0 -0.117 0 -0.234 c 0.234 -0.704 0.351 -1.529 0.587 -2.234 c 0.234 -1.642 0.591 -3.168 0.825 -4.698 c 0.469 -3.407 0.469 -6.81 0.234 -10.101 C 719.288 874.984 718.344 870.169 717.054 865.589 L 717.054 865.589 z" stroke-linecap="round"/>
</g>
		<g transform="matrix(1 0 0 1 70.7805 112.4745)" id="Layer_1">
<path style="stroke: none; stroke-width: 1; stroke-dasharray: none; stroke-linecap: butt; stroke-dashoffset: 0; stroke-linejoin: miter; stroke-miterlimit: 4; is-custom-font: none; font-file-url: none; fill: rgb(108,76,70); fill-rule: nonzero; opacity: 1;" transform=" translate(-680.4055, -894.1295)" d="M 695.559 875.22 c -0.118 -1.174 -0.236 -2.468 -0.471 -3.76 c -8.105 2.703 -16.445 4.464 -24.901 5.285 c 0.117 1.291 0.235 2.469 0.353 3.643 c 0.235 3.876 0.235 7.753 0 11.63 c -0.353 5.167 -1.059 10.452 -2.467 15.503 c -0.704 2.468 -1.527 4.814 -2.586 7.049 c -0.469 0.705 -0.821 1.526 -1.173 2.229 c 0.821 -0.234 1.645 -0.234 2.349 -0.352 c 1.762 -0.234 3.407 -0.47 5.051 -0.704 c 3.172 -0.352 6.226 -0.939 9.28 -1.878 c 3.054 -1.06 5.872 -2.469 8.575 -4.346 c 1.292 -0.943 2.582 -2.117 3.642 -3.29 c 0.939 -1.057 1.761 -2.117 2.817 -3.056 c -0.118 -0.704 -0.118 -1.291 0 -1.994 c 0 -1.296 0.117 -2.586 0.234 -3.761 c 0.118 -2.468 0.235 -4.933 0.235 -7.283 c 0 -4.933 -0.235 -9.982 -0.938 -14.798 C 695.559 875.22 695.559 875.22 695.559 875.22 L 695.559 875.22 z" stroke-linecap="round"/>
</g>
		<g transform="matrix(1 0 0 1 40.0633 117.4092)" id="Layer_1">
<path style="stroke: none; stroke-width: 1; stroke-dasharray: none; stroke-linecap: butt; stroke-dashoffset: 0; stroke-linejoin: miter; stroke-miterlimit: 4; is-custom-font: none; font-file-url: none; fill: rgb(108,76,70); fill-rule: nonzero; opacity: 1;" transform=" translate(-649.6883, -899.0642)" d="M 666.311 880.739 c 0 -1.174 -0.118 -2.347 -0.234 -3.525 c -0.59 0 -1.294 0 -1.88 0.117 c -5.05 0.236 -10.103 0.236 -15.153 0 c -0.117 1.179 -0.235 2.352 -0.353 3.525 c -0.704 6.11 -1.997 12.101 -3.876 17.854 c -2.467 7.519 -6.226 15.271 -11.98 21.025 c 0.587 0.118 1.057 0.235 1.643 0.235 c 1.293 0.235 2.703 0.47 3.994 0.587 c 2.82 0.353 5.522 0.47 8.34 0.235 c 2.818 -0.118 5.639 -0.704 8.34 -1.526 c 1.292 -0.469 2.466 -0.938 3.76 -1.644 c 0.352 -0.12 0.704 -0.355 1.056 -0.591 c 0.47 -1.173 1.056 -2.229 1.646 -3.402 c 0.704 -1.647 1.29 -3.29 1.879 -4.938 c 1.174 -3.521 1.995 -7.279 2.467 -11.038 C 666.662 892.135 666.662 886.376 666.311 880.739 L 666.311 880.739 z" stroke-linecap="round"/>
</g>
		<g transform="matrix(1 0 0 1 -9.5553 69.0116)" id="Layer_1">
<path style="stroke: none; stroke-width: 1; stroke-dasharray: none; stroke-linecap: butt; stroke-dashoffset: 0; stroke-linejoin: miter; stroke-miterlimit: 4; is-custom-font: none; font-file-url: none; fill: rgb(108,76,70); fill-rule: nonzero; opacity: 1;" transform=" translate(-600.0697, -850.6666)" d="M 644.345 880.505 c 0.117 -1.057 0.234 -2.229 0.352 -3.408 c 0.823 -9.514 0.235 -19.026 -1.41 -28.306 c -2.112 -12.218 -5.989 -24.083 -11.862 -34.887 c -1.293 -2.234 -2.584 -4.464 -3.877 -6.58 c -1.645 -2.465 -3.405 -4.934 -5.285 -7.046 c -3.053 -3.642 -6.696 -6.931 -10.455 -9.747 c -10.218 -7.52 -23.729 -13.631 -36.53 -13.392 c -0.237 0 -0.471 0.113 -0.706 0 c -6.343 0.234 -12.569 2.112 -18.206 6.225 c -0.352 0.586 -0.824 1.173 -1.293 1.759 c 7.636 0.705 15.27 2.939 22.2 5.877 c 8.223 3.402 15.859 8.219 22.554 14.094 c 15.153 13.392 24.549 32.184 26.546 52.271 c 0.587 5.755 0.587 11.509 0 17.268 c -0.118 1.057 -0.352 2.229 -0.471 3.286 c -0.587 3.876 -1.291 7.636 -2.347 11.396 c -1.762 6.458 -3.994 12.803 -6.932 18.793 c -2.701 5.523 -5.754 10.926 -9.044 16.093 c 1.763 0 3.525 -0.117 5.287 -0.234 c 2.818 -0.117 5.638 -0.587 8.338 -0.821 c 0.118 -0.234 0.353 -0.47 0.707 -0.705 c 3.053 -1.881 5.991 -3.993 8.455 -6.579 c 7.871 -8.223 11.513 -19.849 13.393 -30.893 C 643.993 883.56 644.228 882.029 644.345 880.505 L 644.345 880.505 z" stroke-linecap="round"/>
</g>
		<g transform="matrix(1 0 0 1 -44.774 85.4)" id="Layer_1">
<path style="stroke: none; stroke-width: 1; stroke-dasharray: none; stroke-linecap: butt; stroke-dashoffset: 0; stroke-linejoin: miter; stroke-miterlimit: 4; is-custom-font: none; font-file-url: none; fill: rgb(108,76,70); fill-rule: nonzero; opacity: 1;" transform=" translate(-564.851, -867.055)" d="M 622.849 877.331 c 0.234 -1.056 0.353 -2.229 0.47 -3.285 c -8.573 -1.765 -17.148 -4.111 -25.371 -6.815 c -21.378 -7.048 -41.699 -18.088 -57.087 -34.769 c -3.172 -3.524 -6.108 -7.166 -8.809 -10.922 c -1.411 -1.999 -2.703 -4.111 -4.112 -6.228 c -1.175 -1.76 -2.349 -3.525 -3.29 -5.403 c -0.117 0.118 -0.235 0.235 -0.352 0.354 c -0.234 0.234 -0.353 0.469 -0.587 0.586 c -5.05 6.11 -9.631 12.921 -12.804 20.323 c -1.408 3.289 -2.466 6.576 -3.288 9.982 c -2.232 9.632 -1.527 19.502 2.818 28.545 c 4.347 8.811 10.924 16.091 18.441 22.436 c 7.871 6.576 16.798 12.096 25.959 16.798 c 8.458 4.347 17.15 7.749 26.077 10.804 c 6.813 2.348 13.977 3.878 21.144 4.347 c 0.586 0 1.173 0 1.761 0.117 c 5.874 -9.279 11.629 -18.909 14.8 -29.484 C 620.5 888.962 622.027 883.208 622.849 877.331 L 622.849 877.331 z" stroke-linecap="round"/>
</g>
		<g transform="matrix(1 0 0 1 141.7865 -22.4839)" id="Layer_1">
<path style="stroke: none; stroke-width: 1; stroke-dasharray: none; stroke-linecap: butt; stroke-dashoffset: 0; stroke-linejoin: miter; stroke-miterlimit: 4; is-custom-font: none; font-file-url: none; fill: rgb(164,140,130); fill-rule: nonzero; opacity: 1;" transform=" translate(-751.4115, -759.1712)" d="M 766.388 755.053 c -0.118 -2.934 -0.235 -5.988 -0.471 -8.927 c -1.056 -0.586 -2.229 -1.174 -3.407 -1.761 c -1.29 -0.586 -2.698 -1.056 -4.11 -1.525 c -5.872 -1.764 -12.684 -2.468 -18.794 -1.295 c -0.117 1.765 -0.352 3.407 -0.586 5.051 c -0.471 4.111 -1.174 8.457 -2.703 12.334 c 2.469 0.117 5.055 0.587 7.401 1.412 c 3.055 1.057 6.11 2.582 8.81 4.346 c 2.116 1.409 4.346 2.934 5.992 4.934 c 0.588 0.469 1.174 0.939 1.761 1.408 c 0.939 0.821 1.761 1.525 2.586 2.469 c 0.939 0.938 1.878 2.112 2.7 3.285 c 0.234 0.117 0.351 0.356 0.469 0.591 c 0.47 -3.524 0.47 -7.167 0.47 -10.69 C 766.505 762.807 766.505 758.93 766.388 755.053 L 766.388 755.053 z" stroke-linecap="round"/>
</g>
		<g transform="matrix(1 0 0 1 142.727 -53.969)" id="Layer_1">
<path style="stroke: none; stroke-width: 1; stroke-dasharray: none; stroke-linecap: butt; stroke-dashoffset: 0; stroke-linejoin: miter; stroke-miterlimit: 4; is-custom-font: none; font-file-url: none; fill: rgb(164,140,130); fill-rule: nonzero; opacity: 1;" transform=" translate(-752.352, -727.686)" d="M 754.409 712.417 c -3.056 0 -6.11 0.352 -9.048 1.174 c -1.409 0.352 -2.817 0.821 -4.109 1.407 c -0.708 0.235 -1.528 0.471 -2.232 0.705 c 0.938 5.289 1.173 10.809 1.056 15.977 c 0 2.703 -0.117 5.284 -0.234 7.987 c 6.345 -1.878 13.507 -1.173 19.853 0.822 c 0.821 0.234 1.644 0.587 2.582 0.938 c 1.178 0.469 2.234 0.942 3.407 1.529 c -0.234 -2.468 -0.587 -4.933 -0.938 -7.4 c -1.291 -7.872 -3.407 -15.508 -6.345 -22.788 c -1.174 -0.234 -2.349 -0.352 -3.521 -0.352 C 754.761 712.417 754.526 712.417 754.409 712.417 L 754.409 712.417 z" stroke-linecap="round"/>
</g>
		<g transform="matrix(1 0 0 1 133.6815 -83.687)" id="Layer_1">
<path style="stroke: none; stroke-width: 1; stroke-dasharray: none; stroke-linecap: butt; stroke-dashoffset: 0; stroke-linejoin: miter; stroke-miterlimit: 4; is-custom-font: none; font-file-url: none; fill: rgb(164,140,130); fill-rule: nonzero; opacity: 1;" transform=" translate(-743.3065, -697.968)" d="M 738.668 713.825 c 0.586 -0.352 1.29 -0.703 1.995 -1.057 c 1.411 -0.586 2.938 -1.173 4.462 -1.529 c 2.821 -0.821 5.759 -1.291 8.693 -1.291 c 0.356 0 0.825 0 1.177 0 c 0.705 0 1.526 0 2.23 0.117 c -0.704 -1.407 -1.291 -2.934 -2.113 -4.345 c -4.463 -8.811 -10.456 -16.564 -17.384 -23.609 c -0.821 0.469 -1.646 1.057 -2.469 1.525 c -0.704 0.353 -1.291 0.821 -1.994 1.291 c -0.943 0.592 -1.882 1.412 -2.821 2.116 c -0.353 0.353 -0.704 0.704 -1.056 1.057 c 1.643 3.173 3.172 6.345 4.58 9.631 c 1.174 2.938 2.465 5.993 2.699 9.162 C 737.493 709.127 738.198 711.479 738.668 713.825 L 738.668 713.825 z" stroke-linecap="round"/>
</g>
		<g transform="matrix(1 0 0 1 112.479 -107.8835)" id="Layer_1">
<path style="stroke: none; stroke-width: 1; stroke-dasharray: none; stroke-linecap: butt; stroke-dashoffset: 0; stroke-linejoin: miter; stroke-miterlimit: 4; is-custom-font: none; font-file-url: none; fill: rgb(164,140,130); fill-rule: nonzero; opacity: 1;" transform=" translate(-722.104, -673.7715)" d="M 733.382 681.76 c 0.705 -0.47 1.525 -1.061 2.464 -1.53 c -6.223 -5.989 -13.155 -11.391 -20.317 -16.207 c -1.412 -0.942 -2.821 -1.765 -4.229 -2.703 c -0.469 0.704 -0.822 1.408 -1.296 2.117 c 0 0.117 -0.117 0.234 -0.117 0.234 c -0.352 0.704 -0.703 1.407 -1.173 2.112 c -0.117 0.234 -0.235 0.47 -0.352 0.587 c 3.642 2.351 7.283 4.815 10.452 7.753 c 3.876 3.524 6.932 7.637 9.518 12.1 c 1.057 -1.295 2.347 -2.351 3.521 -3.29 C 732.322 682.58 732.795 682.229 733.382 681.76 L 733.382 681.76 z" stroke-linecap="round"/>
</g>
		<g transform="matrix(1 0 0 1 86.1095 -126.21)" id="Layer_1">
<path style="stroke: none; stroke-width: 1; stroke-dasharray: none; stroke-linecap: butt; stroke-dashoffset: 0; stroke-linejoin: miter; stroke-miterlimit: 4; is-custom-font: none; font-file-url: none; fill: rgb(164,140,130); fill-rule: nonzero; opacity: 1;" transform=" translate(-695.7345, -655.445)" d="M 698.966 654.152 c -2.938 -1.643 -5.873 -3.168 -8.811 -4.698 c -2.701 -1.291 -5.287 -2.698 -8.105 -3.759 c 0.47 0.943 1.058 1.764 1.645 2.586 l 0 0 c 2.467 3.29 5.757 5.988 8.93 8.223 c 4.581 3.173 9.279 5.871 13.978 8.691 c 0 -0.117 0.117 -0.352 0.234 -0.469 c 0.352 -0.821 0.704 -1.525 1.173 -2.234 c 0.118 -0.234 0.235 -0.352 0.235 -0.586 c 0.353 -0.587 0.704 -1.173 1.174 -1.761 C 705.897 658.029 702.489 656.035 698.966 654.152 L 698.966 654.152 z" stroke-linecap="round"/>
</g>
		<g transform="matrix(1 0 0 1 55.101 6.5215)" id="Layer_1">
<path style="stroke: none; stroke-width: 1; stroke-dasharray: none; stroke-linecap: butt; stroke-dashoffset: 0; stroke-linejoin: miter; stroke-miterlimit: 4; is-custom-font: none; font-file-url: none; fill: rgb(164,140,130); fill-rule: nonzero; opacity: 1;" transform=" translate(-664.726, -788.1765)" d="M 697.791 772.085 c -2.703 0.353 -5.523 0.117 -8.223 -0.117 c 0 0.705 0.117 1.53 0.117 2.234 c 0 0.821 0 1.525 -0.117 2.229 c 0 0.469 0 0.821 0 1.178 c -0.234 2.112 -0.469 4.111 -0.939 5.989 l 0 0 c 0.471 0.234 0.471 0.704 0.471 1.173 c -0.117 0.822 -0.709 1.296 -1.411 1.647 c -0.354 0.704 -0.823 1.29 -1.527 1.878 c -0.47 0.234 -1.056 0 -1.174 -0.471 c 0 -0.117 0 -0.234 0 -0.352 c -0.119 -1.056 0 -2.115 0.235 -3.172 c -0.589 0.352 -1.293 0.586 -1.879 0.82 c -1.998 0.705 -3.995 1.413 -5.992 1.883 c -4.229 1.057 -8.574 1.643 -12.804 1.995 c -8.105 0.703 -16.091 0.938 -24.197 1.647 c -0.117 0.586 -0.352 1.173 -0.586 1.642 c -0.352 1.058 -0.823 2.112 -1.293 3.174 c -0.705 1.407 -1.525 2.347 -2.466 3.521 c -0.118 0.121 -0.235 0.234 -0.235 0.234 l 0 0 c -0.47 0.121 -1.058 -0.234 -1.058 -0.704 c 0 -0.352 0 -0.704 0.119 -0.939 c -0.237 -0.117 -0.471 -0.117 -0.588 0 c -2.349 0.588 -4.581 1.057 -6.93 0.705 c -0.352 0 -0.587 0.117 -0.821 0.234 c 0.704 0.942 1.527 1.882 2.231 2.82 c 0.587 0.821 1.173 1.761 1.879 2.703 c 2.115 -0.591 4.933 0 6.695 0.587 c 0.586 0.234 1.291 0.469 1.878 0.705 c 1.175 -1.292 2.821 -2.234 4.346 -3.057 c 2.351 -1.173 4.817 -1.995 7.401 -2.464 c 2.583 -0.353 5.167 -0.47 7.87 0.117 c 0.939 0.117 2.229 0.47 3.289 0.939 c 0.352 -0.353 0.82 -0.588 1.293 -0.47 c 1.173 -0.822 2.583 -1.291 3.64 -1.765 c 1.763 -0.704 3.642 -1.291 5.639 -1.408 c 1.526 -0.118 3.405 0 5.05 0.587 c 0.821 -1.174 2.35 -2.112 3.408 -2.817 c 1.877 -1.177 3.876 -1.998 5.871 -2.585 c 2.117 -0.47 4.347 -0.587 6.463 -0.235 c 0.353 0 0.704 0.117 0.939 0.235 l 0 0 c -0.587 -1.996 -0.353 -4.229 0 -6.224 c 0.352 -2.234 1.056 -4.347 2.112 -6.463 c 0.825 -1.761 1.881 -3.407 3.055 -4.934 c 0.939 -1.29 2.112 -2.586 3.407 -3.759 c -0.117 0 -0.234 0 -0.234 0.117 C 701.078 771.616 699.435 771.968 697.791 772.085 L 697.791 772.085 z" stroke-linecap="round"/>
</g>
		<g transform="matrix(1 0 0 1 68.608 -14.737)" id="Layer_1">
<path style="stroke: none; stroke-width: 1; stroke-dasharray: none; stroke-linecap: butt; stroke-dashoffset: 0; stroke-linejoin: miter; stroke-miterlimit: 4; is-custom-font: none; font-file-url: none; fill: rgb(164,140,130); fill-rule: nonzero; opacity: 1;" transform=" translate(-678.233, -766.918)" d="M 670.656 771.616 c 2.349 0.352 4.698 0.821 7.047 1.291 c 1.998 0.356 3.878 0.708 5.757 1.178 c 0.704 0.117 1.527 0.352 2.35 0.469 c -0.118 -3.172 -0.47 -6.345 -1.176 -9.396 c -0.352 -1.177 -0.587 -2.233 -0.939 -3.29 c -0.234 -0.82 -0.47 -1.76 -0.823 -2.586 c -0.117 0.117 -0.352 0.117 -0.469 0.117 c -0.938 0.474 -1.761 1.296 -2.701 1.883 c -0.939 0.469 -1.998 0.821 -3.054 1.056 c -1.059 0.234 -2.114 0.352 -3.172 0.352 c -0.939 0 -1.88 0.118 -2.701 0.118 c 0 0.47 0 0.938 0 1.412 c 0.116 0.117 0.116 0.234 0.116 0.352 c 0 1.526 0 2.934 0 4.347 C 670.891 769.855 670.891 770.678 670.656 771.616 L 670.656 771.616 z" stroke-linecap="round"/>
</g>
		<g transform="matrix(1 0 0 1 -18.725 -11.681)" id="Layer_1">
<path style="stroke: none; stroke-width: 1; stroke-dasharray: none; stroke-linecap: butt; stroke-dashoffset: 0; stroke-linejoin: miter; stroke-miterlimit: 4; is-custom-font: none; font-file-url: none; fill: rgb(164,140,130); fill-rule: nonzero; opacity: 1;" transform=" translate(-590.9, -769.974)" d="M 598.534 764.923 c -2.583 1.291 -5.285 2.112 -8.105 2.817 c -4.229 1.06 -8.458 1.411 -12.804 1.529 c -0.117 1.055 -0.235 2.112 -0.469 3.051 c 0 0.473 -0.117 0.826 -0.117 1.178 c 7.519 0 15.153 2.112 22.083 5.051 c 0.118 0 0.352 0.117 0.469 0.117 c 0.12 -0.822 0.472 -1.647 0.589 -2 c 0.704 -1.995 1.292 -4.111 1.997 -6.105 c 0.469 -1.761 1.056 -3.525 1.525 -5.286 c 0.353 -1.294 0.707 -2.586 1.059 -3.993 c -0.94 0.586 -1.763 1.173 -2.584 1.761 C 601.001 763.745 599.827 764.336 598.534 764.923 L 598.534 764.923 z" stroke-linecap="round"/>
</g>
		<g transform="matrix(1 0 0 1 -40.6475 -63.8345)" id="Layer_1">
<path style="stroke: none; stroke-width: 1; stroke-dasharray: none; stroke-linecap: butt; stroke-dashoffset: 0; stroke-linejoin: miter; stroke-miterlimit: 4; is-custom-font: none; font-file-url: none; fill: rgb(164,140,130); fill-rule: nonzero; opacity: 1;" transform=" translate(-568.9775, -717.8205)" d="M 583.381 709.01 c 1.293 -11.865 2.818 -24.082 -1.292 -35.59 c -1.761 -4.699 -4.228 -9.045 -7.751 -12.569 c -2.466 -2.469 -5.167 -4.464 -8.106 -5.989 c -1.056 -0.592 -2.114 -1.061 -3.171 -1.529 c 0.939 2.232 1.88 4.345 2.701 6.579 c 1.176 3.051 2.232 6.106 3.171 9.279 c 1.879 6.225 3.055 12.569 3.759 19.028 c 1.528 12.92 0.941 26.193 -1.173 39.114 c -1.528 9.631 -3.995 19.149 -7.167 28.429 c -1.643 4.697 -3.523 9.278 -5.403 13.859 c -1.056 2.581 -2.114 5.05 -3.172 7.519 c -0.821 1.644 -1.76 3.403 -2.584 5.168 c 0.589 -0.353 1.293 -0.587 1.88 -0.943 c 0 0 0.117 -0.117 0.234 -0.117 c 1.176 -1.057 2.469 -2.112 3.76 -3.051 c 2.818 -1.765 5.873 -3.056 9.279 -3.76 c 1.527 -0.352 3.173 -0.587 4.698 -0.821 c 0.117 -0.469 0.117 -0.942 0.235 -1.53 c 0.119 -0.821 0.237 -1.761 0.354 -2.698 c -0.117 0 -0.235 0 -0.235 0 h -0.119 c 0.119 0 0.237 0 0.354 -0.117 c 0.118 -0.47 0.118 -1.061 0.235 -1.648 c 0.47 -3.168 0.939 -6.34 1.41 -9.513 c 0.939 -5.638 2.23 -11.157 3.288 -16.798 C 580.563 730.623 582.208 719.814 583.381 709.01 L 583.381 709.01 z" stroke-linecap="round"/>
</g>
		<g transform="matrix(1 0 0 1 80.531 -38.289)" id="Layer_1">
<path style="stroke: none; stroke-width: 1; stroke-dasharray: none; stroke-linecap: butt; stroke-dashoffset: 0; stroke-linejoin: miter; stroke-miterlimit: 4; is-custom-font: none; font-file-url: none; fill: rgb(255,255,255); fill-rule: nonzero; opacity: 1;" transform=" translate(-690.156, -743.366)" d="M 687.924 741.193 c -0.118 0 -0.118 0 -0.235 0 c 0.117 0.352 0.235 0.703 0.235 0.942 c 0.353 0.353 0.589 0.821 0.94 1.174 c 0.704 0.704 1.408 1.525 2.348 1.995 c 0.234 0.117 0.587 0.235 0.821 0.235 l 0 0 l 0 0 c 0.117 -0.235 0.234 -0.705 0.234 -1.058 c 0.117 -0.82 0 -1.643 0.356 -2.347 C 691.095 741.779 689.451 741.428 687.924 741.193 L 687.924 741.193 z" stroke-linecap="round"/>
</g>
		<g transform="matrix(1 0 0 1 70.9791 -36.4548)" id="Layer_1">
<path style="stroke: none; stroke-width: 1; stroke-dasharray: none; stroke-linecap: butt; stroke-dashoffset: 0; stroke-linejoin: miter; stroke-miterlimit: 4; is-custom-font: none; font-file-url: none; fill: rgb(255,255,255); fill-rule: nonzero; opacity: 1;" transform=" translate(-680.6041, -745.2003)" d="M 683.694 741.193 c -0.116 -0.117 -0.116 -0.234 -0.234 -0.352 c -0.235 0 -0.472 0 -0.706 0 c -0.821 -0.118 -1.761 -0.118 -2.584 0 c -0.117 0 -0.234 0 -0.352 0 l 0 0 l 0 0 l 0 0 v 0.117 c -0.117 0 -0.234 0 -0.234 0 c -0.353 0 -0.704 0.117 -1.06 0.234 c -0.351 0 -0.586 0.117 -0.938 0.234 c -0.117 0 -0.117 0 -0.117 0 l 0 0 c -0.117 0.117 -0.234 0.117 -0.352 0.234 c -0.117 0 -0.234 0.117 -0.352 0.234 l 0 0 c -0.118 0.239 -0.235 0.474 -0.587 0.709 c 0 0 0 0 0 0.117 c 1.643 0.822 3.053 2.817 4.226 3.994 l 0 0 c 0.237 0 0.237 0.234 0.237 0.352 c 0.352 0.353 0.586 0.704 0.822 1.057 c 1.173 0.587 2.23 1.174 3.523 1.525 c 0.118 -1.761 0 -3.524 -0.354 -5.168 C 684.517 743.31 684.164 742.136 683.694 741.193 L 683.694 741.193 z" stroke-linecap="round"/>
</g>
		<g transform="matrix(1 0 0 1 56.0385 -36.2915)" id="Layer_1">
<path style="stroke: none; stroke-width: 1; stroke-dasharray: none; stroke-linecap: butt; stroke-dashoffset: 0; stroke-linejoin: miter; stroke-miterlimit: 4; is-custom-font: none; font-file-url: none; fill: rgb(255,255,255); fill-rule: nonzero; opacity: 1;" transform=" translate(-665.6635, -745.3635)" d="M 667.838 741.428 c -0.117 0 -0.353 0 -0.589 0 c -1.407 0 -2.701 0 -3.874 0.352 c -0.353 0.117 -0.707 0.356 -1.059 0.591 c 0.823 0.587 1.527 1.526 2.114 2.23 c 0.821 1.057 1.527 2.233 2.231 3.407 c 0.235 0.47 0.353 0.821 0.587 1.291 c 0.472 0 0.706 0 1.059 -0.234 c -0.118 0 0.116 -0.235 0.116 -0.353 c 0.235 -0.234 0.235 -0.352 0.354 -0.587 c 0.117 -0.587 0.234 -1.057 0.234 -1.643 c 0 -1.413 -0.234 -2.703 -0.822 -3.994 C 667.955 742.253 667.838 741.779 667.838 741.428 L 667.838 741.428 z" stroke-linecap="round"/>
</g>
		<g transform="matrix(1 0 0 1 13.5175 -36.701)" id="Layer_1">
<path style="stroke: none; stroke-width: 1; stroke-dasharray: none; stroke-linecap: butt; stroke-dashoffset: 0; stroke-linejoin: miter; stroke-miterlimit: 4; is-custom-font: none; font-file-url: none; fill: rgb(255,255,255); fill-rule: nonzero; opacity: 1;" transform=" translate(-623.1425, -744.954)" d="M 621.322 745.657 c 0.117 0.703 0.471 1.528 0.94 1.881 c 0 -0.117 0.234 0 0.352 0.117 c 0 -0.117 0.352 0 0.352 0 c 0.117 -0.117 0.824 -0.352 1.059 -0.47 c 0.586 -0.352 1.173 -0.942 1.76 -1.411 c -1.643 -1.292 -3.405 -2.465 -5.285 -3.521 C 620.617 743.428 620.969 744.601 621.322 745.657 L 621.322 745.657 z" stroke-linecap="round"/>
</g>
		<g transform="matrix(1 0 0 1 3.3565 -36.642)" id="Layer_1">
<path style="stroke: none; stroke-width: 1; stroke-dasharray: none; stroke-linecap: butt; stroke-dashoffset: 0; stroke-linejoin: miter; stroke-miterlimit: 4; is-custom-font: none; font-file-url: none; fill: rgb(255,255,255); fill-rule: nonzero; opacity: 1;" transform=" translate(-612.9815, -745.013)" d="M 609.106 739.198 c 0 0 0 0 0 0.117 c 0 0 0 0.117 0.117 0.117 c 0.821 0.821 1.056 2.347 1.292 3.524 c 0.353 2.583 0.47 5.286 0.353 7.872 c 0.117 -0.122 0.235 -0.239 0.352 -0.356 c 0.47 -0.471 0.939 -1.057 1.408 -1.644 c 1.058 -1.525 2.117 -3.172 2.938 -4.815 c 0.353 -0.821 0.705 -1.408 0.939 -2.234 c 0.117 -0.352 0.235 -0.82 0.352 -1.173 c -1.292 -0.47 -2.701 -0.822 -3.993 -1.174 C 611.573 739.198 610.399 739.198 609.106 739.198 L 609.106 739.198 z" stroke-linecap="round"/>
</g>
		<g transform="matrix(1 0 0 1 -16.7875 -40.9905)" id="Layer_1">
<path style="stroke: none; stroke-width: 1; stroke-dasharray: none; stroke-linecap: butt; stroke-dashoffset: 0; stroke-linejoin: miter; stroke-miterlimit: 4; is-custom-font: none; font-file-url: none; fill: rgb(255,255,255); fill-rule: nonzero; opacity: 1;" transform=" translate(-592.8375, -740.6645)" d="M 593.014 736.025 c -0.354 -0.234 -0.823 -0.469 -1.292 -0.705 l -0.47 -0.117 c -0.118 -0.117 -0.235 -0.117 -0.354 -0.117 c 0.119 0.588 0 1.174 -0.118 1.878 c -0.118 1.061 -0.352 2.117 -0.587 3.173 c -0.469 1.76 -0.938 3.408 -1.408 5.05 c 0 0.354 -0.117 0.588 -0.234 0.939 l 0 0 c 0.117 0 0.117 0 0.117 0.117 l 0 0 v -0.117 c 0.117 0 0.353 0 0.47 -0.117 l 0 0 c 0.117 0 0.117 0 0.117 0 s 0 0 0 -0.117 c 0.352 -0.117 0.704 -0.352 1.056 -0.47 c 0.587 -0.47 1.293 -0.939 1.88 -1.291 c 1.527 -1.174 2.936 -2.469 4.229 -3.877 c 0.234 -0.234 0.469 -0.47 0.704 -0.704 C 595.833 738.26 594.541 737.081 593.014 736.025 L 593.014 736.025 z" stroke-linecap="round"/>
</g>
		<g transform="matrix(1 0 0 1 -86.4425 -28.1835)" id="Layer_1">
<path style="stroke: none; stroke-width: 1; stroke-dasharray: none; stroke-linecap: butt; stroke-dashoffset: 0; stroke-linejoin: miter; stroke-miterlimit: 4; is-custom-font: none; font-file-url: none; fill: rgb(255,255,255); fill-rule: nonzero; opacity: 1;" transform=" translate(-523.1825, -753.4715)" d="M 524.181 751.298 c -0.235 -0.117 -0.47 -0.117 -0.822 -0.117 c -0.117 0 -0.234 0 -0.352 0 c -0.118 0 -0.352 0.117 -0.472 0.117 l 0 0 c -0.117 0 -0.117 0 -0.117 0 c -0.234 0.117 -0.352 0.117 -0.586 0.234 c -0.117 0.117 -0.235 0.235 -0.353 0.353 c -0.469 0.469 -0.704 1.057 -0.704 1.643 c 0 0.587 0.235 1.174 0.704 1.525 c 0.118 0.118 0.235 0.235 0.47 0.355 c 0.235 0.236 0.469 0.236 0.823 0.354 c 0.117 0 0.117 0 0.235 0 c 0.47 0 1.057 -0.117 1.526 -0.354 c 0.234 -0.237 0.588 -0.473 0.823 -0.825 c 0.117 -0.352 0.234 -0.703 0.234 -1.173 C 525.59 752.588 525.002 751.649 524.181 751.298 L 524.181 751.298 z" stroke-linecap="round"/>
</g>
		<g transform="matrix(1 0 0 1 120.822 29.4808)" id="Layer_1">
<path style="stroke: none; stroke-width: 1; stroke-dasharray: none; stroke-linecap: butt; stroke-dashoffset: 0; stroke-linejoin: miter; stroke-miterlimit: 4; is-custom-font: none; font-file-url: none; fill: rgb(124,93,85); fill-rule: nonzero; opacity: 1;" transform=" translate(-730.447, -811.1358)" d="M 754.409 788.414 c -1.178 -0.939 -2.352 -1.761 -3.525 -2.586 c -7.049 -4.581 -15.741 -6.928 -24.081 -4.933 c -4.347 1.06 -8.34 3.055 -11.861 5.876 c -3.407 2.815 -5.993 6.224 -8.457 9.748 c 3.051 1.995 5.871 4.347 8.34 6.928 c 6.576 6.815 11.743 14.803 16.089 23.025 c 2.587 5.051 4.933 10.219 7.05 15.62 c 3.289 -4.11 6.106 -8.574 8.341 -13.39 c 5.871 -11.979 7.749 -25.256 6.693 -38.528 C 752.997 789.118 753.584 788.531 754.409 788.414 L 754.409 788.414 z" stroke-linecap="round"/>
</g>
		<g transform="matrix(1 0 0 1 98.62 45.706)" id="Layer_1">
<path style="stroke: none; stroke-width: 1; stroke-dasharray: none; stroke-linecap: butt; stroke-dashoffset: 0; stroke-linejoin: miter; stroke-miterlimit: 4; is-custom-font: none; font-file-url: none; fill: rgb(124,93,85); fill-rule: nonzero; opacity: 1;" transform=" translate(-708.245, -827.361)" d="M 713.999 807.911 c -2.817 -3.169 -5.872 -6.224 -9.515 -8.571 l -0.117 -0.121 c -0.469 -0.353 -0.938 -0.587 -1.525 -0.938 c -1.178 -0.705 -2.469 -1.409 -3.759 -1.995 c -0.705 -0.353 -1.409 -0.587 -2.117 -0.939 c 0 0 0 0 -0.117 0 c -1.29 -0.234 -2.816 0 -4.225 0 c -1.647 0.118 -3.29 0.587 -4.818 1.057 c -1.761 0.586 -3.406 1.408 -4.817 2.347 c -0.469 0.356 -0.938 0.708 -1.407 1.061 c 1.526 0.939 2.818 2.229 3.993 3.403 c 1.761 1.764 3.525 3.642 5.168 5.523 c 2.587 3.168 5.167 6.459 7.636 9.866 c 4.347 5.988 8.224 12.452 11.626 19.028 c 3.643 7.048 6.933 14.332 9.401 21.847 c 1.525 -1.056 3.168 -2.347 4.698 -3.524 c 3.872 -3.169 7.515 -6.576 10.804 -10.335 c -1.525 -4.229 -3.172 -8.458 -5.167 -12.451 C 725.629 824.122 720.578 815.43 713.999 807.911 L 713.999 807.911 z" stroke-linecap="round"/>
</g>
		<g transform="matrix(1 0 0 1 82.233 54.0511)" id="Layer_1">
<path style="stroke: none; stroke-width: 1; stroke-dasharray: none; stroke-linecap: butt; stroke-dashoffset: 0; stroke-linejoin: miter; stroke-miterlimit: 4; is-custom-font: none; font-file-url: none; fill: rgb(124,93,85); fill-rule: nonzero; opacity: 1;" transform=" translate(-691.858, -835.7061)" d="M 700.021 828.233 c -2.582 -3.994 -5.402 -7.987 -8.34 -11.865 c -2.113 -2.698 -4.228 -5.401 -6.576 -7.866 c -1.881 -1.999 -4.229 -3.877 -5.874 -5.994 c -1.293 -0.469 -2.466 -1.056 -3.76 -1.173 c -1.762 -0.234 -3.405 0 -5.168 0.47 c -0.823 0.352 -1.645 0.703 -2.466 1.057 c 0.705 0.703 1.408 1.294 2.114 1.998 c 1.761 1.761 3.405 3.525 4.933 5.403 c 3.054 3.993 5.64 8.223 7.986 12.569 c 6.58 12.568 11.748 26.193 14.803 40.171 c 0.47 2.352 0.938 4.698 1.292 7.166 c 5.871 -2.233 11.629 -5.051 16.914 -8.457 c -0.352 -1.056 -0.704 -2.117 -1.056 -3.173 C 711.182 847.852 706.011 837.748 700.021 828.233 L 700.021 828.233 z" stroke-linecap="round"/>
</g>
		<g transform="matrix(1 0 0 1 59.4445 58.5371)" id="Layer_1">
<path style="stroke: none; stroke-width: 1; stroke-dasharray: none; stroke-linecap: butt; stroke-dashoffset: 0; stroke-linejoin: miter; stroke-miterlimit: 4; is-custom-font: none; font-file-url: none; fill: rgb(124,93,85); fill-rule: nonzero; opacity: 1;" transform=" translate(-669.0695, -840.1921)" d="M 674.416 816.725 c -1.763 -2.586 -3.642 -5.055 -5.757 -7.284 c -1.527 -1.646 -3.407 -3.055 -5.05 -4.698 l 0 0 c -1.88 0.117 -3.76 -0.821 -5.64 -0.938 c -2.115 -0.239 -4.229 -0.239 -6.225 0.117 c -2.115 0.47 -4.229 1.056 -6.107 1.995 c -0.823 0.47 -1.762 0.938 -2.586 1.643 c 0.235 0 0.352 0.118 0.47 0.118 c 2.468 1.412 4.346 3.993 5.991 6.228 c 1.645 2.347 3.172 4.815 4.581 7.279 c 2.114 3.995 3.993 8.105 5.639 12.218 c 3.17 8.105 5.754 16.445 7.517 24.903 c 1.41 6.105 2.467 12.217 2.938 18.44 c 8.456 -0.821 16.796 -2.582 24.901 -5.285 c -1.995 -12.687 -5.988 -25.138 -11.275 -36.882 C 681.111 828.469 678.174 822.361 674.416 816.725 L 674.416 816.725 z" stroke-linecap="round"/>
</g>
		<g transform="matrix(1 0 0 1 39.9495 61.116)" id="Layer_1">
<path style="stroke: none; stroke-width: 1; stroke-dasharray: none; stroke-linecap: butt; stroke-dashoffset: 0; stroke-linejoin: miter; stroke-miterlimit: 4; is-custom-font: none; font-file-url: none; fill: rgb(124,93,85); fill-rule: nonzero; opacity: 1;" transform=" translate(-649.5745, -842.771)" d="M 657.853 840.334 c -1.527 -4.582 -3.288 -9.045 -5.402 -13.274 c -1.527 -3.173 -3.29 -6.11 -5.169 -9.044 c -0.939 -1.412 -1.998 -2.938 -3.053 -4.346 c -0.47 -0.587 -0.941 -1.292 -1.411 -1.883 c 0 0 -0.117 0 -0.234 -0.117 c -1.056 -0.234 -2.232 -1.29 -3.17 -1.878 c -0.117 -0.117 -0.237 -0.117 -0.354 -0.234 c -0.353 -0.117 -0.705 -0.234 -0.939 -0.469 c -0.586 -0.353 -1.408 -0.587 -2.114 -0.821 c -0.939 -0.234 -1.997 -0.234 -2.937 -0.234 c 3.523 5.754 6.344 12.096 8.693 18.322 c 4.346 11.744 6.93 24.195 7.517 36.647 c 0.235 4.815 0.118 9.513 -0.234 14.328 c 5.05 0.236 10.103 0.236 15.153 0 c 0.586 -0.117 1.29 -0.117 1.88 -0.117 c -0.118 -1.642 -0.354 -3.285 -0.59 -4.933 C 664.196 861.359 661.495 850.669 657.853 840.334 L 657.853 840.334 z" stroke-linecap="round"/>
</g>
		<g transform="matrix(1 0 0 1 -35.4297 48.578)" id="Layer_1">
<path style="stroke: none; stroke-width: 1; stroke-dasharray: none; stroke-linecap: butt; stroke-dashoffset: 0; stroke-linejoin: miter; stroke-miterlimit: 4; is-custom-font: none; font-file-url: none; fill: rgb(124,93,85); fill-rule: nonzero; opacity: 1;" transform=" translate(-574.1953, -830.233)" d="M 580.563 795.229 c -4.698 -2.351 -9.631 -4.229 -14.801 -5.759 c -4.815 -1.29 -9.866 -2.229 -14.8 -3.051 c -1.056 0.821 -2.115 1.761 -3.288 2.465 c -2.701 1.999 -5.404 4.111 -7.988 6.345 c -5.402 4.463 -10.572 9.396 -15.036 14.681 c 0.94 1.878 2.115 3.644 3.29 5.403 c 1.409 2.116 2.701 4.229 4.112 6.228 c 2.701 3.756 5.637 7.397 8.809 10.922 c 15.388 16.681 35.709 27.721 57.087 34.769 c 8.223 2.704 16.798 5.051 25.371 6.815 c 0.117 -1.647 0.354 -3.407 0.354 -5.172 c 0.822 -20.083 -5.874 -40.171 -19.264 -55.321 C 597.713 806.033 589.607 799.81 580.563 795.229 L 580.563 795.229 z" stroke-linecap="round"/>
</g>
		<g transform="matrix(1 0 0 1 -86.0003 -33.355)" id="Layer_1">
<path style="stroke: none; stroke-width: 1; stroke-dasharray: none; stroke-linecap: butt; stroke-dashoffset: 0; stroke-linejoin: miter; stroke-miterlimit: 4; is-custom-font: none; font-file-url: none; fill: rgb(124,93,85); fill-rule: nonzero; opacity: 1;" transform=" translate(-523.6247, -748.3)" d="M 556.014 689.273 c 1.879 -6.341 3.054 -13.39 2.701 -20.083 c -0.47 1.291 -0.939 2.464 -1.41 3.759 c -0.586 1.526 -1.174 3.169 -1.88 4.698 c -2.113 4.698 -4.463 9.162 -6.93 13.626 c -6.226 10.804 -14.684 19.849 -23.728 28.424 c -4.698 4.346 -9.514 8.692 -14.095 13.273 c -4.581 4.463 -9.279 9.044 -12.804 14.333 c -3.053 4.581 -5.05 9.748 -6.46 15.15 c -0.587 2.82 -1.173 5.638 -1.645 8.458 c -0.234 1.525 -0.586 3.173 -0.821 4.698 c -0.118 0.704 -0.352 1.408 -0.47 2.116 c 0.118 0.234 0.352 0.587 0.47 0.822 c 3.173 5.284 5.991 10.687 8.692 16.323 c 1.528 3.173 3.055 6.229 4.464 9.519 c 1.058 2.581 2.349 5.872 2.467 8.81 l 0 0 c 0.706 0.353 0.469 1.29 -0.118 1.525 c -0.234 1.878 -2.701 2.233 -3.406 0.352 c 0 -0.117 -0.117 -0.352 -0.117 -0.587 c -0.117 0 -0.235 0 -0.354 0 c -0.821 -0.469 -1.643 -1.056 -2.349 -1.643 c -1.525 -0.708 -2.936 -1.412 -4.346 -2.116 c 1.059 2.586 2.349 4.934 3.877 7.167 c 1.528 2.111 3.407 4.346 5.521 6.106 c 1.174 1.057 2.466 2.116 3.758 2.938 c 0.352 0.117 0.588 0.234 0.94 0.469 c 1.997 -4.228 4.346 -8.34 7.047 -12.216 c 0.586 -0.939 1.291 -1.878 2.115 -2.817 c -8.693 -8.34 -12.1 -21.144 -11.863 -32.774 c 0.235 -11.155 4.933 -21.143 11.159 -30.188 c 0.822 -1.173 1.643 -2.23 2.467 -3.407 c 0.353 -0.939 0.821 -1.878 1.408 -2.816 c 0 -0.117 0.117 -0.235 0.117 -0.353 c 0.589 -1.061 1.763 -1.998 3.056 -2.586 c 4.698 -5.871 9.748 -11.513 14.446 -17.502 C 545.676 712.651 552.489 701.608 556.014 689.273 L 556.014 689.273 z" stroke-linecap="round"/>
</g>
		<g transform="matrix(1 0 0 1 -143.8235 -8.0415)" id="Layer_1">
<path style="stroke: none; stroke-width: 1; stroke-dasharray: none; stroke-linecap: butt; stroke-dashoffset: 0; stroke-linejoin: miter; stroke-miterlimit: 4; is-custom-font: none; font-file-url: none; fill: rgb(124,93,85); fill-rule: nonzero; opacity: 1;" transform=" translate(-465.8015, -773.6135)" d="M 469.326 779.135 c -2.466 -3.877 -4.815 -8.105 -6.226 -12.451 c -1.173 -3.29 -1.877 -6.929 -0.587 -10.218 c -3.876 -2.352 -7.753 -4.581 -11.511 -7.167 c -1.879 -1.409 -3.876 -2.938 -5.639 -4.698 c 0.352 1.76 0.586 3.524 0.941 5.167 c 0.822 4.112 1.879 7.988 3.757 11.748 c 5.521 11.514 13.627 21.849 23.023 30.423 c 4.112 3.877 8.575 7.519 13.156 10.687 c -0.235 -0.82 -0.353 -1.524 -0.587 -2.347 C 479.78 793.582 474.142 786.653 469.326 779.135 L 469.326 779.135 z" stroke-linecap="round"/>
</g>
		<g transform="matrix(1 0 0 1 -133.9323 -42.1055)" id="Layer_1">
<path style="stroke: none; stroke-width: 1; stroke-dasharray: none; stroke-linecap: butt; stroke-dashoffset: 0; stroke-linejoin: miter; stroke-miterlimit: 4; is-custom-font: none; font-file-url: none; fill: rgb(124,93,85); fill-rule: nonzero; opacity: 1;" transform=" translate(-475.6927, -739.5495)" d="M 471.792 749.65 c 1.527 4.111 3.173 8.224 4.346 12.452 c 0.587 0.704 1.293 1.291 1.879 1.999 c 2.349 2.464 4.464 5.05 6.344 7.632 c 0.234 -0.821 0.469 -1.761 0.821 -2.582 c -1.995 -6.463 -3.757 -12.921 -4.933 -19.618 c -0.704 -3.407 -1.174 -6.811 -1.408 -10.218 c -0.117 -3.056 -0.237 -6.228 0.234 -9.279 c -0.471 -0.938 -0.941 -1.764 -1.527 -2.703 c -2.466 -4.464 -5.05 -8.81 -7.282 -13.508 c -1.058 -1.995 -1.997 -4.229 -2.82 -6.459 c -0.117 0.353 -0.117 0.704 -0.235 1.058 c -0.352 3.055 -0.704 6.105 -0.938 9.16 c -0.235 5.638 0.117 11.157 1.173 16.682 C 468.503 739.55 470.032 744.601 471.792 749.65 L 471.792 749.65 z" stroke-linecap="round"/>
</g>
		<g transform="matrix(1 0 0 1 157.1145 -49.9175)" id="Layer_1">
<path style="stroke: none; stroke-width: 1; stroke-dasharray: none; stroke-linecap: butt; stroke-dashoffset: 0; stroke-linejoin: miter; stroke-miterlimit: 4; is-custom-font: none; font-file-url: none; fill: rgb(182,163,153); fill-rule: nonzero; opacity: 1;" transform=" translate(-766.7395, -731.7375)" d="M 773.789 749.182 c 0.352 0.352 0.82 0.938 1.29 1.525 c -0.117 -1.057 -0.117 -2.112 -0.117 -3.052 c -0.353 -7.049 -0.938 -13.977 -2.348 -20.792 c -0.586 -2.938 -1.294 -5.871 -2.115 -8.691 c -1.291 -0.588 -2.348 -1.878 -3.525 -2.586 c -1.291 -0.705 -2.581 -1.291 -3.873 -1.761 c -1.529 -0.469 -3.172 -0.938 -4.701 -1.057 c 2.938 7.28 5.054 14.916 6.345 22.788 c 0.352 2.468 0.704 4.933 0.938 7.4 c 1.408 0.705 2.821 1.525 4.111 2.583 C 771.203 746.596 772.614 747.772 773.789 749.182 L 773.789 749.182 z" stroke-linecap="round"/>
</g>
		<g transform="matrix(1 0 0 1 160.873 -14.6195)" id="Layer_1">
<path style="stroke: none; stroke-width: 1; stroke-dasharray: none; stroke-linecap: butt; stroke-dashoffset: 0; stroke-linejoin: miter; stroke-miterlimit: 4; is-custom-font: none; font-file-url: none; fill: rgb(182,163,153); fill-rule: nonzero; opacity: 1;" transform=" translate(-770.498, -767.0355)" d="M 774.845 754.231 c -1.526 -0.117 -2.23 -2.229 -3.173 -3.402 c -1.173 -1.179 -2.347 -2.352 -3.639 -3.291 c -0.708 -0.47 -1.411 -0.942 -2.116 -1.412 c 0.235 2.938 0.353 5.993 0.471 8.927 c 0.117 3.877 0.117 7.754 0.117 11.631 c 0 3.523 0 7.166 -0.47 10.69 c 2.469 3.287 4.346 6.812 5.993 10.571 c 0.704 -4.698 1.524 -9.515 1.995 -14.33 c 0.586 -6.463 1.056 -12.921 1.056 -19.384 C 774.962 754.231 774.962 754.231 774.845 754.231 L 774.845 754.231 z" stroke-linecap="round"/>
</g>
		<g transform="matrix(1 0 0 1 143.9015 -85.565)" id="Layer_1">
<path style="stroke: none; stroke-width: 1; stroke-dasharray: none; stroke-linecap: butt; stroke-dashoffset: 0; stroke-linejoin: miter; stroke-miterlimit: 4; is-custom-font: none; font-file-url: none; fill: rgb(182,163,153); fill-rule: nonzero; opacity: 1;" transform=" translate(-753.5265, -696.09)" d="M 768.738 713.708 c 0.234 0.117 0.353 0.234 0.587 0.353 c -0.587 -1.761 -1.174 -3.524 -1.761 -5.168 c -3.993 -10.926 -9.635 -21.496 -16.681 -30.774 c -0.353 0 -0.704 0 -1.056 0.117 c -1.178 0.117 -2.352 0.352 -3.407 0.586 c -2.352 0.587 -4.698 1.408 -6.815 2.469 c -0.586 0.234 -1.291 0.587 -1.877 0.821 c 6.928 7.045 12.921 14.799 17.384 23.609 c 0.822 1.411 1.409 2.938 2.113 4.345 c 2.468 0.117 5.05 0.705 7.401 1.53 C 766.035 712.183 767.447 712.769 768.738 713.708 L 768.738 713.708 z" stroke-linecap="round"/>
</g>
		<g transform="matrix(1 0 0 1 120.468 -115.755)" id="Layer_1">
<path style="stroke: none; stroke-width: 1; stroke-dasharray: none; stroke-linecap: butt; stroke-dashoffset: 0; stroke-linejoin: miter; stroke-miterlimit: 4; is-custom-font: none; font-file-url: none; fill: rgb(182,163,153); fill-rule: nonzero; opacity: 1;" transform=" translate(-730.093, -665.9)" d="M 745.951 676.118 c 1.057 -0.234 1.995 -0.469 2.935 -0.586 c -7.871 -9.632 -17.268 -18.09 -28.425 -23.609 c -0.234 -0.117 -0.47 -0.234 -0.587 -0.352 c -2.586 2.229 -4.815 4.464 -6.813 7.162 c -0.588 0.943 -1.174 1.765 -1.761 2.586 c 1.407 0.938 2.816 1.761 4.229 2.703 c 7.162 4.816 14.095 10.218 20.317 16.207 c 0.822 -0.587 1.766 -1.056 2.703 -1.525 C 740.901 677.647 743.482 676.709 745.951 676.118 L 745.951 676.118 z" stroke-linecap="round"/>
</g>
		<g transform="matrix(1 0 0 1 90.6325 -24.1026)" id="Layer_1">
<path style="stroke: none; stroke-width: 1; stroke-dasharray: none; stroke-linecap: butt; stroke-dashoffset: 0; stroke-linejoin: miter; stroke-miterlimit: 4; is-custom-font: none; font-file-url: none; fill: rgb(182,163,153); fill-rule: nonzero; opacity: 1;" transform=" translate(-700.2575, -757.5524)" d="M 714.351 755.171 c -0.352 -1.174 -0.821 -2.112 -1.29 -3.169 c -0.118 -0.353 -0.354 -0.704 -0.471 -1.061 c -0.117 -0.112 -0.352 -0.352 -0.469 -0.469 c -0.939 -0.822 -1.526 -1.761 -2.703 -2.465 c -0.939 -0.47 -1.878 -0.939 -2.934 -1.525 c -0.353 -0.239 -0.825 -0.474 -1.296 -0.591 c 0 0 0 0 -0.117 0 c 0 0 0 0 0 -0.117 l 0 0 l 0 0 h -0.117 l 0 0 l 0 0 l 0 0 l 0 0 l 0 0 l 0 0 l 0 0 l 0 0 c -0.117 0 -0.117 0 -0.117 0 s 0 -0.117 -0.117 -0.117 c -0.235 -0.117 -0.587 -0.235 -0.821 -0.353 c -1.526 -0.587 -3.057 -1.057 -4.698 -1.525 c -1.057 -0.352 -2.234 -0.587 -3.291 -0.939 c 0.353 1.643 -0.234 3.994 -1.29 4.933 c -1.29 1.174 -2.586 1.057 -3.877 0.353 c -0.821 -0.47 -1.525 -1.174 -2.113 -1.882 c 0 2 -0.238 4.112 -1.175 5.993 c -0.354 0.822 -1.293 0.939 -1.997 0.586 c -0.352 -0.234 -0.706 -0.469 -1.058 -0.586 c 0 0.117 0 0.117 0.117 0.234 c 1.88 3.76 3.289 7.871 4.112 11.982 c 0.471 2.465 0.822 4.934 0.939 7.515 c 2.699 0.234 5.52 0.47 8.223 0.117 c 1.644 -0.117 3.287 -0.469 4.934 -0.938 c 0 -0.117 0.117 -0.117 0.234 -0.117 c 0.705 -0.705 1.525 -1.408 2.347 -2.112 c 3.291 -2.586 6.933 -4.698 10.809 -6.346 l 0 0 C 715.176 760.225 715.059 757.639 714.351 755.171 L 714.351 755.171 z" stroke-linecap="round"/>
</g>
		<g transform="matrix(1 0 0 1 89.2917 -132.1985)" id="Layer_1">
<path style="stroke: none; stroke-width: 1; stroke-dasharray: none; stroke-linecap: butt; stroke-dashoffset: 0; stroke-linejoin: miter; stroke-miterlimit: 4; is-custom-font: none; font-file-url: none; fill: rgb(182,163,153); fill-rule: nonzero; opacity: 1;" transform=" translate(-698.9168, -649.4565)" d="M 682.05 645.695 c 2.818 1.061 5.404 2.468 8.105 3.759 c 2.938 1.53 5.872 3.056 8.811 4.698 c 3.523 1.883 6.932 3.877 10.452 5.993 c 0.586 -1.056 1.294 -2.116 2.116 -3.172 c 1.761 -2.23 3.642 -4.698 5.871 -6.576 c -9.043 -3.994 -18.675 -6.11 -28.306 -8.575 c -2.117 -0.469 -4.231 -1.06 -6.463 -1.647 c -0.704 -0.117 -0.938 -0.821 -0.821 -1.407 c -0.822 0.117 -1.174 0.469 -1.291 1.056 c -0.237 0.939 0 2.233 0.353 3.407 C 681.228 644.053 681.581 644.873 682.05 645.695 L 682.05 645.695 z" stroke-linecap="round"/>
</g>
		<g transform="matrix(1 0 0 1 53.4545 0.8075)" id="Layer_1">
<path style="stroke: none; stroke-width: 1; stroke-dasharray: none; stroke-linecap: butt; stroke-dashoffset: 0; stroke-linejoin: miter; stroke-miterlimit: 4; is-custom-font: none; font-file-url: none; fill: rgb(182,163,153); fill-rule: nonzero; opacity: 1;" transform=" translate(-663.0795, -782.4625)" d="M 677.234 776.666 c -3.524 -0.469 -7.048 -1.056 -10.572 -1.408 c -7.282 -0.938 -14.8 -1.408 -22.2 -0.47 c 0 0 -0.117 0.118 -0.235 0.118 c -0.117 1.76 -0.47 3.643 -0.824 5.402 c -0.704 3.524 -1.76 6.932 -2.936 10.34 c -0.117 0 -0.117 0 -0.117 0 c 8.106 -0.709 16.092 -0.944 24.197 -1.647 c 4.229 -0.353 8.574 -0.938 12.804 -1.995 c 1.997 -0.47 3.994 -1.178 5.992 -1.883 c 0.586 -0.234 1.29 -0.469 1.879 -0.82 c 0.117 -0.47 0.234 -1.056 0.234 -1.644 c 0.234 -1.646 0.353 -3.407 0.353 -5.05 c -1.059 -0.118 -2.115 -0.235 -3.29 -0.356 C 680.759 777.14 678.997 776.9 677.234 776.666 L 677.234 776.666 z" stroke-linecap="round"/>
</g>
		<g transform="matrix(1 0 0 1 66.082 -29.2445)" id="Layer_1">
<path style="stroke: none; stroke-width: 1; stroke-dasharray: none; stroke-linecap: butt; stroke-dashoffset: 0; stroke-linejoin: miter; stroke-miterlimit: 4; is-custom-font: none; font-file-url: none; fill: rgb(182,163,153); fill-rule: nonzero; opacity: 1;" transform=" translate(-675.707, -752.4105)" d="M 670.774 762.807 c 0.821 0 1.762 -0.118 2.701 -0.118 c 1.058 0 2.113 -0.117 3.172 -0.352 c 1.056 -0.234 2.114 -0.587 3.054 -1.056 c 0.94 -0.587 1.763 -1.409 2.701 -1.883 c 0.117 0 0.352 0 0.469 -0.117 c -0.587 -1.643 -1.29 -3.285 -2.229 -4.933 c -1.058 -1.878 -2.352 -3.52 -3.759 -5.05 c -1.176 -1.174 -3.173 -2.816 -3.642 -4.581 h -0.119 c -0.469 -0.821 -0.703 -1.643 -0.586 -2.465 c -0.234 -0.117 -0.47 -0.117 -0.704 -0.238 c 0.938 2.703 1.29 6.229 -0.589 8.575 c -0.704 0.942 -1.645 1.529 -2.7 1.764 c 0.469 1.174 0.82 2.348 1.056 3.643 C 670.187 758.226 670.539 760.459 670.774 762.807 L 670.774 762.807 z" stroke-linecap="round"/>
</g>
		<g transform="matrix(1 0 0 1 12.1735 -9.392)" id="Layer_1">
<path style="stroke: none; stroke-width: 1; stroke-dasharray: none; stroke-linecap: butt; stroke-dashoffset: 0; stroke-linejoin: miter; stroke-miterlimit: 4; is-custom-font: none; font-file-url: none; fill: rgb(182,163,153); fill-rule: nonzero; opacity: 1;" transform=" translate(-621.7985, -772.263)" d="M 640.82 770.443 c -0.353 -0.236 -0.587 -0.471 -0.705 -0.822 c -1.41 -3.524 -1.879 -7.401 -3.641 -10.926 c -1.998 -3.877 -4.581 -7.28 -7.635 -10.218 c -0.117 -0.117 -0.117 -0.117 -0.234 -0.234 c -1.059 1.173 -2.821 2.112 -3.877 2.464 c -1.41 0.474 -2.936 0.591 -4.112 -0.234 c -1.291 -0.822 -1.997 -2.348 -2.231 -3.756 c -0.117 -0.234 -0.117 -0.474 -0.117 -0.708 c -0.118 0.117 -0.235 0.234 -0.235 0.474 c -1.175 1.995 -2.584 3.99 -4.229 5.637 c -0.704 0.822 -1.997 1.878 -3.288 1.878 c -0.588 4.815 -1.645 9.514 -3.055 14.212 c -0.821 2.586 -1.763 5.172 -2.818 7.754 c -0.352 1.056 -0.941 2.82 -1.88 4.228 c 8.106 3.995 15.74 9.396 21.731 15.978 c 0.704 0.82 1.408 1.524 1.997 2.347 c 0.234 -0.117 0.469 -0.234 0.821 -0.234 c 2.349 0.352 4.581 -0.117 6.93 -0.705 c 0.117 -0.117 0.352 -0.117 0.588 0 c 0 -1.173 0.117 -2.347 0.469 -3.524 c 0.47 -1.408 1.057 -2.934 1.528 -4.464 c 1.056 -3.051 2.113 -6.34 2.818 -9.514 c 0.704 -3.173 1.291 -6.341 1.174 -9.513 C 640.82 770.443 640.82 770.443 640.82 770.443 L 640.82 770.443 z" stroke-linecap="round"/>
</g>
		<g transform="matrix(1 0 0 1 -17.904 -25.1885)" id="Layer_1">
<path style="stroke: none; stroke-width: 1; stroke-dasharray: none; stroke-linecap: butt; stroke-dashoffset: 0; stroke-linejoin: miter; stroke-miterlimit: 4; is-custom-font: none; font-file-url: none; fill: rgb(182,163,153); fill-rule: nonzero; opacity: 1;" transform=" translate(-591.721, -756.4665)" d="M 605.581 756.7 c 0.118 -0.47 0.235 -1.056 0.235 -1.529 c -1.056 -1.526 -1.056 -3.639 -1.762 -5.403 c 0 -0.117 0 -0.117 0 -0.234 c -1.995 0.469 -4.464 -0.587 -5.403 -2.348 c -0.47 -1.06 -0.821 -2.351 -0.704 -3.523 c -1.645 1.407 -3.29 2.934 -5.167 4.11 c -1.41 0.822 -3.407 1.878 -5.052 1.057 c -0.586 2 -1.292 3.993 -1.998 5.989 c -1.407 3.29 -2.936 6.58 -5.167 9.4 c -0.704 0.938 -1.527 1.995 -2.583 2.934 c -0.118 0.705 -0.237 1.413 -0.354 2.117 c 4.346 -0.118 8.575 -0.47 12.804 -1.529 c 2.82 -0.705 5.522 -1.526 8.105 -2.817 c 1.293 -0.587 2.467 -1.178 3.642 -1.881 c 0.821 -0.588 1.644 -1.175 2.584 -1.761 C 605.112 759.755 605.347 758.226 605.581 756.7 L 605.581 756.7 z" stroke-linecap="round"/>
</g>
		<g transform="matrix(1 0 0 1 -70.2213 -48.918)" id="Layer_1">
<path style="stroke: none; stroke-width: 1; stroke-dasharray: none; stroke-linecap: butt; stroke-dashoffset: 0; stroke-linejoin: miter; stroke-miterlimit: 4; is-custom-font: none; font-file-url: none; fill: rgb(182,163,153); fill-rule: nonzero; opacity: 1;" transform=" translate(-539.4037, -732.737)" d="M 568.933 669.19 c -0.939 -3.173 -1.995 -6.229 -3.171 -9.279 c -0.821 -2.234 -1.762 -4.347 -2.701 -6.579 c -0.234 -0.117 -0.469 -0.117 -0.586 -0.236 c -0.234 0.588 -0.471 1.057 -0.471 1.647 c -0.117 0.47 -0.352 0.704 -0.587 0.939 c -0.117 4.58 -1.174 9.161 -2.701 13.508 c 0.353 6.693 -0.822 13.742 -2.701 20.083 c -3.525 12.335 -10.337 23.378 -18.091 33.479 c -4.698 5.989 -9.749 11.631 -14.446 17.502 c 1.291 -0.704 2.701 -1.173 3.759 -1.408 c 2.583 -0.703 5.402 -0.703 7.751 0.47 c 3.642 1.878 5.991 5.754 5.756 9.749 c -0.352 8.104 -9.279 17.267 -17.736 12.686 c -4.463 -2.469 -5.874 -7.401 -5.053 -12.1 c 0.118 -1.173 0.472 -2.347 0.941 -3.642 c -0.824 1.177 -1.645 2.234 -2.467 3.407 c -6.226 9.045 -10.924 19.032 -11.159 30.188 c -0.237 11.631 3.17 24.435 11.863 32.774 c 2.701 -3.759 5.874 -7.167 9.044 -10.456 c 4.346 -4.347 8.927 -8.457 13.86 -12.1 c 2.349 -1.643 4.818 -3.403 7.284 -4.816 c 1.291 -0.82 2.701 -1.524 3.992 -1.994 c 0.706 -0.235 1.293 -0.47 1.879 -0.704 c 0.824 -1.765 1.763 -3.524 2.584 -5.168 c 1.059 -2.469 2.116 -4.938 3.172 -7.519 c 1.88 -4.581 3.76 -9.162 5.403 -13.859 c 3.172 -9.279 5.639 -18.798 7.167 -28.429 c 2.114 -12.921 2.701 -26.194 1.173 -39.114 C 571.988 681.76 570.813 675.415 568.933 669.19 L 568.933 669.19 z" stroke-linecap="round"/>
</g>
		<g transform="matrix(1 0 0 1 -127.5624 2.4715)" id="Layer_1">
<path style="stroke: none; stroke-width: 1; stroke-dasharray: none; stroke-linecap: butt; stroke-dashoffset: 0; stroke-linejoin: miter; stroke-miterlimit: 4; is-custom-font: none; font-file-url: none; fill: rgb(182,163,153); fill-rule: nonzero; opacity: 1;" transform=" translate(-482.0626, -784.1265)" d="M 495.402 799.457 c -2.232 -4.585 -4.464 -9.045 -6.813 -13.512 c -0.353 -0.703 -0.704 -1.291 -1.176 -1.995 c -1.173 -2.112 -2.466 -4.229 -3.875 -6.341 c -4.815 -7.285 -10.572 -13.981 -17.854 -19.031 c -0.588 -0.353 -1.058 -0.704 -1.527 -1.057 c -0.117 2.938 0.47 5.755 1.41 8.458 c 1.643 4.345 3.993 8.457 6.459 12.217 c 2.82 4.229 5.756 8.34 8.927 12.216 c 1.176 1.526 2.351 2.936 3.525 4.347 c 1.645 1.878 3.29 3.756 4.933 5.638 c 0.352 0.353 0.706 0.821 1.175 1.173 c 1.174 1.292 2.349 2.586 3.523 3.878 c 1.41 1.407 2.703 2.703 4.228 4.11 c 0.235 0.234 0.472 0.47 0.707 0.705 c 0.352 0.234 0.587 0.352 0.939 0.469 c -0.352 -1.291 -0.704 -2.464 -1.174 -3.76 C 497.751 804.391 496.578 801.922 495.402 799.457 L 495.402 799.457 z" stroke-linecap="round"/>
</g>
		<g transform="matrix(1 0 0 1 -124.3679 -30.887)" id="Layer_1">
<path style="stroke: none; stroke-width: 1; stroke-dasharray: none; stroke-linecap: butt; stroke-dashoffset: 0; stroke-linejoin: miter; stroke-miterlimit: 4; is-custom-font: none; font-file-url: none; fill: rgb(182,163,153); fill-rule: nonzero; opacity: 1;" transform=" translate(-485.2571, -750.768)" d="M 482.599 749.768 c 0.94 5.877 2.232 11.631 3.172 17.502 c 0.234 -0.586 0.587 -1.173 0.822 -1.76 c 0.235 -1.057 0.352 -2.116 0.587 -3.173 c 0.471 -2.465 1.175 -4.815 1.997 -7.284 c -0.235 -0.704 -0.235 -1.643 -0.47 -2.465 c -0.235 -1.524 -0.704 -2.938 -1.173 -4.345 c -0.823 -2.469 -1.763 -5.051 -2.821 -7.401 c -1.056 -2.23 -2.114 -4.464 -3.288 -6.576 c -0.117 1.76 -0.117 3.641 0 5.401 C 481.66 743.075 482.012 746.482 482.599 749.768 L 482.599 749.768 z" stroke-linecap="round"/>
</g>
		<g transform="matrix(1 0 0 1 -0.0024 -0.0007)" id="Layer_1">
<path style="stroke: none; stroke-width: 1; stroke-dasharray: none; stroke-linecap: butt; stroke-dashoffset: 0; stroke-linejoin: miter; stroke-miterlimit: 4; is-custom-font: none; font-file-url: none; fill: rgb(53,27,16); fill-rule: nonzero; opacity: 1;" transform=" translate(-609.6226, -781.6543)" d="M 779.309 755.645 c 0.117 -13.748 -1.409 -27.489 -5.285 -40.764 c -4.112 -13.977 -10.688 -27.602 -19.614 -39.349 c -6.463 -8.458 -14.1 -16.091 -22.791 -22.083 c -7.046 -4.816 -14.916 -8.341 -23.14 -10.923 c -6.458 -2.115 -13.273 -3.642 -20.202 -4.346 c -1.059 -1.057 -2.585 -1.765 -3.76 -2.351 c -1.763 -0.705 -4.112 -0.822 -5.755 0.352 c -4.463 3.407 -1.059 9.987 1.291 13.508 c 5.873 8.34 15.388 13.156 23.846 18.444 c 6.345 3.873 12.687 8.106 17.268 14.095 c 2.938 3.643 5.167 7.988 7.166 12.334 c 1.057 2.23 2.112 4.582 2.934 7.046 c 0.821 2.116 1.529 4.347 2.586 6.462 c 1.174 7.755 2.113 15.387 1.994 23.257 c 0 4.698 -0.351 9.396 -0.938 14.095 c -0.586 4.58 -1.291 9.279 -3.172 13.508 c -0.234 0 -0.352 0 -0.587 0 c -3.994 0.352 -7.987 1.06 -11.743 2.352 c 0 -2.352 -0.591 -4.934 -1.296 -7.167 c -0.469 -1.409 -1.173 -3.285 -2.229 -4.581 c 0.118 -1.408 -1.178 -2.816 -2.116 -3.759 c -1.525 -1.526 -3.643 -2.347 -5.52 -3.286 c -1.174 -0.592 -2.469 -1.061 -3.642 -1.529 c -6.459 -2.348 -13.391 -4.229 -20.32 -4.464 c -0.588 0 -1.175 0 -1.763 0 c -2.584 0 -5.637 0.234 -7.752 1.765 c -0.117 0.117 -0.117 0.117 -0.234 0.117 c -0.823 -0.234 -1.646 -0.353 -2.349 -0.471 c -1.998 -0.473 -3.877 -0.59 -5.874 -0.59 c -2.585 0.234 -7.282 1.412 -7.165 4.463 c -0.353 0.356 -0.469 0.943 -0.353 1.413 c 0.353 1.408 1.644 2.465 2.467 3.642 c 1.763 1.995 2.937 4.464 3.758 6.928 c 1.997 5.402 2.114 10.926 2.468 16.563 c 0 0.236 0.118 0.471 0.118 0.822 c -0.235 -0.117 -0.589 -0.117 -0.823 -0.117 c -3.758 -0.586 -7.517 -0.939 -11.277 -0.939 c -3.642 -0.117 -7.517 -0.234 -11.158 0.471 c 0 -0.236 0 -0.471 0 -0.705 c -0.118 -1.881 -0.47 -4.581 -1.528 -6.462 c -0.469 -2.229 -1.29 -4.347 -2.232 -6.342 c -1.997 -4.347 -5.05 -8.223 -8.34 -11.63 c -3.405 -3.286 -7.399 -6.106 -11.746 -8.105 c -4.111 -1.76 -9.044 -3.051 -13.507 -2.113 c -0.587 0.117 -1.293 0.705 -1.411 1.409 c -0.234 1.177 -0.234 2.469 0.118 3.524 c -0.118 0.47 -0.235 1.057 -0.118 1.643 c 0.235 0.709 0.354 1.53 0.472 2.234 c -1.41 -2.117 -2.938 -4.229 -4.7 -6.225 l 0 0 c -1.997 -2.232 -4.463 -4.584 -7.282 -5.758 c -2.349 -1.056 -5.637 -1.056 -6.813 1.647 c -0.117 0.234 -0.117 0.587 -0.117 0.821 c -0.118 0.469 -0.235 0.939 -0.352 1.408 c -0.117 1.056 -0.354 2.116 -0.589 3.173 c -0.47 1.525 -0.821 3.172 -1.291 4.698 c -0.704 3.172 -1.646 6.34 -2.701 9.396 c -0.824 2.469 -1.88 4.815 -3.055 7.166 c 0.352 -2.586 0.823 -5.054 1.292 -7.52 c 1.409 -7.518 3.054 -14.916 4.229 -22.316 c 1.291 -7.519 2.232 -14.92 3.053 -22.436 c 0.707 -6.579 1.646 -13.39 1.293 -20.087 c -0.353 -8.341 -2.466 -16.798 -6.932 -23.843 c -4.228 -6.815 -10.922 -12.452 -18.676 -14.687 c -0.47 -0.117 -0.939 -0.234 -1.41 -0.352 c -0.939 -0.234 -1.88 0.352 -2.232 1.295 c -0.234 0.821 -0.469 1.76 -0.586 2.582 c -0.939 3.524 -1.88 6.932 -2.936 10.34 c -1.059 3.285 -2.114 6.575 -3.408 9.747 c -2.701 6.576 -6.108 12.805 -9.866 18.91 c -6.695 11.045 -16.328 20.088 -25.842 28.781 c -4.464 4.11 -8.928 8.34 -13.156 12.687 c -4.229 4.345 -8.34 8.809 -11.276 13.977 c -0.352 0.587 -0.704 1.174 -1.058 1.878 c 0 -0.234 -0.118 -0.47 -0.118 -0.704 c -0.821 -2.82 -1.997 -5.52 -3.053 -8.223 c -1.997 -4.698 -4.581 -9.279 -7.165 -13.86 c -2.583 -4.347 -5.169 -8.811 -7.636 -13.272 c -1.997 -3.878 -3.523 -7.872 -5.403 -11.748 c 0 -0.821 0 -1.526 -0.354 -2.347 c -0.235 -0.704 -1.173 -1.178 -1.76 -0.47 c -0.118 0.117 -0.235 0.234 -0.235 0.352 c -1.762 2.348 -1.762 5.755 -2.114 8.458 c -0.472 3.286 -0.824 6.458 -1.058 9.748 c -0.235 5.755 0.117 11.509 1.175 17.268 c 1.057 5.284 2.701 10.569 4.581 15.619 c 0.939 2.703 1.998 5.407 3.171 8.106 c -2.584 -1.995 -5.285 -3.877 -7.986 -5.521 c -3.994 -2.467 -8.106 -4.58 -11.982 -7.283 c -1.88 -1.291 -3.76 -2.816 -5.285 -4.463 c -1.645 -1.761 -3.056 -3.76 -4.463 -5.639 c -0.707 -0.82 -1.88 0.119 -1.646 1.058 v 0.117 c -0.234 0.234 -0.469 0.586 -0.352 0.938 c 0.234 3.525 1.173 7.049 1.88 10.456 c 0.704 3.408 1.407 6.812 2.466 10.219 c 1.997 5.872 5.285 11.513 8.809 16.68 c 7.399 10.806 17.033 20.205 27.603 27.956 c 2.231 1.646 4.581 3.172 6.932 4.58 c 1.643 4.346 3.523 8.575 6.106 12.451 c 1.762 2.586 3.759 5.051 6.108 7.167 c 1.411 1.174 2.818 2.347 4.347 3.29 c 0.586 0.353 1.292 0.822 1.997 1.174 c -0.117 0.234 -0.235 0.352 -0.235 0.586 c -3.994 10.101 -5.285 21.262 -2.349 31.832 c 2.583 9.396 8.34 17.619 15.035 24.669 c 7.165 7.519 15.74 13.741 24.667 19.027 c 8.692 5.168 17.854 9.513 27.368 13.155 c 7.519 2.938 15.153 5.402 23.141 6.58 c 3.642 0.47 7.282 0.705 10.924 0.705 c 1.41 0.117 2.818 0 4.229 0 c 4.463 -0.235 9.161 -0.588 13.39 -1.883 c 0.469 0.117 1.056 0.117 1.527 -0.234 c 2.232 -0.939 4.346 -2.229 6.224 -3.76 c 1.058 0.474 2.351 0.709 3.524 0.943 c 1.411 0.352 2.937 0.704 4.346 0.938 c 3.056 0.352 6.109 0.587 9.162 0.47 c 3.055 -0.235 6.108 -0.704 8.926 -1.643 c 1.528 -0.471 2.939 -1.179 4.229 -1.765 c 0.824 -0.47 1.763 -0.938 2.349 -1.526 c 1.294 0.47 3.174 0.353 4.464 0.353 c 1.763 0 3.524 -0.235 5.287 -0.47 c 3.404 -0.352 6.813 -0.938 10.101 -1.998 c 3.29 -1.057 6.463 -2.583 9.279 -4.698 c 1.53 -1.057 2.938 -2.348 4.229 -3.639 c 0.704 -0.825 1.529 -1.647 2.234 -2.586 c 3.759 1.174 7.749 0.938 11.508 -0.234 c 2.234 -0.704 4.347 -1.644 6.345 -2.82 c 1.174 -0.704 2.7 -1.526 3.76 -2.582 c 0.587 0 1.173 -0.117 1.878 -0.117 c 1.409 -0.234 2.82 -0.591 4.229 -0.943 c 2.821 -0.821 5.638 -1.994 8.106 -3.521 c 2.468 -1.53 4.581 -3.643 6.341 -5.992 c 0.708 -1.175 1.295 -2.23 1.646 -3.525 c 0.235 0 0.353 -0.118 0.47 -0.118 c 3.055 -1.29 5.637 -3.285 8.224 -5.284 c 2.58 -1.995 4.933 -4.112 7.278 -6.459 c 4.229 -4.463 7.755 -9.866 10.574 -15.39 c 5.521 -11.391 8.106 -24.195 8.811 -36.765 c 0.469 -9.865 -0.235 -19.734 -3.29 -29.131 c 1.526 -5.051 2.469 -10.101 3.29 -15.386 C 778.604 770.795 779.19 763.276 779.309 755.645 L 779.309 755.645 z M 774.962 747.655 L 774.962 747.655 c 0 0.939 0 1.995 0.117 3.052 c -0.47 -0.588 -0.938 -1.174 -1.29 -1.525 c -1.175 -1.409 -2.586 -2.586 -3.995 -3.642 c -1.29 -1.058 -2.703 -1.878 -4.111 -2.583 c -1.173 -0.587 -2.229 -1.061 -3.407 -1.529 c -0.938 -0.352 -1.761 -0.704 -2.582 -0.938 c -6.346 -1.995 -13.508 -2.7 -19.853 -0.822 c 0.117 -2.703 0.234 -5.284 0.234 -7.987 c 0.117 -5.168 -0.117 -10.688 -1.056 -15.977 c 0.704 -0.234 1.524 -0.47 2.232 -0.705 c 1.292 -0.586 2.7 -1.056 4.109 -1.407 c 2.938 -0.822 5.992 -1.174 9.048 -1.174 c 0.117 0 0.352 0 0.469 0 c 1.173 0 2.348 0.117 3.521 0.352 c 1.529 0.118 3.172 0.588 4.701 1.057 c 1.292 0.47 2.582 1.056 3.873 1.761 c 1.178 0.708 2.234 1.998 3.525 2.586 c 0.821 2.82 1.529 5.754 2.115 8.691 C 774.023 733.679 774.609 740.606 774.962 747.655 L 774.962 747.655 z M 692.624 656.504 L 692.624 656.504 c -3.173 -2.234 -6.463 -4.933 -8.93 -8.223 l 0 0 c -0.587 -0.822 -1.175 -1.643 -1.645 -2.586 c -0.469 -0.822 -0.822 -1.643 -1.173 -2.465 c -0.353 -1.174 -0.59 -2.468 -0.353 -3.407 c 0.117 -0.587 0.469 -0.938 1.291 -1.056 c -0.117 0.586 0.117 1.29 0.821 1.407 c 2.231 0.588 4.346 1.179 6.463 1.647 c 9.631 2.465 19.263 4.581 28.306 8.575 c -2.229 1.878 -4.11 4.346 -5.871 6.576 c -0.822 1.056 -1.53 2.116 -2.116 3.172 c -0.47 0.588 -0.821 1.174 -1.174 1.761 c 0 0.234 -0.117 0.352 -0.235 0.586 c -0.469 0.709 -0.821 1.413 -1.173 2.234 c -0.117 0.117 -0.234 0.352 -0.234 0.469 C 701.903 662.375 697.205 659.677 692.624 656.504 L 692.624 656.504 z M 718.814 674.123 L 718.814 674.123 c -3.169 -2.938 -6.811 -5.402 -10.452 -7.753 c 0.116 -0.117 0.234 -0.353 0.352 -0.587 c 0.47 -0.705 0.821 -1.408 1.173 -2.112 c 0 0 0.117 -0.117 0.117 -0.234 c 0.474 -0.709 0.827 -1.413 1.296 -2.117 c 0.587 -0.821 1.173 -1.643 1.761 -2.586 c 1.998 -2.698 4.228 -4.933 6.813 -7.162 c 0.117 0.117 0.353 0.234 0.587 0.352 c 11.157 5.52 20.554 13.978 28.425 23.609 c -0.939 0.117 -1.878 0.352 -2.935 0.586 c -2.469 0.591 -5.05 1.529 -7.402 2.586 c -0.938 0.47 -1.881 0.938 -2.703 1.525 c -0.938 0.47 -1.759 1.061 -2.464 1.53 c -0.587 0.469 -1.06 0.82 -1.529 1.173 c -1.174 0.939 -2.464 1.995 -3.521 3.29 C 725.746 681.76 722.69 677.647 718.814 674.123 L 718.814 674.123 z M 729.389 688.101 L 729.389 688.101 c 0.352 -0.353 0.703 -0.704 1.056 -1.057 c 0.939 -0.704 1.878 -1.524 2.821 -2.116 c 0.703 -0.47 1.29 -0.938 1.994 -1.291 c 0.822 -0.469 1.647 -1.057 2.469 -1.525 c 0.586 -0.234 1.291 -0.587 1.877 -0.821 c 2.117 -1.061 4.464 -1.882 6.815 -2.469 c 1.056 -0.234 2.229 -0.469 3.407 -0.586 c 0.352 -0.117 0.703 -0.117 1.056 -0.117 c 7.046 9.278 12.688 19.849 16.681 30.774 c 0.587 1.644 1.174 3.407 1.761 5.168 c -0.234 -0.118 -0.353 -0.235 -0.587 -0.353 c -1.291 -0.939 -2.703 -1.525 -4.111 -2.112 c -2.352 -0.825 -4.934 -1.413 -7.401 -1.53 c -0.704 -0.117 -1.525 -0.117 -2.23 -0.117 c -0.352 0 -0.82 0 -1.177 0 c -2.935 0 -5.872 0.47 -8.693 1.291 c -1.524 0.356 -3.051 0.943 -4.462 1.529 c -0.705 0.354 -1.409 0.705 -1.995 1.057 c -0.47 -2.347 -1.175 -4.698 -2 -6.932 c -0.234 -3.169 -1.525 -6.224 -2.699 -9.162 C 732.561 694.445 731.031 691.273 729.389 688.101 L 729.389 688.101 z M 733.029 763.042 L 733.029 763.042 c 0.118 0 0.236 0 0.353 0 c 3.408 -0.118 6.459 0.352 9.631 1.411 c 2.703 0.938 5.286 2.465 7.755 4.112 c 1.642 1.173 3.407 2.464 5.167 3.52 c 0.704 0.708 1.408 1.413 2.111 2.117 c 1.766 1.878 3.408 3.877 4.82 5.988 c 3.051 4.581 5.285 9.632 6.928 14.803 c 0.353 0.939 0.587 1.878 0.821 2.817 c 0 0.47 -0.116 1.056 -0.116 1.529 c 0 0.47 0.351 0.704 0.704 0.704 c 0.942 4.111 1.529 8.224 1.646 12.334 c -0.117 -0.708 -0.353 -1.529 -0.587 -2.233 c -1.413 -5.168 -3.993 -9.983 -7.05 -14.329 c -5.401 -7.519 -12.804 -13.743 -21.73 -16.681 c -7.049 -2.352 -14.799 -2.234 -21.73 0.704 c -3.877 1.644 -7.284 3.994 -10.218 6.814 c -2.703 2.465 -5.167 5.402 -7.05 8.575 c -2.229 -1.295 -4.698 -2.351 -7.279 -2.82 c 0.469 -1.76 0.469 -3.643 0.821 -5.402 c 0.352 -2 1.057 -3.994 1.995 -5.759 c 1.643 -3.051 3.877 -5.754 6.463 -7.983 c 0.586 -0.471 1.173 -0.943 1.76 -1.413 C 715.293 766.448 724.221 763.276 733.029 763.042 L 733.029 763.042 z M 687.924 741.193 L 687.924 741.193 c 1.527 0.234 3.171 0.586 4.7 0.942 c -0.356 0.704 -0.239 1.526 -0.356 2.347 c 0 0.353 -0.117 0.822 -0.234 1.058 l 0 0 l 0 0 c -0.234 0 -0.587 -0.118 -0.821 -0.235 c -0.939 -0.47 -1.644 -1.291 -2.348 -1.995 c -0.352 -0.353 -0.588 -0.821 -0.94 -1.174 c 0 -0.239 -0.118 -0.591 -0.235 -0.942 C 687.806 741.193 687.806 741.193 687.924 741.193 L 687.924 741.193 z M 677.469 741.428 L 677.469 741.428 L 677.469 741.428 c 0 0 0 0 0.117 0 c 0.353 -0.117 0.588 -0.234 0.938 -0.234 c 0.355 -0.117 0.707 -0.234 1.06 -0.234 c 0 0 0.117 0 0.234 0 v -0.117 l 0 0 l 0 0 l 0 0 c 0.117 0 0.234 0 0.352 0 c 0.823 -0.118 1.763 -0.118 2.584 0 c 0.234 0 0.471 0 0.706 0 c 0.118 0.117 0.118 0.234 0.234 0.352 c 0.47 0.942 0.822 2.116 0.939 3.289 c 0.354 1.644 0.472 3.407 0.354 5.168 c -1.293 -0.352 -2.351 -0.938 -3.523 -1.525 c -0.236 -0.353 -0.471 -0.704 -0.822 -1.057 c 0 -0.117 0 -0.352 -0.237 -0.352 l 0 0 c -1.173 -1.177 -2.583 -3.172 -4.226 -3.994 c 0 -0.117 0 -0.117 0 -0.117 c 0.352 -0.235 0.469 -0.47 0.587 -0.709 l 0 0 c 0.117 -0.117 0.234 -0.234 0.352 -0.234 C 677.234 741.545 677.352 741.545 677.469 741.428 L 677.469 741.428 z M 662.316 742.37 L 662.316 742.37 c 0.352 -0.234 0.706 -0.474 1.059 -0.591 c 1.173 -0.352 2.467 -0.352 3.874 -0.352 c 0.236 0 0.472 0 0.589 0 c 0 0.352 0.117 0.825 0.352 1.061 c 0.588 1.291 0.822 2.581 0.822 3.994 c 0 0.586 -0.117 1.056 -0.234 1.643 c -0.118 0.235 -0.118 0.353 -0.354 0.587 c 0 0.117 -0.234 0.353 -0.116 0.353 c -0.353 0.234 -0.587 0.234 -1.059 0.234 c -0.234 -0.47 -0.352 -0.821 -0.587 -1.291 c -0.704 -1.174 -1.41 -2.351 -2.231 -3.407 C 663.844 743.896 663.14 742.957 662.316 742.37 L 662.316 742.37 z M 670.891 764.57 L 670.891 764.57 c 0 -0.117 0 -0.234 -0.116 -0.352 c 0 -0.474 0 -0.942 0 -1.412 c -0.235 -2.348 -0.588 -4.581 -1.176 -6.811 c -0.235 -1.295 -0.587 -2.469 -1.056 -3.643 c 1.056 -0.234 1.996 -0.821 2.7 -1.764 c 1.879 -2.347 1.527 -5.872 0.589 -8.575 c 0.234 0.121 0.47 0.121 0.704 0.238 c -0.117 0.822 0.117 1.644 0.586 2.465 h 0.119 c 0.469 1.765 2.466 3.407 3.642 4.581 c 1.407 1.53 2.701 3.172 3.759 5.05 c 0.939 1.647 1.643 3.29 2.229 4.933 c 0.354 0.826 0.589 1.766 0.823 2.586 c 0.353 1.057 0.588 2.113 0.939 3.29 c 0.706 3.052 1.058 6.225 1.176 9.396 c -0.822 -0.117 -1.646 -0.352 -2.35 -0.469 c -1.879 -0.47 -3.759 -0.821 -5.757 -1.178 c -2.349 -0.47 -4.698 -0.939 -7.047 -1.291 c 0.234 -0.938 0.234 -1.761 0.234 -2.699 C 670.891 767.504 670.891 766.097 670.891 764.57 L 670.891 764.57 z M 636.475 758.695 L 636.475 758.695 c 1.762 3.524 2.231 7.401 3.641 10.926 c 0.118 0.352 0.352 0.586 0.705 0.822 c 0 0 0 0 0 0.117 c 0.117 3.172 -0.47 6.34 -1.174 9.513 c -0.706 3.174 -1.763 6.463 -2.818 9.514 c -0.471 1.53 -1.058 3.056 -1.528 4.464 c -0.352 1.178 -0.469 2.352 -0.469 3.524 c -0.119 0.235 -0.119 0.588 -0.119 0.939 c 0 0.47 0.588 0.825 1.058 0.704 l 0 0 c 0 0 0.117 -0.113 0.235 -0.234 c 0.941 -1.174 1.762 -2.113 2.466 -3.521 c 0.47 -1.062 0.941 -2.116 1.293 -3.174 c 0.234 -0.469 0.469 -1.056 0.586 -1.642 c 0 0 0 0 0.117 0 c 1.176 -3.408 2.232 -6.815 2.936 -10.34 c 0.354 -1.76 0.707 -3.643 0.824 -5.402 c 0.118 0 0.235 -0.118 0.235 -0.118 c 7.399 -0.938 14.918 -0.469 22.2 0.47 c 3.524 0.353 7.048 0.939 10.572 1.408 c 1.763 0.234 3.524 0.474 5.285 0.587 c 1.175 0.121 2.231 0.238 3.29 0.356 c 0 1.643 -0.118 3.403 -0.353 5.05 c 0 0.588 -0.117 1.174 -0.234 1.644 c -0.235 1.057 -0.354 2.116 -0.235 3.172 c 0 0.117 0 0.234 0 0.352 c 0.118 0.471 0.704 0.705 1.174 0.471 c 0.704 -0.588 1.174 -1.174 1.527 -1.878 c 0.702 -0.352 1.294 -0.825 1.411 -1.647 c 0 -0.469 0 -0.938 -0.471 -1.173 l 0 0 c 0.471 -1.878 0.705 -3.877 0.939 -5.989 c 0 -0.356 0 -0.709 0 -1.178 c 0.117 -0.704 0.117 -1.408 0.117 -2.229 c 0 -0.704 -0.117 -1.529 -0.117 -2.234 c -0.117 -2.581 -0.469 -5.05 -0.939 -7.515 c -0.823 -4.111 -2.232 -8.223 -4.112 -11.982 c -0.117 -0.117 -0.117 -0.117 -0.117 -0.234 c 0.352 0.117 0.706 0.352 1.058 0.586 c 0.704 0.354 1.644 0.236 1.997 -0.586 c 0.937 -1.881 1.175 -3.993 1.175 -5.993 c 0.588 0.708 1.292 1.412 2.113 1.882 c 1.291 0.704 2.587 0.821 3.877 -0.353 c 1.056 -0.938 1.643 -3.29 1.29 -4.933 c 1.057 0.353 2.234 0.588 3.291 0.939 c 1.642 0.469 3.172 0.938 4.698 1.525 c 0.234 0.117 0.586 0.235 0.821 0.353 c 0.117 0 0.117 0.117 0.117 0.117 s 0 0 0.117 0 l 0 0 l 0 0 l 0 0 l 0 0 l 0 0 l 0 0 l 0 0 l 0 0 h 0.117 l 0 0 l 0 0 c 0 0.117 0 0.117 0 0.117 c 0.117 0 0.117 0 0.117 0 c 0.471 0.117 0.943 0.352 1.296 0.591 c 1.056 0.586 1.994 1.056 2.934 1.525 c 1.177 0.704 1.764 1.643 2.703 2.465 c 0.117 0.117 0.352 0.356 0.469 0.469 c 0.117 0.356 0.353 0.708 0.471 1.061 c 0.469 1.057 0.938 1.995 1.29 3.169 c 0.708 2.468 0.825 5.054 1.764 7.4 l 0 0 c -3.876 1.647 -7.518 3.76 -10.809 6.346 c -0.821 0.704 -1.642 1.407 -2.347 2.112 c -1.295 1.173 -2.468 2.469 -3.407 3.759 c -1.174 1.526 -2.229 3.173 -3.055 4.934 c -1.057 2.116 -1.761 4.229 -2.112 6.463 c -0.353 1.995 -0.587 4.228 0 6.224 l 0 0 c -0.235 -0.118 -0.587 -0.235 -0.939 -0.235 c -2.116 -0.352 -4.346 -0.234 -6.463 0.235 c -1.995 0.587 -3.994 1.408 -5.871 2.585 c -1.059 0.705 -2.587 1.644 -3.408 2.817 c -1.645 -0.587 -3.523 -0.705 -5.05 -0.587 c -1.997 0.117 -3.876 0.704 -5.639 1.408 c -1.057 0.474 -2.467 0.942 -3.64 1.765 c -0.473 -0.118 -0.941 0.117 -1.293 0.47 c -1.06 -0.47 -2.35 -0.822 -3.289 -0.939 c -2.703 -0.587 -5.287 -0.47 -7.87 -0.117 c -2.584 0.469 -5.05 1.291 -7.401 2.464 c -1.525 0.822 -3.171 1.765 -4.346 3.057 c -0.587 -0.236 -1.292 -0.471 -1.878 -0.705 c -1.762 -0.587 -4.581 -1.178 -6.695 -0.587 c -0.706 -0.942 -1.292 -1.882 -1.879 -2.703 c -0.705 -0.938 -1.528 -1.878 -2.231 -2.82 c -0.589 -0.822 -1.293 -1.526 -1.997 -2.347 c -5.991 -6.581 -13.625 -11.982 -21.731 -15.978 c 0.939 -1.407 1.528 -3.172 1.88 -4.228 c 1.056 -2.582 1.997 -5.168 2.818 -7.754 c 1.41 -4.698 2.466 -9.396 3.055 -14.212 c 1.292 0 2.584 -1.056 3.288 -1.878 c 1.645 -1.646 3.054 -3.642 4.229 -5.637 c 0 -0.239 0.117 -0.356 0.235 -0.474 c 0 0.234 0 0.474 0.117 0.708 c 0.235 1.408 0.941 2.934 2.231 3.756 c 1.176 0.825 2.702 0.708 4.112 0.234 c 1.056 -0.352 2.818 -1.291 3.877 -2.464 c 0.117 0.117 0.117 0.117 0.234 0.234 C 631.894 751.415 634.477 754.818 636.475 758.695 L 636.475 758.695 z M 625.785 745.774 L 625.785 745.774 c -0.587 0.469 -1.173 1.06 -1.76 1.411 c -0.235 0.118 -0.942 0.353 -1.059 0.47 c 0 0 -0.352 -0.117 -0.352 0 c -0.118 -0.117 -0.352 -0.234 -0.352 -0.117 c -0.469 -0.353 -0.823 -1.178 -0.94 -1.881 c -0.353 -1.057 -0.705 -2.229 -0.822 -3.404 C 622.379 743.31 624.142 744.482 625.785 745.774 L 625.785 745.774 z M 612.865 739.433 L 612.865 739.433 c 1.292 0.352 2.701 0.704 3.993 1.174 c -0.117 0.353 -0.235 0.821 -0.352 1.173 c -0.235 0.826 -0.587 1.413 -0.939 2.234 c -0.821 1.644 -1.879 3.29 -2.938 4.815 c -0.469 0.587 -0.938 1.173 -1.408 1.644 c -0.117 0.117 -0.235 0.234 -0.352 0.356 c 0.117 -2.586 0 -5.289 -0.353 -7.872 c -0.236 -1.178 -0.471 -2.703 -1.292 -3.524 c -0.117 0 -0.117 -0.117 -0.117 -0.117 c 0 -0.117 0 -0.117 0 -0.117 C 610.399 739.198 611.573 739.198 612.865 739.433 L 612.865 739.433 z M 602.059 745.774 L 602.059 745.774 c -0.234 -0.117 -0.352 -0.234 -0.588 -0.47 c -0.118 -0.235 -0.353 -0.587 -0.47 -0.939 C 601.353 744.835 601.707 745.305 602.059 745.774 L 602.059 745.774 z M 591.252 735.203 L 591.252 735.203 l 0.47 0.117 c 0.469 0.236 0.938 0.471 1.292 0.705 c 1.526 1.056 2.819 2.234 4.11 3.524 c -0.234 0.234 -0.469 0.47 -0.704 0.704 c -1.293 1.408 -2.702 2.703 -4.229 3.877 c -0.587 0.352 -1.293 0.821 -1.88 1.291 c -0.352 0.118 -0.704 0.353 -1.056 0.47 c 0 0.117 0 0.117 0 0.117 s 0 0 -0.117 0 l 0 0 c -0.117 0.117 -0.353 0.117 -0.47 0.117 v 0.117 l 0 0 c 0 -0.117 0 -0.117 -0.117 -0.117 l 0 0 c 0.117 -0.352 0.234 -0.586 0.234 -0.939 c 0.47 -1.642 0.939 -3.29 1.408 -5.05 c 0.235 -1.056 0.469 -2.112 0.587 -3.173 c 0.118 -0.704 0.237 -1.29 0.118 -1.878 C 591.018 735.086 591.135 735.086 591.252 735.203 L 591.252 735.203 z M 588.668 746.243 L 588.668 746.243 h -0.117 l 0 0 H 588.668 L 588.668 746.243 L 588.668 746.243 z M 588.668 746.243 L 588.668 746.243 L 588.668 746.243 L 588.668 746.243 L 588.668 746.243 L 588.668 746.243 z M 580.563 764.219 L 580.563 764.219 c 2.232 -2.82 3.76 -6.11 5.167 -9.4 c 0.705 -1.996 1.411 -3.989 1.998 -5.989 c 1.646 0.821 3.642 -0.234 5.052 -1.057 c 1.878 -1.177 3.522 -2.703 5.167 -4.11 c -0.117 1.173 0.234 2.464 0.704 3.523 c 0.939 1.761 3.408 2.816 5.403 2.348 c 0 0.117 0 0.117 0 0.234 c 0.706 1.765 0.706 3.877 1.762 5.403 c 0 0.474 -0.118 1.06 -0.235 1.529 c -0.234 1.525 -0.469 3.055 -0.821 4.581 c -0.352 1.407 -0.706 2.699 -1.059 3.993 c -0.47 1.761 -1.056 3.525 -1.525 5.286 c -0.706 1.994 -1.293 4.11 -1.997 6.105 c -0.117 0.353 -0.469 1.178 -0.589 2 c -0.117 0 -0.352 -0.117 -0.469 -0.117 c -6.93 -2.938 -14.564 -5.051 -22.083 -5.051 c 0 -0.352 0.117 -0.705 0.117 -1.178 c 0.234 -0.938 0.352 -1.996 0.469 -3.051 c 0.117 -0.704 0.236 -1.412 0.354 -2.117 C 579.036 766.214 579.859 765.157 580.563 764.219 L 580.563 764.219 z M 487.534 748.243 L 487.534 748.243 c 0.469 1.407 0.938 2.82 1.173 4.345 c 0.235 0.822 0.235 1.761 0.47 2.465 c -0.822 2.469 -1.526 4.819 -1.997 7.284 c -0.235 1.057 -0.352 2.116 -0.587 3.173 c -0.235 0.587 -0.587 1.174 -0.822 1.76 c -0.94 -5.871 -2.232 -11.625 -3.172 -17.502 c -0.586 -3.285 -0.939 -6.692 -1.174 -10.101 c -0.117 -1.761 -0.117 -3.642 0 -5.401 c 1.174 2.112 2.232 4.346 3.288 6.576 C 485.771 743.192 486.71 745.774 487.534 748.243 L 487.534 748.243 z M 471.792 749.65 L 471.792 749.65 c -1.76 -5.05 -3.289 -10.101 -4.346 -15.385 c -1.056 -5.524 -1.409 -11.044 -1.173 -16.682 c 0.234 -3.055 0.587 -6.105 0.938 -9.16 c 0.118 -0.354 0.118 -0.705 0.235 -1.058 c 0.823 2.23 1.763 4.464 2.82 6.459 c 2.232 4.698 4.816 9.044 7.282 13.508 c 0.586 0.939 1.056 1.765 1.527 2.703 c -0.471 3.052 -0.352 6.224 -0.234 9.279 c 0.234 3.407 0.704 6.811 1.408 10.218 c 1.175 6.697 2.938 13.155 4.933 19.618 c -0.352 0.821 -0.586 1.761 -0.821 2.582 c -1.88 -2.582 -3.995 -5.168 -6.344 -7.632 c -0.586 -0.708 -1.292 -1.295 -1.879 -1.999 C 474.965 757.874 473.319 753.762 471.792 749.65 L 471.792 749.65 z M 483.539 777.609 L 483.539 777.609 c 1.409 2.112 2.702 4.229 3.875 6.341 c 0.472 0.704 0.823 1.292 1.176 1.995 c 2.349 4.467 4.581 8.927 6.813 13.512 c 1.175 2.465 2.349 4.934 3.407 7.515 c 0.47 1.296 0.822 2.469 1.174 3.76 c -0.352 -0.117 -0.587 -0.234 -0.939 -0.469 c -0.235 -0.235 -0.472 -0.471 -0.707 -0.705 c -1.525 -1.407 -2.818 -2.703 -4.228 -4.11 c -1.174 -1.292 -2.349 -2.586 -3.523 -3.878 c -0.469 -0.352 -0.823 -0.82 -1.175 -1.173 c -1.644 -1.882 -3.288 -3.76 -4.933 -5.638 c -1.174 -1.411 -2.349 -2.82 -3.525 -4.347 c -3.17 -3.876 -6.106 -7.987 -8.927 -12.216 c -2.466 -3.76 -4.816 -7.872 -6.459 -12.217 c -0.94 -2.703 -1.527 -5.521 -1.41 -8.458 c 0.47 0.353 0.939 0.704 1.527 1.057 C 472.967 763.628 478.724 770.324 483.539 777.609 L 483.539 777.609 z M 473.084 791.938 L 473.084 791.938 c -9.396 -8.574 -17.502 -18.909 -23.023 -30.423 c -1.878 -3.76 -2.936 -7.636 -3.757 -11.748 c -0.354 -1.643 -0.589 -3.407 -0.941 -5.167 c 1.763 1.76 3.759 3.289 5.639 4.698 c 3.758 2.586 7.635 4.815 11.511 7.167 c -1.291 3.289 -0.586 6.928 0.587 10.218 c 1.411 4.346 3.76 8.574 6.226 12.451 c 4.816 7.519 10.455 14.447 16.328 21.144 c 0.234 0.822 0.352 1.526 0.587 2.347 C 481.66 799.457 477.196 795.815 473.084 791.938 L 473.084 791.938 z M 507.031 826.942 L 507.031 826.942 c -1.292 -0.821 -2.584 -1.881 -3.758 -2.938 c -2.114 -1.761 -3.994 -3.995 -5.521 -6.106 c -1.528 -2.233 -2.818 -4.581 -3.877 -7.167 c 1.41 0.704 2.821 1.408 4.346 2.116 c 0.706 0.587 1.528 1.174 2.349 1.643 c 0.119 0 0.237 0 0.354 0 c 0 0.235 0.117 0.47 0.117 0.587 c 0.705 1.882 3.171 1.526 3.406 -0.352 c 0.586 -0.235 0.823 -1.173 0.118 -1.525 l 0 0 c -0.118 -2.938 -1.409 -6.229 -2.467 -8.81 c -1.409 -3.29 -2.936 -6.346 -4.464 -9.519 c -2.701 -5.637 -5.519 -11.039 -8.692 -16.323 c -0.118 -0.235 -0.352 -0.588 -0.47 -0.822 c 0.118 -0.708 0.352 -1.412 0.47 -2.116 c 0.235 -1.525 0.587 -3.173 0.821 -4.698 c 0.472 -2.82 1.058 -5.638 1.645 -8.458 c 1.41 -5.402 3.407 -10.569 6.46 -15.15 c 3.525 -5.289 8.223 -9.87 12.804 -14.333 c 4.581 -4.581 9.396 -8.928 14.095 -13.273 c 9.044 -8.575 17.502 -17.62 23.728 -28.424 c 2.466 -4.464 4.817 -8.928 6.93 -13.626 c 0.706 -1.529 1.293 -3.172 1.88 -4.698 c 0.471 -1.295 0.94 -2.468 1.41 -3.759 c 1.527 -4.347 2.584 -8.928 2.701 -13.508 c 0.235 -0.235 0.47 -0.47 0.587 -0.939 c 0 -0.591 0.237 -1.06 0.471 -1.647 c 0.118 0.119 0.352 0.119 0.586 0.236 c 1.057 0.469 2.115 0.938 3.171 1.529 c 2.938 1.525 5.64 3.521 8.106 5.989 c 3.524 3.524 5.991 7.87 7.751 12.569 c 4.111 11.508 2.585 23.725 1.292 35.59 c -1.173 10.805 -2.819 21.613 -4.815 32.301 c -1.058 5.641 -2.349 11.16 -3.288 16.798 c -0.471 3.173 -0.94 6.345 -1.41 9.513 c -0.117 0.588 -0.117 1.179 -0.235 1.648 c -0.117 0.117 -0.235 0.117 -0.354 0.117 h 0.119 c 0 0 0.118 0 0.235 0 c -0.117 0.938 -0.235 1.877 -0.354 2.698 c -0.118 0.588 -0.118 1.062 -0.235 1.53 c -1.525 0.234 -3.17 0.47 -4.698 0.821 c -3.406 0.704 -6.46 1.995 -9.279 3.76 c -1.292 0.938 -2.584 1.994 -3.76 3.051 c -0.117 0 -0.234 0.117 -0.234 0.117 c -0.586 0.356 -1.291 0.591 -1.88 0.943 c -0.586 0.234 -1.173 0.469 -1.879 0.704 c -1.291 0.47 -2.701 1.174 -3.992 1.994 c -2.466 1.413 -4.935 3.174 -7.284 4.816 c -4.933 3.643 -9.514 7.753 -13.86 12.1 c -3.17 3.289 -6.343 6.697 -9.044 10.456 c -0.824 0.939 -1.528 1.878 -2.115 2.817 c -2.701 3.876 -5.05 7.988 -7.047 12.216 C 507.619 827.177 507.383 827.06 507.031 826.942 L 507.031 826.942 z M 580.915 919.736 L 580.915 919.736 c -8.927 -3.055 -17.62 -6.457 -26.077 -10.804 c -9.162 -4.702 -18.088 -10.222 -25.959 -16.798 c -7.517 -6.345 -14.094 -13.625 -18.441 -22.436 c -4.346 -9.043 -5.05 -18.913 -2.818 -28.545 c 0.821 -3.406 1.88 -6.693 3.288 -9.982 c 3.173 -7.402 7.754 -14.213 12.804 -20.323 c 0.234 -0.117 0.353 -0.352 0.587 -0.586 c 0.117 -0.118 0.235 -0.235 0.352 -0.354 c 4.464 -5.284 9.633 -10.218 15.036 -14.681 c 2.583 -2.233 5.287 -4.346 7.988 -6.345 c 1.173 -0.704 2.232 -1.644 3.288 -2.465 c 4.935 0.821 9.985 1.761 14.8 3.051 c 5.17 1.53 10.103 3.408 14.801 5.759 c 9.045 4.581 17.15 10.805 23.846 18.324 c 13.39 15.15 20.086 35.238 19.264 55.321 c 0 1.765 -0.237 3.524 -0.354 5.172 c -0.117 1.056 -0.235 2.229 -0.47 3.285 c -0.821 5.877 -2.349 11.631 -4.229 17.385 c -3.171 10.575 -8.927 20.205 -14.8 29.484 c -0.588 -0.117 -1.174 -0.117 -1.761 -0.117 C 594.892 923.614 587.728 922.084 580.915 919.736 L 580.915 919.736 z M 607.579 924.2 L 607.579 924.2 c 3.29 -5.167 6.344 -10.569 9.044 -16.093 c 2.938 -5.99 5.17 -12.335 6.932 -18.793 c 1.056 -3.76 1.76 -7.52 2.347 -11.396 c 0.119 -1.057 0.354 -2.229 0.471 -3.286 c 0.587 -5.759 0.587 -11.513 0 -17.268 c -1.997 -20.088 -11.394 -38.88 -26.546 -52.271 c -6.695 -5.875 -14.332 -10.691 -22.554 -14.094 c -6.93 -2.938 -14.564 -5.172 -22.2 -5.877 c 0.469 -0.586 0.941 -1.173 1.293 -1.759 c 5.637 -4.112 11.863 -5.99 18.206 -6.225 c 0.235 0.113 0.469 0 0.706 0 c 12.801 -0.239 26.312 5.872 36.53 13.392 c 3.759 2.816 7.401 6.105 10.455 9.747 c 1.88 2.112 3.64 4.581 5.285 7.046 c 1.293 2.116 2.584 4.346 3.877 6.58 c 5.873 10.804 9.75 22.669 11.862 34.887 c 1.645 9.279 2.233 18.792 1.41 28.306 c -0.117 1.179 -0.234 2.352 -0.352 3.408 c -0.118 1.524 -0.352 3.055 -0.587 4.463 c -1.879 11.044 -5.521 22.67 -13.393 30.893 c -2.464 2.586 -5.402 4.698 -8.455 6.579 c -0.354 0.235 -0.588 0.471 -0.707 0.705 c -2.701 0.234 -5.52 0.704 -8.338 0.821 C 611.104 924.083 609.341 924.2 607.579 924.2 L 607.579 924.2 z M 655.151 919.268 L 655.151 919.268 c -2.701 0.822 -5.521 1.408 -8.34 1.526 c -2.818 0.234 -5.52 0.117 -8.34 -0.235 c -1.291 -0.117 -2.701 -0.352 -3.994 -0.587 c -0.586 0 -1.056 -0.117 -1.643 -0.235 c 5.754 -5.754 9.514 -13.507 11.98 -21.025 c 1.88 -5.754 3.172 -11.744 3.876 -17.854 c 0.117 -1.174 0.235 -2.347 0.353 -3.525 c 0.352 -4.815 0.469 -9.513 0.234 -14.328 c -0.587 -12.452 -3.17 -24.903 -7.517 -36.647 c -2.349 -6.227 -5.169 -12.568 -8.693 -18.322 c 0.939 0 1.998 0 2.937 0.234 c 0.706 0.234 1.527 0.469 2.114 0.821 c 0.235 0.234 0.587 0.352 0.939 0.469 c 0.117 0.117 0.237 0.117 0.354 0.234 c 0.938 0.588 2.115 1.644 3.17 1.878 c 0.117 0.117 0.234 0.117 0.234 0.117 c 0.47 0.591 0.941 1.296 1.411 1.883 c 1.056 1.407 2.114 2.934 3.053 4.346 c 1.88 2.934 3.642 5.871 5.169 9.044 c 2.115 4.229 3.875 8.692 5.402 13.274 c 3.643 10.335 6.344 21.025 7.634 31.947 c 0.236 1.647 0.472 3.291 0.59 4.933 c 0.116 1.179 0.234 2.352 0.234 3.525 c 0.352 5.637 0.352 11.396 -0.353 16.916 c -0.472 3.759 -1.293 7.518 -2.467 11.038 c -0.589 1.647 -1.175 3.29 -1.879 4.938 c -0.59 1.173 -1.176 2.229 -1.646 3.402 c -0.352 0.235 -0.704 0.471 -1.056 0.591 C 657.618 918.329 656.443 918.799 655.151 919.268 L 655.151 919.268 z M 689.568 909.52 L 689.568 909.52 c -2.703 1.877 -5.521 3.286 -8.575 4.346 c -3.055 0.938 -6.108 1.526 -9.28 1.878 c -1.644 0.234 -3.289 0.47 -5.051 0.704 c -0.704 0.117 -1.527 0.117 -2.349 0.352 c 0.352 -0.703 0.704 -1.524 1.173 -2.229 c 1.059 -2.234 1.882 -4.581 2.586 -7.049 c 1.408 -5.051 2.114 -10.336 2.467 -15.503 c 0.235 -3.877 0.235 -7.754 0 -11.63 c -0.117 -1.174 -0.235 -2.352 -0.353 -3.643 c -0.471 -6.224 -1.527 -12.335 -2.938 -18.44 c -1.763 -8.458 -4.347 -16.798 -7.517 -24.903 c -1.646 -4.112 -3.524 -8.223 -5.639 -12.218 c -1.409 -2.464 -2.937 -4.933 -4.581 -7.279 c -1.646 -2.234 -3.523 -4.815 -5.991 -6.228 c -0.118 0 -0.235 -0.118 -0.47 -0.118 c 0.824 -0.704 1.763 -1.173 2.586 -1.643 c 1.877 -0.939 3.992 -1.525 6.107 -1.995 c 1.997 -0.356 4.11 -0.356 6.225 -0.117 c 1.88 0.117 3.76 1.056 5.64 0.938 l 0 0 c 1.643 1.644 3.522 3.052 5.05 4.698 c 2.115 2.229 3.994 4.698 5.757 7.284 c 3.758 5.637 6.695 11.744 9.396 17.854 c 5.287 11.744 9.28 24.195 11.275 36.882 c 0.234 1.292 0.353 2.586 0.471 3.76 c 0 0 0 0 0 0.118 c 0.703 4.815 0.938 9.865 0.938 14.798 c 0 2.351 -0.117 4.815 -0.235 7.283 c -0.117 1.175 -0.234 2.465 -0.234 3.761 c -0.118 0.703 -0.118 1.29 0 1.994 c -1.057 0.938 -1.878 1.999 -2.817 3.056 C 692.15 907.402 690.86 908.576 689.568 909.52 L 689.568 909.52 z M 714.116 900.005 L 714.116 900.005 c -1.644 0.939 -3.404 1.761 -5.402 2.465 c -3.055 0.939 -6.106 1.291 -9.162 1.408 c 0.117 -0.469 -0.117 -0.938 -0.352 -1.29 c 0.586 -2.583 0.704 -5.169 0.938 -7.755 c 0.234 -3.52 0.353 -7.162 0.234 -10.687 c -0.117 -3.407 -0.469 -6.815 -0.821 -10.218 c -0.234 -1.295 -0.352 -2.469 -0.586 -3.76 c -0.354 -2.468 -0.822 -4.814 -1.292 -7.166 c -3.055 -13.978 -8.223 -27.603 -14.803 -40.171 c -2.347 -4.347 -4.933 -8.576 -7.986 -12.569 c -1.527 -1.878 -3.172 -3.643 -4.933 -5.403 c -0.706 -0.704 -1.409 -1.295 -2.114 -1.998 c 0.821 -0.354 1.643 -0.705 2.466 -1.057 c 1.763 -0.47 3.406 -0.704 5.168 -0.47 c 1.294 0.117 2.467 0.704 3.76 1.173 c 1.646 2.117 3.993 3.995 5.874 5.994 c 2.349 2.465 4.463 5.168 6.576 7.866 c 2.938 3.878 5.758 7.871 8.34 11.865 c 5.989 9.515 11.16 19.618 14.803 30.306 c 0.352 1.056 0.704 2.117 1.056 3.173 c 0.47 1.291 0.822 2.581 1.174 3.877 c 1.29 4.58 2.234 9.396 2.586 14.211 c 0.234 3.291 0.234 6.693 -0.234 10.101 c -0.234 1.53 -0.591 3.057 -0.825 4.698 c -0.236 0.705 -0.353 1.53 -0.587 2.234 c 0 0.117 0 0.117 0 0.234 c -0.353 0.117 -0.705 0.352 -0.939 0.469 c -0.352 0.354 -0.586 0.588 -0.704 0.939 C 715.646 899.063 714.941 899.531 714.116 900.005 L 714.116 900.005 z M 738.902 884.615 L 738.902 884.615 c -0.47 1.175 -1.174 2.23 -1.878 3.291 c -1.295 1.994 -3.29 3.524 -5.289 4.815 c -2.229 1.29 -4.464 2.229 -6.928 2.938 c -1.058 0.234 -2.117 0.469 -3.173 0.703 c 0.352 -0.942 0.587 -1.882 0.821 -2.82 c 0.586 -2.469 0.939 -5.05 1.06 -7.636 c 0.234 -5.285 -0.354 -10.688 -1.411 -15.973 c -0.47 -2.233 -0.938 -4.463 -1.644 -6.58 c -0.352 -1.291 -0.704 -2.581 -1.056 -3.877 c -2.469 -7.515 -5.759 -14.799 -9.401 -21.847 c -3.402 -6.576 -7.279 -13.04 -11.626 -19.028 c -2.469 -3.407 -5.049 -6.698 -7.636 -9.866 c -1.643 -1.882 -3.407 -3.76 -5.168 -5.523 c -1.175 -1.174 -2.467 -2.464 -3.993 -3.403 c 0.469 -0.353 0.938 -0.704 1.407 -1.061 c 1.411 -0.938 3.057 -1.761 4.817 -2.347 c 1.528 -0.47 3.171 -0.938 4.818 -1.057 c 1.408 0 2.935 -0.234 4.225 0 c 0.117 0 0.117 0 0.117 0 c 0.708 0.353 1.412 0.587 2.117 0.939 c 1.29 0.586 2.581 1.29 3.759 1.995 c 0.587 0.352 1.057 0.586 1.525 0.938 l 0.117 0.121 c 3.643 2.348 6.697 5.402 9.515 8.571 c 6.579 7.519 11.63 16.211 15.741 25.256 c 1.995 3.993 3.642 8.222 5.167 12.451 c 0.47 1.407 1.058 2.82 1.409 4.346 c 0.708 2.116 1.295 4.229 1.882 6.346 c 0.47 1.761 0.821 3.402 1.173 5.167 c 0.117 0.821 0.234 1.526 0.353 2.348 c 0.117 0.352 0.117 0.586 0.234 0.938 l 0 0 v 0.355 c 0 0.236 0.117 0.588 0.117 0.822 c 0.353 3.169 0.353 6.458 0.117 9.632 c -0.117 2.581 -0.704 5.05 -0.704 7.636 C 739.254 883.678 739.137 884.146 738.902 884.615 L 738.902 884.615 z M 763.336 859.712 L 763.336 859.712 c -2.587 4.815 -5.759 9.162 -9.635 13.04 c -1.878 1.998 -3.995 3.876 -6.225 5.641 c -1.291 1.056 -2.586 1.995 -3.994 2.934 c 0.47 -1.878 0.705 -3.759 0.822 -5.754 c 0.234 -3.408 0.117 -6.933 -0.235 -10.454 c -0.469 -3.876 -1.291 -7.753 -2.347 -11.512 c -0.708 -2.469 -1.413 -4.815 -2.234 -7.167 c -0.469 -1.526 -1.056 -2.934 -1.525 -4.347 c -2.117 -5.401 -4.463 -10.569 -7.05 -15.62 c -4.346 -8.223 -9.513 -16.21 -16.089 -23.025 c -2.469 -2.581 -5.289 -4.933 -8.34 -6.928 c 2.464 -3.524 5.05 -6.933 8.457 -9.748 c 3.521 -2.821 7.515 -4.816 11.861 -5.876 c 8.34 -1.995 17.032 0.352 24.081 4.933 c 1.174 0.825 2.348 1.646 3.525 2.586 c 0.821 0.704 1.761 1.408 2.464 2.234 c 3.524 3.285 6.345 7.162 8.693 11.273 c 2.232 3.994 3.759 8.105 4.697 12.568 c 0.47 2.469 0.705 5.051 0.939 7.637 c 0.234 2.581 -0.117 5.402 0.825 7.749 c 0.117 0.121 0.117 0.121 0.234 0.239 C 770.969 840.334 768.27 850.669 763.336 859.712 L 763.336 859.712 z M 774.023 773.615 L 774.023 773.615 c -0.471 4.815 -1.291 9.632 -1.995 14.33 c -1.647 -3.76 -3.524 -7.284 -5.993 -10.571 c -0.118 -0.234 -0.234 -0.474 -0.469 -0.591 c -0.822 -1.173 -1.761 -2.347 -2.7 -3.285 c -0.825 -0.943 -1.646 -1.647 -2.586 -2.469 c -0.587 -0.469 -1.173 -0.939 -1.761 -1.408 c -1.646 -2 -3.876 -3.524 -5.992 -4.934 c -2.699 -1.764 -5.755 -3.289 -8.81 -4.346 c -2.347 -0.825 -4.933 -1.295 -7.401 -1.412 c 1.529 -3.877 2.232 -8.223 2.703 -12.334 c 0.234 -1.644 0.469 -3.286 0.586 -5.051 c 6.11 -1.173 12.922 -0.469 18.794 1.295 c 1.412 0.47 2.82 0.939 4.11 1.525 c 1.178 0.587 2.352 1.175 3.407 1.761 c 0.705 0.47 1.408 0.942 2.116 1.412 c 1.292 0.939 2.466 2.112 3.639 3.291 c 0.942 1.173 1.646 3.285 3.173 3.402 c 0.117 0 0.117 0 0.234 0 C 775.079 760.694 774.609 767.152 774.023 773.615 L 774.023 773.615 z" stroke-linecap="round"/>
</g>
		<g transform="matrix(1 0 0 1 -80.379 -30.9848)" id="Layer_1">
<path style="stroke: none; stroke-width: 1; stroke-dasharray: none; stroke-linecap: butt; stroke-dashoffset: 0; stroke-linejoin: miter; stroke-miterlimit: 4; is-custom-font: none; font-file-url: none; fill: rgb(53,27,16); fill-rule: nonzero; opacity: 1;" transform=" translate(-529.246, -750.6702)" d="M 523.007 761.75 c 8.458 4.581 17.384 -4.581 17.736 -12.686 c 0.235 -3.995 -2.114 -7.871 -5.756 -9.749 c -2.35 -1.173 -5.168 -1.173 -7.751 -0.47 c -1.059 0.235 -2.469 0.704 -3.759 1.408 c -1.293 0.588 -2.467 1.525 -3.056 2.586 c 0 0.117 -0.117 0.235 -0.117 0.353 c -0.587 0.938 -1.056 1.877 -1.408 2.816 c -0.47 1.295 -0.824 2.469 -0.941 3.642 C 517.133 754.349 518.543 759.281 523.007 761.75 L 523.007 761.75 z M 536.28 749.768 L 536.28 749.768 L 536.28 749.768 L 536.28 749.768 L 536.28 749.768 L 536.28 749.768 z M 521.479 751.885 L 521.479 751.885 c 0.118 -0.117 0.235 -0.235 0.353 -0.353 c 0.235 -0.117 0.352 -0.117 0.586 -0.234 c 0 0 0 0 0.117 0 l 0 0 c 0.12 0 0.354 -0.117 0.472 -0.117 c 0.117 0 0.234 0 0.352 0 c 0.353 0 0.587 0 0.822 0.117 c 0.821 0.352 1.41 1.29 1.41 2.112 c 0 0.47 -0.117 0.821 -0.234 1.173 c -0.235 0.353 -0.589 0.588 -0.823 0.825 c -0.469 0.236 -1.056 0.354 -1.526 0.354 c -0.118 0 -0.118 0 -0.235 0 c -0.354 -0.117 -0.588 -0.117 -0.823 -0.354 c -0.234 -0.12 -0.352 -0.237 -0.47 -0.355 c -0.469 -0.352 -0.704 -0.938 -0.704 -1.525 C 520.775 752.941 521.01 752.354 521.479 751.885 L 521.479 751.885 z" stroke-linecap="round"/>
</g>
</g>
</g>
</svg>