<svg xmlns="http://www.w3.org/2000/svg" version="1.0" id="Layer_1" x="0px" y="0px" enable-background="new 0 0 1400 980" xml:space="preserve" viewBox="959.86 328.51 353.41 279.21">
<g>
	<path fill="#FFFFFF" d="M1098.782,542.647c-1.29-0.704-3.408,1.412-4.229,2.234c-0.82,0.82-1.643,1.525-2.468,2.351   c-0.353,0.704-0.704,1.525-1.056,2.23c-0.353,0.703-0.353,0.703-0.704,1.524c0,0.234-0.118,0.353-0.118,0.591v0.117   c0.235,0.234,0.235,0.234,0.587,0.354c0.47,0.234,1.291,0.352,1.995,0.352c1.529,0,3.642-0.471,4.819,0.703   c0-0.117,0-0.234,0-0.352c0.353-1.882,1.057-3.76,1.408-5.637C1099.252,546.172,1099.956,543.238,1098.782,542.647   L1098.782,542.647z"/>
	<path fill="#FFFFFF" d="M1059.667,471.938c-0.235-0.234-0.587-0.471-0.938-0.588c-0.353-0.118-1.057-0.118-1.412,0.236   c-0.235,0-0.471,0.118-0.588,0.235c-0.234,0.117-0.469,0.234-0.703,0.469c-0.235,0.47-0.47,0.939-0.47,1.527   c0,1.409,1.525,2.584,2.938,2.232c0.234-0.117,0.469-0.237,0.703-0.354c0.352-0.234,0.704-0.586,0.822-0.939   c0.234-0.586,0.587-1.173,0.234-1.762C1060.02,472.408,1060.02,472.408,1059.667,471.938L1059.667,471.938z"/>
	<path fill="#FFFFFF" d="M1105.71,551.222c-0.47-0.352-1.174-0.352-1.643-0.234c-1.408,0.353-2.703,1.413-3.642,2.586   c1.881-0.117,3.759-0.352,5.523-0.704c0.113,0,0.234,0,0.469-0.117C1106.301,552.166,1106.184,551.578,1105.71,551.222   L1105.71,551.222z"/>
	<path fill="#A48C82" d="M1309.04,546.523L1309.04,546.523c0,0,0,0,0-0.116c-0.117,0-0.234-0.235-0.234-0.235   c-0.117-0.117-0.235-0.234-0.353-0.47c-1.529-1.524-3.055-2.934-4.815-4.228l0,0c-2.351-1.174-4.702-2.113-7.05-2.935   c-2.112-0.708-4.345-1.412-6.579-1.882c-0.704,0.587-1.408,1.174-2.112,1.882c-0.234,0.352-0.586,0.705-0.821,1.174   c-0.47,0.587-0.939,1.29-1.291,1.995c1.642,0.117,3.402,0.234,5.05,0.469c3.521,0.47,7.046,1.178,10.57,2   c0.117,0.116,0.234,0.116,0.352,0.116c1.647,0.47,3.291,0.939,4.933,1.526c0.939,0.352,1.882,0.703,2.821,1.295   C1309.392,546.877,1309.157,546.642,1309.04,546.523L1309.04,546.523z"/>
	<path fill="#A48C82" d="M1287.426,536.071c-2.818-0.704-5.875-1.056-8.809-1.407c-6.463-0.709-12.804-0.353-19.146,0.586   c0,0.234,0,0.587,0,0.821c-0.121,1.057,0,2.112,0,3.174c0.113,0.586,0.236,1.173,0.236,1.759c0.234,0.939,0.703,2.234,0.703,3.408   c3.051-0.822,6.106-1.525,9.162-1.999c4.697-0.704,9.278-0.938,13.977-0.822c0.118-0.353,0.353-0.821,0.47-1.056   c0.234-0.47,0.469-0.821,0.703-1.29c0.471-0.822,1.062-1.53,1.766-2.234C1286.723,536.658,1287.075,536.306,1287.426,536.071   L1287.426,536.071z"/>
	<path fill="#A48C82" d="M1257.121,540.652c0-0.234-0.117-0.587-0.117-0.938c-0.118-1.291-0.118-2.703,0.117-3.994   c-6.106,1.057-12.1,2.703-17.972,4.581c-4.229,1.29-8.457,2.703-12.687,3.993c0.117,1.408,0.47,2.7,0.821,3.994   c0.354,1.057,0.705,2.112,1.175,3.173c0.59,1.643,1.412,3.052,2.116,4.581c1.173-0.474,2.347-1.061,3.524-1.646   c7.753-3.408,15.738-6.929,23.844-9.279c-0.235-0.587-0.235-1.174-0.353-1.761C1257.355,542.53,1257.239,541.591,1257.121,540.652   L1257.121,540.652z"/>
	<path fill="#A48C82" d="M1225.76,550.049c-0.117-0.352-0.234-0.822-0.353-1.174c-0.234-1.29-0.469-2.703-0.587-3.993   c-2.351,0.703-4.819,1.407-7.167,1.995c-3.524,0.942-7.049,1.646-10.69,1.764c-1.761,0.117-3.521,0-5.285-0.235   c-0.235,0-0.47-0.117-0.704-0.117c0,0.117-0.117,0.353-0.117,0.587c-0.353,1.057-0.705,1.995-0.939,3.055   c-0.235,1.292-0.353,2.466-0.47,3.756c0,2.352,0.234,4.703,1.057,6.933c0.47,1.056,0.938,2.116,1.643,2.938   c0.471,0.587,1.061,1.057,1.53,1.644c1.407-0.471,2.816-0.939,4.229-1.526c7.045-2.469,13.859-5.641,20.671-8.691   c-0.235-0.588-0.47-1.062-0.704-1.647C1227.05,553.69,1226.346,551.93,1225.76,550.049L1225.76,550.049z"/>
	<path fill="#A48C82" d="M1198.271,563.204c-0.822-2.347-1.173-4.933-1.057-7.519c0-1.407,0.234-2.934,0.587-4.346   c0.356-1.174,0.708-2.348,1.178-3.521c0.117,0,0.117-0.117,0.117-0.117c-0.825-0.235-1.764-0.47-2.586-0.47   c-0.352,0.938-0.704,1.76-1.173,2.699c-2,5.05-4.464,9.866-7.284,14.33c-1.409,2.467-3.056,4.936-4.698,7.165   c1.174-0.117,2.468-0.117,3.642-0.352c2.347-0.352,4.698-0.704,7.049-1.29c2.348-0.47,4.699-1.062,7.046-1.766   c-0.47-0.469-0.821-1.055-1.056-1.525C1199.33,565.556,1198.744,564.379,1198.271,563.204L1198.271,563.204z"/>
	<path fill="#A48C82" d="M1138.133,531.139c-0.47-0.353-0.822-0.587-1.174-0.821c-1.412-1.178-3.056-2.586-3.643-4.464   c-0.117,0-0.234,0-0.47,0c0,0.117,0,0.117,0.118,0.117c1.173,1.878,0,4.815-0.705,6.693c-0.942,2.234-1.998,4.464-3.289,6.581   c-1.178,2.229-2.469,4.345-3.876,6.34c-1.292,1.882-2.469,3.642-4.229,5.168c0,0,0,0-0.117,0c-1.057,1.882-3.994,3.055-5.754,3.76   c-2.587,1.173-5.407,1.998-8.341,2.469c-4.112,0.704-8.927,1.056-13.038-0.354c-0.353,0-0.705,0-1.061,0   c-2.229-0.117-4.581-0.708-5.872-2.585c-1.995-2.821,0.469-6.576,1.882-9.161c1.761-3.173,3.756-6.342,5.637-9.397   c1.173-2.116,1.878-4.463,2.82-6.697c0.471-1.525,1.057-3.051,1.644-4.463c0.234-0.939,0.587-1.643,0.938-2.465   c0.117-0.235,0.234-0.353,0.353-0.47c-0.235-0.117-0.47-0.234-0.704-0.352c-7.05-2.938-13.508-8.927-14.447-16.797   c-1.764,2.581-3.642,5.049-5.523,7.515c-1.995,2.586-4.229,5.054-6.342,7.4c-0.116,0.939-0.351,1.765-0.469,2.703   c-0.235,1.174-0.587,2.348-0.938,3.643c0,0.82-0.118,1.643-0.353,2.347c-0.121,1.173-0.355,2.352-0.469,3.524   c0.469,1.174,0.348,2.703,0.348,3.877c0,1.761,0.121,3.524,0.238,5.285c0.353,3.524,0.821,7.167,1.408,10.687   c0.587,3.643,1.291,7.167,2.113,10.692c0.234,1.056,0.474,2.111,0.825,3.173c0.234-0.708,0.587-1.53,0.938-2.352   c0.821-2.229,1.878-5.05,4.347-5.872c0.469-0.587,1.407-0.821,1.995-0.117c1.764,1.994,3.759,3.169,6.345,3.76   c2.816,0.586,5.989,0.469,8.927,0.234c2.816-0.352,5.52-0.825,8.34-1.295c1.761-0.234,3.521-0.469,5.285-0.705   c0.939-0.117,1.995-0.234,3.056-0.469c1.174-0.352,2.229-0.821,3.403-0.586c0.117,0,0.117,0,0.117,0   c1.881-2.821,4.229-5.402,6.814-7.754c2.113-1.995,4.463-3.877,6.928-5.754c2.234-1.647,4.468-3.408,6.814-4.933   c-0.938-1.179-1.174-2.704-1.29-4.229C1137.663,533.603,1137.779,532.313,1138.133,531.139L1138.133,531.139z"/>
	<path fill="#A48C82" d="M1107.827,549.345c0.821,0.704,1.407,1.76,1.524,2.821c1.413-0.471,2.703-0.944,4.112-1.53   c1.056-0.47,2.233-0.938,3.407-1.525c0.822-0.353,1.76-0.939,2.82-0.939c0.47-1.647,1.291-3.055,2.112-4.464   c1.174-2.116,2.352-4.11,3.525-6.109c1.056-1.996,2.111-3.995,2.938-6.107c0.353-1.056,0.704-1.995,0.938-3.172   c0.234-0.938,0.469-1.878,1.174-2.699l0,0c-1.525-0.234-3.055-0.943-4.229-2c-0.235,0-0.353,0.117-0.587,0.117   c-0.704,0.118-1.526,0.236-2.229,0.353c-1.062,0.118-2.117,0.235-3.057,0.235c-0.116,0.117-0.116,0.234-0.116,0.234   c-0.118,0.47-0.118,0.943,0,1.412l0.116,0.47c0,0.235,0,0.587,0,0.821c0,0.118,0,0.235,0,0.235s0,0.117-0.116,0.234   c0,0.234-0.118,0.469-0.118,0.704c-0.234,0.586-0.352,0.939-0.708,1.529c-1.407,2.465-3.52,4.582-5.637,6.341   c-2.229,2.117-4.698,3.878-7.163,5.755c-1.411,0.943-3.055,1.882-4.346,3.056c0,0.469-0.117,0.821-0.117,1.291   c-0.117,0.587-0.117,1.178-0.234,1.764c-0.122,0.353-0.235,0.821-0.235,1.174c0.704-0.47,1.644-0.821,2.582-0.939   C1105.476,548.171,1106.771,548.405,1107.827,549.345L1107.827,549.345z"/>
	<path fill="#A48C82" d="M1117.224,587.873c-0.705-1.174-1.408-2.352-1.879-3.524c-0.59,0.353-1.06,0.704-1.764,0.938   c-0.821,0.353-1.878,0.587-2.816,0.821c-1.999,0.471-4.229,0.709-6.346,0.825c-2.112,0-4.347,0-6.576-0.354   c-0.942-0.114-1.881-0.235-2.819-0.471c-0.118,0-0.235,0-0.471-0.117c0.118-1.524,0-3.051-0.117-4.58   c-0.234-3.639-1.056-7.281-2.469-10.806c-0.938-1.999-1.876-4.111-3.168-5.992l0,0c-2.703-0.588-5.289-1.644-6.814-3.639   c-0.117,0.117-0.117,0.234-0.234,0.352c-0.47,1.175-1.057,2.348-1.525,3.408c-0.826,1.994-1.413,4.107-1.999,6.224   c-0.822,3.643-1.526,7.401-1.878,11.161c-0.47,4.106-0.587,8.219-0.352,12.33c0.117,1.764,0.469,3.642,0.82,5.406   c0.117,0.353,0.234,0.587,0.234,0.938c0.235,0.235,0.471,0.47,0.587,0.587c0.588,0.588,1.174,0.939,1.878,1.291   c1.178,0.587,2.82,1.056,4.111,1.174c1.883,0.116,3.761,0,5.642-0.235c4.111-0.352,8.34-1.29,12.447-2.464   c3.643-0.938,7.284-1.999,10.926-3.173c1.291-0.352,2.469-0.704,3.643-1.056c2.464-0.588,4.933-1.408,7.519-1.882   C1121.1,593.041,1118.866,590.572,1117.224,587.873L1117.224,587.873z"/>
	<path fill="#A48C82" d="M1065.422,581.176c-3.17,0.822-6.342,1.178-9.514,1.413c-5.168,0.234-10.923,0.117-15.743-1.765   c-0.112-0.587-0.234-1.057-0.234-1.526c-0.352-1.525-0.469-3.056-0.587-4.58c-0.234-3.291-0.469-6.463-1.643-9.514   c-0.234-0.825-0.704-1.647-1.056-2.469c-1.764-0.47-3.407-1.174-4.581-2.347c-0.825-0.591-1.412-1.412-1.881-2.352   c-0.588,0.352-1.292,0.821-1.995,1.174c0.234,1.178,0,2.469-0.235,3.524c-0.234,1.644-0.47,3.172-0.704,4.815   c-0.122,1.408-0.122,2.938-0.122,4.347c0.122,3.29,0.356,6.813,0.826,9.748c0.235,1.882,0.587,3.759,1.174,5.524   c0.469,1.642,0.821,2.698,1.643,4.11c0.704,1.057,1.412,2.112,2.352,2.582c0.117,0.118,0.234,0.234,0.352,0.234h0.117l0,0   c0,0,0,0.118,0.117,0.118c0.235,0,0.47,0.117,0.704,0.234c1.765-0.353,3.76,0,5.642,0c1.643,0,3.169,0,4.815,0   c3.286,0,6.576-0.117,9.865-0.353c3.291-0.234,6.576-0.587,9.749-1.29c1.643-0.353,3.289-0.704,4.933-1.175   c0.587-0.234,1.53-0.469,2.234-0.586c0-2.82,0.117-5.642,0.352-8.457c0.117-0.235,0.117-0.591,0.117-0.825   c0.117-1.058,0.234-2.113,0.471-3.17c-0.118,0-0.236,0-0.236,0.117C1070.12,579.768,1067.891,580.589,1065.422,581.176   L1065.422,581.176z"/>
	<path fill="#A48C82" d="M1052.266,540.065c-2.582,2.582-5.402,5.168-8.223,7.52c0.469,0.234,0.825,0.352,1.178,0.469   c1.994,0.704,3.638,0.821,5.754,0.821c1.995,0,3.994-0.234,5.871-1.056c0.939-0.47,1.883-0.942,2.703-1.53   c0.353-0.234,0.587-0.469,0.821-0.704c0.118-0.352,0.354-0.703,0.471-1.056c0.469-1.174,0.938-2.469,1.529-3.643   c1.057-2.586,2.229-5.05,3.403-7.636c1.061-2.582,2.233-5.168,3.173-7.866c0.352-1.061,0.703-2,1.056-3.056   c-1.525,1.525-2.934,3.056-4.463,4.581C1061.192,531.373,1056.846,535.837,1052.266,540.065L1052.266,540.065z"/>
	<path fill="#A48C82" d="M1039.109,546.407c4.816-3.994,9.279-8.224,13.743-12.565c2.82-2.82,5.642-5.759,8.457-8.574   c4.815-4.82,9.515-9.519,13.743-14.804c2.233-2.699,4.346-5.402,6.345-8.223c1.408-1.995,2.699-4.111,4.229-6.106   c0.352-0.938,0.703-1.999,1.056-2.938c-0.47,0.821-0.938,1.53-1.409,2.352c-0.82,1.173-1.528,2.582-2.35,3.76   c-1.761,2.465-3.643,4.934-5.638,7.162c-4.111,4.698-8.81,8.927-13.508,13.039c-4.581,3.993-9.162,8.105-13.86,11.864   c-5.406,4.229-11.043,8.106-17.031,11.514c-7.521,4.229-15.625,7.396-24.083,8.927c-3.755,0.587-7.632,0.821-11.392,0.116   c-3.289-0.708-5.992-2.467-8.223-4.697c-0.82,0.938-1.646,1.994-2.586,2.934c-1.524,1.529-3.285,3.056-5.167,4.347   c0.586,1.407,1.29,2.703,2.233,3.759c2.582,2.703,6.342,3.76,9.866,4.347c4.112,0.704,8.34,0.586,12.452,0.117   c9.982-1.174,19.144-5.872,27.25-11.748C1035.351,549.463,1037.231,547.937,1039.109,546.407L1039.109,546.407z"/>
	<path fill="#B6A399" d="M1091.85,471.821c0.353-4.935,0.353-9.868,0-14.801c-0.234-2.584-0.586-5.167-0.938-7.753   c-0.118-0.939-0.235-1.878-0.235-2.818c-0.234-0.353-0.586-0.822-0.704-1.291c-0.235-0.941-0.47-1.763-0.704-2.703   c-0.47-1.88-0.938-3.758-1.53-5.637c-0.116-0.117-0.116-0.235-0.234-0.353c-4.463,1.057-9.044,1.878-13.508,3.288   c-4.347,1.41-8.692,3.173-12.687,5.522c-7.983,4.581-14.446,11.041-19.497,18.558c-6.814,10.338-11.395,21.849-17.736,32.303   c-2.82,4.581-5.875,9.162-9.396,13.039c-3.407,3.759-7.871,7.4-13.155,7.283c-0.708,3.052-1.412,6.106-2.234,9.045   c-1.995,7.632-5.167,15.385-10.101,21.73c2.23,2.23,4.934,3.989,8.223,4.697c3.76,0.705,7.637,0.471,11.392-0.116   c8.458-1.53,16.563-4.698,24.083-8.927c5.988-3.407,11.625-7.285,17.031-11.514c4.698-3.759,9.279-7.871,13.86-11.864   c4.698-4.112,9.396-8.341,13.508-13.039c1.995-2.229,3.877-4.697,5.638-7.162c0.821-1.178,1.529-2.587,2.35-3.76   c0.471-0.821,0.939-1.53,1.409-2.352c0.117-0.469,0.234-0.82,0.352-1.173c0.822-2.231,1.53-4.463,2.117-6.695   C1090.442,480.865,1091.381,476.402,1091.85,471.821L1091.85,471.821z M1063.073,479.103L1063.073,479.103   c-1.177,4.346-4.933,8.458-9.634,8.81c-5.051,0.352-9.396-4.464-8.807-9.514c0.47-4.111,3.756-9.985,8.572-9.75   c0.707-0.235,1.411-0.352,2.116-0.352C1061.075,467.827,1064.482,473.935,1063.073,479.103L1063.073,479.103z"/>
	<path fill="#B6A399" d="M1301.169,539.714c-2.585-1.765-5.167-3.525-7.753-5.05c-1.173,0.586-2.347,1.173-3.407,1.994   c2.234,0.47,4.467,1.174,6.579,1.882c2.348,0.821,4.699,1.761,7.05,2.935C1302.813,540.887,1301.99,540.301,1301.169,539.714   L1301.169,539.714z"/>
	<path fill="#B6A399" d="M1287.191,531.256c-0.586-0.352-1.294-0.587-1.881-0.938c-0.117,0-0.117,0-0.234-0.117l0,0l0,0l0,0   c0,0,0,0-0.117,0l0,0l0,0l0,0l0,0h-0.117c-0.234-0.117-0.47-0.235-0.705-0.353c-1.994-0.708-4.347-0.826-6.458-1.061   c-3.056-0.234-6.229-0.234-9.279,0c-2.352,0.234-4.468,0.588-6.697,1.061c-1.173,1.643-1.878,3.403-2.23,5.402   c6.342-0.938,12.683-1.295,19.146-0.586c2.934,0.352,5.99,0.703,8.809,1.407c1.175-1.056,2.583-1.995,3.995-2.586   C1290.009,532.664,1288.601,531.961,1287.191,531.256L1287.191,531.256z"/>
	<path fill="#B6A399" d="M1226.463,541.826c0,0.821,0,1.646,0,2.468c4.229-1.29,8.458-2.703,12.687-3.993   c5.872-1.878,11.865-3.524,17.972-4.581c0-0.235,0-0.353,0-0.587c0.234-1.647,0.822-3.289,1.643-4.698   c-7.983,1.995-15.619,5.285-23.256,8.223C1232.57,539.831,1229.519,540.887,1226.463,541.826L1226.463,541.826z"/>
	<path fill="#B6A399" d="M1218.123,543.942c-3.643,0.704-7.401,0.821-11.16,0.47c-1.174,0-2.465-0.118-3.639-0.234   c-0.352,0.469-0.707,0.938-1.06,1.524c-0.47,0.821-0.939,1.647-1.291,2.586c0.234,0,0.469,0.117,0.704,0.117   c1.765,0.235,3.524,0.353,5.285,0.235c3.642-0.117,7.166-0.821,10.69-1.764c2.348-0.588,4.816-1.292,7.167-1.995   c0-0.939,0-1.761,0.118-2.704C1222.704,542.887,1220.475,543.473,1218.123,543.942L1218.123,543.942z"/>
	<path fill="#B6A399" d="M1197.922,543.238c-0.238,0.704-0.474,1.525-0.824,2.229c-0.119,0.587-0.354,1.174-0.588,1.765   c0.822,0,1.761,0.234,2.586,0.47c0.469-1.179,1.174-2.586,2.112-3.76C1200.151,543.707,1198.979,543.473,1197.922,543.238   L1197.922,543.238z"/>
	<path fill="#B6A399" d="M1120.161,525.971c-0.118-0.469-0.118-0.942,0-1.412c0,0,0-0.117,0.116-0.234   c-5.875,0.47-11.863-0.117-17.502-1.995c0,0.234,0,0.47-0.116,0.704c-0.234,0.821-0.353,1.525-0.587,2.234   c-0.356,1.408-0.708,2.815-1.178,4.228c-0.703,2.466-1.525,5.052-2.816,7.398c-0.709,1.29-1.412,2.586-2.233,3.876   c1.29-0.704,2.586-1.056,3.993-0.469c2,0.82,2.352,2.938,2.352,4.815c1.291-1.174,2.935-2.112,4.346-3.056   c2.465-1.877,4.934-3.638,7.163-5.755c2.117-1.759,4.229-3.876,5.637-6.341c0.356-0.59,0.474-0.943,0.708-1.529   c0-0.235,0.118-0.47,0.118-0.704c0.116-0.117,0.116-0.234,0.116-0.234s0-0.117,0-0.235c0-0.234,0-0.586,0-0.821L1120.161,525.971   L1120.161,525.971z"/>
	<path fill="#B6A399" d="M1115.697,562.618c-1.295,0.234-2.468,0.234-3.525,0.352c-1.764,0.234-3.406,0.47-5.167,0.821   c-3.173,0.471-6.462,1.061-9.636,1.296c-2.581,0.117-5.637,0.117-8.57-0.474c1.292,1.881,2.23,3.993,3.168,5.992   c1.413,3.524,2.234,7.167,2.469,10.806c0.117,1.529,0.235,3.056,0.117,4.58c0.235,0.117,0.353,0.117,0.471,0.117   c0.938,0.235,1.877,0.356,2.819,0.471c2.229,0.354,4.464,0.354,6.576,0.354c2.116-0.116,4.347-0.354,6.346-0.825   c0.938-0.234,1.995-0.469,2.816-0.821c0.704-0.234,1.174-0.586,1.764-0.938c-2.703-6.224-3.054-13.391-0.469-19.853   C1115.11,563.791,1115.345,563.204,1115.697,562.618L1115.697,562.618z"/>
	<path fill="#B6A399" d="M1070.236,409.447c0.118,0.118,0.118,0.352,0.118,0.587c0.591,2.116,1.295,4.229,1.764,6.343   c1.761,0.589,3.525,1.411,5.168,2.231c1.408,0.707,2.703,1.646,3.994,2.586c0-1.41,0-2.82-0.117-4.111   c-0.117-2.82-0.234-5.521-0.352-8.34c-0.353-5.402-0.822-10.806-1.647-16.091c-1.408-9.633-3.872-19.147-7.75-28.191   c-0.942,3.759-1.528,7.399-1.882,11.159c-0.469,4.464-0.704,8.927-0.704,13.39c-0.117,4.581,0.118,9.162,0.47,13.743   C1069.532,404.984,1069.886,407.215,1070.236,409.447L1070.236,409.447z"/>
	<path fill="#B6A399" d="M1071.649,561.796c-0.591-2.468-1.178-5.05-1.647-7.518c-0.587,0.469-1.291,0.938-1.877,1.407   c-1.174,0.825-2.352,1.647-3.643,2.352c-1.878,1.056-3.642,1.995-5.754,2.703c-3.407,1.291-7.05,2.112-10.691,2.582   c-3.169,0.352-7.633,0.587-11.392-0.587c0.352,0.821,0.821,1.644,1.056,2.469c1.174,3.051,1.408,6.223,1.643,9.514   c0.118,1.524,0.235,3.055,0.587,4.58c0,0.47,0.122,0.939,0.234,1.526c4.82,1.882,10.575,1.999,15.743,1.765   c3.172-0.235,6.344-0.591,9.514-1.413c2.469-0.587,4.698-1.408,6.931-2.465c0-0.117,0.118-0.117,0.236-0.117   c0.351-2.938,0.938-5.875,1.642-8.691c-0.469-0.943-0.82-1.883-1.056-2.82C1072.589,565.321,1072.118,563.557,1071.649,561.796   L1071.649,561.796z"/>
	<path fill="#B6A399" d="M1025.366,409.212c5.873,2.114,11.983,3.876,17.738,6.46c0.938-0.352,1.998-0.586,2.938-0.822   c-1.882-0.94-3.76-2.114-5.52-3.172c-3.173-1.88-6.346-3.875-9.519-5.754c-5.167-3.172-10.687-6.108-16.324-8.457   c-5.172-2.232-10.574-4.112-16.094-5.405c-2.938-0.705-5.871-1.291-8.81-1.76c-1.173-0.234-2.468-0.472-3.642-0.707   c6.696,5.17,13.978,9.398,21.849,12.804C1013.62,404.984,1019.495,407.098,1025.366,409.212L1025.366,409.212z"/>
	<path fill="#6C4C46" d="M1188.17,554.043c-1.291,0.821-2.465,1.877-3.76,2.82c-1.174,0.822-2.465,1.643-3.759,2.348   c-2.465,1.412-5.285,2.469-8.103,2.82c-3.172,0.352-6.228-0.117-9.161-1.174c0,0-0.591-0.234-0.825-0.234   c0-0.117,0-0.117-0.118-0.117c-0.234-0.117-0.47-0.239-0.704-0.474c-0.821-0.353-1.407-0.821-2.112-1.292   c-3.173-2.112-6.228-4.815-8.574-7.753c-1.061-1.407-1.882-2.699-2.117-4.346c-0.117-0.353-0.117-0.821,0.117-1.408   c0,0.117,0.353-0.47,0.353-0.47c0.234-0.352,0.353-0.586,0.353-0.821c-0.118,0-0.353,0-0.587-0.118   c-1.174,0.939-2.348,1.878-3.638,2.817c-0.592,0.591-1.296,1.061-1.999,1.646c-2.23,1.761-4.347,3.761-6.342,5.755   c-3.877,3.994-7.52,8.458-9.518,13.625c-1.995,5.168-2.229,10.691-0.235,15.859c1.999,5.167,5.876,10.453,11.513,11.865   c0.235,0,0.47,0,0.705,0c6.228-0.122,12.451-2.352,17.854-5.524c11.161-6.576,20.088-16.681,26.781-27.72   c0.117-0.234,0.352-0.469,0.47-0.705c1.529-2.467,2.938-5.05,4.229-7.753C1188.756,553.808,1188.404,553.808,1188.17,554.043   L1188.17,554.043z"/>
	<path fill="#6C4C46" d="M1101.012,508.234c-3.99-8.691-2.934-18.442-1.174-27.487c1.291-6.108,2.938-12.217,3.994-18.325   c0.587-4.109,0.938-8.221,0.704-12.332c-0.117-1.646-0.234-3.173-0.469-4.698c-0.821-5.757-2.465-11.513-5.168-16.681   c-2.351-4.463-5.284-8.457-8.692-11.98c-0.116,0.235-0.116,0.469-0.234,0.705c-0.704,2.936-1.529,6.343-3.29,8.809   c0.705,0.822,1.291,1.646,1.761,2.466c1.764,2.702,3.055,5.757,3.993,8.81c0.474,1.645,0.943,3.29,1.179,4.933   c0.117,0.823,0.352,1.645,0.352,2.466c0.352,1.41,0.586,2.821,0.821,4.346c0.586,2.703,0.939,5.404,1.174,8.223   c0.352,5.05,0.352,10.103-0.117,15.153c-0.587,4.933-1.526,9.868-3.056,14.565c-0.822,2.232-1.643,4.698-2.698,6.928   c0.116,0.235,0.234,0.591,0.116,0.943c-0.704,2.112-1.877,3.993-3.056,5.871c0,0.117,0.117,0.234,0.117,0.352   c0.588,2.82,1.296,5.638,2.938,8.224c1.525,2.23,3.408,4.229,5.755,5.637c4.698,3.056,10.339,4.698,15.976,5.168   c-0.703-0.352-1.407-0.821-1.999-1.409C1106.184,516.218,1102.895,512.581,1101.012,508.234L1101.012,508.234z"/>
	<path fill="#6C4C46" d="M1067.771,536.776c-0.703,1.998-1.407,3.993-2.232,5.992c-0.471,1.291-1.057,2.699-1.526,3.991   c-0.586,1.294-0.939,2.351-2.351,2.938c-0.117,0-0.117,0-0.235,0.117c-0.469,0.352-1.057,0.821-1.525,1.056   c-0.353,0.234-0.821,0.47-1.173,0.708c0.117,0.588,0.234,1.057,0.469,1.644c0.234,0.586,0.587,1.291,0.822,1.878   c0,0.234,0.116,0.469,0.116,0.707c1.057-0.473,2.116-0.942,3.174-1.528c1.173-0.822,2.464-1.644,3.642-2.349   c0.82-0.469,1.643-0.942,2.464-1.177c-0.587-3.403-1.056-6.811-1.408-10.218C1067.891,539.245,1067.891,538.066,1067.771,536.776   L1067.771,536.776z"/>
	<path fill="#6C4C46" d="M1152.462,531.373c0.938,0,1.764-0.117,2.703-0.234c3.759-0.704,7.515-1.644,11.156-2.938   c3.759-1.29,7.284-2.933,10.809-4.933c1.057-0.586,2.112-1.173,3.169-1.878c0-0.942,0.117-1.881,0.239-2.82   c0.352-1.878,0.938-3.642,1.173-5.52c-1.295,1.292-2.469,2.465-3.759,3.642c-0.235,0.234-0.353,0.354-0.471,0.471   c-4.814,4.462-10.104,8.457-15.976,11.156C1158.572,529.609,1155.635,530.669,1152.462,531.373L1152.462,531.373z"/>
	<path fill="#6C4C46" d="M1175.366,528.67c-1.409,0.705-2.817,1.413-4.347,1.999c-3.285,1.409-6.811,2.465-10.218,3.286   c-6.224,1.412-13.272,2.351-19.497,0.592c0,1.173,0.117,2.229,0.234,3.402c0.822,0.117,1.644,0.352,2.465,0.708   c1.408,0.352,2.82,0.704,4.229,0.939c1.646,0.234,3.406,0.469,5.05,0.587c5.523,0.234,11.277,0,16.797-0.938   c1.057-0.119,2.117-0.354,3.174-0.471c0-0.352,0-0.708-0.117-0.942c-0.117-1.761,0-3.404,0.469-5.051   C1173.957,531.256,1174.544,529.965,1175.366,528.67L1175.366,528.67z"/>
	<path fill="#6C4C46" d="M1155.165,508.586c-4.581,3.995-9.396,7.397-14.803,9.983c-2.583,1.291-5.167,2.352-7.866,3.29   c0.116,0,0.234,0,0.234,0c3.168,0,6.341-0.938,9.161-2.116c2.935-1.057,5.754-2.464,8.457-4.111   c5.521-3.286,10.453-7.397,14.799-12.213c2.469-2.703,4.816-5.759,6.933-8.81c0.703-1.178,1.525-2.233,2.229-3.408   c0.822-1.292,1.644-2.702,2.469-3.993c-0.118-1.058-0.353-1.997-0.474-2.938c-0.352-2.232-0.704-4.463-0.938-6.695   c-0.117,0.589-0.353,1.175-0.47,1.645c-0.47,1.527-1.057,2.936-1.643,4.463C1169.142,493.196,1162.918,501.772,1155.165,508.586   L1155.165,508.586z"/>
	<path fill="#6C4C46" d="M1173.957,499.072c-0.117,0.117-0.234,0.352-0.352,0.471c-1.291,1.759-2.586,3.402-3.994,5.05   c-2.82,3.29-5.754,6.224-9.161,8.927c-5.05,4.111-10.571,7.636-16.681,9.982c-2.23,0.822-4.347,1.526-6.693,2   c0.117,0.234,0.353,0.352,0.469,0.586c0.588,0.704,1.291,1.292,1.995,1.761c0.822,0.587,1.882,1.057,2.703,1.761   c1.057-0.234,2.112-0.47,3.057-0.588c1.759-0.352,3.52-0.703,5.284-1.056c3.168-0.704,6.341-1.761,9.279-3.172   c3.994-1.878,7.753-4.347,11.156-7.046c0.939-0.703,1.764-1.53,2.703-2.352c-0.352-1.174-0.703-2.464-0.939-3.759   c-0.234-1.643-0.234-3.403-0.234-5.168C1172.667,503.888,1173.371,501.537,1173.957,499.072L1173.957,499.072z"/>
	<path fill="#6C4C46" d="M1120.631,520.33c9.982-0.938,19.966-5.754,28.071-11.861c9.162-7.05,16.798-16.563,21.027-27.252   c2.585-6.46,3.759-13.155,4.11-19.968c0-0.235,0-0.469,0-0.704c0-1.763,0.117-3.642,0.117-5.521   c-1.055,1.879-2.938,3.407-4.58,4.581c-3.642,2.466-7.52,4.229-11.63,5.757c-8.106,3.053-17.033,5.754-25.96,4.346   c-4.816-0.706-9.279-2.703-12.921-5.991c-4.815-4.229-6.929-10.22-10.805-15.036c-0.117-0.234-0.353-0.352-0.587-0.352   c0.234,1.997,0.353,3.994,0.234,5.991c0,2.232-0.116,4.346-0.47,6.578c-1.529,12.098-6.462,23.963-5.637,36.295   c0.47,5.871,2.582,11.512,6.693,15.858c2,2.112,4.229,3.876,6.933,5.285c1.643,0.821,3.52,1.408,5.285,1.995   C1120.631,520.33,1120.631,520.33,1120.631,520.33L1120.631,520.33z"/>
	<path fill="#6C4C46" d="M1124.037,580.12c-0.825-5.285,0.118-10.452,2.465-15.269c2.469-5.054,6.11-9.4,10.218-13.273   c1.999-1.881,4.233-3.759,6.463-5.641c1.173-0.821,2.229-1.644,3.407-2.465c-1.178-0.234-2.469-0.586-3.642-0.942   c-0.352-0.117-0.587-0.234-0.939-0.353c0,0,0,0-0.117,0c-3.642,2.352-7.166,5.172-10.574,7.871   c-3.168,2.703-6.342,5.637-8.81,9.044c-3.286,4.581-5.402,9.987-5.168,15.859c0.354,5.285,2.469,10.452,6.342,14.212   c2.352,2.351,5.172,4.111,8.223,5.051C1127.914,590.689,1124.976,585.404,1124.037,580.12L1124.037,580.12z"/>
	<path fill="#6C4C46" d="M1066.834,408.743c-1.53-0.234-3.056-0.821-4.582-1.056c-1.646-0.237-3.406-0.472-5.054-0.354   c-1.643,0-3.403,0.118-5.051,0.472c-0.586,0.117-1.056,0.352-1.643,0.469c1.525,1.761,3.056,3.64,4.464,5.52   c4.815-0.117,9.631,0.353,14.212,1.645C1068.359,413.207,1067.537,410.975,1066.834,408.743L1066.834,408.743z"/>
	<path fill="#6C4C46" d="M1030.3,414.851c-0.587,0.939-1.173,1.763-1.643,2.819c-0.469,1.056-0.938,2.349-1.174,3.524   c-0.356,1.409-0.591,2.701-0.591,4.112c0,0.117,0,0.234,0,0.352c1.177-0.823,2.234-1.763,3.407-2.469   c0.118-0.117,0.118-0.234,0.235-0.352c0.586-0.587,1.178-1.056,1.764-1.643c1.408-1.058,2.934-2.114,4.581-2.938   c0.47-0.234,0.939-0.469,1.409-0.704c-2.23-0.704-4.464-1.528-6.576-2.232C1031.239,415.204,1030.77,414.969,1030.3,414.851   L1030.3,414.851z"/>
	<path fill="#7C5D55" d="M1192.634,536.188c-3.643,2.469-7.871,3.995-12.096,5.168c-2.234,0.587-4.347,1.057-6.581,1.412   c-0.938,0.235-1.877,0.353-2.82,0.47c-1.525,0.234-3.051,0.469-4.581,0.586c-3.993,0.47-8.104,0.705-12.095,0.47   c-1.529,0-3.056-0.116-4.702-0.352c0,0.235-0.118,0.47-0.353,0.821c0,0-0.353,0.587-0.353,0.47   c-0.234,0.587-0.234,1.056-0.117,1.408c0.235,1.646,1.057,2.938,2.117,4.346c2.347,2.938,5.401,5.641,8.574,7.753   c0.705,0.471,1.291,0.939,2.112,1.292c0.234,0.234,0.47,0.356,0.704,0.474c0.118,0,0.118,0,0.118,0.117   c0.234,0,0.825,0.234,0.825,0.234c2.934,1.057,5.989,1.525,9.161,1.174c2.817-0.352,5.638-1.408,8.103-2.82   c1.294-0.705,2.585-1.525,3.759-2.348c1.295-0.943,2.469-1.999,3.76-2.82c0.234-0.235,0.586-0.235,0.821-0.353   c1.53-3.172,2.938-6.341,4.111-9.748c0.474-1.174,0.942-2.468,1.295-3.759c0.704-2.117,1.408-4.229,1.878-6.464   c0.117-0.234,0.117-0.469,0.234-0.703C1195.337,534.193,1194.045,535.25,1192.634,536.188L1192.634,536.188z"/>
	<path fill="#7C5D55" d="M1309.979,547.467v-0.117V547.467L1309.979,547.467h-0.118c0,0.118,0,0.118,0,0.118l0,0   c0-0.118,0-0.118,0,0l0,0h-0.116l0,0c0,0.117,0,0.117,0.116,0.234l0,0l0,0l0,0l0,0c0,0,0,0,0,0.117s0-0.352,0-0.117   c0-0.117,0-0.117,0-0.117c0-0.117,0-0.117,0-0.117S1309.861,547.467,1309.979,547.467L1309.979,547.467L1309.979,547.467   L1309.979,547.467L1309.979,547.467z"/>
	<path fill="#7C5D55" d="M1309.392,547.819C1309.745,547.702,1309.627,547.585,1309.392,547.819L1309.392,547.819z"/>
	<path fill="#7C5D55" d="M1309.04,546.407c0,0.116,0,0.116,0,0.116V546.407L1309.04,546.407L1309.04,546.407z"/>
	<path fill="#7C5D55" d="M1192.751,516.335c-4.347,4.347-9.396,8.106-14.799,11.045c-0.822,0.469-1.647,0.82-2.586,1.29   c-0.822,1.295-1.409,2.586-1.761,4.111c-0.469,1.646-0.586,3.29-0.469,5.051c0.117,0.234,0.117,0.591,0.117,0.942   c1.76-0.352,3.406-0.708,5.05-1.177c4.229-1.057,8.223-2.465,11.865-4.581c1.643-0.938,2.934-1.878,4.229-3.169   c0.47-0.473,0.821-0.826,1.057-1.178c0.352-1.525,1.173-2.934,1.76-4.229c0.821-1.643,1.53-3.169,2.233-4.815   c1.291-3.291,2.23-6.811,2.934-10.218c0.592-3.056,0.943-6.106,0.943-9.279v0.117   C1200.856,506.353,1197.332,511.638,1192.751,516.335L1192.751,516.335z"/>
	<path fill="#7C5D55" d="M1196.041,494.254c-1.526,2.938-3.407,5.758-5.52,8.34c-2.703,3.642-5.639,7.167-8.811,10.456   c-0.234,1.878-0.821,3.642-1.173,5.52c-0.122,0.939-0.239,1.878-0.239,2.82c5.759-3.759,10.926-8.457,14.92-13.98   c1.879-2.816,3.76-5.755,5.051-8.928c1.056-3.051,1.877-6.341,2.111-9.748c0-0.118,0-0.235,0-0.47c0.236-3.17,0-6.343-0.586-9.396   c0-0.47-0.117-0.939-0.235-1.41c-0.352,2.349-0.938,4.581-1.643,6.813c-0.587,1.879-1.173,3.876-2.233,5.639   C1197.332,491.319,1196.744,492.845,1196.041,494.254L1196.041,494.254z"/>
	<path fill="#7C5D55" d="M1185.118,479.572c-0.121,0.47-0.355,0.941-0.59,1.293c-2.817,6.461-6.459,12.45-10.571,18.208   c-0.586,2.465-1.29,4.815-1.408,7.397c0,1.765,0,3.525,0.234,5.168c0.236,1.295,0.588,2.585,0.939,3.759   c0.47-0.352,0.821-0.703,1.291-1.174c7.52-7.048,14.451-15.033,19.384-24.076c0-2.352,1.057-4.701,1.644-6.933   c0.703-2.466,1.291-5.05,1.525-7.636c0.469-4.698,0.117-9.631-0.939-14.212c-1.056-4.463-2.465-8.926-4.347-13.155   c-0.821-1.528-1.524-3.172-2.346-4.699c1.056,4.933,1.524,9.983,1.056,15.036c-0.352,3.758-1.174,7.517-2.117,11.159   c-0.469,1.88-1.055,3.877-1.76,5.637c-0.353,0.823-0.587,1.762-0.938,2.586C1185.94,478.516,1185.471,479.103,1185.118,479.572   L1185.118,479.572z"/>
	<path fill="#7C5D55" d="M1176.305,438.108c0.121,0.471,0.238,1.058,0.355,1.527c0.587,2.936,0.939,5.874,1.057,8.692   c0,0.234,0,0.469,0,0.587c0.235,3.525,0.235,7.049,0.118,10.572c-0.118,6.108-0.705,12.217-2.469,18.089   c0.234,2.232,0.587,4.463,0.938,6.695c0.121,0.941,0.355,1.879,0.474,2.938v-0.117c1.995-3.172,3.76-6.343,5.284-9.633   c0.587-1.292,1.057-2.466,1.644-3.758c0-0.237,0.117-0.354,0.117-0.589c0.587-2.231,1.295-4.463,1.765-6.695   c0.938-4.111,1.644-8.34,1.525-12.687c-0.234-11.979-4.934-23.608-11.513-33.593c-3.403-5.05-7.28-9.866-11.743-14.095   c-1.295-1.41-2.703-2.583-4.112-3.876c3.643,5.167,6.811,10.572,9.514,16.209C1172.314,424.717,1174.896,431.177,1176.305,438.108   L1176.305,438.108z"/>
	<path fill="#7C5D55" d="M1169.377,459.604c1.643-1.173,3.525-2.701,4.58-4.581c0-2.819,0-5.639,0-8.458   c-0.117-1.408-0.469-2.819-0.703-4.229c-1.174-5.286-2.703-10.455-4.698-15.388c-3.643-8.927-8.341-17.619-14.33-25.136   c-6.931-8.575-15.507-15.74-25.842-20.203c-12.1-5.17-25.608-5.991-38.646-5.052c0.588,2.938,1.057,5.874,1.409,8.927   c0.82,7.048,1.056,14.449,0.469,21.613c-0.234,2.584-0.586,5.052-1.056,7.636c6.696,4.698,11.278,12.45,13.859,19.968   c1.644,4.347,2.586,8.927,3.056,13.625c0.234,0,0.47,0.117,0.587,0.352c3.876,4.816,5.989,10.807,10.805,15.036   c3.642,3.288,8.104,5.286,12.921,5.991c8.927,1.408,17.854-1.293,25.96-4.346C1161.857,463.832,1165.735,462.07,1169.377,459.604   L1169.377,459.604z"/>
	<path fill="#7C5D55" d="M1149.172,543.824c0.234,0.118,0.469,0.118,0.587,0.118c0.12-0.235,0.12-0.47,0.234-0.704   C1149.641,543.473,1149.406,543.707,1149.172,543.824L1149.172,543.824z"/>
	<path fill="#7C5D55" d="M1146.59,543.473v-0.117c0.586-0.352,1.056-0.708,1.644-1.06   C1147.529,542.413,1147.059,542.887,1146.59,543.473L1146.59,543.473z"/>
	<path fill="#7C5D55" d="M1074.113,346.371c-1.643-2.938-3.402-5.756-5.402-8.457c-1.056-1.411-2.112-2.704-3.055-4.112   c-0.117,0-0.117,0-0.117-0.118c-0.235,3.64-0.939,7.165-1.408,10.807c-0.47,3.757-0.939,7.634-1.174,11.393   c-0.353,7.165,0,14.33,0.821,21.379c0.587,5.52,1.525,11.042,2.699,16.443c-0.113-1.645-0.113-3.405-0.113-5.05   c0-4.58,0.234-9.161,0.587-13.744c0.469-5.05,1.525-9.866,2.816-14.681c0.234-1.059,1.882-1.411,2.468-0.353   c0.117,0.353,0.235,0.587,0.354,0.939c4.697,9.749,7.636,20.32,9.278,31.127c0.938,5.522,1.408,11.159,1.76,16.798   c0.235,2.936,0.356,5.874,0.47,8.81c0.121,1.292,0.239,2.584,0.356,3.994c0.469-1.645,1.057-3.173,1.408-4.698   c0.821-3.173,1.29-6.226,1.526-9.398c1.294-14.33-0.354-29.13-5.052-42.755C1080.106,358.352,1077.403,352.243,1074.113,346.371   L1074.113,346.371z"/>
	<path fill="#7C5D55" d="M1082.219,427.655c-3.055-3.29-6.927-5.639-11.16-7.167c-4.581-1.763-9.514-2.583-14.33-2.583   c-0.469,0-0.82,0-1.291,0c-0.704,0.586-1.76,0.704-2.468,0c-3.638,0.234-7.279,0.821-10.688,1.997   c-2.229,0.704-4.347,1.645-6.462,2.701c-0.235,0.234-0.47,0.352-0.704,0.469c-3.643,3.759-7.867,6.932-11.392,10.689   c-3.76,3.877-6.815,8.106-9.396,12.804c-6.228,11.982-7.637,25.49-8.693,38.763c-0.708,9.042-1.764,18.09-3.289,27.017   c-0.235,1.408-0.587,2.816-0.821,4.111c5.284,0.117,9.748-3.524,13.155-7.283c3.521-3.877,6.576-8.458,9.396-13.039   c6.342-10.454,10.922-21.965,17.736-32.303c5.051-7.517,11.514-13.977,19.497-18.558c3.994-2.349,8.34-4.112,12.687-5.522   c4.464-1.41,9.045-2.231,13.508-3.288c-0.353-1.175-0.821-2.231-1.408-3.29C1085.039,431.177,1083.862,429.298,1082.219,427.655   L1082.219,427.655z"/>
	<polygon fill="#7C5D55" points="1072.235,558.977 1072.235,558.977 1072.235,558.977  "/>
	<path fill="#7C5D55" d="M1048.037,405.69c1.295-0.472,2.703-0.706,3.759-0.941c1.882-0.352,3.877-0.586,5.876-0.586   c1.877,0.117,3.873,0.352,5.755,0.822c0.821,0.234,1.761,0.469,2.581,0.823c-2.229-7.284-3.756-14.684-4.933-22.085   c-0.352,0.119-0.821,0.354-1.174,0.472c-1.056,0.469-1.995,1.056-3.056,1.527c-2.229,1.174-4.462,2.347-6.692,3.757   c-2.116,1.41-4.111,2.818-5.993,4.581c-0.821,0.823-1.643,1.762-2.348,2.701c-0.352,0.471-0.703,1.176-1.056,1.762   c0.235,0.117,0.47,0.352,0.587,0.589C1043.69,401.224,1045.925,403.34,1048.037,405.69L1048.037,405.69z"/>
	<path fill="#7C5D55" d="M1032.768,402.986c3.174,1.879,6.225,3.877,9.397,5.756c2.233,1.292,4.581,2.702,6.58,4.229   c-1.295-1.645-2.703-3.29-4.112-4.815c-2.82-2.938-5.641-5.874-8.691-8.575c-4.938-4.463-10.104-8.34-15.977-11.513   c-5.754-3.171-11.864-5.754-17.972-8.104c-6.697-2.584-13.272-5.287-20.088-7.519c-3.642-1.174-7.28-2.349-10.921-3.171   c-1.647-0.47-3.407-0.821-5.051-1.173c1.173,1.525,2.229,3.053,3.285,4.463c2.352,2.936,4.699,5.872,7.402,8.573   c1.995,2.115,4.111,4.112,6.341,5.991c0.235,0,0.591,0,0.825,0c0.821,0,1.643,0,2.465,0.117c1.53,0.117,3.055,0.353,4.581,0.587   c2.938,0.352,5.876,0.941,8.81,1.528c5.642,1.293,11.044,2.936,16.328,5.05C1021.842,396.878,1027.366,399.698,1032.768,402.986   L1032.768,402.986z"/>
	<path fill="#7C5D55" d="M1032.299,555.686c0.117,0.234,0.354,0.356,0.588,0.591c0.116,0.117,0.116,0.117,0.234,0.234   c-0.118-0.117-0.118-0.117-0.118-0.234C1032.768,556.042,1032.533,555.807,1032.299,555.686L1032.299,555.686z"/>
	<path fill="#351B10" d="M1053.439,487.913c4.701-0.352,8.457-4.464,9.634-8.81c1.409-5.168-1.998-11.276-7.752-10.807   c-0.705,0-1.409,0.117-2.116,0.352c-4.816-0.235-8.103,5.639-8.572,9.75C1044.043,483.449,1048.389,488.264,1053.439,487.913   L1053.439,487.913z M1056.729,471.821L1056.729,471.821c0.117-0.117,0.353-0.235,0.588-0.235c0.355-0.354,1.06-0.354,1.412-0.236   c0.352,0.117,0.703,0.354,0.938,0.588c0.353,0.47,0.353,0.47,0.587,1.056c0.353,0.589,0,1.176-0.234,1.762   c-0.118,0.353-0.471,0.705-0.822,0.939c-0.234,0.117-0.469,0.237-0.703,0.354c-1.413,0.353-2.938-0.823-2.938-2.232   c0-0.588,0.234-1.058,0.47-1.527C1056.26,472.055,1056.494,471.938,1056.729,471.821L1056.729,471.821z"/>
	<path fill="#351B10" d="M1309.274,541.356c-5.284-4.934-11.629-9.044-17.971-12.569c-2.234-1.29-4.581-2.582-7.05-3.168   c-6.223-1.53-12.804-1.646-19.027-0.825c-11.63,1.528-22.317,6.462-33.244,10.456c-5.05,1.761-10.1,3.407-15.385,4.347   c-3.173,0.587-6.462,0.587-9.635,0.352c-2.582-0.117-5.168-0.822-7.867-1.057c0.352-1.294,0.705-2.703,0.939-4.11   c0.703-3.057,1.056-6.229,1.29-9.396c0.587-1.412,1.292-2.821,1.882-4.229c1.526-3.524,2.582-7.401,3.168-11.16   c0.709-3.643,0.943-7.401,0.709-11.157c-0.121-2.82-0.474-5.876-1.412-8.574c0.234-2.117,0.234-4.114,0.117-6.228   c-0.352-5.167-1.526-10.572-3.877-15.271c-0.234-2.701-0.704-5.52-1.291-8.103c-0.939-4.818-2.938-9.516-5.167-13.862   c-1.174-2.231-2.586-4.229-3.995-6.226c-1.055-1.644-2.229-3.17-3.523-4.581c-3.525-10.335-9.632-19.851-16.916-27.837   c-5.167-5.639-11.156-10.807-18.088-14.214c-1.409-1.41-2.938-2.936-4.464-4.229c-7.163-6.343-15.503-11.159-24.548-13.978   c-11.278-3.524-23.377-3.876-35.004-2.701c-2.351-9.633-6.11-18.795-10.926-27.487c-1.76-3.171-3.76-6.226-5.872-9.162   c-1.173-1.527-2.351-3.053-3.524-4.463c-1.291-1.293-2.469-2.583-4.111-3.288c-1.056-0.471-1.878,0.469-1.409,1.409v0.118   c-0.821,1.527-1.056,3.29-1.294,5.05c-0.353,1.997-0.587,3.994-0.821,5.991c-0.588,3.877-1.057,7.636-1.291,11.511   c-0.587,7.167-0.47,14.449,0.234,21.613c0.234,1.997,0.469,4.111,0.705,6.109c-0.705,0.117-1.409,0.469-1.995,0.704   c-1.179,0.354-2.352,0.941-3.524,1.411c-2.587,1.292-5.052,2.584-7.285,4.111c-2.347,1.525-4.463,3.17-6.458,5.05   c-0.939,0.941-1.765,1.879-2.469,2.938c-0.352,0.47-0.704,0.821-0.939,1.291c-3.993-3.407-8.105-6.578-12.569-9.279   c-11.625-7.047-24.664-11.393-37.35-15.857c-4.464-1.645-8.928-3.055-13.513-4.229c-2.347-0.589-4.694-1.058-7.045-1.41   c-1.408-0.235-3.056-0.353-4.464-0.353c-0.351-0.352-0.821-0.705-1.173-1.056c-0.704-0.589-2.352,0-1.883,1.173   c0.117,0.118,0.117,0.353,0.236,0.47c-0.354,0.352-0.354,1.175,0.234,1.41c0.117,0,0.352,0.117,0.586,0.235   c1.295,2.349,2.938,4.581,4.468,6.812c2.229,2.819,4.459,5.757,6.928,8.458c4.347,4.933,9.396,9.396,14.799,13.156   c10.339,7.282,22.083,12.098,33.948,16.327c1.998,0.706,3.993,1.292,5.988,1.997c-1.524,1.763-2.347,4.112-2.934,6.109   c-0.469,1.527-0.703,3.17-0.821,4.698c-0.117,1.293-0.235,2.702,0.235,3.877c-0.939,0.939-1.883,1.88-2.82,2.818   c-3.995,3.995-7.52,8.575-10.22,13.508c-6.696,12.687-7.986,27.252-9.16,41.347c-1.061,12.805-2.704,25.488-5.993,37.939   c-1.408,5.406-3.287,10.81-5.99,15.742c-2.82,5.168-6.579,9.514-10.808,13.508c-0.822,0.704-0.353,1.761,0.473,2.112   c0.118,1.177,0.587,2.352,1.292,3.525c0.938,1.646,2.346,2.938,3.993,4.11c3.29,2.352,7.753,3.29,11.748,3.642   c8.688,0.822,17.498-0.586,25.485-4.11c0.825-0.353,1.647-0.822,2.469-1.175c0,0.236-0.117,0.471-0.117,0.705   c-0.469,1.761-0.587,3.642-0.822,5.402c-0.234,1.529-0.234,3.173-0.234,4.698c0.118,3.876,0.47,7.754,1.174,11.513   c0.587,3.643,1.526,7.519,3.759,10.57c1.174,1.764,3.878,3.876,6.225,3.876c1.057,0.353,2.351,0.47,3.407,0.47   c3.29,0.352,6.693,0.235,10.1,0.117c6.698-0.117,13.392-0.704,19.854-2.465c1.291-0.352,3.052-0.82,4.581-1.646v0.118   c0.234,1.998,0.47,4.111,1.174,6.109c0.587,1.644,1.29,3.761,3.173,4.229c0.234,0.117,0.586,0,0.821-0.117   c0.939,0.703,1.995,1.173,3.056,1.643c3.521,1.291,7.632,1.174,11.273,0.821c8.105-0.703,15.859-3.289,23.612-5.519   c4.225-1.292,8.692-1.879,12.918-3.408c0.355-0.117,0.708-0.353,0.942-0.587c10.452,4.229,22.669,0.47,32.066-5.167   c7.519-4.581,14.095-10.809,19.614-17.854c2.82,0.353,5.641,0,8.34-0.352c3.173-0.471,6.346-0.939,9.4-1.765   c5.989-1.409,11.861-3.521,17.619-5.754c11.509-4.581,22.553-10.336,34.179-14.682c9.161-3.408,18.562-5.993,28.311-6.229   c5.285-0.234,10.687,0.235,15.854,1.178c2.703,0.47,5.29,1.174,7.87,1.877c2.469,0.588,5.169,1.644,7.755,1.526   c0.352,0,0.587-0.117,0.821-0.353c0.117,0,0.234,0,0.234,0c0.234,0,0.469-0.117,0.587-0.234c1.061-0.469,1.647-1.525,1.647-2.699   C1313.27,545.116,1310.918,542.887,1309.274,541.356L1309.274,541.356z M1309.979,547.35L1309.979,547.35v0.117l0,0l0,0l0,0   c-0.118,0-0.118,0.118-0.118,0.118s0,0,0,0.117c0,0,0,0,0,0.117c0-0.234,0,0.234,0,0.117s0-0.117,0-0.117l0,0l0,0l0,0l0,0   c-0.116-0.117-0.116-0.117-0.116-0.234l0,0h0.116l0,0c0-0.118,0-0.118,0,0l0,0c0,0,0,0,0-0.118h0.118l0,0V547.35L1309.979,547.35z    M1309.392,547.819L1309.392,547.819C1309.627,547.585,1309.745,547.702,1309.392,547.819L1309.392,547.819z M1202.381,509.408   L1202.381,509.408c-0.703,3.407-1.643,6.927-2.934,10.218c-0.703,1.646-1.412,3.173-2.233,4.815   c-0.587,1.295-1.408,2.703-1.76,4.229c-0.235,0.352-0.587,0.705-1.057,1.178c-1.295,1.291-2.586,2.23-4.229,3.169   c-3.643,2.116-7.636,3.524-11.865,4.581c-1.644,0.469-3.29,0.825-5.05,1.177c-1.057,0.117-2.117,0.352-3.174,0.471   c-5.52,0.938-11.273,1.173-16.797,0.938c-1.644-0.118-3.404-0.353-5.05-0.587c-1.409-0.235-2.821-0.588-4.229-0.939   c-0.821-0.356-1.643-0.591-2.465-0.708c-0.117-1.173-0.234-2.229-0.234-3.402c6.225,1.759,13.273,0.82,19.497-0.592   c3.407-0.821,6.933-1.877,10.218-3.286c1.529-0.586,2.938-1.294,4.347-1.999c0.938-0.47,1.764-0.821,2.586-1.29   c5.402-2.938,10.452-6.698,14.799-11.045c4.581-4.697,8.105-9.982,10.573-16.089v-0.117   C1203.324,503.302,1202.973,506.353,1202.381,509.408L1202.381,509.408z M1146.59,543.473L1146.59,543.473   c0.469-0.586,0.939-1.06,1.644-1.177c-0.588,0.352-1.058,0.708-1.644,1.06V543.473L1146.59,543.473z M1118.396,557.686   L1118.396,557.686c0,0,0,0-0.117,0c-1.174-0.235-2.229,0.234-3.403,0.586c-1.061,0.234-2.116,0.352-3.056,0.469   c-1.764,0.236-3.524,0.471-5.285,0.705c-2.82,0.47-5.523,0.943-8.34,1.295c-2.938,0.234-6.11,0.352-8.927-0.234   c-2.586-0.591-4.581-1.766-6.345-3.76c-0.588-0.704-1.526-0.47-1.995,0.117c-2.469,0.822-3.525,3.643-4.347,5.872   c-0.352,0.821-0.704,1.644-0.938,2.352c-0.352-1.062-0.591-2.117-0.825-3.173c-0.822-3.525-1.526-7.05-2.113-10.692   c-0.587-3.52-1.056-7.162-1.408-10.687c-0.117-1.761-0.238-3.524-0.238-5.285c0-1.174,0.121-2.703-0.348-3.877   c0.113-1.173,0.348-2.352,0.469-3.524c0.234-0.704,0.353-1.526,0.353-2.347c0.352-1.295,0.703-2.469,0.938-3.643   c0.118-0.938,0.353-1.764,0.469-2.703c2.113-2.347,4.347-4.814,6.342-7.4c1.882-2.466,3.76-4.934,5.523-7.515   c0.939,7.87,7.397,13.858,14.447,16.797c0.234,0.117,0.469,0.234,0.704,0.352c-0.118,0.117-0.235,0.234-0.353,0.47   c-0.352,0.822-0.704,1.525-0.938,2.465c-0.587,1.412-1.173,2.938-1.644,4.463c-0.942,2.234-1.647,4.581-2.82,6.697   c-1.881,3.056-3.876,6.225-5.637,9.397c-1.413,2.585-3.877,6.34-1.882,9.161c1.291,1.877,3.643,2.468,5.872,2.585   c0.355,0,0.708,0,1.061,0c4.111,1.409,8.926,1.058,13.038,0.354c2.934-0.471,5.754-1.296,8.341-2.469   c1.76-0.705,4.697-1.878,5.754-3.76c0.117,0,0.117,0,0.117,0c1.761-1.526,2.938-3.286,4.229-5.168   c1.407-1.995,2.698-4.11,3.876-6.34c1.291-2.117,2.347-4.347,3.289-6.581c0.705-1.878,1.878-4.815,0.705-6.693   c-0.118,0-0.118,0-0.118-0.117c0.235,0,0.353,0,0.47,0c0.587,1.878,2.23,3.286,3.643,4.464c0.352,0.234,0.704,0.469,1.174,0.821   c-0.354,1.174-0.47,2.464-0.47,3.877c0.116,1.525,0.353,3.051,1.29,4.229c-2.347,1.524-4.58,3.285-6.814,4.933   c-2.465,1.877-4.814,3.759-6.928,5.754C1122.626,552.283,1120.277,554.864,1118.396,557.686L1118.396,557.686z M1072.235,558.977   L1072.235,558.977L1072.235,558.977L1072.235,558.977L1072.235,558.977z M1033.121,556.511L1033.121,556.511   c-0.118-0.117-0.118-0.117-0.234-0.234c-0.234-0.234-0.471-0.356-0.588-0.591c0.234,0.121,0.469,0.356,0.704,0.591   c2.582-1.764,5.051-3.642,7.52-5.641c0.821,0.704,1.877,1.06,2.816,1.413c0.938,0.469,2.116,0.703,3.172,0.82   c2.234,0.47,4.464,0.47,6.815,0.234c0.704-0.117,1.407-0.234,2.229-0.469c0.117,0.469,0.353,1.056,0.47,1.525   c0.352,0.704,0.703,1.525,1.173,2.116c0.118,0.117,0.353,0.352,0.474,0.47c-2.938,0.939-5.993,1.643-9.049,2.112   C1043.456,559.68,1037.231,560.032,1033.121,556.511L1033.121,556.511z M1092.789,487.208L1092.789,487.208   c1.529-4.698,2.469-9.633,3.056-14.565c0.469-5.05,0.469-10.103,0.117-15.153c-0.234-2.819-0.588-5.52-1.174-8.223   c-0.235-1.525-0.47-2.937-0.821-4.346c0-0.821-0.234-1.643-0.352-2.466c-0.235-1.643-0.705-3.288-1.179-4.933   c-0.938-3.053-2.229-6.108-3.993-8.81c-0.47-0.821-1.056-1.645-1.761-2.466c1.761-2.466,2.586-5.874,3.29-8.809   c0.118-0.235,0.118-0.47,0.234-0.705c3.408,3.523,6.342,7.517,8.692,11.98c2.703,5.168,4.347,10.924,5.168,16.681   c0.234,1.525,0.352,3.053,0.469,4.698c0.234,4.111-0.117,8.223-0.704,12.332c-1.057,6.108-2.703,12.217-3.994,18.325   c-1.76,9.045-2.816,18.795,1.174,27.487c1.883,4.347,5.172,7.983,8.927,10.687c0.592,0.588,1.296,1.058,1.999,1.409   c-5.637-0.47-11.277-2.112-15.976-5.168c-2.347-1.408-4.229-3.406-5.755-5.637c-1.643-2.586-2.351-5.403-2.938-8.224   c0-0.117-0.117-0.234-0.117-0.352c1.179-1.878,2.352-3.759,3.056-5.871c0.118-0.353,0-0.708-0.116-0.943   C1091.146,491.906,1091.967,489.44,1092.789,487.208L1092.789,487.208z M1054.969,413.793L1054.969,413.793   c-1.408-1.879-2.938-3.759-4.464-5.52c0.587-0.117,1.057-0.352,1.643-0.469c1.647-0.354,3.408-0.472,5.051-0.472   c1.647-0.117,3.408,0.118,5.054,0.354c1.526,0.234,3.052,0.821,4.582,1.056c0.703,2.232,1.525,4.464,2.347,6.695   C1064.6,414.146,1059.784,413.676,1054.969,413.793L1054.969,413.793z M1072.118,416.377L1072.118,416.377   c-0.469-2.114-1.173-4.227-1.764-6.343c0-0.235,0-0.47-0.118-0.587c-0.351-2.231-0.704-4.463-0.938-6.695   c-0.352-4.581-0.587-9.162-0.47-13.743c0-4.463,0.235-8.926,0.704-13.39c0.354-3.759,0.939-7.399,1.882-11.159   c3.878,9.044,6.342,18.558,7.75,28.191c0.825,5.285,1.295,10.689,1.647,16.091c0.117,2.819,0.234,5.52,0.352,8.34   c0.117,1.291,0.117,2.701,0.117,4.111c-1.291-0.94-2.586-1.879-3.994-2.586C1075.644,417.788,1073.879,416.966,1072.118,416.377   L1072.118,416.377z M1125.563,523.736L1125.563,523.736c0.234,0,0.352-0.117,0.587-0.117c1.174,1.057,2.703,1.766,4.229,2l0,0   c-0.705,0.821-0.939,1.761-1.174,2.699c-0.234,1.177-0.586,2.116-0.938,3.172c-0.826,2.112-1.882,4.111-2.938,6.107   c-1.174,1.999-2.352,3.993-3.525,6.109c-0.821,1.409-1.643,2.816-2.112,4.464c-1.061,0-1.998,0.587-2.82,0.939   c-1.174,0.587-2.352,1.056-3.407,1.525c-1.409,0.586-2.699,1.06-4.112,1.53c-0.117-1.062-0.703-2.117-1.524-2.821   c-1.057-0.939-2.352-1.174-3.643-0.939c-0.938,0.118-1.878,0.47-2.582,0.939c0-0.353,0.113-0.821,0.235-1.174   c0.117-0.586,0.117-1.177,0.234-1.764c0-0.47,0.117-0.822,0.117-1.291c0-1.878-0.352-3.995-2.352-4.815   c-1.407-0.587-2.703-0.235-3.993,0.469c0.821-1.29,1.524-2.586,2.233-3.876c1.291-2.347,2.113-4.933,2.816-7.398   c0.47-1.412,0.821-2.819,1.178-4.228c0.234-0.709,0.353-1.413,0.587-2.234c0.116-0.234,0.116-0.47,0.116-0.704   c5.639,1.878,11.627,2.465,17.502,1.995c0.939,0,1.995-0.117,3.057-0.235C1124.037,523.973,1124.859,523.854,1125.563,523.736   L1125.563,523.736z M1099.017,547.115L1099.017,547.115c-0.352,1.877-1.056,3.755-1.408,5.637c0,0.117,0,0.234,0,0.352   c-1.178-1.174-3.29-0.703-4.819-0.703c-0.704,0-1.525-0.117-1.995-0.352c-0.352-0.119-0.352-0.119-0.587-0.354v-0.117   c0-0.238,0.118-0.356,0.118-0.591c0.352-0.821,0.352-0.821,0.704-1.524c0.352-0.705,0.703-1.526,1.056-2.23   c0.825-0.825,1.647-1.53,2.468-2.351c0.821-0.822,2.939-2.938,4.229-2.234C1099.956,543.238,1099.252,546.172,1099.017,547.115   L1099.017,547.115z M1090.207,551.461L1090.207,551.461L1090.207,551.461c-0.116,0-0.116,0-0.116,0   S1090.091,551.461,1090.207,551.461L1090.207,551.461z M1104.067,550.987L1104.067,550.987c0.469-0.117,1.173-0.117,1.643,0.234   c0.474,0.356,0.591,0.944,0.708,1.53c-0.234,0.117-0.355,0.117-0.469,0.117c-1.765,0.353-3.643,0.587-5.523,0.704   C1101.364,552.4,1102.659,551.34,1104.067,550.987L1104.067,550.987z M1065.539,526.91L1065.539,526.91   c1.529-1.525,2.938-3.056,4.463-4.581c-0.353,1.056-0.704,1.995-1.056,3.056c-0.939,2.698-2.112,5.284-3.173,7.866   c-1.174,2.586-2.347,5.05-3.403,7.636c-0.591,1.174-1.061,2.469-1.529,3.643c-0.117,0.353-0.353,0.704-0.471,1.056   c-0.234,0.235-0.469,0.47-0.821,0.704c-0.82,0.588-1.764,1.061-2.703,1.53c-1.877,0.821-3.876,1.056-5.871,1.056   c-2.116,0-3.76-0.117-5.754-0.821c-0.353-0.117-0.709-0.234-1.178-0.469c2.82-2.352,5.641-4.938,8.223-7.52   C1056.846,535.837,1061.192,531.373,1065.539,526.91L1065.539,526.91z M1060.136,555.807L1060.136,555.807   c0-0.238-0.116-0.473-0.116-0.707c-0.235-0.587-0.588-1.292-0.822-1.878c-0.234-0.587-0.352-1.056-0.469-1.644   c0.352-0.238,0.82-0.474,1.173-0.708c0.469-0.234,1.057-0.704,1.525-1.056c0.118-0.117,0.118-0.117,0.235-0.117   c1.411-0.587,1.765-1.644,2.351-2.938c0.47-1.292,1.056-2.7,1.526-3.991c0.825-1.999,1.529-3.994,2.232-5.992   c0.119,1.29,0.119,2.469,0.235,3.759c0.353,3.407,0.821,6.814,1.408,10.218c-0.821,0.234-1.644,0.708-2.464,1.177   c-1.178,0.705-2.469,1.526-3.642,2.349C1062.252,554.864,1061.192,555.334,1060.136,555.807L1060.136,555.807z M1202.381,488.264   L1202.381,488.264c0,0.235,0,0.352,0,0.47c-0.234,3.407-1.056,6.697-2.111,9.748c-1.291,3.173-3.172,6.111-5.051,8.928   c-3.994,5.523-9.161,10.222-14.92,13.98c-1.057,0.705-2.112,1.292-3.169,1.878c-3.524,2-7.05,3.643-10.809,4.933   c-3.642,1.295-7.397,2.234-11.156,2.938c-0.939,0.117-1.765,0.234-2.703,0.234c3.173-0.704,6.11-1.764,9.044-3.055   c5.871-2.699,11.161-6.694,15.976-11.156c0.118-0.117,0.235-0.236,0.471-0.471c1.29-1.177,2.464-2.35,3.759-3.642   c3.172-3.289,6.107-6.814,8.811-10.456c2.112-2.582,3.993-5.402,5.52-8.34c0.703-1.409,1.291-2.935,1.643-4.344   c1.061-1.763,1.646-3.76,2.233-5.639c0.704-2.232,1.291-4.463,1.643-6.813c0.118,0.471,0.235,0.94,0.235,1.41   C1202.381,481.921,1202.617,485.094,1202.381,488.264L1202.381,488.264z M1192.28,448.21L1192.28,448.21   c1.882,4.229,3.291,8.692,4.347,13.155c1.057,4.581,1.408,9.514,0.939,14.212c-0.234,2.586-0.822,5.169-1.525,7.636   c-0.587,2.232-1.644,4.581-1.644,6.933c-4.933,9.043-11.864,17.028-19.384,24.076c-0.47,0.471-0.821,0.822-1.291,1.174   c-0.939,0.821-1.764,1.648-2.703,2.352c-3.403,2.699-7.162,5.168-11.156,7.046c-2.938,1.411-6.111,2.468-9.279,3.172   c-1.765,0.353-3.525,0.704-5.284,1.056c-0.944,0.118-2,0.354-3.057,0.588c-0.821-0.704-1.881-1.174-2.703-1.761   c-0.704-0.469-1.407-1.057-1.995-1.761c-0.116-0.234-0.352-0.352-0.469-0.586c2.347-0.474,4.463-1.178,6.693-2   c6.109-2.347,11.631-5.871,16.681-9.982c3.407-2.703,6.341-5.637,9.161-8.927c1.408-1.647,2.703-3.291,3.994-5.05   c0.117-0.119,0.234-0.354,0.352-0.471c4.112-5.758,7.754-11.747,10.571-18.208c0.234-0.352,0.469-0.823,0.59-1.293   c0.353-0.469,0.822-1.056,1.057-1.643c0.352-0.824,0.586-1.763,0.938-2.586c0.705-1.76,1.291-3.757,1.76-5.637   c0.943-3.642,1.766-7.401,2.117-11.159c0.469-5.052,0-10.103-1.056-15.036C1190.756,445.038,1191.459,446.683,1192.28,448.21   L1192.28,448.21z M1163.857,406.042L1163.857,406.042c4.463,4.229,8.34,9.045,11.743,14.095   c6.579,9.985,11.278,21.613,11.513,33.593c0.118,4.347-0.587,8.576-1.525,12.687c-0.47,2.231-1.178,4.463-1.765,6.695   c0,0.235-0.117,0.352-0.117,0.589c-0.587,1.292-1.057,2.466-1.644,3.758c-1.524,3.29-3.289,6.46-5.284,9.633v0.117   c-0.825,1.291-1.646,2.702-2.469,3.993c-0.704,1.175-1.526,2.23-2.229,3.408c-2.116,3.051-4.464,6.106-6.933,8.81   c-4.346,4.815-9.278,8.927-14.799,12.213c-2.703,1.647-5.522,3.055-8.457,4.111c-2.82,1.178-5.993,2.116-9.161,2.116   c0,0-0.118,0-0.234,0c2.699-0.938,5.283-1.999,7.866-3.29c5.406-2.586,10.222-5.988,14.803-9.983   c7.753-6.813,13.977-15.39,18.089-24.903c0.586-1.527,1.173-2.936,1.643-4.463c0.117-0.47,0.353-1.056,0.47-1.645   c1.764-5.872,2.351-11.98,2.469-18.089c0.117-3.523,0.117-7.047-0.118-10.572c0-0.118,0-0.353,0-0.587   c-0.117-2.818-0.47-5.756-1.057-8.692c-0.117-0.469-0.234-1.056-0.355-1.527c-1.408-6.931-3.99-13.391-7.046-19.734   c-2.703-5.637-5.871-11.042-9.514-16.209C1161.154,403.458,1162.563,404.631,1163.857,406.042L1163.857,406.042z M1128.384,381.61   L1128.384,381.61c10.335,4.463,18.911,11.628,25.842,20.203c5.989,7.517,10.688,16.209,14.33,25.136   c1.995,4.933,3.524,10.103,4.698,15.388c0.234,1.41,0.586,2.82,0.703,4.229c0,2.818,0,5.639,0,8.458   c0,1.879-0.117,3.759-0.117,5.521c0,0.235,0,0.469,0,0.704c-0.352,6.813-1.525,13.508-4.11,19.968   c-4.229,10.689-11.865,20.202-21.027,27.252c-8.105,6.107-18.089,10.923-28.071,11.861c0,0,0,0-0.117,0   c-1.766-0.587-3.643-1.174-5.285-1.995c-2.703-1.409-4.933-3.173-6.933-5.285c-4.111-4.347-6.224-9.987-6.693-15.858   c-0.825-12.332,4.107-24.197,5.637-36.295c0.354-2.232,0.47-4.346,0.47-6.578c0.118-1.997,0-3.994-0.234-5.991   c-0.47-4.698-1.412-9.279-3.056-13.625c-2.581-7.519-7.163-15.27-13.859-19.968c0.47-2.584,0.821-5.052,1.056-7.636   c0.587-7.165,0.352-14.565-0.469-21.613c-0.353-3.053-0.821-5.989-1.409-8.927C1102.775,375.619,1116.284,376.44,1128.384,381.61   L1128.384,381.61z M1062.957,355.885L1062.957,355.885c0.234-3.759,0.704-7.636,1.174-11.393c0.469-3.642,1.173-7.167,1.408-10.807   c0,0.118,0,0.118,0.117,0.118c0.942,1.408,1.999,2.701,3.055,4.112c2,2.701,3.76,5.519,5.402,8.457   c3.29,5.872,5.993,11.98,8.223,18.324c4.698,13.625,6.346,28.426,5.052,42.755c-0.236,3.172-0.705,6.226-1.526,9.398   c-0.352,1.525-0.939,3.053-1.408,4.698c-0.117-1.41-0.235-2.702-0.356-3.994c-0.113-2.936-0.234-5.874-0.47-8.81   c-0.352-5.639-0.821-11.275-1.76-16.798c-1.643-10.807-4.581-21.378-9.278-31.127c-0.118-0.352-0.236-0.586-0.354-0.939   c-0.586-1.058-2.233-0.706-2.468,0.353c-1.291,4.815-2.348,9.631-2.816,14.681c-0.353,4.583-0.587,9.164-0.587,13.744   c0,1.646,0,3.406,0.113,5.05c-1.174-5.402-2.112-10.923-2.699-16.443C1062.957,370.214,1062.604,363.05,1062.957,355.885   L1062.957,355.885z M1041.813,396.761L1041.813,396.761c0.705-0.939,1.526-1.878,2.348-2.701c1.882-1.763,3.877-3.171,5.993-4.581   c2.23-1.41,4.463-2.583,6.692-3.757c1.061-0.471,2-1.058,3.056-1.527c0.353-0.117,0.822-0.353,1.174-0.472   c1.177,7.401,2.703,14.801,4.933,22.085c-0.82-0.354-1.76-0.589-2.581-0.823c-1.882-0.47-3.878-0.705-5.755-0.822   c-1.999,0-3.994,0.235-5.876,0.586c-1.056,0.235-2.464,0.47-3.759,0.941c-2.112-2.35-4.347-4.466-6.693-6.578   c-0.117-0.237-0.352-0.472-0.587-0.589C1041.109,397.937,1041.461,397.232,1041.813,396.761L1041.813,396.761z M976.621,381.138   L976.621,381.138c-2.703-2.701-5.051-5.637-7.402-8.573c-1.056-1.411-2.112-2.938-3.285-4.463c1.644,0.352,3.403,0.704,5.051,1.173   c3.641,0.822,7.279,1.997,10.921,3.171c6.815,2.231,13.391,4.935,20.088,7.519c6.107,2.349,12.218,4.933,17.972,8.104   c5.872,3.172,11.039,7.05,15.977,11.513c3.051,2.701,5.871,5.637,8.691,8.575c1.409,1.525,2.817,3.17,4.112,4.815   c-1.999-1.527-4.347-2.938-6.58-4.229c-3.173-1.879-6.224-3.877-9.397-5.756c-5.401-3.288-10.926-6.108-16.797-8.575   c-5.284-2.115-10.687-3.757-16.328-5.05c-2.934-0.587-5.872-1.176-8.81-1.528c-1.526-0.234-3.051-0.47-4.581-0.587   c-0.822-0.117-1.644-0.117-2.465-0.117c-0.234,0-0.59,0-0.825,0C980.732,385.25,978.616,383.253,976.621,381.138L976.621,381.138z    M1025.366,409.212L1025.366,409.212c-5.871-2.115-11.746-4.229-17.383-6.813c-7.871-3.405-15.152-7.634-21.849-12.804   c1.174,0.235,2.469,0.472,3.642,0.707c2.938,0.469,5.872,1.056,8.81,1.76c5.52,1.293,10.922,3.173,16.094,5.405   c5.638,2.349,11.157,5.285,16.324,8.457c3.173,1.88,6.346,3.875,9.519,5.754c1.76,1.059,3.638,2.232,5.52,3.172   c-0.939,0.235-1.999,0.47-2.938,0.822C1037.35,413.089,1031.239,411.327,1025.366,409.212L1025.366,409.212z M1026.893,425.306   L1026.893,425.306c0-1.411,0.234-2.703,0.591-4.112c0.235-1.175,0.705-2.469,1.174-3.524c0.47-1.056,1.056-1.88,1.643-2.819   c0.47,0.118,0.939,0.353,1.413,0.47c2.112,0.704,4.346,1.528,6.576,2.232c-0.47,0.235-0.939,0.469-1.409,0.704   c-1.647,0.824-3.173,1.88-4.581,2.938c-0.586,0.587-1.178,1.056-1.764,1.643c-0.117,0.118-0.117,0.235-0.235,0.352   c-1.173,0.706-2.23,1.646-3.407,2.469C1026.893,425.541,1026.893,425.423,1026.893,425.306L1026.893,425.306z M1005.988,562.735   L1005.988,562.735c-4.112,0.469-8.34,0.587-12.452-0.117c-3.524-0.587-7.284-1.644-9.866-4.347   c-0.943-1.056-1.647-2.352-2.233-3.759c1.882-1.291,3.643-2.817,5.167-4.347c0.939-0.939,1.766-1.995,2.586-2.934   c4.934-6.346,8.105-14.099,10.101-21.73c0.822-2.938,1.526-5.993,2.234-9.045c0.234-1.295,0.586-2.703,0.821-4.111   c1.525-8.927,2.581-17.975,3.289-27.017c1.057-13.273,2.466-26.781,8.693-38.763c2.581-4.698,5.637-8.927,9.396-12.804   c3.524-3.757,7.749-6.93,11.392-10.689c0.234-0.117,0.469-0.235,0.704-0.469c2.115-1.056,4.232-1.997,6.462-2.701   c3.408-1.176,7.05-1.763,10.688-1.997c0.708,0.704,1.764,0.586,2.468,0c0.471,0,0.822,0,1.291,0c4.816,0,9.749,0.821,14.33,2.583   c4.233,1.528,8.105,3.877,11.16,7.167c1.644,1.643,2.82,3.522,3.877,5.52c0.587,1.058,1.056,2.115,1.408,3.29   c0.118,0.118,0.118,0.235,0.234,0.353c0.592,1.879,1.061,3.757,1.53,5.637c0.234,0.94,0.469,1.762,0.704,2.703   c0.118,0.469,0.47,0.938,0.704,1.291c0,0.94,0.117,1.879,0.235,2.818c0.352,2.586,0.703,5.169,0.938,7.753   c0.353,4.933,0.353,9.866,0,14.801c-0.469,4.581-1.407,9.044-2.698,13.508c-0.587,2.232-1.295,4.464-2.117,6.695   c-0.117,0.353-0.234,0.704-0.352,1.173c-0.353,0.939-0.704,2-1.056,2.938c-1.53,1.995-2.821,4.111-4.229,6.106   c-1.999,2.82-4.111,5.523-6.345,8.223c-4.229,5.285-8.928,9.983-13.743,14.804c-2.815,2.815-5.637,5.754-8.457,8.574   c-4.464,4.342-8.927,8.571-13.743,12.565c-1.878,1.529-3.759,3.056-5.871,4.58C1025.132,556.863,1015.971,561.562,1005.988,562.735   L1005.988,562.735z M1069.415,591.632L1069.415,591.632c-1.644,0.471-3.29,0.822-4.933,1.175c-3.173,0.703-6.458,1.056-9.749,1.29   c-3.289,0.235-6.579,0.353-9.865,0.353c-1.646,0-3.173,0-4.815,0c-1.882,0-3.877-0.353-5.642,0   c-0.234-0.117-0.469-0.234-0.704-0.234c-0.117,0-0.117-0.118-0.117-0.118l0,0h-0.117c-0.117,0-0.234-0.116-0.352-0.234   c-0.939-0.47-1.647-1.525-2.352-2.582c-0.821-1.412-1.174-2.469-1.643-4.11c-0.587-1.766-0.938-3.643-1.174-5.524   c-0.47-2.935-0.704-6.458-0.826-9.748c0-1.409,0-2.938,0.122-4.347c0.234-1.644,0.47-3.172,0.704-4.815   c0.235-1.056,0.47-2.347,0.235-3.524c0.703-0.353,1.407-0.822,1.995-1.174c0.469,0.939,1.056,1.761,1.881,2.352   c1.174,1.173,2.817,1.877,4.581,2.347c3.759,1.174,8.223,0.938,11.392,0.587c3.642-0.47,7.284-1.291,10.691-2.582   c2.112-0.708,3.876-1.647,5.754-2.703c1.291-0.704,2.469-1.526,3.643-2.352c0.586-0.469,1.29-0.938,1.877-1.407   c0.47,2.468,1.057,5.05,1.647,7.518c0.469,1.761,0.939,3.525,1.525,5.286c0.235,0.938,0.587,1.877,1.056,2.82   c-0.703,2.816-1.291,5.754-1.642,8.691c-0.236,1.057-0.354,2.112-0.471,3.17c0,0.234,0,0.59-0.117,0.825   c-0.234,2.815-0.352,5.637-0.352,8.457C1070.945,591.163,1070.002,591.397,1069.415,591.632L1069.415,591.632z M1116.284,596.918   L1116.284,596.918c-1.174,0.352-2.352,0.704-3.643,1.056c-3.642,1.174-7.283,2.234-10.926,3.173   c-4.107,1.174-8.336,2.112-12.447,2.464c-1.881,0.235-3.759,0.352-5.642,0.235c-1.291-0.118-2.934-0.587-4.111-1.174   c-0.704-0.352-1.29-0.703-1.878-1.291c-0.116-0.117-0.352-0.352-0.587-0.587c0-0.352-0.117-0.586-0.234-0.938   c-0.352-1.765-0.703-3.643-0.82-5.406c-0.235-4.111-0.118-8.224,0.352-12.33c0.352-3.76,1.056-7.519,1.878-11.161   c0.586-2.116,1.173-4.229,1.999-6.224c0.469-1.061,1.056-2.233,1.525-3.408c0.117-0.117,0.117-0.234,0.234-0.352   c1.525,1.995,4.111,3.051,6.814,3.639l0,0c2.934,0.591,5.989,0.591,8.57,0.474c3.174-0.235,6.463-0.825,9.636-1.296   c1.761-0.352,3.403-0.587,5.167-0.821c1.058-0.117,2.23-0.117,3.525-0.352c-0.353,0.586-0.587,1.173-0.821,1.878   c-2.585,6.462-2.234,13.629,0.469,19.853c0.471,1.173,1.174,2.351,1.879,3.524c1.643,2.699,3.876,5.168,6.579,7.163   C1121.217,595.51,1118.748,596.33,1116.284,596.918L1116.284,596.918z M1123.682,589.164L1123.682,589.164   c-3.873-3.76-5.988-8.927-6.342-14.212c-0.234-5.872,1.882-11.278,5.168-15.859c2.468-3.407,5.642-6.341,8.81-9.044   c3.408-2.699,6.933-5.52,10.574-7.871c0.117,0,0.117,0,0.117,0c0.353,0.118,0.588,0.235,0.939,0.353   c1.173,0.356,2.464,0.708,3.642,0.942c-1.178,0.821-2.234,1.644-3.407,2.465c-2.229,1.882-4.464,3.76-6.463,5.641   c-4.107,3.873-7.749,8.22-10.218,13.273c-2.347,4.816-3.29,9.983-2.465,15.269c0.938,5.284,3.877,10.569,7.867,14.095   C1128.854,593.275,1126.033,591.515,1123.682,589.164L1123.682,589.164z M1157.512,589.868L1157.512,589.868   c-5.402,3.173-11.626,5.402-17.854,5.524c-0.235,0-0.47,0-0.705,0c-5.637-1.412-9.514-6.698-11.513-11.865   c-1.994-5.168-1.76-10.691,0.235-15.859c1.998-5.167,5.641-9.631,9.518-13.625c1.995-1.994,4.111-3.994,6.342-5.755   c0.703-0.586,1.407-1.056,1.999-1.646c1.29-0.939,2.464-1.878,3.638-2.817c0.234-0.117,0.469-0.352,0.821-0.586   c-0.114,0.234-0.114,0.469-0.234,0.704c1.646,0.235,3.173,0.352,4.702,0.352c3.99,0.235,8.102,0,12.095-0.47   c1.53-0.117,3.056-0.352,4.581-0.586c0.943-0.117,1.883-0.234,2.82-0.47c2.234-0.355,4.347-0.825,6.581-1.412   c4.225-1.173,8.453-2.699,12.096-5.168c1.411-0.938,2.703-1.995,3.876-3.172c-0.117,0.234-0.117,0.469-0.234,0.703   c-0.47,2.234-1.174,4.347-1.878,6.464c-0.353,1.291-0.821,2.585-1.295,3.759c-1.174,3.407-2.581,6.576-4.111,9.748   c-1.291,2.703-2.699,5.286-4.229,7.753c-0.118,0.236-0.353,0.471-0.47,0.705C1177.6,573.188,1168.673,583.292,1157.512,589.868   L1157.512,589.868z M1194.045,569.785L1194.045,569.785c-2.351,0.586-4.702,0.938-7.049,1.29c-1.174,0.234-2.468,0.234-3.642,0.352   c1.643-2.229,3.289-4.698,4.698-7.165c2.82-4.464,5.284-9.28,7.284-14.33c0.469-0.939,0.821-1.761,1.173-2.699   c0.234-0.591,0.469-1.178,0.588-1.765c0.351-0.704,0.586-1.525,0.824-2.229c1.057,0.234,2.229,0.469,3.286,0.704   c-0.938,1.174-1.644,2.581-2.112,3.76c0,0,0,0.117-0.117,0.117c-0.47,1.173-0.821,2.347-1.178,3.521   c-0.353,1.412-0.587,2.938-0.587,4.346c-0.116,2.586,0.234,5.172,1.057,7.519c0.474,1.175,1.06,2.352,1.765,3.29   c0.234,0.471,0.586,1.057,1.056,1.525C1198.744,568.724,1196.393,569.315,1194.045,569.785L1194.045,569.785z M1207.905,565.673   L1207.905,565.673c-1.412,0.587-2.821,1.056-4.229,1.526c-0.47-0.587-1.06-1.057-1.53-1.644c-0.704-0.821-1.173-1.882-1.643-2.938   c-0.822-2.229-1.057-4.581-1.057-6.933c0.117-1.29,0.234-2.464,0.47-3.756c0.234-1.06,0.587-1.998,0.939-3.055   c0-0.234,0.117-0.47,0.117-0.587c0.352-0.938,0.821-1.765,1.291-2.586c0.353-0.586,0.708-1.056,1.06-1.524   c1.174,0.116,2.465,0.234,3.639,0.234c3.759,0.352,7.518,0.234,11.16-0.47c2.352-0.47,4.581-1.056,6.815-1.765   c-0.118,0.943-0.118,1.765-0.118,2.704c0.118,1.29,0.353,2.703,0.587,3.993c0.118,0.352,0.235,0.822,0.353,1.174   c0.586,1.881,1.29,3.642,2.112,5.285c0.234,0.586,0.469,1.06,0.704,1.647C1221.765,560.032,1214.95,563.204,1207.905,565.673   L1207.905,565.673z M1234.1,554.396L1234.1,554.396c-1.178,0.586-2.352,1.173-3.524,1.646c-0.704-1.529-1.526-2.938-2.116-4.581   c-0.47-1.061-0.821-2.116-1.175-3.173c-0.352-1.294-0.704-2.586-0.821-3.994c0-0.821,0-1.646,0-2.468   c3.056-0.939,6.107-1.995,9.045-3.169c7.637-2.938,15.272-6.228,23.256-8.223c-0.82,1.409-1.408,3.051-1.643,4.698   c0,0.234,0,0.352,0,0.587c-0.235,1.291-0.235,2.703-0.117,3.994c0,0.352,0.117,0.704,0.117,0.938   c0.118,0.938,0.234,1.878,0.47,2.703c0.117,0.587,0.117,1.174,0.353,1.761C1249.838,547.467,1241.853,550.987,1234.1,554.396   L1234.1,554.396z M1269.573,542.413L1269.573,542.413c-3.056,0.474-6.111,1.177-9.162,1.999c0-1.174-0.469-2.469-0.703-3.408   c0-0.586-0.123-1.173-0.236-1.759c0-1.062-0.121-2.117,0-3.174c0-0.234,0-0.587,0-0.821c0.353-1.999,1.058-3.76,2.23-5.402   c2.229-0.473,4.346-0.826,6.697-1.061c3.051-0.234,6.224-0.234,9.279,0c2.111,0.234,4.464,0.353,6.458,1.061   c0.235,0.117,0.471,0.235,0.705,0.353h0.117l0,0l0,0l0,0l0,0c0.117,0,0.117,0,0.117,0l0,0l0,0l0,0   c0.117,0.117,0.117,0.117,0.234,0.117c0.587,0.352,1.295,0.587,1.881,0.938c1.409,0.705,2.817,1.408,4.229,2.229   c-1.412,0.591-2.82,1.53-3.995,2.586c-0.351,0.234-0.703,0.587-0.938,0.939c-0.704,0.704-1.295,1.412-1.766,2.234   c-0.234,0.469-0.469,0.82-0.703,1.29c-0.117,0.234-0.352,0.703-0.47,1.056C1278.852,541.475,1274.271,541.709,1269.573,542.413   L1269.573,542.413z M1301.404,544.178L1301.404,544.178c-3.524-0.822-7.05-1.53-10.57-2c-1.647-0.234-3.408-0.352-5.05-0.469   c0.352-0.705,0.821-1.408,1.291-1.995c0.235-0.469,0.587-0.822,0.821-1.174c0.704-0.708,1.408-1.295,2.112-1.882   c1.061-0.821,2.234-1.408,3.407-1.994c2.586,1.524,5.168,3.285,7.753,5.05c0.821,0.587,1.644,1.173,2.469,1.761l0,0   c1.761,1.294,3.286,2.703,4.815,4.228c0.117,0.235,0.235,0.353,0.353,0.47c0,0,0.117,0.235,0.234,0.235l0,0v0.116l0,0   c0.117,0.118,0.352,0.354,0.47,0.592c-0.939-0.592-1.882-0.943-2.821-1.295c-1.642-0.587-3.285-1.057-4.933-1.526   C1301.639,544.294,1301.521,544.294,1301.404,544.178L1301.404,544.178z"/>
</g>
</svg>